<svg width="760" height="755" viewBox="0 0 760 755" fill="none" xmlns="http://www.w3.org/2000/svg">
<path d="M760 754.5L-4.52995e-05 754.5L136.72 0.499971L760 0.499971L760 754.5Z" fill="#EAFCFC"/>
<path d="M600.925 667.753H557.183V753.249H600.925V667.753Z" fill="#DCEAF9"/>
<path d="M185.375 297.148H229.997V281.65H185.375V297.148Z" fill="#EBF2F9"/>
<path d="M185.375 326.27H229.997V310.767H185.375V326.27Z" fill="#EBF2F9"/>
<path d="M185.375 352.469H229.997V336.971H185.375V352.469Z" fill="#EBF2F9"/>
<path d="M518.757 462.694H466.889V486.619H518.757V462.694Z" fill="#EBF2F9"/>
<path d="M518.757 536.137H467.383V560.062H518.757V536.137Z" fill="#EBF2F9"/>
<path d="M518.757 572.28H467.383V596.206H518.757V572.28Z" fill="#EBF2F9"/>
<path d="M149.929 336.971H102.994V352.469H149.929V336.971Z" fill="#EBF2F9"/>
<path d="M149.929 311.006H102.994V326.509H149.929V311.006Z" fill="#EBF2F9"/>
<path d="M231.131 362.371H102.994V377.874H231.131V362.371Z" fill="#EBF2F9"/>
<path d="M231.131 385.679H102.994V401.182H231.131V385.679Z" fill="#EBF2F9"/>
<path d="M231.131 408.827H102.994V423.734H231.131V408.827Z" fill="#EBF2F9"/>
<path d="M518.757 499.993H467.383V523.918H518.757V499.993Z" fill="#EBF2F9"/>
<path d="M310.732 438.774H299.518V453.766H310.732V438.774Z" fill="#EBF2F9"/>
<path d="M289.763 438.774H278.548V453.766H289.763V438.774Z" fill="#EBF2F9"/>
<path d="M269.259 438.774H258.045V453.766H269.259V438.774Z" fill="#EBF2F9"/>
<path d="M249.823 438.774H238.608V453.766H249.823V438.774Z" fill="#EBF2F9"/>
<path d="M230.014 438.774H218.8V453.766H230.014V438.774Z" fill="#EBF2F9"/>
<path d="M209.971 438.774H198.756V453.766H209.971V438.774Z" fill="#EBF2F9"/>
<path d="M189.001 438.774H177.787V453.766H189.001V438.774Z" fill="#EBF2F9"/>
<path d="M168.503 438.774H157.288V453.766H168.503V438.774Z" fill="#EBF2F9"/>
<path d="M149.06 438.774H137.845V453.766H149.06V438.774Z" fill="#EBF2F9"/>
<path d="M129.252 438.774H118.037V453.766H129.252V438.774Z" fill="#EBF2F9"/>
<path d="M108.602 438.774H97.387V453.766H108.602V438.774Z" fill="#EBF2F9"/>
<path d="M87.6317 438.774H76.4171V453.766H87.6317V438.774Z" fill="#EBF2F9"/>
<path d="M310.732 465.233H299.518V480.225H310.732V465.233Z" fill="#EBF2F9"/>
<path d="M289.763 465.233H278.548V480.225H289.763V465.233Z" fill="#EBF2F9"/>
<path d="M269.259 465.233H258.045V480.225H269.259V465.233Z" fill="#EBF2F9"/>
<path d="M249.823 465.233H238.608V480.225H249.823V465.233Z" fill="#EBF2F9"/>
<path d="M230.014 465.233H218.8V480.225H230.014V465.233Z" fill="#EBF2F9"/>
<path d="M209.971 465.233H198.756V480.225H209.971V465.233Z" fill="#EBF2F9"/>
<path d="M189.001 465.233H177.787V480.225H189.001V465.233Z" fill="#EBF2F9"/>
<path d="M168.503 465.233H157.288V480.225H168.503V465.233Z" fill="#EBF2F9"/>
<path d="M149.06 465.233H137.845V480.225H149.06V465.233Z" fill="#EBF2F9"/>
<path d="M129.252 465.233H118.037V480.225H129.252V465.233Z" fill="#EBF2F9"/>
<path d="M108.602 465.233H97.387V480.225H108.602V465.233Z" fill="#EBF2F9"/>
<path d="M87.6317 465.233H76.4171V480.225H87.6317V465.233Z" fill="#EBF2F9"/>
<path d="M67.1336 465.233H55.9191V480.225H67.1336V465.233Z" fill="#EBF2F9"/>
<path d="M310.732 491.283H299.518V506.275H310.732V491.283Z" fill="#EBF2F9"/>
<path d="M289.763 491.283H278.548V506.275H289.763V491.283Z" fill="#EBF2F9"/>
<path d="M269.259 491.283H258.045V506.275H269.259V491.283Z" fill="#EBF2F9"/>
<path d="M249.823 491.283H238.608V506.275H249.823V491.283Z" fill="#EBF2F9"/>
<path d="M230.014 491.283H218.8V506.275H230.014V491.283Z" fill="#EBF2F9"/>
<path d="M209.971 491.283H198.756V506.275H209.971V491.283Z" fill="#EBF2F9"/>
<path d="M189.001 491.283H177.787V506.275H189.001V491.283Z" fill="#EBF2F9"/>
<path d="M168.503 491.283H157.288V506.275H168.503V491.283Z" fill="#EBF2F9"/>
<path d="M149.06 491.283H137.845V506.275H149.06V491.283Z" fill="#EBF2F9"/>
<path d="M129.252 491.283H118.037V506.275H129.252V491.283Z" fill="#EBF2F9"/>
<path d="M108.602 491.283H97.387V506.275H108.602V491.283Z" fill="#EBF2F9"/>
<path d="M87.6317 491.283H76.4171V506.275H87.6317V491.283Z" fill="#EBF2F9"/>
<path d="M67.1336 491.283H55.9191V506.275H67.1336V491.283Z" fill="#EBF2F9"/>
<path d="M310.732 518.962H299.518V533.954H310.732V518.962Z" fill="#EBF2F9"/>
<path d="M289.763 518.962H278.548V533.954H289.763V518.962Z" fill="#EBF2F9"/>
<path d="M269.259 518.962H258.045V533.954H269.259V518.962Z" fill="#EBF2F9"/>
<path d="M249.823 518.962H238.608V533.954H249.823V518.962Z" fill="#EBF2F9"/>
<path d="M230.014 518.962H218.8V533.954H230.014V518.962Z" fill="#EBF2F9"/>
<path d="M209.971 518.962H198.756V533.954H209.971V518.962Z" fill="#EBF2F9"/>
<path d="M189.001 518.962H177.787V533.954H189.001V518.962Z" fill="#EBF2F9"/>
<path d="M168.503 518.962H157.288V533.954H168.503V518.962Z" fill="#EBF2F9"/>
<path d="M149.06 518.962H137.845V533.954H149.06V518.962Z" fill="#EBF2F9"/>
<path d="M129.252 518.962H118.037V533.954H129.252V518.962Z" fill="#EBF2F9"/>
<path d="M108.602 518.962H97.387V533.954H108.602V518.962Z" fill="#EBF2F9"/>
<path d="M87.6317 518.962H76.4171V533.954H87.6317V518.962Z" fill="#EBF2F9"/>
<path d="M67.1336 518.962H55.9191V533.954H67.1336V518.962Z" fill="#EBF2F9"/>
<path d="M310.732 545.422H299.518V560.414H310.732V545.422Z" fill="#EBF2F9"/>
<path d="M289.763 545.422H278.548V560.414H289.763V545.422Z" fill="#EBF2F9"/>
<path d="M269.259 545.422H258.045V560.414H269.259V545.422Z" fill="#EBF2F9"/>
<path d="M249.823 545.422H238.608V560.414H249.823V545.422Z" fill="#EBF2F9"/>
<path d="M230.014 545.422H218.8V560.414H230.014V545.422Z" fill="#EBF2F9"/>
<path d="M209.971 545.422H198.756V560.414H209.971V545.422Z" fill="#EBF2F9"/>
<path d="M189.001 545.422H177.787V560.414H189.001V545.422Z" fill="#EBF2F9"/>
<path d="M168.503 545.422H157.288V560.414H168.503V545.422Z" fill="#EBF2F9"/>
<path d="M149.06 545.422H137.845V560.414H149.06V545.422Z" fill="#EBF2F9"/>
<path d="M129.252 545.422H118.037V560.414H129.252V545.422Z" fill="#EBF2F9"/>
<path d="M108.602 545.422H97.387V560.414H108.602V545.422Z" fill="#EBF2F9"/>
<path d="M87.6317 545.422H76.4171V560.414H87.6317V545.422Z" fill="#EBF2F9"/>
<path d="M67.1336 545.422H55.9191V560.414H67.1336V545.422Z" fill="#EBF2F9"/>
<path d="M310.732 571.471H299.518V586.463H310.732V571.471Z" fill="#EBF2F9"/>
<path d="M289.763 571.471H278.548V586.463H289.763V571.471Z" fill="#EBF2F9"/>
<path d="M269.259 571.471H258.045V586.463H269.259V571.471Z" fill="#EBF2F9"/>
<path d="M249.823 571.471H238.608V586.463H249.823V571.471Z" fill="#EBF2F9"/>
<path d="M230.014 571.471H218.8V586.463H230.014V571.471Z" fill="#EBF2F9"/>
<path d="M209.971 571.471H198.756V586.463H209.971V571.471Z" fill="#EBF2F9"/>
<path d="M189.001 571.471H177.787V586.463H189.001V571.471Z" fill="#EBF2F9"/>
<path d="M168.503 571.471H157.288V586.463H168.503V571.471Z" fill="#EBF2F9"/>
<path d="M149.06 571.471H137.845V586.463H149.06V571.471Z" fill="#EBF2F9"/>
<path d="M129.252 571.471H118.037V586.463H129.252V571.471Z" fill="#EBF2F9"/>
<path d="M108.602 571.471H97.387V586.463H108.602V571.471Z" fill="#EBF2F9"/>
<path d="M87.6317 571.471H76.4171V586.463H87.6317V571.471Z" fill="#EBF2F9"/>
<path d="M67.1336 571.471H55.9191V586.463H67.1336V571.471Z" fill="#EBF2F9"/>
<path d="M47.6906 572.471H36.4761V587.463H47.6906V572.471Z" fill="#EBF2F9"/>
<path d="M408.363 496.745V465.558H407.016V496.745H388.51V535.232H426.616V496.745H408.363Z" fill="#EBF2F9"/>
<path d="M518.758 416.211V392.286H508.037V381.872H506.684V392.286H467.602H466.889H459.497V381.872H458.144V392.286H448.664V496.846H467.602V451.796H518.758V427.87H467.602V416.211H518.758Z" fill="#EBF2F9"/>
<path d="M440.228 610.09H183.394V752.589H440.228V610.09Z" fill="#EBF2F9"/>
<path d="M207.164 624.699H193.469V644.531H207.164V624.699Z" fill="#D5E7F7"/>
<path d="M231.311 624.699H217.615V644.531H231.311V624.699Z" fill="#D5E7F7"/>
<path d="M255.62 624.699H241.925V644.531H255.62V624.699Z" fill="#D5E7F7"/>
<path d="M279.767 624.699H266.072V644.531H279.767V624.699Z" fill="#D5E7F7"/>
<path d="M304.637 624.699H290.941V644.531H304.637V624.699Z" fill="#D5E7F7"/>
<path d="M328.784 624.699H315.089V644.531H328.784V624.699Z" fill="#D5E7F7"/>
<path d="M353.093 624.699H339.398V644.531H353.093V624.699Z" fill="#D5E7F7"/>
<path d="M377.24 624.699H363.544V644.531H377.24V624.699Z" fill="#D5E7F7"/>
<path d="M402.565 624.699H388.87V644.531H402.565V624.699Z" fill="#D5E7F7"/>
<path d="M426.712 624.699H413.017V644.531H426.712V624.699Z" fill="#D5E7F7"/>
<path d="M207.164 654.028H193.469V673.86H207.164V654.028Z" fill="#D5E7F7"/>
<path d="M231.311 654.028H217.615V673.86H231.311V654.028Z" fill="#D5E7F7"/>
<path d="M255.62 654.028H241.925V673.86H255.62V654.028Z" fill="#D5E7F7"/>
<path d="M279.767 654.028H266.072V673.86H279.767V654.028Z" fill="#D5E7F7"/>
<path d="M304.637 654.028H290.941V673.86H304.637V654.028Z" fill="#D5E7F7"/>
<path d="M328.784 654.028H315.089V673.86H328.784V654.028Z" fill="#D5E7F7"/>
<path d="M353.093 654.028H339.398V673.86H353.093V654.028Z" fill="#D5E7F7"/>
<path d="M377.24 654.028H363.544V673.86H377.24V654.028Z" fill="#D5E7F7"/>
<path d="M402.565 654.028H388.87V673.86H402.565V654.028Z" fill="#D5E7F7"/>
<path d="M426.712 654.028H413.017V673.86H426.712V654.028Z" fill="#D5E7F7"/>
<path d="M207.164 685.53H193.469V705.361H207.164V685.53Z" fill="#D5E7F7"/>
<path d="M231.311 685.53H217.615V705.361H231.311V685.53Z" fill="#D5E7F7"/>
<path d="M255.62 685.53H241.925V705.361H255.62V685.53Z" fill="#D5E7F7"/>
<path d="M279.767 685.53H266.072V705.361H279.767V685.53Z" fill="#D5E7F7"/>
<path d="M304.637 685.53H290.941V705.361H304.637V685.53Z" fill="#D5E7F7"/>
<path d="M328.784 685.53H315.089V705.361H328.784V685.53Z" fill="#D5E7F7"/>
<path d="M353.093 685.53H339.398V705.361H353.093V685.53Z" fill="#D5E7F7"/>
<path d="M377.24 685.53H363.544V705.361H377.24V685.53Z" fill="#D5E7F7"/>
<path d="M402.565 685.53H388.87V705.361H402.565V685.53Z" fill="#D5E7F7"/>
<path d="M426.712 685.53H413.017V705.361H426.712V685.53Z" fill="#D5E7F7"/>
<path d="M207.164 714.859H193.469V734.69H207.164V714.859Z" fill="#D5E7F7"/>
<path d="M231.311 714.859H217.615V734.69H231.311V714.859Z" fill="#D5E7F7"/>
<path d="M255.62 714.859H241.925V734.69H255.62V714.859Z" fill="#D5E7F7"/>
<path d="M279.767 714.859H266.072V734.69H279.767V714.859Z" fill="#D5E7F7"/>
<path d="M304.637 714.859H290.941V734.69H304.637V714.859Z" fill="#D5E7F7"/>
<path d="M328.784 714.859H315.089V734.69H328.784V714.859Z" fill="#D5E7F7"/>
<path d="M353.093 714.859H339.398V734.69H353.093V714.859Z" fill="#D5E7F7"/>
<path d="M377.24 714.859H363.544V734.69H377.24V714.859Z" fill="#D5E7F7"/>
<path d="M402.565 714.859H388.87V734.69H402.565V714.859Z" fill="#D5E7F7"/>
<path d="M426.712 714.859H413.017V734.69H426.712V714.859Z" fill="#D5E7F7"/>
<path d="M351.752 616.602H405.344V572.28L351.752 591.739V616.602Z" fill="#EBF2F9"/>
<path d="M415.648 572.28H405.343V610.096H415.648V572.28Z" fill="#EBF2F9"/>
<path d="M394.022 604.24V591.249H373.114V604.24H394.022Z" fill="#D5E7F7"/>
<path d="M398.21 262.921C394.196 218.201 371.964 184 345.129 184C316.952 184 293.849 221.714 291.582 269.714C289.669 269.118 287.668 268.812 285.654 268.809C271.729 268.809 260.441 283.184 260.441 300.912C260.432 304.724 260.972 308.52 262.047 312.193C240.089 320.978 224.407 344.206 224.407 371.475C224.407 406.293 249.973 434.515 281.512 434.515C306.809 434.515 328.262 416.355 335.766 391.205C345.645 399.5 357.617 404.36 370.521 404.36C404.395 404.36 431.859 370.905 431.859 329.634C431.859 300.486 418.175 275.246 398.21 262.921Z" fill="#A0E7B1"/>
<path d="M385.755 296.951C328.504 289.631 319.972 348.758 319.972 348.758C252.124 319.477 224.503 374.642 224.503 374.642C226.013 407.97 250.973 434.477 281.535 434.477C306.833 434.477 328.285 416.318 335.789 391.168C345.668 399.462 360.267 433.684 373.177 433.684C393.529 433.684 408.937 392.243 420.089 373.647C420.454 372.513 442.541 304.208 385.755 296.951Z" fill="#50CC96"/>
<path d="M337.882 489.824C325.668 489.824 315.184 482.999 306.731 469.54C300.354 459.425 295.078 445.365 291.048 427.828C284.257 398.302 283.263 368.392 283.258 368.089C283.227 367.094 283.614 366.129 284.334 365.405C285.054 364.681 286.048 364.258 287.097 364.229C288.145 364.2 289.163 364.568 289.927 365.25C290.69 365.933 291.136 366.876 291.166 367.871C291.166 368.163 292.154 397.466 298.8 426.311C304.688 451.865 316.244 482.318 337.882 482.318C338.932 482.318 339.938 482.713 340.68 483.417C341.422 484.121 341.839 485.076 341.839 486.071C341.839 487.067 341.422 488.021 340.68 488.725C339.938 489.429 338.932 489.824 337.882 489.824V489.824Z" fill="#7A3909"/>
<path d="M338.247 574.964C338.034 574.964 337.832 574.964 337.635 574.964C336.588 574.902 335.609 574.449 334.915 573.703C334.22 572.957 333.866 571.98 333.931 570.987C333.995 569.993 334.474 569.065 335.26 568.406C336.046 567.747 337.076 567.411 338.124 567.473C338.623 567.473 339.431 567.414 340.638 566.318C345.577 561.83 354.395 543.249 357.948 469.205C359.997 426.518 359.234 385.86 359.228 385.455C359.218 384.962 359.311 384.472 359.501 384.014C359.691 383.555 359.975 383.136 360.335 382.781C360.696 382.426 361.127 382.142 361.603 381.945C362.08 381.748 362.593 381.642 363.112 381.633C363.632 381.624 364.148 381.712 364.632 381.892C365.116 382.072 365.557 382.341 365.932 382.683C366.306 383.025 366.605 383.434 366.813 383.886C367.021 384.338 367.133 384.824 367.142 385.317C367.142 385.721 367.917 426.619 365.857 469.546C364.644 494.818 362.702 515.863 360.081 532.09C356.652 553.349 352.083 566.318 346.116 571.743C343.231 574.341 340.341 574.964 338.247 574.964Z" fill="#7A3909"/>
<path d="M710.764 368.414C711.84 364.573 712.379 360.616 712.369 356.642C712.369 338.153 701.081 323.161 687.156 323.161C685.14 323.165 683.137 323.481 681.229 324.098C678.983 274.053 655.853 234.705 627.682 234.705C600.847 234.705 578.608 270.375 574.601 317.033C554.636 329.89 540.923 356.217 540.923 386.605C540.923 401.091 544.038 414.657 549.455 426.279C530.932 437.107 519.145 453.43 519.145 471.697C519.145 504.295 556.712 530.722 603.058 530.722C637.746 530.722 667.522 515.911 680.303 494.792C683.9 495.602 687.584 496.011 691.281 496.011C722.82 496.011 748.387 466.57 748.387 430.25C748.404 401.794 732.721 377.581 710.764 368.414Z" fill="#A0E7B1"/>
<path d="M710.764 368.414C710.764 368.414 655.196 347.895 612.852 384.05C570.509 420.204 541.041 363.18 555.174 336.667C546.295 350.19 540.951 367.594 540.951 386.584C540.951 401.07 544.067 414.635 549.483 426.257C530.96 437.086 519.173 453.409 519.173 471.675C519.173 504.273 556.74 530.701 603.086 530.701C637.774 530.701 667.55 515.89 680.331 494.77C683.928 495.58 687.612 495.989 691.309 495.989C722.848 495.989 748.415 466.548 748.415 430.229C748.404 401.794 732.721 377.581 710.764 368.414Z" fill="#50CC96"/>
<path d="M645.469 754.045C644.427 754.045 643.428 753.652 642.691 752.953C641.954 752.255 641.54 751.307 641.54 750.318V343.617C641.579 342.646 642.013 341.726 642.751 341.051C643.49 340.377 644.475 340 645.5 340C646.525 340 647.511 340.377 648.249 341.051C648.987 341.726 649.421 342.646 649.46 343.617V750.292C649.46 750.787 649.357 751.278 649.156 751.735C648.955 752.193 648.66 752.608 648.289 752.957C647.918 753.306 647.478 753.582 646.994 753.769C646.51 753.955 645.992 754.049 645.469 754.045V754.045Z" fill="#7A3909"/>
<path d="M645.471 490.096C634.245 490.096 624.742 486.3 617.238 478.815C596.251 457.881 598.266 415.12 598.361 413.331C598.414 412.336 598.88 411.402 599.659 410.733C600.437 410.065 601.463 409.717 602.512 409.767C603.561 409.816 604.546 410.259 605.251 410.997C605.955 411.735 606.322 412.709 606.27 413.704V413.704C606.27 414.119 604.334 455.086 622.985 473.672C629.019 479.682 636.372 482.605 645.471 482.605C646.003 482.586 646.534 482.669 647.032 482.849C647.53 483.03 647.985 483.303 648.368 483.654C648.752 484.005 649.058 484.425 649.266 484.89C649.475 485.355 649.582 485.856 649.582 486.361C649.582 486.867 649.475 487.367 649.266 487.832C649.058 488.297 648.752 488.718 648.368 489.069C647.985 489.419 647.53 489.693 647.032 489.873C646.534 490.053 646.003 490.136 645.471 490.117V490.096Z" fill="#7A3909"/>
<path d="M646.031 575.235C645.767 575.235 645.503 575.235 645.234 575.235C644.186 575.174 643.207 574.72 642.511 573.974C641.816 573.227 641.462 572.25 641.527 571.256C641.591 570.262 642.07 569.333 642.857 568.673C643.643 568.014 644.674 567.678 645.722 567.739C647.232 567.83 648.742 567.207 650.325 565.865C655.214 561.713 664.497 547.088 671.71 495.824C675.886 466.176 677.323 438.534 677.323 438.257C677.373 437.263 677.838 436.328 678.616 435.658C679.393 434.989 680.419 434.64 681.468 434.688C682.517 434.736 683.502 435.177 684.208 435.914C684.914 436.652 685.282 437.625 685.231 438.619C685.231 438.896 683.766 466.836 679.551 496.815C677.064 514.479 674.112 529.397 670.778 541.157C666.406 556.596 661.444 566.499 655.623 571.461C652.62 573.963 649.399 575.235 646.031 575.235Z" fill="#7A3909"/>
<path d="M398.372 403.28C397.291 398.631 396.75 393.884 396.761 389.123C396.761 366.88 408.054 348.854 421.98 348.854C424.014 348.862 426.027 349.246 427.907 349.982C430.152 289.785 453.277 242.472 481.454 242.472C508.284 242.472 530.522 285.393 534.535 341.496C554.5 356.935 568.212 388.618 568.212 425.171C568.212 442.596 565.097 458.909 559.675 472.884C578.198 485.906 589.985 505.54 589.985 527.512C589.985 566.717 552.418 598.495 506.072 598.495C471.379 598.495 441.608 580.687 428.827 555.287C425.257 556.255 421.562 556.748 417.849 556.751C386.31 556.751 360.737 521.342 360.737 477.665C360.726 443.437 376.414 414.305 398.372 403.28Z" fill="#50CC96"/>
<path d="M559.648 472.873C565.07 458.898 568.185 442.586 568.185 425.161C568.185 420.774 567.998 416.467 567.624 412.24C490.104 417.292 493.191 491.033 493.191 491.033C493.191 491.033 440.537 453.766 419.163 489.84C397.789 525.915 428.811 555.276 428.811 555.276C441.592 580.676 471.363 598.484 506.056 598.484C552.401 598.484 589.968 566.706 589.968 527.501C589.974 505.53 578.176 485.911 559.648 472.873Z" fill="#00AF8D"/>
<path d="M480.618 753.063C479.572 753.063 478.57 752.671 477.827 751.973C477.085 751.275 476.664 750.328 476.655 749.336V444.438C476.693 443.467 477.128 442.547 477.866 441.872C478.604 441.198 479.59 440.821 480.615 440.821C481.64 440.821 482.625 441.198 483.364 441.872C484.102 442.547 484.536 443.467 484.575 444.438V749.31C484.575 750.305 484.158 751.26 483.416 751.964C482.674 752.668 481.667 753.063 480.618 753.063Z" fill="#7A3909"/>
<path d="M480.618 538.66C469.392 538.66 459.884 534.864 452.385 527.384C431.393 506.446 433.408 463.684 433.509 461.874C433.535 461.382 433.663 460.899 433.886 460.454C434.109 460.009 434.422 459.61 434.807 459.279C435.193 458.949 435.643 458.693 436.133 458.528C436.622 458.363 437.141 458.29 437.66 458.315C438.179 458.34 438.688 458.461 439.157 458.673C439.626 458.884 440.047 459.181 440.396 459.546C440.744 459.912 441.013 460.339 441.188 460.803C441.362 461.268 441.438 461.76 441.412 462.252C441.412 462.699 439.487 503.64 458.127 522.22C464.161 528.231 471.514 531.154 480.618 531.154C481.668 531.154 482.674 531.549 483.416 532.253C484.158 532.957 484.575 533.911 484.575 534.907C484.575 535.902 484.158 536.857 483.416 537.561C482.674 538.265 481.668 538.66 480.618 538.66V538.66Z" fill="#7A3909"/>
<path d="M725.566 667.753C722.838 667.753 720.632 656.765 720.632 654.183V560.062C720.61 559.434 720.721 558.808 720.959 558.221C721.197 557.635 721.557 557.1 722.017 556.648C722.478 556.196 723.03 555.837 723.64 555.591C724.25 555.346 724.906 555.219 725.568 555.219C726.231 555.219 726.887 555.346 727.497 555.591C728.107 555.837 728.659 556.196 729.119 556.648C729.58 557.1 729.94 557.635 730.178 558.221C730.416 558.808 730.527 559.434 730.505 560.062V676.916C730.505 679.503 728.293 667.753 725.566 667.753Z" fill="#284663"/>
<path d="M528.019 681.595C526.71 681.595 525.455 681.102 524.53 680.225C523.605 679.347 523.085 678.157 523.085 676.916V560.062C523.063 559.434 523.174 558.808 523.412 558.221C523.65 557.635 524.01 557.1 524.471 556.648C524.931 556.196 525.483 555.837 526.093 555.591C526.703 555.346 527.359 555.219 528.022 555.219C528.684 555.219 529.34 555.346 529.95 555.591C530.56 555.837 531.112 556.196 531.573 556.648C532.033 557.1 532.393 557.635 532.631 558.221C532.869 558.808 532.981 559.434 532.958 560.062V676.916C532.958 677.531 532.83 678.14 532.582 678.708C532.334 679.276 531.97 679.792 531.511 680.227C531.052 680.661 530.508 681.006 529.909 681.241C529.309 681.476 528.667 681.596 528.019 681.595Z" fill="#284663"/>
<path d="M495.099 634.016H747.573C748.764 634.016 749.906 634.465 750.748 635.263C751.59 636.062 752.063 637.145 752.063 638.275V658.602C752.063 659.731 751.59 660.814 750.748 661.613C749.906 662.412 748.764 662.861 747.573 662.861H499.606C498.415 662.861 497.273 662.412 496.431 661.613C495.589 660.814 495.116 659.731 495.116 658.602V634.016H495.099Z" fill="#008175"/>
<path d="M734.663 682.777H451.638C450.001 682.777 448.43 682.16 447.272 681.062C446.114 679.964 445.464 678.474 445.464 676.921C445.464 675.368 446.114 673.878 447.272 672.78C448.43 671.682 450.001 671.065 451.638 671.065H734.663V682.777Z" fill="#008175"/>
<path d="M750.083 628.841H496.408L497.609 604.266C497.609 603.137 498.082 602.053 498.924 601.255C499.766 600.456 500.908 600.007 502.099 600.007H750.066C751.257 600.007 752.399 600.456 753.241 601.255C754.083 602.053 754.556 603.137 754.556 604.266V624.566C754.558 625.125 754.444 625.68 754.221 626.197C753.997 626.715 753.668 627.186 753.253 627.583C752.837 627.979 752.344 628.295 751.8 628.511C751.256 628.727 750.672 628.839 750.083 628.841V628.841Z" fill="#008175"/>
<path d="M505.495 564.742H753.467C754.658 564.742 755.8 565.191 756.642 565.989C757.484 566.788 757.957 567.871 757.957 569.001V589.301C757.957 590.43 757.484 591.514 756.642 592.312C755.8 593.111 754.658 593.56 753.467 593.56H500.988V569.012C500.986 568.45 501.102 567.894 501.328 567.375C501.554 566.856 501.886 566.384 502.305 565.987C502.724 565.591 503.221 565.276 503.769 565.062C504.316 564.849 504.903 564.74 505.495 564.742V564.742Z" fill="#008175"/>
<path d="M739.862 754.479H729.989V692.11C729.989 680.732 725.224 669.821 716.742 661.775C708.26 653.73 696.756 649.21 684.76 649.21C672.765 649.21 661.261 653.73 652.779 661.775C644.297 669.821 639.532 680.732 639.532 692.11V754.479H629.659V692.11C629.659 678.249 635.464 664.955 645.798 655.154C656.131 645.352 670.147 639.846 684.76 639.846C699.374 639.846 713.39 645.352 723.723 655.154C734.057 664.955 739.862 678.249 739.862 692.11V754.479Z" fill="#284663"/>
<path d="M495.099 639C480.941 639.628 467.581 645.4 457.788 655.12C447.996 664.84 442.524 677.762 442.507 691.206V753.575H452.385V691.206C452.4 680.244 456.832 669.703 464.774 661.74C472.716 653.778 483.567 648.996 495.105 648.375L495.099 639Z" fill="#284663"/>
<path d="M204.683 753.771L207.159 502.298C207.159 502.298 209.297 484.197 225.956 484.197C243.727 484.197 244.748 502.298 244.748 502.298C244.66 502.753 244.402 503.163 244.02 503.451C243.638 503.738 243.159 503.885 242.671 503.863C242.162 503.897 241.657 503.758 241.246 503.471C240.835 503.185 240.545 502.769 240.426 502.298C240.426 502.298 239.64 488.334 225.939 488.334C213.097 488.334 211.447 502.298 211.447 502.298V753.771H204.683Z" fill="#2C3F4E"/>
<path d="M213.748 753.771H202.691L203.679 742.809C203.679 742.809 203.583 741.281 205.817 741.212C207.894 741.132 211.991 740.85 212.379 742.043C212.715 743.054 213.748 753.771 213.748 753.771Z" fill="#2C3F4E"/>
<path d="M224.805 470.861L224.053 474.454C224.053 474.454 205.306 474.39 200.928 493.439C200.928 493.439 199.738 501.372 205.761 499.679C211.784 497.986 210.852 493.94 219.383 491.72C227.915 489.5 233.477 487.807 234.774 481.918L236.166 475.359L224.805 470.861Z" fill="#FFB48D"/>
<path d="M291.088 314.935C291.088 314.935 286.132 333.441 281.855 350.36C280.132 357.175 278.527 363.728 277.365 368.712C276.208 373.833 275.552 377.304 275.804 377.688C279.52 383.411 272.728 418.319 267.357 430.996C266.88 432.124 266.234 433.439 265.443 434.903C257.927 448.873 237.94 476.296 237.94 476.296C237.94 476.296 232.299 476.829 228.605 475.535C225.53 474.428 223.425 470.855 223.425 470.855C225.21 468.124 232.45 435.862 241.762 417.776C245.747 410.035 251.618 338.238 259.336 328.57C265.78 320.509 291.088 314.935 291.088 314.935Z" fill="#FBAE25"/>
<path d="M275.827 377.688C279.542 383.411 272.751 418.319 267.379 430.996C266.902 432.124 266.257 433.439 265.465 434.903C258.286 404.77 270.186 362.089 270.186 362.089C273.155 363.207 275.58 377.304 275.827 377.688Z" fill="#F48D1C"/>
<path d="M327.853 726.071C327.853 726.071 329.761 753.34 324.333 753.723C323.609 753.771 296.797 753.771 296.797 753.771H262.21C262.21 753.771 262.771 745.759 272.802 744.108C282.832 742.458 299.553 735.782 305.609 723.244C311.991 710.046 327.853 726.071 327.853 726.071Z" fill="#0F2949"/>
<path d="M379.872 726.071C379.872 726.071 381.781 753.34 376.353 753.723C375.629 753.771 348.816 753.771 348.816 753.771H314.23C314.23 753.771 314.791 745.759 324.821 744.108C334.851 742.458 351.567 735.782 357.629 723.244C364.005 710.046 379.872 726.071 379.872 726.071Z" fill="#163560"/>
<path d="M329.491 660.348C330.345 671.879 332.079 686.706 331.456 700.069C330.592 718.756 329.968 734.515 329.968 734.515C316.98 738.71 293.142 733.626 293.142 733.626C293.142 733.626 284.689 686.398 277.724 648.699C274.603 631.807 272.01 617.193 271.044 610.293C267.907 587.986 274.378 469.397 274.378 469.397C274.378 469.397 309.526 448.027 324.047 459.047C338.567 470.068 347.509 480.822 324.109 601.498C322.329 610.65 327.583 634.522 329.491 660.348Z" fill="#284663"/>
<path d="M329.491 660.348C330.345 671.879 331.911 690.332 331.293 703.695C319.074 691.45 294.989 665.549 277.724 648.699C274.603 631.807 272.01 617.193 271.044 610.293C267.907 587.986 274.378 469.397 274.378 469.397C274.378 469.397 309.526 448.027 324.047 459.047C338.567 470.068 347.509 480.822 324.109 601.498C322.329 610.65 327.583 634.522 329.491 660.348Z" fill="#2C3F4E"/>
<path d="M306.142 471.808C306.142 471.808 309.296 590.531 314.23 612.529C319.164 634.527 344.904 735.297 344.904 735.297C344.904 735.297 369.04 737.384 381.646 732.257C381.646 732.257 380.844 685.599 376.595 658.181C372.598 632.568 365.425 609.148 366.458 599.895C380.007 477.872 370.224 467.794 354.856 457.865C339.488 447.936 306.142 471.808 306.142 471.808Z" fill="#284663"/>
<path d="M283.365 288.039C283.365 288.039 293.019 301.95 291.093 314.935L305.373 347.571L331.147 310.224C331.147 310.224 317.536 296.169 312.456 277.013L283.365 288.039Z" fill="#FFB48D"/>
<path d="M279.133 299.911C279.133 299.911 314.275 301.354 314.915 281.342C315.555 261.329 325.052 248.02 298.767 246.263C277.151 244.815 269.967 253.365 268.042 259.993C266.116 266.621 266.111 298.836 279.133 299.911Z" fill="#FFB48D"/>
<path d="M365.167 477.526C357.618 478.192 347.206 479.017 334.61 479.773C332.088 479.922 329.484 480.067 326.797 480.209C288.714 482.233 273.581 476.387 273.581 476.387C273.581 476.387 272.571 475.61 272.891 471.372C274.541 449.544 279.436 443.075 278.846 438.896C277.522 429.569 253.656 353.438 253.656 353.438C253.656 353.438 253.195 329.39 281.395 318.103C284.526 316.855 287.753 315.837 291.049 315.058C292.284 318.167 295.668 323.368 304.329 322.41C317.132 320.994 326.219 313.839 330.148 310.165C330.855 310.165 331.136 310.165 331.136 310.165C332.078 312.767 332.865 315.417 333.493 318.103C335.806 327.553 337.159 337.498 343.277 344.935C348.969 351.826 354.183 359.061 358.886 366.593C362.382 372.195 365.556 377.973 368.394 383.901C393.361 436.282 374.052 476.738 365.167 477.526Z" fill="#FBAE25"/>
<path d="M365.167 477.526C357.617 478.192 347.206 479.017 334.61 479.773C330.934 420.96 356.186 364.527 356.186 364.527C357.146 365.168 358.051 365.88 358.892 366.657C363.292 370.708 366.357 376.724 368.4 383.965C375.921 410.611 369.623 453.92 365.167 477.526Z" fill="#F48D1C"/>
<path d="M267.806 280.825C267.806 280.825 260.963 306.566 272.577 310.192C284.19 313.817 315.004 310.916 314.993 279.35C314.993 279.35 298.817 288.502 291.093 288.268C283.37 288.034 278.38 283.812 271.241 287.113C271.241 287.113 268.625 286.948 267.806 280.825Z" fill="white"/>
<path d="M313.264 252.486C312.669 250.442 310.02 249.372 310.02 249.372C290.223 241.194 275.781 250.138 275.781 250.138C287.916 234.699 317.193 237.936 323.356 251.869C333.392 274.612 314.993 279.345 314.993 279.345C314.993 279.345 296.599 272.014 307.253 262.841C310.777 259.796 312.484 257.091 313.051 254.733C313.233 253.997 313.305 253.241 313.264 252.486Z" fill="white"/>
<path d="M281.905 293.065C281.905 293.065 281.26 295.253 275.478 294.662C275.478 294.662 270.629 294.183 270.887 291.76C270.887 291.782 275.681 290.243 281.905 293.065Z" fill="#EDDFD9"/>
<path d="M426.903 357.734C426.903 357.734 433.296 372.997 432.741 393.122C432.314 408.561 417.485 456.108 412.944 463.003C408.605 469.594 377.19 493.567 369.438 495.851C369.15 495.916 368.848 495.882 368.583 495.757C368.318 495.631 368.109 495.421 367.99 495.164L361.036 484.027C360.721 483.478 360.577 482.856 360.618 482.232C360.66 481.609 360.886 481.009 361.272 480.502L390.504 446.781L399.765 392.653C402.846 374.658 413.157 360.79 426.05 357.909C426.331 357.846 426.617 357.787 426.903 357.734Z" fill="#E33115"/>
<path d="M419.629 658.841L425.242 681.015L428.711 694.74L440.262 740.424C440.262 740.424 450.146 743.315 460.423 740.424C462.957 729.258 464.274 717.874 464.352 706.453C464.414 696.593 463.46 685.689 460.423 675.425C459.21 671.25 457.598 667.189 455.607 663.292C439.285 631.721 419.629 658.841 419.629 658.841Z" fill="#FFB48D"/>
<path d="M410.053 753.771H464.33C464.33 753.771 465.189 745.982 462.798 738.529C462.447 737.412 462.015 736.32 461.507 735.26C461.507 735.26 449.394 737.863 438.943 735.26C438.943 735.26 429.12 743.192 423.182 745.625C417.243 748.058 410.682 746.738 410.053 753.771Z" fill="#FA412B"/>
<path d="M425.23 681.015L428.699 694.74C439.479 701.165 451.664 705.171 464.324 706.452C464.386 696.593 463.431 685.689 460.395 675.425C455.399 673.024 450.292 671.762 445.992 672.481C435.221 674.264 428.811 677.996 425.23 681.015Z" fill="#F6A071"/>
<path d="M438.246 753.771H464.329C464.329 753.771 465.188 745.982 462.797 738.529C456.247 740.461 442.922 745.317 438.246 753.771Z" fill="#E33115"/>
<path d="M465.856 658.841L471.468 681.015L474.937 694.74L486.489 740.424C486.489 740.424 496.373 743.315 506.65 740.424C509.184 729.258 510.501 717.874 510.579 706.453C510.641 696.593 509.687 685.689 506.65 675.425C505.437 671.25 503.825 667.189 501.834 663.292C485.501 631.721 465.856 658.841 465.856 658.841Z" fill="#FFB48D"/>
<path d="M507.74 735.255C507.74 735.255 495.622 737.863 485.17 735.255C485.17 735.255 475.348 743.192 469.409 745.625C463.471 748.058 456.91 746.738 456.286 753.771H510.557C510.557 753.771 511.691 743.496 507.74 735.255Z" fill="#FA412B"/>
<path d="M471.469 681.015L474.937 694.74C485.717 701.165 497.902 705.171 510.562 706.452C510.624 696.593 509.67 685.689 506.633 675.425C501.638 673.024 496.53 671.762 492.231 672.481C481.448 674.264 475.044 677.996 471.469 681.015Z" fill="#F6A071"/>
<path d="M408.302 679.551C408.935 681.774 410.323 683.737 412.251 685.137C414.178 686.537 416.538 687.296 418.966 687.297H505.966C507.517 687.302 509.052 687.001 510.474 686.415C511.897 685.829 513.175 684.969 514.23 683.891C515.285 682.813 516.093 681.538 516.602 680.149C517.112 678.76 517.313 677.286 517.192 675.819C516.277 664.575 516.221 648.39 514.795 635.991C514.234 630.838 515.401 621.031 515.744 618.875C524.528 563.746 527.228 502.314 526.33 489.904C526.206 488.153 526.116 487.242 526.116 487.242C526.116 487.242 519.779 486.71 510.136 486.38C482.111 485.315 426.168 485.512 416.873 502.884C407.404 520.596 401.684 638.174 401.684 638.174C400.331 649.184 405.237 668.722 408.302 679.551Z" fill="#284663"/>
<path d="M514.891 636.577C514.329 631.423 515.525 620.642 515.867 618.476C524.651 563.347 527.256 502.303 526.358 489.893C526.234 488.142 526.144 487.231 526.144 487.231C526.144 487.231 519.807 486.699 510.165 486.369C495.666 494.467 486.231 508.271 486.231 508.271C486.231 508.271 492.422 614.216 514.891 636.577Z" fill="#2C3F4E"/>
<path d="M457.578 260.179C464.532 258.529 468.568 263.725 468.568 269.842C468.568 272.78 467.338 275.597 465.149 277.674C462.959 279.752 459.99 280.92 456.893 280.921C450.438 280.921 445.213 273.835 445.213 267.713C445.213 261.59 451.319 261.643 457.578 260.179Z" fill="white"/>
<path d="M461.17 323.603C461.17 323.603 497.384 292.666 464.599 270.763C464.599 270.763 454.816 268.288 449.843 269.166C449.843 269.166 432.022 264.22 421.593 275.698C411.165 287.177 406.629 295.482 415.571 305.73C424.512 315.979 461.17 323.603 461.17 323.603Z" fill="white"/>
<path d="M502.727 510.449C502.727 510.449 493.786 527.485 510.973 540.47C510.973 540.47 518.421 545.304 519.566 539.022C520.711 532.74 519.386 534.928 521.188 526.117C522.99 517.306 520.683 508.197 515.34 504.231L502.727 510.449Z" fill="#FFB48D"/>
<path d="M360.895 482.131C360.895 482.131 350.231 485.065 350.663 505.908C350.663 505.908 351.286 514.426 355.153 511.189C359.021 507.952 355.816 503.901 361.675 502.767C367.945 501.553 367.85 497.933 369.41 495.846L360.895 482.131Z" fill="#F6A071"/>
<path d="M431.5 323.315C431.5 323.315 431.943 327.947 432.774 334.208C433.178 337.264 433.672 340.713 434.25 344.201C434.666 346.703 435.126 349.232 435.625 351.654L446.851 387.574L473.176 347.161C473.176 347.161 467.002 342.305 458.582 315.989C458.504 315.707 458.448 315.558 458.448 315.558L431.5 323.315Z" fill="#FFB48D"/>
<path d="M416.16 500.52C415.817 504.555 416.895 505.311 416.895 505.311C416.895 505.311 433.083 510.875 473.798 508.953C478.203 508.744 482.347 508.531 486.231 508.314C512.471 506.845 526.503 505.311 526.503 505.311C526.503 505.311 547.995 458.259 507.622 400.288C502.709 393.271 497.299 386.579 491.429 380.259C484.89 373.184 483.447 363.718 480.972 354.705C480.264 352.123 482.313 351.553 481.292 349.12C481.292 349.12 473.928 347.15 473.164 347.15C468.983 350.642 463.471 357.436 449.775 358.777C440.52 359.693 436.894 354.747 435.58 351.782C432.05 352.99 428.39 355.083 425.398 356.445C425.011 356.621 424.63 356.802 424.276 356.978C405.972 365.794 397.194 385.982 403.098 404.626C409.834 426.002 421.548 463.359 422.547 469.636C423.159 473.592 417.928 479.73 416.16 500.52Z" fill="#FA412B"/>
<path d="M432.774 334.208C433.178 337.264 434.542 345.638 435.126 349.114C463.005 338.807 459.351 318.715 458.593 315.973C458.515 315.691 458.458 315.542 458.458 315.542C458.458 315.542 443.708 325.476 432.774 334.208Z" fill="#F6A071"/>
<path d="M426.802 337.759C426.802 337.759 459.003 338.738 459.357 319.711C459.711 300.683 464.077 287.991 443.529 286.559C422.98 285.127 418.832 292.325 417.148 298.655C415.464 304.985 418.433 337.013 426.802 337.759Z" fill="#FFB48D"/>
<path d="M423.984 283.705C423.984 283.705 426.005 315.478 465.267 312.071C465.295 312.071 464.431 268.069 423.984 283.705Z" fill="white"/>
<path d="M431.499 286.868C431.499 286.868 421.615 302.696 416.625 306.816C416.625 306.816 403.272 287.246 431.499 286.868V286.868Z" fill="white"/>
<path d="M486.231 508.272C512.471 506.802 526.503 505.269 526.503 505.269C526.503 505.269 547.995 458.216 507.622 400.245C499.444 418.341 480.163 466.639 486.231 508.272Z" fill="#E33115"/>
<path d="M473.153 347.15C473.153 347.15 504.31 353.214 518.185 368.446C528.849 380.126 540.457 437.235 540.457 446.669C540.457 455.688 529.528 503.635 522.703 512.818C522.474 513.133 522.16 513.384 521.794 513.545C521.427 513.705 521.022 513.768 520.621 513.729L503.075 511.966C502.731 511.927 502.399 511.823 502.098 511.66C501.797 511.496 501.534 511.277 501.325 511.015C501.115 510.754 500.963 510.454 500.878 510.136C500.793 509.817 500.777 509.486 500.83 509.161L510.686 448.554L476.088 390.348C476.088 390.348 455.668 367.423 473.153 347.15Z" fill="#FA412B"/>
<path d="M353.845 482.185C353.845 482.185 345.482 498.098 361.552 510.257C361.552 510.257 368.523 514.777 369.589 508.905C370.656 503.033 369.426 505.077 371.11 496.836C372.794 488.595 370.639 480.076 365.643 476.371L353.845 482.185Z" fill="#FFB48D"/>
<path d="M331.147 310.224C331.147 310.224 355.714 310.756 368.691 326.765C378.637 339.01 389.15 404.893 389.15 414.811C389.15 424.729 377.924 479.448 371.683 485.395C368.559 486.004 365.338 486.004 362.214 485.395C358.826 484.799 355.67 483.346 353.082 481.189C353.082 481.189 356.203 420.263 356.203 414.55C356.203 406.277 328.93 355.626 328.93 355.626C328.93 355.626 314.774 331.519 331.147 310.224Z" fill="#FBAE25"/>
<path d="M548.034 671.049C546.703 668.188 545.102 665.448 543.252 662.861H530.662C533.104 665.345 535.229 668.093 536.993 671.049H548.034Z" fill="#284663"/>
<path d="M541.75 682.777C542.472 685.841 542.838 688.971 542.839 692.11V754.479H552.717V692.11C552.714 688.98 552.416 685.857 551.825 682.777H541.75Z" fill="#284663"/>
</svg>
