<svg width="85" height="84" viewBox="0 0 85 84" fill="none" xmlns="http://www.w3.org/2000/svg">
<path d="M81.9992 28.95C89.1592 50.96 77.1192 74.6 55.1092 81.76C33.0992 88.92 9.45924 76.88 2.29924 54.87C-4.86076 32.86 7.17924 9.22001 29.1892 2.06001C33.3792 0.700013 37.7592 0 42.1592 0C60.3092 0.01 76.3892 11.69 81.9992 28.95ZM42.1592 3.78C21.0992 3.81 4.04924 20.9 4.07924 41.97C4.10924 63.03 21.1992 80.08 42.2692 80.05C63.3292 80.02 80.3792 62.93 80.3493 41.86C80.3392 37.87 79.7092 33.91 78.4792 30.12C73.3692 14.39 58.6992 3.75 42.1592 3.78Z" fill="#4D77AC"/>
<path fill-rule="evenodd" clip-rule="evenodd" d="M49.0094 27.47C50.3794 27.47 51.7994 27.47 53.1194 27.47H53.6795V20.35C52.9495 20.35 52.1994 20.18 51.4194 20.13C50.0194 20.13 48.6294 20.13 47.2294 20.13C45.1094 20.12 43.0494 20.77 41.3094 21.97C39.3794 23.39 38.0994 25.52 37.7594 27.89C37.5994 28.83 37.5094 29.78 37.4794 30.74C37.4794 32.33 37.4794 33.92 37.4794 35.52V36.33H30.6895V44.26H37.4194V64.18H45.7995V44.18H52.5294L53.3394 36.33H45.5195C45.5195 36.33 45.5195 32.39 45.5195 30.74C45.7395 28.22 47.1394 27.52 49.0094 27.47Z" fill="#4D77AC"/>
</svg>
