<svg width="260" height="260" viewBox="0 0 260 260" fill="none" xmlns="http://www.w3.org/2000/svg">
<path d="M92.2077 45.8824C92.1953 44.5176 91.7926 41.4868 92.7462 40.5031C93.0156 40.2254 93.4277 40.0116 93.8119 39.9534C94.5167 39.847 95.296 39.9105 96.011 39.9095L99.9122 39.9072L114.484 39.9133C114.707 36.1809 115.998 32.5625 118.631 29.837C121.634 26.729 125.666 25.0679 129.964 25.0026C134.535 25.1378 138.43 26.7165 141.616 30.0716C144.151 32.742 145.573 36.3436 145.659 40.0042L160.661 39.9989L164.642 40.0012C165.267 40.0039 166.019 39.9349 166.626 40.0461C166.948 40.105 167.299 40.3424 167.515 40.5823C167.811 40.9122 167.719 41.532 167.724 41.9527L167.72 45.9532L167.737 50.4268L167.731 57.8378L167.717 62.1212L167.694 64.6369L129.884 64.6339L92.274 64.69L92.2204 62.1568L92.1742 57.7406L92.1919 50.6266C92.3433 49.0864 92.2217 47.435 92.2077 45.8824Z" fill="#F48D1C"/>
<path d="M129.919 32.4939L129.994 32.5051C131.922 32.548 133.771 33.3656 135.09 34.7852C136.189 35.9673 136.801 37.9595 136.688 39.566C136.553 41.4802 135.535 43.2481 134.062 44.4422C133 45.3035 131.406 46.0713 130.007 45.9481C128.617 45.6635 127.327 45.3555 126.191 44.4526C124.693 43.2613 123.781 41.5203 123.615 39.6211C123.47 37.9534 124.027 36.1821 125.112 34.9141C126.462 33.3353 127.864 32.6531 129.919 32.4939Z" fill="#E33115"/>
<path d="M92.2077 45.8824C92.1953 44.5176 91.7926 41.4868 92.7462 40.5031C93.0156 40.2254 93.4277 40.0116 93.8119 39.9534C94.5167 39.847 95.296 39.9105 96.011 39.9095L99.9122 39.9072L114.484 39.9133C114.707 36.1809 115.998 32.5625 118.631 29.837C121.634 26.729 125.666 25.0679 129.964 25.0026L129.919 32.4939C127.864 32.6531 126.462 33.3354 125.112 34.9141C124.027 36.1821 123.47 37.9534 123.615 39.6211C123.781 41.5203 124.693 43.2613 126.192 44.4526C127.327 45.3555 128.617 45.6635 130.007 45.9481L129.903 57.7505L92.1742 57.7406L92.1919 50.6266C92.3433 49.0864 92.2217 47.435 92.2077 45.8824Z" fill="#F6A071"/>
<path d="M57.7683 137.842L57.6602 53.8281C57.6952 51.6902 58.5615 49.7806 60.0918 48.2986C61.371 47.06 62.8018 46.3331 64.555 45.989C65.6232 45.7796 66.7541 45.8415 67.8395 45.8405L73.1142 45.844L92.2077 45.8824C92.2216 47.435 92.3432 49.0864 92.1919 50.6266L92.1741 57.7406L92.2203 62.1568L72.8524 62.0928L72.8587 89.9582L72.8811 118.467L72.9545 148.648L72.9131 178.019L72.9816 207.076L72.9598 211.165L116.971 211.256L133.045 195.146C133.228 195.123 133.354 195.089 133.533 195.144L155.493 195.173C155.841 195.007 156.335 194.336 156.639 194.032L160.377 190.366C160.981 190.052 161.8 189.012 162.295 188.506L167.173 183.544L180.748 169.97C181.478 170.396 182.223 171.397 182.822 172.011L187.696 176.909L187.907 176.752C187.763 175.8 187.875 174.703 187.864 173.735L187.786 165.966L187.753 142.235L187.745 62.0537L167.717 62.1212L167.731 57.8378L167.737 50.4268L167.72 45.9532L187.851 45.9702L193.085 45.9664C194.033 45.9682 195.074 45.8925 196.005 46.084C197.577 46.408 199.007 47.2872 200.116 48.4316C201.086 49.434 201.825 50.8033 202.059 52.1818C202.45 54.4812 202.198 57.135 202.195 59.4831L202.158 74.0068L202.21 117.433L202.181 131.22C202.167 133.796 202.035 136.417 202.181 138.985L202.134 219.678C202.047 221.837 201.605 223.659 199.979 225.185C199.065 226.043 197.771 226.723 196.509 226.852C193.561 227.154 190.425 226.947 187.453 226.945L169.649 226.909L142.333 226.927L128.361 226.93L127.812 226.904L127.676 226.916C126.253 226.989 124.78 226.914 123.352 226.913L114.784 226.904L88.6707 226.885L71.8289 226.878L66.7751 226.874C65.9314 226.872 64.9998 226.947 64.1685 226.846C62.8091 226.681 61.5086 226.152 60.4879 225.232C58.7814 223.694 57.9163 221.937 57.7795 219.644L57.7683 137.842Z" fill="#2C3F4E"/>
<path d="M133.533 195.144L155.493 195.173L144.494 206.191C144.133 206.009 143.797 205.56 143.513 205.271L141.608 203.34C138.914 200.627 136.064 198.009 133.533 195.144Z" fill="#EAFCFC"/>
<path d="M167.72 45.9532L187.851 45.9702L193.085 45.9664C194.033 45.9682 195.074 45.8925 196.004 46.084C197.577 46.408 199.007 47.2872 200.115 48.4316C201.086 49.434 201.825 50.8033 202.059 52.1818C202.45 54.4812 202.198 57.135 202.195 59.4831L202.158 74.0068L202.21 117.433L202.181 131.22C202.167 133.796 202.035 136.417 202.181 138.985L202.134 219.678C202.047 221.837 201.605 223.659 199.979 225.185C199.065 226.043 197.771 226.723 196.509 226.852C193.561 227.154 190.425 226.947 187.453 226.945L169.649 226.909L142.333 226.927L128.361 226.93L127.812 226.904L129.791 226.883L129.771 221.753L108.357 221.779L102.595 221.782C101.666 221.782 100.582 221.9 99.6826 221.717L129.776 221.697L175.762 221.78L186.765 221.788C188.634 221.788 191.036 222.06 192.838 221.58C194.338 221.18 196.035 219.798 196.788 218.42C197.163 217.733 197.505 216.926 197.536 216.138L197.564 203.301L197.554 180.342L197.561 107.349L197.546 72.2206L197.538 62.8928C197.533 60.8045 197.822 58.2456 197.228 56.2476L197.166 56.0498C196.777 54.749 196.14 53.7187 195.174 52.7729C194.171 51.791 192.75 50.9559 191.369 50.6584C190.377 50.4448 189.304 50.4943 188.293 50.4893L183.703 50.4689L167.737 50.4268L167.72 45.9532Z" fill="#E33115"/>
<path d="M57.7683 137.842L57.6602 53.8281C57.6952 51.6902 58.5615 49.7806 60.0918 48.2986C61.371 47.06 62.8018 46.3331 64.555 45.989C65.6232 45.7796 66.7541 45.8415 67.8395 45.8405L73.1142 45.844L92.2077 45.8824C92.2216 47.435 92.3432 49.0864 92.1919 50.6266L75.8566 50.6121L71.0616 50.5921C70.0752 50.587 69.0187 50.52 68.047 50.6947C66.8087 50.9176 65.5239 51.7306 64.6398 52.6071C63.432 53.8043 62.916 55.2137 62.7708 56.8905C62.6047 58.807 62.7192 60.8281 62.718 62.7545L62.7157 73.8806L62.7271 109.611L62.7492 183.536L62.733 213.582C62.7474 216.053 62.9074 217.914 64.766 219.735C65.7897 220.738 66.9775 221.311 68.3722 221.577C69.3833 221.77 70.5652 221.667 71.595 221.67L77.4676 221.68L99.6827 221.717C100.583 221.9 101.666 221.782 102.595 221.782L108.357 221.778L129.771 221.753L129.791 226.883L127.812 226.904L127.676 226.916C126.253 226.989 124.78 226.914 123.352 226.913L114.784 226.904L88.6707 226.885L71.8289 226.878L66.7751 226.874C65.9314 226.872 64.9998 226.947 64.1685 226.846C62.8091 226.681 61.5086 226.152 60.4879 225.232C58.7814 223.694 57.9163 221.937 57.7795 219.644L57.7683 137.842Z" fill="#F48D1C"/>
<path d="M167.717 62.1212L187.746 62.0537L187.753 142.235L187.786 165.966L187.864 173.735C187.876 174.703 187.763 175.8 187.907 176.752L187.697 176.909L182.822 172.011C182.223 171.397 181.478 170.396 180.748 169.97L167.173 183.544L162.296 188.506C161.8 189.012 160.982 190.052 160.378 190.366L156.639 194.032C156.335 194.336 155.841 195.007 155.493 195.173L133.533 195.144C133.354 195.089 133.228 195.123 133.046 195.146L116.971 211.256L72.9599 211.165L72.9818 207.076L72.9132 178.019L72.9546 148.648L72.8812 118.467L72.8589 89.9582L72.8525 62.0928L92.2205 62.1568L92.2741 64.69L129.884 64.6339L167.694 64.6369L167.717 62.1212Z" fill="#EAFCFC"/>
<path d="M133.045 195.146C132.316 194.983 131.404 195.092 130.645 195.095L125.027 195.171L112.683 195.231L112.708 190.358C113.639 190.064 115.358 190.292 116.362 190.294L126.068 190.31L148.163 190.314L160.377 190.366L156.638 194.032C156.334 194.336 155.84 195.007 155.493 195.173L133.533 195.144C133.354 195.089 133.228 195.123 133.045 195.146Z" fill="#46A7A8"/>
<path d="M112.609 105.978L178.319 105.977L178.345 110.85L112.604 110.912L112.609 105.978Z" fill="#46A7A8"/>
<path d="M163.288 134.507L178.187 134.439L178.166 139.395L127.862 139.404L112.617 139.417L112.624 134.61L163.288 134.507Z" fill="#46A7A8"/>
<path d="M112.678 162.659L178.238 162.646L178.22 167.664L112.66 167.705L112.678 162.659Z" fill="#46A7A8"/>
<path d="M129.884 64.6339L167.694 64.6369L167.619 71.2182L129.973 71.239L92.2902 71.2022L92.2739 64.69L129.884 64.6339Z" fill="#2C3F4E"/>
<path d="M99.1171 89.9311L103.957 89.8869L103.961 118.461L89.6492 118.564L72.8812 118.467L72.8589 89.9582L99.1171 89.9311Z" fill="#008175"/>
<path d="M89.9251 104.063L95.6616 98.5408L98.1343 101.241L89.3335 109.926L87.4152 111.831L79.4829 104.136L82.1372 101.648L87.2854 106.746L89.9251 104.063Z" fill="#EAFCFC"/>
<path d="M72.9131 178.019L89.5236 178.109L103.973 178.129L103.96 207.167L89.6194 207.106L72.9816 207.076L72.9131 178.019Z" fill="#F48D1C"/>
<path d="M89.4711 180.756L89.6331 180.802C93.0911 180.891 96.1913 182.476 98.5618 184.944C98.9248 185.322 99.2092 185.691 99.5025 186.123C101.149 188.55 102.094 191.755 101.616 194.688C101.077 197.998 99.2486 201.101 96.4724 203.019C94.6648 204.268 91.8475 205.457 89.624 205.274L89.5382 205.296C86.7582 205.314 83.5338 204.015 81.4403 202.2C78.8401 199.945 77.3692 196.958 77.1191 193.52C76.8906 190.381 78.0357 187.256 80.1015 184.904C82.6182 182.038 85.7689 181.001 89.4711 180.756Z" fill="#E33115"/>
<path d="M89.5285 183.84C92.4014 184.142 94.8986 185.118 96.7458 187.444C98.1245 189.18 98.8821 191.723 98.6013 193.926C98.2804 196.442 97.0421 198.777 95.021 200.323C93.5389 201.456 91.4653 202.091 89.6072 202.14L89.4988 202.134L89.4708 187.336L89.4614 184.901C89.4609 184.736 89.516 184.279 89.4587 184.146C89.4269 184.072 89.3606 184.019 89.3116 183.956L88.0962 183.95C88.539 183.802 89.0646 183.846 89.5285 183.84Z" fill="#CFCDCD"/>
<path d="M89.4986 202.133C87.4267 202.133 85.4246 201.379 83.7847 200.14C81.9867 198.782 80.59 196.65 80.3023 194.39C80.0002 192.016 80.4572 189.498 81.9707 187.59C83.4226 185.759 85.7474 184.214 88.096 183.95L89.3114 183.956C89.3604 184.019 89.4267 184.072 89.4584 184.145C89.5158 184.279 89.4607 184.736 89.4612 184.901L89.4706 187.336L89.4986 202.133Z" fill="#EAFCFC"/>
<path d="M89.6155 148.618L103.949 148.603L103.973 178.129L89.5236 178.109L72.9131 178.019L72.9545 148.648L89.5224 148.649L89.6155 148.618Z" fill="#008175"/>
<path d="M89.6886 163.258L96.0848 157.483L98.4989 160.062L89.1884 168.7L87.0325 170.766L79.0459 163.521L81.441 160.867C83.2089 162.416 85.1633 163.99 86.6877 165.777L86.7949 165.906L89.6886 163.258Z" fill="#EAFCFC"/>
<path d="M89.6488 118.564L103.96 118.461L103.949 148.603L89.6153 148.618L89.5221 148.649L72.9542 148.648L72.8809 118.467L89.6488 118.564Z" fill="#F48D1C"/>
<path d="M89.6538 135.056L93.501 131.4C94.4504 130.472 95.3637 129.405 96.425 128.607L98.8858 131.193L89.3387 140.513L87.7777 141.898L79.4023 133.936C79.4628 133.696 79.8045 133.443 79.9792 133.267L81.9353 131.291L87.7213 136.931L89.6538 135.056Z" fill="#EAFCFC"/>
</svg>
