<svg width="85" height="84" viewBox="0 0 85 84" fill="none" xmlns="http://www.w3.org/2000/svg">
<path d="M42.3326 0C19.1926 0 0.432617 18.76 0.432617 41.9C0.432617 65.04 19.1926 83.8 42.3326 83.8C65.4726 83.8 84.2326 65.04 84.2326 41.9C84.2326 18.76 65.4726 0 42.3326 0ZM42.3326 80.59C20.9826 80.58 3.68262 63.25 3.69262 41.9C3.70262 20.55 21.0326 3.24999 42.3826 3.25999C63.7326 3.26999 81.0326 20.6 81.0226 41.95C81.0226 47.41 79.8626 52.81 77.6126 57.79C71.3626 71.67 57.5526 80.59 42.3326 80.59Z" fill="url(#paint0_linear_53_3306)"/>
<path d="M55.2127 19.22H29.4527C24.1827 19.17 19.8627 23.39 19.7827 28.66V55.17C19.8427 60.45 24.1727 64.67 29.4427 64.61H55.1727C60.4527 64.67 64.7727 60.45 64.8427 55.17V28.66C64.7827 23.39 60.4727 19.17 55.2127 19.22ZM60.9927 55.17C60.9927 58.26 58.4927 60.76 55.4127 60.76C55.3427 60.76 55.2827 60.76 55.2127 60.76H29.4527C26.3727 60.87 23.7827 58.46 23.6727 55.37C23.6727 55.3 23.6727 55.24 23.6727 55.17V28.66C23.6727 25.57 26.1727 23.0701 29.2527 23.0701C29.3227 23.0701 29.3827 23.0701 29.4527 23.0701H55.1827C58.2627 22.9601 60.8527 25.37 60.9627 28.46C60.9627 28.53 60.9627 28.59 60.9627 28.66L60.9927 55.17Z" fill="url(#paint1_linear_53_3306)"/>
<path d="M42.3325 30.11C35.8225 30.11 30.5425 35.39 30.5425 41.9C30.5425 48.41 35.8225 53.69 42.3325 53.69C48.8425 53.69 54.1225 48.41 54.1225 41.9C54.1225 35.39 48.8425 30.11 42.3325 30.11ZM42.3325 49.67C37.9825 49.67 34.4525 46.14 34.4525 41.79C34.4525 37.44 37.9825 33.91 42.3325 33.91C46.6825 33.91 50.2125 37.44 50.2125 41.79C50.2125 41.83 50.2125 41.86 50.2125 41.9C50.1925 46.24 46.6825 49.76 42.3325 49.78V49.67Z" fill="url(#paint2_linear_53_3306)"/>
<path d="M54.9824 32.29C56.5122 32.29 57.7524 31.0498 57.7524 29.52C57.7524 27.9902 56.5122 26.75 54.9824 26.75C53.4526 26.75 52.2124 27.9902 52.2124 29.52C52.2124 31.0498 53.4526 32.29 54.9824 32.29Z" fill="url(#paint3_linear_53_3306)"/>
<defs>
<linearGradient id="paint0_linear_53_3306" x1="10.2505" y1="78.2652" x2="74.8669" y2="5.01659" gradientUnits="userSpaceOnUse">
<stop stop-color="#ECAE53"/>
<stop offset="0.33" stop-color="#E0213F"/>
<stop offset="0.65" stop-color="#9B358B"/>
<stop offset="1" stop-color="#4A4A9A"/>
</linearGradient>
<linearGradient id="paint1_linear_53_3306" x1="4.94571" y1="84.2741" x2="82.4965" y2="-3.61307" gradientUnits="userSpaceOnUse">
<stop stop-color="#ECAE53"/>
<stop offset="0.33" stop-color="#E0213F"/>
<stop offset="0.65" stop-color="#9B358B"/>
<stop offset="1" stop-color="#4A4A9A"/>
</linearGradient>
<linearGradient id="paint2_linear_53_3306" x1="4.94209" y1="84.2711" x2="82.4929" y2="-3.616" gradientUnits="userSpaceOnUse">
<stop stop-color="#ECAE53"/>
<stop offset="0.33" stop-color="#E0213F"/>
<stop offset="0.65" stop-color="#9B358B"/>
<stop offset="1" stop-color="#4A4A9A"/>
</linearGradient>
<linearGradient id="paint3_linear_53_3306" x1="5.9396" y1="85.1268" x2="83.4626" y2="-2.76034" gradientUnits="userSpaceOnUse">
<stop stop-color="#ECAE53"/>
<stop offset="0.33" stop-color="#E0213F"/>
<stop offset="0.65" stop-color="#9B358B"/>
<stop offset="1" stop-color="#4A4A9A"/>
</linearGradient>
</defs>
</svg>
