<svg width="85" height="84" viewBox="0 0 85 84" fill="none" xmlns="http://www.w3.org/2000/svg">
<path d="M82.5002 28.95C89.6602 50.96 77.6202 74.6 55.6102 81.76C33.6002 88.92 9.96022 76.88 2.80022 54.87C-4.35978 32.86 7.68023 9.22001 29.6902 2.06001C33.8802 0.700013 38.2602 0 42.6602 0C60.8102 0.01 76.8902 11.69 82.5002 28.95ZM42.6602 3.78C21.6002 3.81 4.55022 20.9 4.58022 41.97C4.61022 63.04 21.7002 80.08 42.7702 80.05C63.8302 80.02 80.8802 62.93 80.8502 41.86C80.8402 37.87 80.2102 33.91 78.9802 30.12C73.8702 14.39 59.2002 3.75 42.6602 3.78Z" fill="#1186C8"/>
<path d="M26.9102 34.62H34.9302V60.41H26.9102V34.62ZM30.9302 21.79C33.4902 21.81 35.5503 23.89 35.5403 26.46C35.5203 29.02 33.4402 31.08 30.8702 31.07C28.3202 31.05 26.2603 28.98 26.2603 26.43C26.2803 23.87 28.3602 21.79 30.9302 21.79Z" fill="#1186C8"/>
<path d="M39.8701 34.62H47.5501V38.14C49.1101 35.45 52.0401 33.85 55.1501 33.98C63.2501 33.98 64.7601 39.32 64.7601 46.27V60.41H56.9401V47.87C56.9401 44.88 56.9401 41.03 52.7801 41.03C48.6201 41.03 47.9701 44.3 47.9701 47.51V60.28H39.8701V34.62Z" fill="#1186C8"/>
</svg>
