<svg width="145" height="294" viewBox="0 0 145 294" fill="none" xmlns="http://www.w3.org/2000/svg">
<path d="M103.346 87.0918H100.97V115.94H103.346V87.0918Z" fill="#D5E7F7"/>
<path d="M139.964 145.842H133.041V157.205H139.964V145.842Z" fill="#D5E7F7"/>
<path d="M85.2823 145.842H78.3593V157.205H85.2823V145.842Z" fill="#D5E7F7"/>
<path d="M24.0257 84.2629C23.3497 81.8422 23.0105 79.348 23.0165 76.8438C23.0165 65.1933 30.1261 55.7446 38.9009 55.7446C40.1729 55.7483 41.4358 55.9488 42.6399 56.3382C44.0628 24.7996 58.6252 0.0100098 76.3765 0.0100098C93.2801 0.0100098 107.293 22.5068 109.82 51.8867C122.4 59.9903 131.013 76.5757 131.013 95.7267C131.067 104.323 129.237 112.837 125.639 120.727C137.31 127.548 144.743 137.834 144.743 149.346C144.743 169.885 121.073 186.537 91.8723 186.537C70.0137 186.537 51.2582 177.208 43.205 163.902C40.9378 164.409 38.6164 164.665 36.2871 164.667C16.4165 164.667 0.305054 146.115 0.305054 123.23C0.3101 105.305 10.1949 90.0355 24.0257 84.2629Z" fill="#A0E7B1"/>
<path d="M24.0253 84.263C24.0253 84.263 59.0335 71.3393 85.7161 94.1137C112.399 116.888 130.962 80.965 122.046 64.2743C127.642 72.7944 131.008 83.7604 131.008 95.7268C131.061 104.323 129.231 112.837 125.634 120.727C137.305 127.548 144.738 137.834 144.738 149.346C144.738 169.885 121.067 186.537 91.867 186.537C70.0083 186.537 51.2528 177.208 43.1996 163.902C40.9324 164.409 38.6111 164.666 36.2817 164.668C16.4111 164.668 0.299683 146.115 0.299683 123.23C0.309774 105.305 10.1946 90.0356 24.0253 84.263Z" fill="#50CC96"/>
<path d="M65.1741 302.75C65.8336 302.744 66.4644 302.493 66.9312 302.051C67.3981 301.609 67.6639 301.011 67.6718 300.386V44.1278C67.6429 43.5184 67.3674 42.9431 66.9026 42.5216C66.4379 42.1001 65.8196 41.8649 65.1766 41.8649C64.5336 41.8649 63.9154 42.1001 63.4506 42.5216C62.9859 42.9431 62.7104 43.5184 62.6815 44.1278V300.386C62.6815 301.013 62.9441 301.614 63.4115 302.057C63.879 302.501 64.513 302.75 65.1741 302.75V302.75Z" fill="#7A3909"/>
<path d="M65.1741 135.144C72.2383 135.144 78.2378 132.751 82.9658 128.041C96.186 114.849 94.9194 87.9008 94.8589 86.7616C94.8013 86.152 94.4972 85.5871 94.0104 85.1854C93.5236 84.7837 92.8919 84.5764 92.2474 84.6067C91.603 84.637 90.996 84.9027 90.5535 85.3481C90.111 85.7935 89.8673 86.3841 89.8736 86.9961V86.9961C89.8736 87.2594 91.0947 113.073 79.3429 124.81C75.5434 128.596 70.9062 130.439 65.1741 130.439C64.513 130.439 63.879 130.688 63.4115 131.131C62.9441 131.575 62.6815 132.176 62.6815 132.803C62.6815 133.431 62.9441 134.032 63.4115 134.475C63.879 134.919 64.513 135.168 65.1741 135.168V135.144Z" fill="#7A3909"/>
<path d="M64.8263 187.533H65.3309C65.6611 187.518 65.9849 187.442 66.2835 187.307C66.5821 187.173 66.8496 186.983 67.0703 186.75C67.2911 186.517 67.4607 186.244 67.5692 185.948C67.6778 185.651 67.7232 185.338 67.7028 185.025C67.6824 184.712 67.5966 184.406 67.4504 184.125C67.3041 183.844 67.1004 183.593 66.851 183.387C66.6016 183.181 66.3116 183.024 65.9978 182.926C65.684 182.827 65.3527 182.789 65.0231 182.813C64.0694 182.866 63.1208 182.483 62.1217 181.631C59.0387 179.013 53.1956 169.794 48.6493 137.494C46.0204 118.827 45.1172 101.394 45.1172 101.222C45.0858 100.595 44.7932 100.006 44.304 99.5844C43.8148 99.1625 43.1689 98.9422 42.5085 98.9721C41.8481 99.0019 41.2272 99.2794 40.7824 99.7434C40.3377 100.208 40.1055 100.82 40.1369 101.447C40.1369 101.624 41.0553 119.243 43.7145 138.121C45.2787 149.25 47.1406 158.651 49.2649 166.06C52.0199 175.782 55.1484 182.028 58.8268 185.154C60.6635 186.729 62.7171 187.533 64.8263 187.533Z" fill="#7A3909"/>
</svg>
