<svg width="84" height="84" viewBox="0 0 84 84" fill="none" xmlns="http://www.w3.org/2000/svg">
<path d="M81.8332 28.95C88.9932 50.96 76.9532 74.6 54.9432 81.76C32.9332 88.92 9.29323 76.88 2.13323 54.87C-5.02677 32.86 7.01321 9.22001 29.0232 2.06001C33.2132 0.700013 37.5932 0 41.9932 0C60.1432 0.01 76.2232 11.69 81.8332 28.95ZM42.0032 3.78C20.9432 3.81 3.89321 20.9 3.92321 41.97C3.95321 63.04 21.0432 80.08 42.1132 80.05C63.1732 80.02 80.2232 62.93 80.1932 41.86C80.1832 37.87 79.5532 33.91 78.3232 30.12C73.2032 14.39 58.5332 3.75 42.0032 3.78Z" fill="black"/>
<path d="M19.0036 20.3014L36.8336 44.1414L18.8936 63.5314H22.9336L38.6436 46.5614L51.3336 63.5314H65.0736L46.2336 38.3514L62.9335 20.3114H58.8936L44.4436 35.9314L32.7536 20.3014H19.0036ZM24.9436 23.2714H31.2536L59.1336 60.5514H52.8236L24.9436 23.2714Z" fill="black"/>
</svg>
