<svg width="85" height="84" viewBox="0 0 85 84" fill="none" xmlns="http://www.w3.org/2000/svg">
<path d="M82.6667 28.95C89.8267 50.96 77.7867 74.6 55.7767 81.76C33.7667 88.92 10.1267 76.88 2.96673 54.87C-4.19327 32.86 7.84671 9.22001 29.8567 2.06001C34.0467 0.700013 38.4267 0 42.8267 0C60.9667 0.01 77.0467 11.69 82.6667 28.95ZM42.8267 3.78C21.7667 3.81 4.71672 20.9 4.74672 41.97C4.77672 63.03 21.8667 80.08 42.9367 80.05C63.9967 80.02 81.0467 62.93 81.0167 41.86C81.0067 37.87 80.3767 33.91 79.1467 30.12C74.0267 14.39 59.3667 3.75 42.8267 3.78Z" fill="#E73933"/>
<path fill-rule="evenodd" clip-rule="evenodd" d="M25.8968 55.88C24.3668 55.45 23.1368 54.3 22.5968 52.81C21.1768 48.9 20.7568 32.61 23.4868 29.4C24.3767 28.32 25.6668 27.63 27.0668 27.5C34.4168 26.72 57.1568 26.83 59.7768 27.78C61.2368 28.24 62.4168 29.33 62.9868 30.74C64.5468 34.76 64.5768 49.43 62.7868 53.31C62.2968 54.32 61.4768 55.14 60.4668 55.63C57.7468 57.19 29.4968 57.16 25.8968 55.88ZM37.5767 48.22L50.8168 41.35L37.5767 34.42V48.22Z" fill="#E73933"/>
</svg>
