<svg width="760" height="664" viewBox="0 0 760 664" fill="none" xmlns="http://www.w3.org/2000/svg">
<path d="M760.002 714.001L0.00212336 714.001L136.722 -39.9994L760.002 -39.9994L760.002 714.001Z" fill="#CFEBF9"/>
<path d="M436.703 272.638L440.469 274.865L437.867 276.644C437.621 275.302 437.123 273.937 436.703 272.638Z" fill="#F6A071"/>
<path d="M369.484 202.333C371.167 202.401 372.729 202.861 374.3 203.449L374.594 218.253L374.746 221.541L374.766 224.018L372.84 223.614C369.374 222.831 366.578 220.997 364.676 217.962C363.164 215.549 362.199 212.174 362.925 209.348L362.997 209.091C363.315 207.915 363.696 206.737 364.388 205.72C365.668 203.841 367.283 202.81 369.484 202.333Z" fill="#F48D1C"/>
<path d="M374.746 221.541C371.625 220.189 368.348 218.115 366.824 214.941C365.99 213.204 365.673 211.048 366.331 209.202C366.73 208.084 367.575 207.024 368.688 206.543C370.372 205.815 371.907 206.636 373.441 207.315L372.572 208.453C371.501 209.935 371.249 212.2 371.59 213.961C371.921 215.671 372.94 217.204 374.411 218.141L374.594 218.253L374.746 221.541Z" fill="#E33115"/>
<path d="M448.652 185.062C453.384 183.72 457.338 182.32 461.432 179.531C461.427 181.024 461.561 182.692 461.254 184.149C461.035 190.015 459.175 196.814 455.908 201.727C454.04 202.02 451.42 202.314 450.019 203.66C449.872 204.243 449.792 204.693 449.801 205.303L449.559 204.524L448.318 193.256L448.603 187.426L448.572 187.164L448.652 185.062Z" fill="#9092A0"/>
<path d="M448.652 185.062C453.384 183.72 457.338 182.32 461.431 179.531C461.427 181.024 461.561 182.692 461.254 184.149L461.22 182.378L460.885 182.261C457.357 184.822 453.06 187.236 448.603 187.426L448.572 187.164L448.652 185.062Z" fill="#787181"/>
<path d="M455.908 201.727C458.352 202.341 460.369 203.776 461.625 205.979C463.153 208.657 463.061 211.891 462.214 214.771C461.265 218.001 458.962 220.785 455.998 222.372C454.237 223.316 452.496 223.823 450.516 224.095C450.076 223.353 450.306 222.071 450.318 221.198L450.314 220.767C449.51 215.835 449.85 210.306 449.801 205.303C449.792 204.693 449.872 204.243 450.019 203.66C451.42 202.314 454.04 202.02 455.908 201.727Z" fill="#F48D1C"/>
<path d="M450.314 220.767L450.405 218.845L450.728 218.554C452.157 217.245 453.303 216.061 453.954 214.189L454.05 213.919C454.536 212.459 454.497 210.223 453.804 208.855C453.489 208.232 452.992 207.662 452.561 207.117C453.729 206.463 454.996 205.682 456.382 206.132C457.531 206.506 458.534 207.416 459.044 208.502C459.962 210.455 459.515 212.534 458.73 214.459C457.45 217.598 454.569 219.586 451.531 220.807C451.129 220.968 450.742 221.108 450.318 221.198L450.314 220.767Z" fill="#E33115"/>
<path d="M335.284 541.617C329.958 537.651 325.098 532.858 320.215 528.359L304.274 513.087C298.356 507.239 292.485 501.237 287.354 494.678C283.002 489.114 279.274 483.132 276.233 476.754C274.045 472.163 271.913 467.194 270.837 462.216C270.496 460.634 270.12 458.827 270.219 457.201C270.581 451.23 272.827 444.892 274.426 439.146L282.101 412.47L303.569 340.99L309.735 320.845L311.342 315.719C311.599 314.873 311.784 313.799 312.166 313.009C312.519 312.281 313.071 312.222 313.776 311.927C314.473 313.339 314.631 315.051 314.82 316.605L330.562 414.287L341.151 478.204C341.412 480.208 341.317 482.294 341.331 484.313C341.34 485.599 341.474 486.905 341.438 488.186C341.24 495.192 339.98 502.173 339.47 509.159L335.284 541.617Z" fill="#2C3F4E"/>
<path d="M314.82 316.605L330.562 414.287C329.864 415.466 329.528 416.795 329.069 418.078L326.948 423.916L318.215 447.84C316.544 452.316 315.06 456.984 312.766 461.181L315.751 466.879L315.514 466.755C315.161 466.5 315.125 466.374 314.663 466.251C313.532 465.948 312.384 465.314 311.228 465.185L307.51 464.688C306.417 464.444 305.166 464.525 304.047 464.49C300.588 464.38 297.136 464.74 293.673 464.783C296.802 462.398 300.178 461.227 304.026 460.512C305.116 460.31 306.227 460.327 307.299 460.129C308.67 459.877 310.15 459.96 311.545 459.954C305.393 453.682 296.505 453.277 288.308 452.585C295.204 450.302 305.393 450.833 311.979 453.944L312.18 454.042L316.916 428.675C318.208 420.79 318.882 412.906 319.444 404.945C320.22 393.981 320.654 382.735 319.7 371.778L319.082 360.436C318.998 359.463 319.07 358.47 318.915 357.506L316.746 336.113C316.556 335.018 316.579 333.93 316.391 332.849L315.859 328.244C315.507 326.512 315.409 324.654 315.224 322.881C315.005 320.778 314.707 318.715 314.82 316.605Z" fill="#435665"/>
<path d="M315.751 466.879L312.766 461.181C315.06 456.984 316.544 452.316 318.215 447.84L326.948 423.916L329.069 418.078C329.528 416.795 329.864 415.466 330.563 414.287L341.151 478.204C341.412 480.208 341.317 482.294 341.331 484.313C341.341 485.599 341.474 486.905 341.438 488.186C341.24 495.192 339.98 502.173 339.47 509.159L339.178 509.119C336.621 505.696 334.76 501.305 332.691 497.548L322.293 478.887L315.751 466.879Z" fill="#EAFCFC"/>
<path d="M369.484 202.333C369.901 202.3 370.234 202.244 370.63 202.108C369.748 199.665 368.235 197.273 367.156 194.878C363.521 186.804 360.472 177.575 361.327 168.62C362.184 159.642 368.202 149.939 377.517 147.967C379.651 147.515 381.799 147.484 383.966 147.616C384.036 147.62 384.123 147.675 384.175 147.629C384.447 147.388 384.874 145.811 385.031 145.406C385.507 144.174 386.092 143.013 386.763 141.876C388.33 139.221 390.56 136.909 392.94 134.971C397.734 131.067 403.474 128.779 409.562 127.891C420.225 126.334 431.154 130.401 439.188 137.365C443.171 140.819 446.674 144.808 450.936 147.94C456.96 152.368 463.698 155.087 471.128 155.862C470.476 159.572 468.381 162.961 465.946 165.765C464.508 167.422 462.908 168.894 461.561 170.636C465.144 169.545 468.468 168.002 471.819 166.335C469.301 171.821 465.996 175.627 461.432 179.531C457.338 182.32 453.384 183.72 448.652 185.062L448.572 187.164L448.603 187.426L448.318 193.256L449.559 204.524L449.801 205.303C449.85 210.306 449.51 215.835 450.314 220.767L450.318 221.198C450.306 222.071 450.076 223.353 450.516 224.095C449.793 225.003 449.972 228.126 449.855 229.475L448.683 240.634C448.49 242.398 448.491 244.688 447.934 246.367C447.499 247.68 445.457 249.278 444.472 250.231L437.021 257.472C436.358 258.122 435.041 259.16 434.676 259.996L434.711 260.287L435.065 271.609L436.703 272.637C437.123 273.937 437.621 275.302 437.867 276.644C436.378 278.17 434.491 279.532 432.73 280.739L428.742 280.839C415.503 280.817 402.411 274.555 393.141 265.307L392.988 262.717C392.82 261.33 389.916 258.945 388.904 257.912L378.022 246.528C377.032 245.477 375.448 244.13 374.789 242.893C374.565 242.474 374.786 240.106 374.785 239.46L374.766 224.018L374.746 221.541L374.594 218.253L374.3 203.449C372.729 202.861 371.168 202.401 369.484 202.333Z" fill="url(#paint0_linear_259_1156)"/>
<path d="M392.988 262.717C393.788 262.978 394.439 263.793 395.043 264.366C397.997 267.171 401.197 270.388 405.476 270.766L406.559 270.864C409.519 271.122 412.602 270.962 415.565 270.838C417.696 270.749 419.903 270.708 421.96 270.09C423.694 269.569 425.192 268.44 426.587 267.323C429.375 265.093 431.765 262.444 434.488 260.152L434.676 259.996L434.711 260.287L435.065 271.609L436.703 272.637C437.122 273.937 437.621 275.302 437.867 276.644C436.378 278.17 434.491 279.532 432.73 280.739L428.742 280.839C415.502 280.817 402.411 274.555 393.141 265.307L392.988 262.717Z" fill="#E33115"/>
<path d="M390.974 229.027C391.507 226.902 393.762 224.046 395.58 222.895C398.349 221.144 403.009 220.472 406.177 221.179L406.463 221.248C408.58 221.743 410.454 223.285 412.565 223.508C414.672 223.731 416.324 222.749 418.203 221.968C421.342 220.662 424.395 220.606 427.682 221.474C431.117 222.381 433.05 224.031 434.774 227.067C434.99 229.287 435.574 231.438 435.976 233.628C436.854 238.422 436.712 243.244 435.678 247.996C434.634 252.79 431.567 257.087 428.48 260.795C427.628 260.056 426.415 258.463 426.083 257.4C424.679 255.085 422.769 252.921 421.09 250.793C419.9 249.284 418.687 247.464 417.245 246.193C416.766 245.77 416.142 245.355 415.513 245.2C414.462 244.94 412.902 245.177 411.988 245.759C410.288 246.842 408.977 248.796 407.721 250.355L401.567 258.075C400.704 259.419 399.628 260.56 398.53 261.71C395.251 258.003 392.165 252.275 391.132 247.389C390.262 243.267 390.184 239.16 390.267 234.966C390.289 233.856 390.408 232.808 390.634 231.723C390.787 230.984 391.088 230.129 391.015 229.372L390.974 229.027Z" fill="#F6A071"/>
<path d="M427.123 231.577L427.375 230.705C428.341 230.236 429.8 230.375 430.87 230.341C430.578 231.81 430.098 233.1 429.244 234.344C426.515 238.32 422.467 240.62 417.802 241.546L416.371 241.803C411.017 242.407 404.903 241.106 400.667 237.636C398.504 235.865 396.285 233.414 395.992 230.527L399.503 230.914L399.655 231.173C399.517 232.869 399.886 233.93 401.032 235.205C403.759 238.24 409.143 239.144 413.025 239.232C417.114 239.324 422.343 238.853 425.379 235.741C426.501 234.591 426.869 233.114 427.123 231.577Z" fill="#E33115"/>
<path d="M400.156 230.322C403.3 231.001 406.672 231.207 409.881 231.338C415.549 231.569 421.465 231.382 427.065 230.46L427.123 231.577C426.869 233.114 426.501 234.592 425.379 235.741C422.343 238.853 417.114 239.324 413.025 239.232C409.143 239.144 403.759 238.24 401.032 235.205C399.886 233.93 399.517 232.87 399.655 231.173L399.725 231.182L400.156 230.322Z" fill="#EAFCFC"/>
<path d="M390.974 229.027C391.507 226.902 393.762 224.046 395.58 222.895C398.349 221.144 403.009 220.472 406.177 221.179L406.463 221.248C408.58 221.743 410.454 223.285 412.565 223.508C414.672 223.731 416.324 222.749 418.203 221.968C421.342 220.662 424.395 220.606 427.682 221.474C431.117 222.381 433.05 224.031 434.774 227.067C434.99 229.287 435.574 231.438 435.976 233.628C436.854 238.422 436.712 243.244 435.678 247.996C434.634 252.79 431.567 257.087 428.48 260.795C427.628 260.056 426.415 258.463 426.083 257.4C429.922 251.156 432.451 245.689 432.594 238.208C432.642 235.652 432.622 231.656 430.737 229.703C429.445 229.652 428.253 229.967 427.065 230.46C421.465 231.383 415.549 231.569 409.881 231.338C406.672 231.207 403.3 231.001 400.156 230.322L395.822 229.335L395.396 229.737C394.683 231.186 394.514 232.93 394.404 234.526C394.095 239.025 394.697 243.504 396.133 247.774C397.399 251.541 399.659 254.643 401.567 258.075C400.704 259.419 399.628 260.56 398.53 261.71C395.251 258.003 392.165 252.275 391.132 247.389C390.262 243.267 390.184 239.16 390.267 234.966C390.289 233.856 390.408 232.808 390.634 231.723C390.787 230.984 391.088 230.129 391.015 229.372L390.974 229.027Z" fill="#787181"/>
<path d="M390.974 229.027C389.156 231.996 387.743 235.132 386.496 238.376C380.999 231.259 377.903 221.803 376.789 212.967C376.425 210.076 376.392 207.174 376.167 204.273L375.195 186.757L375.019 176.911C375.012 175.896 374.837 174.532 375.007 173.547C375.237 172.219 377.642 169.612 378.606 168.611C381.788 165.308 385.584 163.037 389.538 160.798C392.349 159.207 394.945 157.482 398.297 157.439C407.487 157.321 413.162 167.572 419.038 173.27C424.54 178.604 432.392 183.598 440.07 184.967C442.346 185.373 444.695 185.329 446.998 185.293L448.652 185.062L448.572 187.164L448.603 187.426L448.318 193.256L449.559 204.524C449.423 212.324 448.671 220.815 445.906 228.176C444.5 231.922 442.467 235.398 440.333 238.766C438.767 234.929 437.493 230.278 434.774 227.067C433.05 224.031 431.117 222.381 427.682 221.474C424.395 220.606 421.343 220.662 418.203 221.968C416.324 222.749 414.672 223.73 412.565 223.507C410.455 223.284 408.58 221.743 406.463 221.248L406.177 221.179C403.009 220.472 398.349 221.144 395.58 222.895C393.762 224.046 391.507 226.901 390.974 229.027Z" fill="#F6A071"/>
<path d="M397.178 200.546C398.786 201.039 400.04 202.533 400.852 203.931L401.052 204.795C399.883 205.175 396.225 205.293 395.148 204.785C395.772 204.441 396.663 203.91 397.049 203.286C397.592 202.406 397.339 201.504 397.178 200.546Z" fill="#EAFCFC"/>
<path d="M424.35 203.734L424.603 203.212C425.45 201.741 427.087 200.212 428.76 199.799C428.132 200.683 427.621 201.305 427.831 202.444C428.015 203.44 428.626 203.917 429.429 204.44L429.713 204.627L429.889 204.737C428.205 205.152 426.16 205 424.419 205.049L424.122 204.768L424.35 203.734Z" fill="#EAFCFC"/>
<path d="M389.786 200.358C390.854 199.853 391.871 199.447 393.055 199.333C392.174 200.318 391.329 201.206 391.348 202.624C391.361 203.662 391.978 204.309 392.675 204.997C391.61 205.188 388.028 205.366 387.237 204.842C387.186 204.565 387.165 204.539 387.199 204.214C387.364 202.628 388.704 201.386 389.786 200.358Z" fill="#EAFCFC"/>
<path d="M433.537 199.547C434.467 199.662 435.199 200.016 435.993 200.502C437.145 201.976 437.572 203.238 437.873 205.068C435.829 205.042 433.717 205.121 431.696 204.8C432.491 204.289 433.611 203.67 433.989 202.773C434.292 202.055 434.297 201.613 434.018 200.92L434 201.775C433.665 202.21 433.767 202.105 433.286 202.168L432.854 201.775L432.873 200.889C433.286 200.405 433.453 200.204 433.537 199.547Z" fill="#EAFCFC"/>
<path d="M428.76 199.799C430.601 199.132 431.644 199.19 433.537 199.548C433.453 200.204 433.286 200.405 432.873 200.889L432.854 201.775L433.286 202.168C433.767 202.105 433.665 202.21 434 201.775L434.018 200.92C434.297 201.613 434.292 202.055 433.989 202.773C433.611 203.67 432.491 204.289 431.696 204.8L429.889 204.737L429.713 204.627L429.429 204.44C428.626 203.917 428.015 203.44 427.831 202.444C427.621 201.305 428.132 200.683 428.76 199.799Z" fill="black"/>
<path d="M393.055 199.332C393.912 199.231 394.733 199.297 395.591 199.356C396.087 199.757 396.609 200.265 397.178 200.546C397.339 201.504 397.592 202.406 397.049 203.286C396.663 203.91 395.772 204.441 395.148 204.785C394.272 204.994 393.574 205.086 392.675 204.997C391.977 204.309 391.361 203.662 391.347 202.624C391.329 201.206 392.174 200.318 393.055 199.332Z" fill="black"/>
<path d="M412.908 194.792L413.209 194.858L414.735 208.605L415.512 214.506C415.69 215.746 415.992 217.276 415.691 218.516C415.431 219.583 414.603 220.408 413.667 220.907C413.353 221.031 413.461 221.016 413.157 221.041C412.541 221.091 412.511 221.135 412.034 220.729L413.285 219.657C413.791 219.174 413.954 218.665 413.998 217.977C414.21 214.66 413.417 210.888 413.162 207.543C412.837 203.297 412.883 199.047 412.908 194.792Z" fill="#E33115"/>
<path d="M426.802 187.85C431.014 187.664 434.656 188.869 437.947 191.503C439.408 192.673 440.412 193.993 441.349 195.611C441.59 196.027 441.975 196.537 442.028 197.008L439.639 195.891C436.003 193.99 432.242 192.863 428.157 192.441C426.973 192.319 425.549 192.489 424.419 192.233C423.766 192.084 423.718 191.881 423.378 191.35C423.347 190.64 423.257 190.259 423.622 189.605C424.255 188.473 425.64 188.128 426.802 187.85Z" fill="#787181"/>
<path d="M394.466 188.531C396.09 188.315 397.865 188.336 399.47 188.667C400.3 188.837 401.029 189.161 401.476 189.924C401.86 190.581 401.751 191.089 401.532 191.773C401.099 192.208 400.671 192.621 400.08 192.828C398.83 193.266 397.369 193.377 396.065 193.623C393.409 194.125 390.983 194.773 388.504 195.87C386.5 196.804 384.962 197.816 383.326 199.314C383.798 197.555 384.207 195.898 385.22 194.35C387.344 191.103 390.756 189.291 394.466 188.531Z" fill="#7B5E6E"/>
<path d="M393.141 265.307C402.411 274.555 415.503 280.818 428.742 280.839L432.73 280.739C434.491 279.532 436.378 278.17 437.867 276.644L440.469 274.865C443.41 276.642 446.711 279.098 449.266 281.414C449.272 287.141 449.574 293.097 448.825 298.783L448.735 299.014C447.94 301.102 447.658 303.595 446.99 305.784C445.596 310.353 443.824 314.5 441.894 318.866L431.769 309.666C430.635 308.696 429.448 307.474 428.176 306.707L422.094 314.24C420.901 315.776 419.62 317.275 418.575 318.918C419.579 322.812 419.948 326.919 420.499 330.904L423.106 349.968L424.89 363.823C425.229 366.426 425.739 369.116 425.817 371.74C422.637 370.921 417.841 368.721 414.776 370.477C413.874 370.994 413.28 371.805 412.823 372.72C411.675 375.021 411.081 377.84 410.327 380.301L406.393 392.793C405.992 394.042 405.598 396.072 404.844 397.139C404.539 399.781 403.299 402.526 402.466 405.056L397.937 418.965L397.753 419.646C399.092 419.644 400.305 419.548 401.498 420.241L401.841 420.435C404.363 421.904 406.498 424.066 408.786 425.864L419.025 433.578C420.991 435.258 423.259 436.942 424.86 438.973C427.223 441.968 429.116 445.587 431.228 448.781C433.204 451.768 434.726 454.106 438.345 455.142L438.972 455.377L432.922 475.368C429.048 475.154 425.143 475.769 421.257 475.743C410.286 475.669 398.958 474.438 388.45 471.253C386.727 470.73 384.835 470.284 383.277 469.366L382.957 470.614L377.089 492.238C376.551 494.312 375.632 496.669 375.466 498.781C375.413 499.448 375.57 500.011 375.915 500.582C376.961 502.313 379.616 502.524 381.422 502.896L385.563 503.76L409.878 508.988L411.486 509.322L411.341 547.698L409.977 547.664L334.753 547.652L335.284 541.617L339.47 509.159C339.98 502.173 341.24 495.192 341.438 488.186C341.474 486.905 341.34 485.599 341.331 484.313C341.317 482.294 341.412 480.208 341.151 478.204L330.562 414.287L314.82 316.605C314.631 315.051 314.473 313.339 313.776 311.927C316.451 311.067 319.096 309.805 321.699 308.739L337.487 302.257L356.35 294.438C358.925 293.348 361.719 292.411 364.189 291.124C365.868 290.25 367.325 288.931 368.798 287.755C372.401 284.879 375.578 282.543 379.894 280.849C380.366 280.127 381.413 279.475 382.078 278.91L388.131 273.9L392.883 269.39C393.18 268.147 393.092 266.597 393.141 265.307Z" fill="#2C3F4E"/>
<path d="M409.878 508.988L411.486 509.322L411.341 547.698L409.977 547.664L409.878 508.988Z" fill="#A6C9CA"/>
<path d="M379.774 298.241L380.023 298.109C381.602 304.951 383.039 312.138 386.129 318.491C387.657 317.516 389.191 315.623 390.529 314.348C393.526 311.487 396.524 308.673 399.825 306.159L404.778 311.941L409.879 318.371C410.097 319.269 409.581 320.112 409.425 320.996L403.435 364.045L401.389 379.74C401.201 381.198 401.311 384.164 400.556 385.378L394.778 368.608L386.946 343.063C384.827 334.731 383.206 326.127 381.907 317.635C380.921 311.188 380.066 304.759 379.774 298.241Z" fill="#008175"/>
<path d="M410.325 298.105C411.276 297.339 412.338 296.297 413.427 295.769L416.908 297.993L419.703 299.979L428.176 306.707L422.095 314.24C420.901 315.776 419.62 317.275 418.576 318.918C419.579 322.813 419.948 326.919 420.499 330.904L423.106 349.968L424.89 363.823C425.229 366.426 425.739 369.116 425.817 371.74C422.637 370.921 417.841 368.721 414.776 370.477C413.875 370.994 413.28 371.805 412.823 372.72C411.675 375.021 411.081 377.84 410.327 380.301L406.393 392.793C405.992 394.042 405.598 396.072 404.844 397.139L400.556 385.378C401.312 384.164 401.201 381.198 401.389 379.74L403.435 364.045L409.426 320.996C409.581 320.112 410.097 319.269 409.88 318.371L404.778 311.941L399.825 306.159L409.474 298.758C409.561 298.577 410.138 298.242 410.325 298.105Z" fill="#2C3F4E"/>
<path d="M393.141 265.307C402.411 274.555 415.502 280.818 428.742 280.839L432.73 280.739C434.491 279.532 436.378 278.17 437.867 276.644L440.469 274.865C443.41 276.642 446.711 279.098 449.266 281.414C449.272 287.141 449.574 293.097 448.825 298.783L448.735 299.014C447.94 301.102 447.658 303.595 446.99 305.784C445.596 310.353 443.824 314.5 441.894 318.866L431.769 309.666C430.635 308.696 429.448 307.474 428.176 306.707L419.702 299.979L416.907 297.993L413.427 295.769C412.338 296.297 411.276 297.339 410.324 298.105C410.138 298.242 409.561 298.577 409.474 298.758L399.825 306.159C396.524 308.673 393.526 311.487 390.528 314.348C389.191 315.623 387.657 317.516 386.129 318.491C383.039 312.138 381.601 304.951 380.023 298.109L379.774 298.241C379.14 292.663 378.874 286.375 379.894 280.849C380.366 280.127 381.413 279.475 382.078 278.91L388.131 273.9L392.883 269.39C393.18 268.147 393.092 266.597 393.141 265.307Z" fill="#0ABEA3"/>
<path d="M393.141 265.307C402.411 274.555 415.503 280.818 428.742 280.839L432.73 280.739L413.639 295.258L401.155 285.097C396.75 281.573 391.937 278.072 388.131 273.9L392.883 269.39C393.18 268.147 393.092 266.597 393.141 265.307Z" fill="#F6A071"/>
<path d="M397.753 419.646C399.092 419.643 400.305 419.548 401.498 420.241L401.841 420.435C404.363 421.904 406.498 424.066 408.787 425.864L419.025 433.578C420.991 435.258 423.259 436.942 424.861 438.973C427.223 441.968 429.116 445.587 431.229 448.781C433.204 451.768 434.726 454.106 438.345 455.142L438.972 455.376L432.922 475.368C429.048 475.154 425.143 475.769 421.257 475.743C410.286 475.669 398.958 474.438 388.451 471.253C386.727 470.73 384.835 470.284 383.277 469.366C382.178 468.44 379.158 467.752 378.588 466.478C378.036 465.245 377.763 464.095 378.303 462.803C378.856 461.481 380.776 461.019 382.004 460.531C380.711 459.722 379.128 458.893 378.786 457.261C378.535 456.065 378.984 454.891 379.693 453.936C380.83 452.406 382.498 452.197 384.247 451.946C382.531 450.598 381.062 449.537 380.663 447.232C380.549 446.574 380.718 445.652 381.131 445.112C382.545 443.263 384.617 443.082 386.733 442.878C385.768 442.154 384.549 441.34 383.791 440.4C383.095 439.536 383.076 438.123 383.28 437.088C383.465 436.156 384.189 435.234 385.008 434.77C386.826 433.739 390.636 435.476 392.63 435.975L395.645 426.505L396.559 423.521L397.753 419.646Z" fill="#F6A071"/>
<path d="M402.972 433.024C405.108 434.474 411.282 438.549 412.065 440.746C411.815 441.374 411.741 441.32 411.118 441.612C409.25 441.583 407.453 440.93 405.687 440.371L397.072 437.382L402.846 436.555C403.127 435.483 402.975 434.136 402.972 433.024Z" fill="#E33115"/>
<path d="M395.645 426.505L395.888 426.789L396.626 427.802C397.854 429.616 399.396 430.629 401.183 431.823C401.698 432.168 402.56 432.587 402.972 433.024C402.975 434.136 403.127 435.483 402.846 436.555L397.072 437.382C395.53 437.106 394.172 436.289 392.63 435.975L395.645 426.505Z" fill="#F48D1C"/>
<path d="M449.266 281.414L455.754 286.654C457.463 288.127 459.277 289.998 461.257 291.073C463.846 292.478 467.126 293.287 469.881 294.371L489.848 302.546L502.835 307.689C506.295 309.049 510.538 310.179 513.434 312.529C516.518 315.032 517.205 318.993 518.326 322.61L521.447 332.786L544.689 418.283L553.35 457.177L556.821 476.266C557.423 480.648 557.906 485.916 555.066 489.638C550.781 495.258 541.94 497.34 535.282 498.147C530.634 498.71 525.932 498.691 521.257 498.558C509.704 498.229 498.47 496.467 487.081 494.645L493.871 547.493C493.117 547.857 491.116 547.608 490.237 547.605L479.491 547.576L434.483 547.611L419.166 547.636C416.576 547.647 413.924 547.546 411.341 547.698L411.486 509.322L409.878 508.988L385.563 503.76L381.422 502.896C379.616 502.524 376.961 502.313 375.915 500.582C375.57 500.011 375.413 499.448 375.466 498.781C375.632 496.669 376.551 494.312 377.089 492.238L382.957 470.614L383.277 469.366C384.835 470.285 386.727 470.731 388.45 471.253C398.958 474.438 410.285 475.669 421.257 475.743C425.143 475.769 429.048 475.154 432.922 475.369L438.972 455.377L438.345 455.142C434.726 454.106 433.204 451.768 431.228 448.781C429.116 445.587 427.223 441.968 424.86 438.973C423.259 436.942 420.991 435.258 419.025 433.578L408.786 425.864C406.498 424.067 404.363 421.904 401.841 420.435L401.498 420.241C400.305 419.548 399.092 419.644 397.753 419.646L397.937 418.965L402.466 405.056C403.299 402.526 404.539 399.782 404.844 397.139C405.598 396.072 405.992 394.042 406.393 392.793L410.327 380.301C411.081 377.84 411.675 375.021 412.823 372.72C413.279 371.805 413.874 370.994 414.776 370.477C417.841 368.721 422.637 370.921 425.817 371.74C425.739 369.116 425.229 366.426 424.89 363.823L423.106 349.968L420.499 330.904C419.948 326.919 419.579 322.813 418.575 318.918C419.62 317.275 420.901 315.776 422.094 314.24L428.176 306.707C429.448 307.475 430.635 308.696 431.769 309.666L441.894 318.866C443.824 314.5 445.596 310.353 446.99 305.784C447.658 303.595 447.94 301.102 448.735 299.014L448.825 298.783C449.574 293.097 449.272 287.141 449.266 281.414Z" fill="#2C3F4E"/>
<path d="M428.176 306.707C429.448 307.475 430.635 308.696 431.769 309.666L441.894 318.866C443.824 314.5 445.596 310.353 446.99 305.784C447.658 303.595 447.94 301.102 448.735 299.014L448.825 298.783C448.345 305.585 447.272 312.286 446.127 319C443.816 332.54 440.602 345.927 436.688 359.092C435.243 363.954 433.963 368.817 432.12 373.55L425.817 371.74C425.739 369.116 425.229 366.426 424.89 363.823L423.106 349.968L420.499 330.904C419.948 326.919 419.579 322.813 418.575 318.918C419.62 317.275 420.901 315.776 422.094 314.24L428.176 306.707Z" fill="#008175"/>
<path d="M488.734 456.925L488.533 456.882C485.98 456.389 482.854 456.692 480.23 456.692L484.551 444.176L489.246 431.38L494.042 414.63C498.542 396.708 501.437 378.253 504.866 360.101L508.817 338.687C509.357 335.589 509.566 332.158 510.39 329.149L510.554 329.241C509.94 340.018 510.381 351.051 510.555 361.849L511.828 400.846C512.521 414.424 513.48 427.921 515.894 441.316C516.762 446.132 517.59 451.112 519.455 455.654C521.633 455.726 523.821 455.709 525.948 456.214L526.359 456.308C531.567 457.531 537.716 459.567 541.939 462.9C536.217 460.582 529.366 457.565 523.177 456.947C520.066 456.636 516.906 457.045 513.785 456.915L488.734 456.925Z" fill="#435665"/>
<path d="M488.734 456.925L493.385 428.207L494.372 421.689C494.518 420.634 494.535 419.236 494.887 418.247L506.162 442.623C508.572 447.424 510.959 452.343 513.785 456.915L488.734 456.925Z" fill="#EAFCFC"/>
<path d="M438.345 455.142C438.443 454.112 439.385 453.02 439.955 452.163L444.194 445.845L464.034 415.705L471.188 404.771C472.455 402.825 473.568 400.651 475.077 398.889L475.529 399.025L458.009 455.692L451.734 454.693C450.349 454.413 448.461 453.67 447.105 453.778L445.832 458.287L439.35 478.37L438.422 480.867L446.554 484.314L440.997 504.042C440.323 506.418 439.821 509.281 438.704 511.49C438.267 512.354 437.588 512.921 436.73 513.342C436.237 513.584 435.407 514.009 434.871 514.081C434.443 514.138 433.58 513.881 433.136 513.809L428.402 512.873L411.486 509.322L409.878 508.988L385.563 503.76L381.422 502.896C379.616 502.524 376.961 502.313 375.915 500.582C375.57 500.011 375.413 499.448 375.466 498.781C375.632 496.669 376.551 494.312 377.089 492.238L382.957 470.614L383.277 469.366C384.835 470.284 386.727 470.73 388.45 471.253C398.958 474.438 410.285 475.669 421.257 475.743C425.143 475.769 429.048 475.154 432.922 475.368L438.972 455.377L438.345 455.142Z" fill="#E33115"/>
<path d="M404.844 397.139C405.598 396.072 405.992 394.042 406.393 392.793L410.327 380.301C411.081 377.84 411.675 375.021 412.823 372.72C413.28 371.805 413.875 370.994 414.776 370.477C417.841 368.721 422.637 370.921 425.817 371.74L432.12 373.55L452.971 379.328L457.054 380.412L459.896 381.185L470.677 384.004C472.675 384.531 475.138 384.866 476.968 385.77C477.495 386.031 477.988 386.603 478.296 387.1C478.822 387.947 478.911 388.826 478.638 389.778C478.107 391.634 477.306 393.427 476.732 395.276C476.429 396.254 476.093 398.259 475.53 399.025L475.077 398.889C473.568 400.651 472.455 402.825 471.188 404.771L464.035 415.705L444.194 445.845L439.955 452.163C439.385 453.02 438.443 454.112 438.345 455.142C434.726 454.106 433.204 451.768 431.229 448.781C429.116 445.587 427.223 441.968 424.861 438.973C423.259 436.942 420.991 435.258 419.025 433.578L408.787 425.864C406.498 424.066 404.363 421.904 401.841 420.435L401.498 420.241C400.305 419.548 399.092 419.644 397.753 419.646L397.937 418.965L402.466 405.056C403.299 402.526 404.539 399.781 404.844 397.139Z" fill="#F48D1C"/>
<defs>
<linearGradient id="paint0_linear_259_1156" x1="386.763" y1="264.803" x2="427.635" y2="130.418" gradientUnits="userSpaceOnUse">
<stop stop-color="#9A8C97"/>
<stop offset="1" stop-color="#8C9BA9"/>
</linearGradient>
</defs>
</svg>
