<svg width="760" height="754" viewBox="0 0 760 754" fill="none" xmlns="http://www.w3.org/2000/svg">
<path d="M760 754L-7.39098e-05 754L136.72 -2.88486e-05L760 -2.88486e-05L760 754Z" fill="#008175"/>
<g clip-path="url(#clip0_256_1004)">
<path d="M250 189.461L250.086 189.271C250.843 188.792 253.55 189.093 254.623 189.093H625.633L625.978 189.3L626 291.936V490.851V551.255V561.972C626 562.641 626.213 564.194 626 564.726C625.96 564.829 625.883 564.914 625.824 565.009L625.633 565.093L250.207 565.071L250 564.726V189.461Z" fill="#00AF8D"/>
<path d="M250 189.367L250.086 189.178C250.844 188.699 253.551 189 254.624 189H625.727L625.746 189.207L521.661 189.215L338.552 189.241C330.149 189.239 251.138 188.902 250.219 189.375L250 189.367Z" fill="#799DA0"/>
<path d="M250 189.367L250.219 189.375L250.205 564.748L250 564.726V189.367Z" fill="#67A794"/>
<path d="M561.468 405.834C562.083 406.702 565.021 407.232 566.12 407.406L566.282 407.427C569.108 409.073 571.329 411.351 572.216 414.583C573.088 417.757 572.634 421.774 572.615 425.068L572.38 425.341L571.468 425.403L546.764 425.396L561.468 405.834Z" fill="#67A794"/>
<path d="M517.853 408.039C518.737 407.569 519.672 406.845 520.651 406.624L520.869 406.58L523.451 406.243L534.339 420.082L537.146 423.487C537.616 424.055 538.223 424.68 538.547 425.343H512.391L512.352 418.487C512.334 417.054 512.148 415.325 512.574 413.947C513.368 411.381 515.537 409.284 517.853 408.039Z" fill="#83D0C4"/>
<path d="M454.173 394.409C462.062 397.771 470.549 401.568 476.715 407.665C478.879 409.805 480.79 412.214 481.932 415.061L482.63 417.106C483.237 419.617 482.877 422.811 482.843 425.405L444.905 425.395C445.382 424.687 446.009 423.953 446.334 423.168C447.586 420.148 449.692 416.858 451.597 414.186C451.298 413.706 450.562 412.581 450.493 412.03C450.435 411.567 450.964 410.573 451.123 410.077C452.19 406.733 453.693 403.263 454.286 399.798C454.582 398.07 454.344 396.143 454.173 394.409Z" fill="#BAD9DD"/>
<path d="M454.659 397.89C455.703 399.928 456.017 402.869 456.555 405.111L458.61 412.457L448.019 422.548L446.301 424.019C447.509 422.275 448.903 420.734 450.204 419.069L454.563 413.116C454.952 412.575 455.87 411.608 456.088 410.999C456.152 410.822 455.986 410.026 455.962 409.808L455.368 405.296L454.755 400.828C454.632 399.877 454.448 399.029 454.623 398.066L454.659 397.89Z" fill="#94C1C7"/>
<path d="M423.538 504.805C424.528 505.492 425.515 506.22 426.609 506.732C430.189 508.408 433.998 508.469 437.871 508.341L437.855 534.066L392.192 534.066L392.83 529.618C394.001 524.614 396.469 519.822 399.879 515.97C405.794 509.288 414.702 505.316 423.538 504.805Z" fill="#83D0C4"/>
<path d="M452.02 504.856C462.044 505.922 470.625 508.924 477.133 517.037C480.137 520.781 481.5 524.572 482.688 529.153L482.955 534.072L437.855 534.066L437.871 508.341C442.981 508.342 447.964 508.438 452.02 504.856Z" fill="#5BB9B3"/>
<path d="M438.214 389.516L440.345 389.194C444.414 388.291 447.033 386.13 450.207 383.623L450.181 392.911C450.904 393.119 451.621 393.31 452.308 393.62C452.932 393.86 453.595 394.074 454.173 394.409C454.344 396.143 454.582 398.07 454.286 399.798C453.693 403.263 452.19 406.733 451.123 410.077C450.964 410.573 450.435 411.567 450.493 412.03C450.562 412.581 451.298 413.706 451.597 414.186C449.692 416.858 447.586 420.148 446.334 423.169C446.009 423.953 445.382 424.687 444.905 425.395L442.841 425.407C439.882 425.326 436.709 425.168 433.773 425.473L430.919 425.438L392.533 425.463L392.519 414.743C394.27 412.614 395.884 410.62 397.96 408.782C404.189 403.267 411.766 399.072 419.264 395.531C420.757 394.825 422.176 394.009 423.758 393.509C424.437 393.387 425.093 393.129 425.746 392.908L425.805 383.809C426.759 384.48 427.831 385.415 428.569 386.309C430.903 388.18 433.22 389.309 436.211 389.55C436.707 389.59 437.445 389.712 437.927 389.627L438.214 389.516Z" fill="#EAFCFC"/>
<path d="M432.769 407.385C431.214 408.279 430.48 409.766 429.172 410.933C429.714 409.059 430.45 407.659 432.182 406.604L432.769 407.385Z" fill="#BAD9DD"/>
<path d="M421.024 399.543C421.273 400.135 421.099 401.091 421.053 401.715L420.289 408.67C420.201 409.282 419.756 410.958 419.89 411.492C419.92 411.613 420.392 412.063 420.488 412.173L422.774 414.761L430.682 424.793L430.61 425.014L429.455 423.807L417.527 412.557L421.024 399.543Z" fill="#BAD9DD"/>
<path d="M438.214 389.516L440.345 389.194C444.415 388.291 447.033 386.13 450.207 383.623L450.181 392.911C450.904 393.119 451.621 393.31 452.308 393.62C449.231 396.438 445.445 398.353 441.683 400.085C440.619 400.575 439.414 401.275 438.261 401.468L438.214 389.516Z" fill="#863823"/>
<path d="M425.805 383.809C426.759 384.48 427.831 385.415 428.569 386.309C430.903 388.18 433.22 389.309 436.211 389.55C436.707 389.59 437.445 389.712 437.927 389.627L438.214 389.516L438.261 401.468L438.017 401.41C432.832 399.712 427.339 397.806 423.758 393.509C424.437 393.387 425.093 393.129 425.746 392.908L425.805 383.809Z" fill="#BA6545"/>
<path d="M428.569 386.309C430.903 388.18 433.22 389.309 436.211 389.55C436.707 389.59 437.445 389.712 437.927 389.627L438.214 389.516L438.261 401.468L438.017 401.41L438.039 392.32C436.414 391.988 434.396 391.718 433.023 390.747C432.144 390.126 428.742 387.335 428.569 386.309Z" fill="#9A4624"/>
<path d="M432.182 406.604L436.278 403.137C436.912 402.623 437.587 401.969 438.327 401.626L442.181 404.629C443.016 405.257 443.981 405.867 444.709 406.613L441.558 409.944L442.841 425.407C439.882 425.326 436.709 425.168 433.773 425.473L434.677 413.23C434.733 412.451 435.093 410.873 434.927 410.176C434.748 409.426 433.286 408.001 432.769 407.385L432.182 406.604Z" fill="#008175"/>
<path d="M513.024 319.944C511.972 319.765 510.488 319.975 509.394 319.989L499.771 320.124L499.766 230.16L585.759 230.176L585.683 271.485L585.697 319.987L571.605 320.027L571.242 319.537L571.005 318.875C571.503 315.071 573.932 312.229 574.767 308.643C575.082 307.292 575.122 305.8 574.361 304.58C573.888 303.82 572.959 303.232 572.244 302.703C570.542 301.443 568.87 300.327 567.725 298.494L567.613 298.311C567.911 295.035 570.148 293.435 572.143 291.133C573.048 290.09 573.639 288.827 573.473 287.424C573.152 284.718 570.051 283.409 568.136 281.949C567.133 281.184 565.676 279.89 565.578 278.549C565.444 276.7 567.213 275.021 568.373 273.769C569.567 272.479 570.948 271.057 570.825 269.159C570.632 266.167 566.858 263.811 565.153 261.543C563.438 259.261 562.72 256.335 561.759 253.688C561.127 251.945 560.319 250.326 559.264 248.797C557.382 246.067 555.359 244.405 552.871 242.316C551.808 241.931 550.828 241.37 549.754 241.013C545.485 239.595 540.82 239.87 536.493 240.867C534.169 241.357 532.558 242.745 530.558 243.889C529.165 244.686 527.757 245.263 526.499 246.298C525.55 247.079 524.701 248.121 524.021 249.142C523.216 250.352 522.53 251.777 522.174 253.19C521.499 255.87 521.471 259.387 519.628 261.559C519.138 262.137 518.537 262.78 517.899 263.191C515.545 264.707 510.899 266.096 511.551 269.779C512.191 273.396 519.34 276.379 516.575 280.447C514.872 282.952 509.002 284.084 509.766 288.038C510.026 289.387 510.844 290.599 511.756 291.595C513.746 293.766 518.394 296.803 516.41 300.339C515.889 301.268 514.922 301.824 514.013 302.3C513.085 302.788 511.916 303.252 511.115 303.927C509.514 305.278 509.507 307.499 509.928 309.39C510.499 311.951 512.41 314.237 513.756 316.46L513.024 319.944Z" fill="#008175"/>
<path d="M536.493 240.867C540.82 239.87 545.485 239.595 549.754 241.013C550.828 241.37 551.808 241.931 552.871 242.316C555.359 244.405 557.382 246.067 559.264 248.797C560.319 250.326 561.127 251.945 561.759 253.688C562.72 256.335 563.438 259.261 565.153 261.543C566.858 263.811 570.632 266.167 570.825 269.159C570.948 271.057 569.567 272.48 568.373 273.769C567.213 275.021 565.444 276.7 565.578 278.549C565.676 279.89 567.133 281.184 568.136 281.949C570.051 283.409 573.152 284.718 573.473 287.424C573.639 288.827 573.048 290.091 572.143 291.133C570.148 293.435 567.911 295.035 567.613 298.311L567.725 298.494C568.87 300.327 570.542 301.443 572.244 302.703C572.959 303.232 573.888 303.82 574.361 304.58C575.122 305.801 575.082 307.292 574.767 308.643C573.932 312.229 571.503 315.071 571.005 318.875L571.242 319.537L571.087 320.051L551.424 320.016C548.459 319.998 545.184 320.254 542.26 319.933C540.243 320.079 538.17 319.991 536.146 319.994L525.276 320.011L517.661 320.037C516.138 320.042 514.532 320.15 513.024 319.944L513.756 316.46C512.411 314.237 510.499 311.951 509.928 309.39C509.507 307.499 509.515 305.278 511.115 303.927C511.916 303.252 513.085 302.788 514.013 302.3C514.922 301.824 515.889 301.268 516.41 300.339C518.394 296.803 513.746 293.766 511.756 291.595C510.844 290.599 510.027 289.387 509.766 288.038C509.002 284.084 514.872 282.952 516.575 280.447C519.34 276.379 512.191 273.396 511.551 269.779C510.9 266.096 515.545 264.708 517.899 263.191C518.537 262.78 519.138 262.137 519.628 261.559C521.471 259.387 521.499 255.87 522.174 253.19C522.53 251.777 523.216 250.352 524.021 249.142C524.701 248.121 525.55 247.079 526.499 246.298C527.757 245.263 529.165 244.686 530.558 243.889C532.558 242.745 534.169 241.357 536.493 240.867Z" fill="#2C3F4E"/>
<path d="M526.686 269.071C526.696 268.231 526.628 267.402 527.048 266.644C527.761 265.354 529.05 264.247 530.011 263.124C532.429 260.294 533.9 256.61 534.932 253.073L534.997 252.845C536.294 256.2 538.129 258.741 540.701 261.237C542.829 262.639 544.81 263.811 547.211 264.673C547.546 264.794 547.424 264.743 547.754 264.976L548.038 265.08C549.165 265.479 550.333 265.649 551.445 266.16L551.657 267.077L551.749 266.358C553.067 266.422 554.366 267.18 555.754 267.272C555.919 267.988 555.508 268.42 556.128 268.882C556.53 268.613 556.71 268.37 556.981 267.981C557.016 267.761 556.981 267.871 557.186 267.58C557.66 266.906 558.436 266.856 559.187 266.728C560.372 267.153 561.179 267.472 561.729 268.667C562.462 270.262 562.247 272.612 561.55 274.19C561.052 275.317 559.883 276.519 558.695 276.91C558.159 277.086 557.691 277.177 557.146 276.988L557.016 277.011L556.494 277.06C555.946 277.945 555.748 279.188 555.321 280.164C553.863 283.495 551.802 285.917 549.133 288.348L549.237 298.35L549.329 299.738C548.808 300.11 548.655 300.787 548.449 301.369L546.917 306.095C545.464 310.53 544.161 315.524 542.068 319.683C541.538 319.016 541.322 318.126 541.033 317.332L539.525 313.123L535.919 303.499C535.389 302.133 534.485 300.636 534.182 299.223L534.8 289.583C531.001 286.915 528.807 282.189 527.595 277.864C526.465 278.045 525.406 277.96 524.403 277.36C522.899 276.462 521.657 274.359 521.334 272.659C521.129 271.574 521.378 269.89 522.021 268.963C522.477 268.307 523.155 267.708 523.991 267.643C525.11 267.556 525.948 268.36 526.686 269.071Z" fill="#F6A071"/>
<path d="M534.766 268.24L535.131 268.227L535.552 268.608C535.988 269.09 536.13 269.813 536.067 270.444C536.003 271.088 535.783 271.485 535.297 271.912L534.823 272.048C534.431 271.834 534.199 271.647 534.106 271.178C533.885 270.062 534.093 269.122 534.766 268.24Z" fill="#01141C"/>
<path d="M545.497 265.586L547.754 264.976L548.039 265.08C549.165 265.479 550.333 265.649 551.445 266.16L551.657 267.077L551.634 267.459L551.445 267.572C549.705 266.291 548.646 265.549 546.437 266.357C545.959 266.532 545.71 266.733 545.199 266.59L545.107 266.037L545.497 265.586Z" fill="#01141C"/>
<path d="M533.794 264.682C535.27 264.561 536.56 264.765 538.002 265.07C537.767 265.553 537.559 266.029 537.213 266.444L535.805 265.685L535.283 265.627C533.976 265.532 533.237 265.687 532.236 266.547C532.019 266.733 532.15 266.693 531.887 266.691C531.718 266.289 531.833 266.031 531.941 265.625C532.523 265.149 533.091 264.938 533.794 264.682Z" fill="#01141C"/>
<path d="M547.683 268.608C548.034 268.476 548.145 268.498 548.506 268.54C549.05 269.109 549.248 269.331 549.278 270.168C549.304 270.899 549.152 271.443 548.69 271.998C548.443 272.127 548.227 272.156 547.956 272.208C547.536 271.957 547.346 271.691 547.204 271.212C546.918 270.248 547.216 269.438 547.683 268.608Z" fill="#01141C"/>
<path d="M536.24 280.361C537.767 279.89 539.987 280.498 541.623 280.497L548.771 280.269L548.418 281.095C548.061 281.933 547.613 282.445 546.995 283.094C545.415 284.2 543.884 284.798 541.915 284.64C539.832 284.473 538.025 283.557 536.754 281.892C536.314 281.316 536.129 281.065 536.24 280.361Z" fill="#EAFCFC"/>
<path d="M549.133 288.348C551.802 285.917 553.863 283.495 555.321 280.164C555.748 279.187 555.946 277.945 556.494 277.06L557.016 277.011L557.065 277.338C557.33 279.296 557.19 281.224 557.575 283.207L557.628 283.5C558.488 288.052 561.878 290.303 564.475 293.735C565.564 295.173 566.407 297.016 567.613 298.311L567.725 298.494C568.87 300.327 570.542 301.443 572.244 302.703C572.959 303.232 573.888 303.82 574.362 304.58C575.122 305.8 575.082 307.292 574.767 308.643C573.932 312.229 571.503 315.071 571.005 318.875L571.242 319.537L571.087 320.051L551.424 320.016C548.459 319.998 545.184 320.254 542.26 319.933C540.243 320.079 538.17 319.991 536.146 319.994L525.276 320.011L517.661 320.037C516.138 320.042 514.532 320.15 513.024 319.944L513.756 316.46C514.348 313.347 516.207 309.789 518.112 307.3C519.498 305.489 521.249 303.671 523.332 302.678C524.974 301.896 526.845 301.525 528.59 301.027C530.296 300.54 532.044 299.908 533.805 299.675L533.999 299.651L534.182 299.223C534.486 300.636 535.389 302.133 535.919 303.499L539.525 313.123L541.033 317.332C541.322 318.126 541.538 319.016 542.068 319.683C544.161 315.524 545.464 310.53 546.917 306.095L548.449 301.369C548.655 300.787 548.808 300.11 549.329 299.738L549.237 298.35L549.133 288.348Z" fill="#E33115"/>
<path d="M549.133 288.348C551.802 285.917 553.863 283.495 555.321 280.164C555.748 279.187 555.946 277.945 556.494 277.06L557.016 277.011L557.065 277.338C557.33 279.296 557.19 281.224 557.575 283.207L557.628 283.5C558.488 288.052 561.878 290.303 564.475 293.735C565.564 295.173 566.407 297.016 567.613 298.311L567.725 298.494C568.87 300.327 570.542 301.443 572.244 302.703C572.959 303.232 573.888 303.82 574.361 304.58C575.122 305.801 575.082 307.292 574.767 308.643C573.932 312.229 571.503 315.071 571.005 318.875C570.249 317.23 569.861 315.436 569.17 313.759C567.495 309.692 564.057 304.843 560.009 302.906C559.062 302.452 557.97 302.258 556.955 302.015L551.846 300.581C551.125 300.374 550.201 300.278 549.563 299.89L549.329 299.738L549.237 298.35L549.133 288.348Z" fill="#01141C"/>
<path d="M392.519 414.743L392.242 333.311L483.038 333.342L483.05 374.41L483.071 403.526L483.054 411.614C483.048 413.256 483.186 415.078 482.75 416.666L482.678 416.942L482.63 417.106L481.932 415.061C480.79 412.214 478.879 409.805 476.715 407.665C470.549 401.568 462.062 397.771 454.173 394.409C453.595 394.074 452.932 393.86 452.308 393.62C451.62 393.31 450.904 393.119 450.181 392.911L450.207 383.623C447.033 386.13 444.414 388.291 440.345 389.194L438.214 389.516L437.927 389.627C437.445 389.712 436.707 389.59 436.211 389.55C433.22 389.309 430.903 388.18 428.569 386.309C427.831 385.415 426.759 384.48 425.805 383.809L425.746 392.908C425.093 393.129 424.437 393.387 423.757 393.509C422.176 394.009 420.757 394.825 419.263 395.531C411.766 399.072 404.189 403.267 397.96 408.782C395.884 410.62 394.27 412.614 392.519 414.743Z" fill="#008175"/>
<path d="M421.548 362.286C421.054 359.931 421.126 357.354 421.209 354.957C421.351 350.9 422.243 346.227 425.425 343.385C428.974 340.215 434.393 339.02 439.045 339.256C444.032 339.509 448.496 341.039 451.876 344.769C452.525 346.106 453.257 347.411 453.69 348.841C455.004 353.179 454.604 358.208 454.562 362.707C453.811 363.031 453.646 364.009 452.922 364.181C452.683 364.05 452.454 363.868 452.333 363.615C451.991 362.906 451.998 361.623 451.892 360.802C451.469 357.522 451.144 351.254 448.64 348.828C446.145 346.412 441.286 346.769 438.069 346.745C434.408 346.712 429.606 346.599 426.803 349.383C424.526 351.644 424.39 355.791 424.046 358.798L423.242 364.739C422.638 363.982 421.949 363.173 421.548 362.286Z" fill="#2C3F4E"/>
<path d="M438.069 346.745C441.286 346.769 446.145 346.412 448.64 348.828C451.145 351.254 451.469 357.522 451.892 360.802C451.998 361.623 451.991 362.906 452.333 363.615C452.454 363.868 452.683 364.05 452.922 364.181C453.646 364.009 453.811 363.031 454.562 362.707C455.821 363.175 456.998 363.753 457.541 365.068C458.113 366.455 457.734 368.689 457.084 369.974C456.454 371.218 455.166 372.078 454.02 372.8C453.857 376.669 452.658 380.542 450.207 383.623C447.033 386.13 444.415 388.291 440.345 389.194L438.215 389.516L438.228 378.716C440.973 378.324 442.313 377.1 443.94 374.99L438.052 375.177L437.999 374.135L438.069 346.745Z" fill="#9A4624"/>
<path d="M454.223 364.467C454.373 364.449 454.482 364.424 454.639 364.466C455.354 364.658 455.817 365.144 456.178 365.753C456.226 367.041 456.249 367.718 455.569 368.872C455.254 369.188 454.92 369.457 454.575 369.739L454.403 369.609L454.223 364.467Z" fill="#863823"/>
<path d="M445.098 364.1L445.803 363.998C446.343 363.956 446.774 364.156 447.16 364.519C447.74 365.065 447.727 365.566 447.767 366.303C447.476 366.974 447.189 367.259 446.586 367.665C446.323 367.741 446.034 367.831 445.76 367.837C445.349 367.848 444.849 367.594 444.565 367.319C444.019 366.789 443.917 366.205 443.943 365.477C444.223 364.782 444.462 364.496 445.098 364.1Z" fill="#01141C"/>
<path d="M441.806 359.509C442.726 359.318 443.727 359.41 444.658 359.493C446.3 359.64 449.898 360.195 450.936 361.437C450.882 362.081 450.883 362.161 450.488 362.664L449.892 362.607C448.37 362.154 446.707 361.893 445.117 361.965C444.183 362.007 443.188 362.208 442.259 362.151C441.874 362.127 441.493 362.023 441.196 361.772C440.749 361.395 440.664 360.98 440.631 360.427C440.932 359.887 441.272 359.756 441.806 359.509Z" fill="#2C3F4E"/>
<path d="M421.548 362.286C421.949 363.173 422.638 363.982 423.242 364.739L424.046 358.798C424.39 355.791 424.526 351.644 426.803 349.383C429.606 346.599 434.408 346.712 438.069 346.745L437.999 374.135L438.052 375.177L443.94 374.99C442.313 377.1 440.973 378.324 438.228 378.716L438.214 389.516L437.927 389.627C437.445 389.712 436.707 389.59 436.211 389.55C433.22 389.309 430.903 388.18 428.569 386.309C427.831 385.415 426.759 384.48 425.805 383.809C423.521 381.756 422.142 378.067 421.674 375.096C421.591 374.569 421.677 373.389 421.493 372.968C421.436 372.838 420.055 372.051 419.832 371.874C419.032 371.238 418.436 370.266 418.116 369.303C417.603 367.758 417.646 366.099 418.417 364.64C419.11 363.33 420.179 362.72 421.548 362.286Z" fill="#BA6545"/>
<path d="M432.976 375.031C432.892 374.593 432.904 374.695 433.092 374.347C434.698 374.07 436.373 374.144 437.999 374.135L438.052 375.177L432.976 375.031Z" fill="#E33115"/>
<path d="M420.773 364.467L421.115 364.568L421.109 367.926C421.111 368.454 421.197 369.128 420.979 369.609L420.606 369.426L420.478 369.287C419.807 368.429 419.767 366.797 419.895 365.753C419.965 365.181 420.362 364.827 420.773 364.467Z" fill="#E33115"/>
<path d="M432.976 375.031L438.052 375.177C438.046 376.298 438.134 377.518 437.986 378.624C436.589 378.261 435.309 377.642 434.195 376.72C433.655 376.272 433.056 375.764 432.976 375.031Z" fill="#BA6545"/>
<path d="M429.807 363.916C430.129 363.845 430.423 363.776 430.756 363.846C431.293 363.958 431.768 364.349 432.035 364.82C432.327 365.334 432.437 365.922 432.246 366.492C432.018 367.168 431.59 367.415 430.977 367.707C430.638 367.826 430.751 367.818 430.431 367.825C429.741 367.84 429.448 367.787 428.957 367.25C428.575 366.832 428.449 366.006 428.546 365.471C428.698 364.637 429.134 364.332 429.807 363.916Z" fill="#2C3F4E"/>
<path d="M432.796 359.494C433.478 359.401 434.321 359.446 434.926 359.765C435.137 360.018 435.369 360.246 435.436 360.579C435.532 361.053 435.448 361.121 435.201 361.499C433.339 362.581 431.729 361.964 429.719 362.272L427.794 362.563L426.111 362.9C425.701 362.639 425.571 362.143 425.388 361.713L425.56 361.43C427.975 360.151 430.079 359.698 432.796 359.494Z" fill="#2C3F4E"/>
<path d="M392.83 529.618L392.756 529.345C392.474 528.576 392.548 527.732 392.538 526.912L392.504 522.488L392.454 506.425L392.396 439.129L482.955 439.141L483.04 487.317L483.033 515.179L482.992 524.859C482.957 526.283 483.081 527.777 482.688 529.153C481.5 524.572 480.137 520.781 477.133 517.037C470.625 508.924 462.044 505.922 452.02 504.856C447.964 508.438 442.981 508.342 437.871 508.341C433.998 508.469 430.189 508.408 426.609 506.732C425.515 506.22 424.528 505.492 423.538 504.805C414.702 505.316 405.794 509.288 399.879 515.97C396.469 519.822 394.001 524.614 392.83 529.618Z" fill="#008175"/>
<path d="M454.153 470.765C455.892 471.439 457.249 472.214 458.06 474.008C458.892 475.847 459.041 477.585 458.259 479.475C457.625 481.009 456.263 482.546 454.683 483.143L454.056 483.346L454.153 470.765Z" fill="#F48D1C"/>
<path d="M417.643 483.089C416.853 482.295 416.264 481.429 415.882 480.37L415.778 480.068C415.215 478.47 415.307 476.759 416.016 475.224C416.904 473.301 418.74 470.928 420.754 470.166L420.878 475.744L420.969 485.514C419.746 484.806 418.706 484.017 417.643 483.089Z" fill="#F6A071"/>
<path d="M420.754 470.166C420.59 467.166 420.41 463.797 420.859 460.821C421.355 457.533 423.685 454.858 426.33 453.008C430.786 449.89 436.836 448.511 442.184 449.521C447.102 450.45 450.363 452.799 453.158 456.884C454.226 459.918 454.233 462.331 454.227 465.5L454.153 470.765L454.056 483.346C454.033 486.15 454.266 489.144 453.301 491.825C452.933 492.845 452.355 493.778 451.967 494.793C452.328 495.995 452.182 497.58 452.183 498.837C452.184 500.767 452.316 502.954 452.02 504.856C447.964 508.438 442.981 508.342 437.871 508.341C433.999 508.469 430.189 508.408 426.61 506.732C425.515 506.22 424.528 505.492 423.538 504.805L423.402 495.276C420.974 492.105 420.966 489.285 420.97 485.514L420.878 475.744L420.754 470.166Z" fill="#2C3F4E"/>
<path d="M434.128 486.531L434.317 486.496L434.632 486.443C435.893 486.219 437.134 486.271 438.411 486.29C440.646 486.479 442.445 486.934 444.381 488.098C442.927 489.783 440.676 491.572 438.415 491.823C436.723 492.011 435.338 491.741 433.958 490.65C433.21 490.058 432.698 489.416 432.62 488.444C432.583 487.981 432.655 487.576 432.962 487.21C433.297 486.809 433.644 486.685 434.128 486.531Z" fill="url(#paint0_linear_256_1004)"/>
<path d="M433.64 488.96C435.334 488.596 439.854 488.717 441.7 488.726L442.087 489.106L441.245 489.867L439.959 490.433L437.108 490.433C435.264 490.88 434.604 489.772 433.64 488.96Z" fill="#EAFCFC"/>
<path d="M433.64 486.759L433.995 486.723L434.742 486.515L436.211 486.312C438.591 486.086 440.618 486.723 441.72 486.957C441.654 487.574 441.755 487.783 441.04 488.297C439.264 488.651 437.498 488.654 435.628 488.699C434.81 488.096 434.232 487.675 433.806 486.957L433.64 486.759Z" fill="#EAFCFC"/>
<path d="M423.538 504.805L423.402 495.276C424.474 496.366 425.544 497.533 426.742 498.483C429.807 500.917 433.584 502.086 437.478 502.111L438.011 502.11L437.871 508.341C433.998 508.469 430.189 508.408 426.609 506.733C425.515 506.22 424.528 505.492 423.538 504.805Z" fill="#F6A071"/>
<path d="M451.967 494.793C452.328 495.995 452.182 497.58 452.183 498.837C452.184 500.767 452.316 502.954 452.02 504.856C447.964 508.438 442.981 508.342 437.871 508.341L438.011 502.11C439.122 502.114 440.28 501.928 441.369 501.716C445.732 500.864 449.465 498.489 451.967 494.793Z" fill="#F48D1C"/>
<path d="M437.74 483.713C435.898 483.688 433.715 483.512 431.936 484.025C430.484 484.443 429.226 485.313 427.947 486.09C427.55 485.999 427.142 485.9 426.776 485.716C425.483 485.064 424.294 483.551 423.91 482.181L423.841 481.926C423.726 481.52 423.622 481.134 423.586 480.711C423.257 476.808 423.517 472.655 423.521 468.729L423.531 464.462C423.534 463.693 423.453 462.812 423.606 462.064C423.93 460.482 425.014 458.976 426.02 457.752C429.317 460.888 433.071 462.006 437.525 462.392C440.029 462.243 442.406 461.936 444.85 461.338C446.264 460.991 447.756 460.31 449.206 460.195C449.762 460.15 450.136 460.224 450.627 460.476C450.967 460.869 451.223 461.16 451.296 461.698C451.719 464.816 451.428 468.335 451.438 471.489C451.45 476.015 451.705 480.691 451.39 485.201C451.082 485.639 450.846 485.921 450.259 485.942C449.684 485.962 448.927 485.615 448.4 485.413C446.999 484.875 445.652 484.198 444.178 483.865C442.291 483.438 439.702 483.711 437.74 483.713Z" fill="#F6A071"/>
<path d="M444.135 471.345C444.477 471.276 444.858 471.297 445.209 471.286C445.501 471.416 445.78 471.511 445.983 471.769C446.28 472.147 446.376 472.611 446.285 473.09C446.152 473.794 445.739 474.06 445.217 474.467C445.036 474.535 444.951 474.578 444.745 474.601C444.195 474.661 443.633 474.365 443.281 473.952C442.903 473.509 442.971 472.985 443.005 472.447C443.352 471.854 443.527 471.665 444.135 471.345Z" fill="#01141C"/>
<path d="M431.001 470.978L431.507 470.901C431.993 470.863 432.416 470.997 432.776 471.329C433.378 471.881 433.428 472.415 433.445 473.181C433.088 473.921 432.728 474.162 432.034 474.582C431.856 474.619 431.536 474.711 431.344 474.692C430.76 474.635 430.365 474.222 430.034 473.763C429.681 473.274 429.753 472.642 429.818 472.08C430.186 471.494 430.389 471.301 431.001 470.978Z" fill="#01141C"/>
<path d="M512.391 425.343L499.884 425.37L499.76 333.329L585.481 333.396C585.949 334.042 585.705 349.948 585.703 352.165L585.517 425.487L576.679 425.502C574.981 425.5 573.148 425.612 571.468 425.403L572.38 425.341L572.615 425.068C572.634 421.774 573.088 417.757 572.216 414.583C571.329 411.351 569.107 409.073 566.282 407.427L566.12 407.406C565.021 407.232 562.083 406.702 561.468 405.834L546.764 425.396L545.538 425.383L538.547 425.343C538.223 424.68 537.616 424.055 537.146 423.487L534.339 420.082L523.451 406.243L520.869 406.58L520.651 406.624C519.672 406.845 518.737 407.569 517.853 408.039C515.537 409.284 513.368 411.381 512.574 413.947C512.147 415.325 512.334 417.054 512.352 418.487L512.391 425.343Z" fill="#008175"/>
<path d="M548.309 346.609C550.215 347.147 552.126 347.624 553.92 348.485C557.526 350.216 560.136 353.382 562.059 356.814L562.507 357.652C564.908 363.275 565.405 368.364 564.393 374.365C564.004 376.672 563.294 379.095 563.953 381.419C564.582 383.631 566.137 385.354 567.717 386.946C569.858 389.104 572.621 391.314 573.618 394.276C574.353 396.456 573.831 399.177 572.982 401.235C571.755 404.213 569.287 406.18 566.385 407.388L566.282 407.427L566.12 407.406C565.021 407.232 562.083 406.702 561.468 405.834C560.432 405.499 559.425 405.603 558.35 405.62C556.626 405.647 554.966 405.694 553.255 405.438C551.954 405.202 550.655 404.464 549.665 403.603L549.645 390.863C552.736 388.221 554.912 384.737 555.493 380.67C555.311 379.243 555.556 377.937 555.865 376.546C556.061 375.163 556.28 373.4 556.007 372.033C555.734 370.663 555.08 369.535 554.462 368.304L552.148 363.495C551.14 361.231 550.376 358.87 549.52 356.546L549.391 356.536L548.502 357.766C548.268 356.396 548.356 354.94 548.346 353.552L548.309 346.609Z" fill="#E33115"/>
<path d="M555.865 376.546L556.123 376.592C557.207 376.747 558.084 376.303 558.875 377.343C559.162 377.721 559.331 378.652 559.206 379.104C559.071 379.595 558.585 380.118 558.103 380.285C557.291 380.565 556.419 380.091 555.605 380.441L555.493 380.67C555.311 379.243 555.556 377.937 555.865 376.546Z" fill="#F48D1C"/>
<path d="M521.941 369.853C521.522 369.49 521.156 367.908 521.053 367.39C520.335 363.786 520.735 360.541 522.322 357.227C524.807 352.038 529.169 347.504 534.677 345.587C539.641 343.859 543.634 344.38 548.309 346.609L548.346 353.552C548.356 354.94 548.268 356.396 548.502 357.766C547.389 359.95 545.218 361.982 543.273 363.431L542.485 364.046C538.244 366.782 533.167 368.1 528.209 368.854L528.027 375.899L527.758 380.494C528.165 384.219 530.432 387.759 533.326 390.088L534.699 391.115L534.802 403.939C533.856 404.635 532.973 404.887 531.977 405.421C529.121 406.296 526.402 406.272 523.451 406.243L520.869 406.58L520.651 406.624C519.672 406.845 518.737 407.569 517.853 408.039L516.793 407.151C515.585 406.256 514.407 405.332 513.399 404.208C511.562 402.161 510.586 399.359 510.807 396.612C511.166 392.145 514.113 389.932 517.205 387.212C520.248 384.534 521.422 382.478 521.689 378.358C521.033 375.22 521.021 372.92 521.941 369.853Z" fill="#F48D1C"/>
<path d="M521.941 369.853L522.468 370.604C523.611 372.309 523.354 374.167 523.662 376.124C523.544 376.649 523.406 377.066 523.179 377.555C522.879 376.585 522.82 375.521 522.338 374.617L522.098 374.957L522.434 377.878L521.689 378.358C521.033 375.22 521.021 372.92 521.941 369.853Z" fill="#F6A071"/>
<path d="M524.047 379.762C525.253 380.336 526.139 380.549 527.48 380.176L527.758 380.494C528.165 384.219 530.432 387.759 533.326 390.088L534.699 391.115L534.802 403.939C533.856 404.634 532.973 404.887 531.977 405.421C529.121 406.296 526.402 406.272 523.451 406.243L520.869 406.58L520.651 406.624C519.672 406.845 518.737 407.569 517.853 408.039L516.793 407.151C516.954 406.789 516.849 406.529 516.85 406.154C516.853 405.481 517.006 404.693 517.311 404.092C518.926 400.919 522.677 399.148 524.93 396.485L525.158 396.212L525.583 395.707C526.848 394.116 527.44 392.277 527.188 390.25L527.141 389.901C526.951 388.409 526.588 387.002 526.034 385.602C525.381 383.952 524.062 381.81 524.042 380.031L524.047 379.762Z" fill="#E33115"/>
<path d="M548.502 357.766L549.391 356.536L549.52 356.546C550.376 358.87 551.14 361.231 552.148 363.495L554.462 368.304C555.08 369.535 555.734 370.663 556.007 372.033C556.28 373.4 556.061 375.163 555.865 376.546C555.556 377.937 555.311 379.243 555.493 380.67C554.912 384.737 552.736 388.221 549.645 390.863L549.665 403.603C550.655 404.464 551.954 405.202 553.255 405.438C554.966 405.694 556.625 405.647 558.35 405.62C559.425 405.603 560.432 405.499 561.468 405.834L546.764 425.396L545.538 425.383L538.547 425.343C538.223 424.68 537.616 424.055 537.146 423.487L534.339 420.082L523.451 406.243C526.402 406.272 529.121 406.296 531.977 405.421C532.973 404.887 533.856 404.634 534.802 403.939L534.699 391.115L533.326 390.088C530.432 387.759 528.165 384.219 527.758 380.494L528.026 375.899L528.209 368.854C533.167 368.1 538.243 366.782 542.485 364.046L543.273 363.431C545.218 361.982 547.389 359.949 548.502 357.766Z" fill="#F6A071"/>
<path d="M548.057 370.16C548.172 370.115 548.305 370.055 548.429 370.049C548.888 370.026 549.229 370.254 549.49 370.619C549.744 370.975 549.854 371.497 549.792 371.93C549.718 372.438 549.454 372.747 549.057 373.049C548.546 373.181 548.463 373.179 547.956 373.031C547.538 372.583 547.229 372.301 547.229 371.629C547.229 370.907 547.598 370.628 548.057 370.16Z" fill="#01141C"/>
<path d="M534.751 369.609L535.105 369.498C535.587 369.424 535.931 369.563 536.259 369.914C536.554 370.231 536.649 370.708 536.662 371.127C536.683 371.847 536.447 372.21 535.983 372.73L535.729 372.812C535.175 372.92 535.026 372.825 534.55 372.572C534.35 372.28 534.161 372.031 534.106 371.672C533.976 370.815 534.215 370.261 534.751 369.609Z" fill="#01141C"/>
<path d="M542.995 381.429L547.903 381.609C546.753 383.635 545.585 385.142 543.352 386.039C541.98 386.063 540.607 386.015 539.325 385.46C537.706 384.758 536.938 383.036 536.308 381.5L542.995 381.429Z" fill="#EAFCFC"/>
<path d="M553.255 405.438C554.966 405.694 556.625 405.647 558.35 405.62C559.425 405.603 560.432 405.499 561.468 405.834L546.764 425.396L545.538 425.383L538.547 425.343C538.223 424.68 537.616 424.055 537.146 423.487L534.339 420.082L523.451 406.243C526.402 406.272 529.121 406.296 531.977 405.421L542.863 421.153C543.14 420.755 543.324 420.313 543.532 419.877L553.255 405.438Z" fill="#EAFCFC"/>
<path d="M316.54 319.982C315.902 320.226 314.953 320.131 314.266 320.132L309.665 320.137L291.06 320.052C290.908 319.14 290.979 318.152 290.973 317.223L290.95 311.948L290.955 294.09L290.958 230.129L376.18 230.144L376.151 275.333L376.191 303.877L376.309 314.235C376.32 315.998 376.463 317.915 376.221 319.659L375.776 320.077L345.227 319.982L343.127 320.012L339.544 319.966L337.712 319.963L329.909 319.976L328.462 319.98L325.815 319.975L316.637 319.963L316.54 319.982Z" fill="#008175"/>
<path d="M351.51 262.976L352.838 263.026C353.125 263.561 352.954 264.045 352.882 264.641C352.674 266.372 352.346 268.059 351.838 269.729C351.169 271.93 350.281 273.299 348.56 274.843C347.987 273.568 348.997 265.096 349.539 263.39C350.109 263.073 350.866 263.056 351.51 262.976Z" fill="#F48D1C"/>
<path d="M344.597 246.587C346.088 246.962 347.846 247.746 348.99 248.793C349.506 249.265 349.88 249.871 350.347 250.388C350.769 251.167 351.24 251.96 351.484 252.815C352.422 256.097 351.674 259.637 351.51 262.976C350.866 263.056 350.11 263.073 349.539 263.39L349.035 263.325C346.59 261.073 346.268 258.234 346.242 255.109C346.229 253.655 346.298 252.052 345.797 250.668L345.705 250.427C345.235 249.158 344.713 248.458 343.633 247.628C344.098 247.298 344.303 247.075 344.597 246.587Z" fill="#CBBEB1"/>
<path d="M316.846 262.591C315.977 260.193 315.748 256.167 316.16 253.703C316.768 250.07 319.725 247.68 323.123 246.727C323.724 246.559 325.015 246.452 325.482 246.091C325.815 245.833 326.131 245.222 326.379 244.875C326.906 244.139 327.429 243.54 328.195 243.035C330.76 241.344 334.319 241.004 337.276 241.625C339.656 242.125 341.531 243.201 342.847 245.296L343.291 246.003C343.585 246.472 344.075 246.452 344.597 246.587C344.303 247.075 344.098 247.298 343.633 247.628C342.306 246.972 340.637 247.184 339.2 247.188L334.054 247.148L325.373 247.207C324.303 248.438 323.449 249.497 322.912 251.07C322.283 252.912 322.424 254.798 322.227 256.698C322.055 258.354 321.631 260.111 321.126 261.697C320.885 262.452 320.457 263.853 319.508 263.941L318.091 263.878C318.061 263.71 318.025 263.352 317.934 263.19C317.66 262.704 317.334 262.716 316.846 262.591Z" fill="#EAFCFC"/>
<path d="M316.87 296.231C318.594 295.415 320.76 295.2 322.621 294.863C322.751 295.402 322.996 296.067 323.029 296.615C324.942 297.06 326.77 297.753 328.666 298.257C329.842 298.57 331.981 298.716 332.938 299.393L332.975 299.544C331.637 299.994 330.266 301.582 329.308 302.626C329.947 303.596 330.391 304.558 330.893 305.597C331.07 305.964 331.418 306.409 331.519 306.78C331.591 307.042 331.462 307.707 331.442 307.996C331.347 309.381 331.14 310.74 330.937 312.113L329.909 319.976L328.462 319.98L325.815 319.975L316.637 319.963L316.54 319.982L292.475 319.958L293.631 316.824C297.807 306.892 305.21 300.843 315.045 296.847L316.87 296.231Z" fill="#EAFCFC"/>
<path d="M346.713 294.787L351.768 296.561L352.989 297.066C355.532 298.123 358.095 299.145 360.486 300.524C366.39 303.928 371.636 309.239 374.255 315.599C374.761 316.827 375.761 318.761 375.776 320.077L345.227 319.982L343.127 320.012L339.544 319.966L337.712 319.963L329.909 319.976L330.937 312.113C331.139 310.74 331.347 309.381 331.442 307.996C331.462 307.707 331.591 307.042 331.519 306.78C331.418 306.409 331.07 305.964 330.893 305.597C330.391 304.558 329.947 303.596 329.308 302.626C330.266 301.582 331.637 299.994 332.975 299.544L332.938 299.393C333.4 299.423 333.787 299.366 334.24 299.294C338.694 298.56 342.419 297.423 346.485 295.431L346.713 294.787Z" fill="#EAFCFC"/>
<path d="M351.768 296.561L352.989 297.066L350.822 303.863L356.434 305.306L353.665 309.411L354.073 309.873C354.021 310.251 354.109 310.1 353.862 310.315C352.629 311.39 351.557 312.665 350.458 313.875L345.227 319.982L343.127 320.012L353.68 306.611L349.032 304.458L351.768 296.561Z" fill="#BAD9DD"/>
<path d="M346.713 294.787L351.768 296.561L349.032 304.458L353.68 306.611L343.127 320.012L339.544 319.966L346.485 295.431L346.713 294.787Z" fill="#EAFCFC"/>
<path d="M334.24 299.294C338.694 298.56 342.419 297.423 346.485 295.431L339.544 319.966L337.712 319.963L329.909 319.976L330.937 312.113C331.139 310.74 331.347 309.381 331.442 307.996C331.462 307.707 331.591 307.042 331.519 306.78C331.418 306.409 331.07 305.964 330.893 305.597C330.391 304.558 329.947 303.596 329.308 302.626C330.266 301.582 331.637 299.994 332.975 299.544L332.938 299.393C333.4 299.423 333.787 299.366 334.24 299.294Z" fill="#BAD9DD"/>
<path d="M332.975 299.544L333.317 299.624C333.737 299.717 334.913 299.682 335.219 299.845C335.391 299.937 335.772 300.45 335.921 300.617C336.666 301.451 337.416 302.359 338.03 303.295L338.168 303.509L336.493 305.925C336.393 306.073 336.001 306.557 335.972 306.701C335.925 306.93 336.076 307.596 336.108 307.855L336.524 310.856L337.712 319.963L329.909 319.976L330.937 312.113C331.139 310.74 331.347 309.381 331.442 307.996C331.462 307.707 331.591 307.042 331.519 306.78C331.418 306.409 331.07 305.964 330.893 305.597C330.391 304.558 329.947 303.596 329.308 302.626C330.266 301.582 331.637 299.994 332.975 299.544Z" fill="#008175"/>
<path d="M318.091 263.878L319.508 263.941C320.457 263.853 320.885 262.452 321.126 261.697C321.631 260.111 322.055 258.354 322.227 256.698C322.424 254.798 322.283 252.912 322.912 251.07C323.449 249.497 324.303 248.438 325.373 247.207L334.054 247.148L339.2 247.188C340.637 247.184 342.306 246.972 343.633 247.628C344.713 248.458 345.235 249.158 345.705 250.427L345.797 250.668C346.298 252.052 346.229 253.655 346.242 255.109C346.268 258.234 346.59 261.073 349.035 263.325L349.539 263.39C348.997 265.096 347.987 273.568 348.56 274.843C348.741 277.651 347.686 280.936 346.629 283.522L346.713 294.787L346.485 295.431C342.419 297.423 338.694 298.56 334.24 299.294C333.787 299.366 333.4 299.423 332.938 299.393C331.981 298.716 329.842 298.57 328.666 298.257C326.77 297.753 324.942 297.06 323.028 296.615C322.996 296.067 322.751 295.402 322.621 294.863C322.29 291.658 322.569 288.183 322.577 284.949C320.614 281.619 319.947 278.567 319.395 274.771C319.078 274.629 318.793 274.431 318.533 274.201C315.823 271.8 314.917 266.265 314.711 262.831C315.383 262.8 316.027 262.757 316.687 262.624L316.846 262.591C317.334 262.716 317.66 262.704 317.934 263.19C318.025 263.352 318.061 263.71 318.091 263.878Z" fill="#F6A071"/>
<path d="M339.9 263.925L340.433 263.971C341.16 264.479 341.158 264.548 341.452 265.402C341.302 266.313 341.293 266.482 340.676 267.214L340.191 267.229C339.769 267.199 339.539 267.127 339.285 266.785C338.907 266.276 338.803 265.85 338.938 265.223C339.116 264.401 339.194 264.396 339.9 263.925Z" fill="#091314"/>
<path d="M327.744 263.925L328.647 263.954C329.116 264.472 329.268 264.593 329.323 265.284C329.394 266.172 329.033 266.576 328.398 267.205C327.877 267.268 327.867 267.211 327.411 267.031C326.963 266.488 326.686 266.036 326.779 265.331C326.879 264.574 327.097 264.37 327.744 263.925Z" fill="#01141C"/>
<path d="M333.688 275.502L341.162 275.013C339.995 277.37 338.656 279.641 336.003 280.534C335.235 280.792 334.516 280.841 333.712 280.843L331.807 280.398C329.405 279.603 327.964 277.49 326.895 275.318L333.688 275.502Z" fill="#EAFCFC"/>
<path d="M333.734 290.183C335.449 290.224 337.296 290.225 338.956 289.75L339.249 289.661C341.551 288.986 343.553 287.586 345.081 285.744C345.656 285.051 346.078 284.239 346.629 283.522L346.713 294.787L346.485 295.431C342.419 297.422 338.694 298.56 334.24 299.294L333.922 299.159C333.473 298.59 333.706 291.352 333.734 290.183Z" fill="#F48D1C"/>
<path d="M297.362 425.414L290.86 425.493L290.934 333.313L376.321 333.335L376.316 373.572L376.339 425.396L370.61 425.478L347.135 425.48L334.325 425.408L321.272 425.419L297.362 425.414Z" fill="#008175"/>
<path d="M347.038 399.741C350.826 400.956 354.233 402.482 357.688 404.464C362.051 406.966 365.609 409.635 367.969 414.22C369.727 417.637 370.848 421.601 370.61 425.478L347.135 425.481C346.659 424.672 347.075 402.262 347.038 399.741Z" fill="#EAFCFC"/>
<path d="M321.564 399.543L322.917 399.261C323.825 405.556 326.088 412.189 331.443 416.109C332.464 416.857 333.457 417.329 334.686 417.633C334.826 420.108 334.954 422.782 334.679 425.244L334.325 425.408L321.272 425.419L297.362 425.414C297.473 419.687 298.764 414.644 302.573 410.194C306.2 405.954 311.276 403.328 316.348 401.227C317.809 400.621 319.51 399.84 321.09 399.727L321.564 399.543Z" fill="#EAFCFC"/>
<path d="M321.564 399.543L322.917 399.261C323.825 405.556 326.088 412.189 331.443 416.109C332.464 416.857 333.457 417.329 334.686 417.633C334.826 420.108 334.954 422.782 334.679 425.244L334.325 425.408L321.272 425.419L321.09 399.727L321.564 399.543Z" fill="#5BB9B3"/>
<path d="M334.98 341.884C341.271 342.062 347.128 344.404 351.5 349.01L353.041 350.847C356.136 355.523 357.888 360.116 358.279 365.748L358.655 375.488C358.969 379.256 359.772 382.522 360.702 386.157L349.242 386.199C347.382 386.214 345.15 385.995 343.345 386.427C344.199 385.503 345.208 384.711 346.081 383.794C348.615 381.133 349.768 378.617 350.797 375.128C351.851 375.08 353.039 374.923 353.927 374.302C354.949 373.587 355.784 372.534 355.935 371.262C356.086 369.999 355.829 368.305 354.947 367.343C354.314 366.652 353.347 366.586 352.471 366.56L352.143 366.712L350.91 366.85C350.382 366.583 350.499 366.359 350.277 365.845C350.128 365.502 349.903 365.386 349.573 365.232C346.51 363.806 342.775 363.369 339.524 362.456L334.857 360.914L334.882 360.687L331.259 358.568C330.626 358.155 329.424 357.084 328.733 356.968C327.355 359.313 325.289 361.622 323.313 363.485C322.247 364.489 321.034 365.356 320.12 366.505C319.906 366.774 319.656 366.936 319.373 367.125C318.091 366.988 316.743 366.819 315.651 367.673C314.88 368.276 314.369 369.129 314.269 370.112C314.127 371.495 314.499 372.771 315.417 373.833C316.251 374.798 317.409 375.251 318.635 375.473C318.782 375.499 319.702 375.602 319.761 375.655C319.826 375.712 320.076 376.826 320.128 376.99C320.405 377.861 320.817 378.727 321.25 379.532C322.605 382.05 324.508 384.078 326.633 385.966L326.535 386.177L308.551 386.252C308.479 386.085 308.458 386.058 308.424 385.851C308.317 385.208 308.407 384.389 308.407 383.731L308.493 379.131C308.896 369.813 310.079 360.204 315.428 352.274C319.114 346.81 324.352 343.581 330.779 342.268C332.169 341.983 333.567 341.948 334.98 341.884Z" fill="#E33115"/>
<path d="M319.373 367.125C319.656 366.936 319.906 366.774 320.12 366.505C321.034 365.356 322.247 364.489 323.313 363.485C325.289 361.622 327.355 359.313 328.733 356.968C329.424 357.084 330.626 358.155 331.259 358.568L334.882 360.687L334.857 360.914L339.525 362.456C342.775 363.369 346.51 363.806 349.573 365.232C349.903 365.386 350.128 365.502 350.277 365.845C350.499 366.359 350.382 366.583 350.91 366.85L352.143 366.712L352.471 366.56C353.347 366.586 354.314 366.652 354.947 367.343C355.83 368.305 356.086 369.999 355.935 371.262C355.784 372.534 354.95 373.587 353.927 374.302C353.039 374.923 351.851 375.08 350.797 375.128C349.768 378.617 348.615 381.133 346.081 383.794C345.208 384.711 344.199 385.503 343.345 386.427L342.326 387.101L342.278 398.671C343.117 398.786 344.193 398.804 344.923 399.244C343.937 405.71 341.687 412.612 336.219 416.714C335.746 417.068 335.229 417.397 334.686 417.632C333.457 417.329 332.464 416.857 331.443 416.109C326.088 412.189 323.825 405.556 322.917 399.261C323.997 398.833 325.423 398.745 326.582 398.632L326.535 386.177L326.633 385.966C324.508 384.078 322.605 382.05 321.251 379.532C320.817 378.727 320.405 377.861 320.128 376.99C320.076 376.826 319.826 375.712 319.761 375.655C319.702 375.602 318.782 375.499 318.635 375.473C317.409 375.251 316.251 374.798 315.417 373.833C314.499 372.771 314.127 371.495 314.269 370.112C314.369 369.129 314.88 368.276 315.651 367.673C316.743 366.819 318.092 366.988 319.373 367.125Z" fill="#F6A071"/>
<path d="M337.222 366.342C337.522 365.499 338.038 365.212 338.804 364.796L339.032 364.675C339.22 364.573 339.406 364.461 339.616 364.408C340.634 364.149 341.617 364.39 342.477 364.9C340.454 365.046 339.063 365.506 337.222 366.342Z" fill="#F48D1C"/>
<path d="M327.336 368.14C327.847 367.939 328.17 367.998 328.689 368.086C329.028 368.41 329.25 368.637 329.333 369.128C329.462 369.893 329.24 370.295 328.838 370.894L328.542 371.099C328.064 371.31 327.817 371.128 327.404 370.916C327.1 370.527 326.954 370.246 326.897 369.747C326.813 369.029 326.88 368.678 327.336 368.14Z" fill="#01141C"/>
<path d="M340.293 367.957C340.894 368.006 341.012 368.027 341.508 368.361C341.773 368.846 341.959 369.194 341.911 369.773C341.861 370.383 341.437 370.764 340.993 371.122C340.203 371.183 340.235 371.161 339.647 370.71C339.375 370.101 339.293 369.724 339.309 369.058C339.627 368.423 339.647 368.325 340.293 367.957Z" fill="#091314"/>
<path d="M342.477 364.9C344.141 365.18 345.359 365.573 346.675 366.697C346.877 366.87 347.227 367.291 347.435 367.374C347.878 367.554 349.586 367.104 350.267 367.163L350.333 367.336L349.888 367.657C349.161 367.738 348.42 367.976 347.709 368.15L347.655 372.18L347.329 372.401L346.975 372.18L346.959 368.261C346.364 367.485 345.58 366.71 344.687 366.287C342.426 365.216 339.396 366.334 337.239 367.16L336.655 366.737L337.222 366.342C339.063 365.506 340.454 365.046 342.477 364.9Z" fill="#091314"/>
<path d="M335.503 380.635C334.19 380.574 332.93 380.536 331.812 379.742C331.031 379.189 329.738 377.889 329.571 376.955L329.792 376.868L330.251 377.623C331.101 377.83 332.026 377.763 332.898 377.77C334.22 377.779 335.565 377.85 336.873 377.629L337.082 377.59L339.901 377.373C338.542 379.415 337.864 379.964 335.503 380.635Z" fill="#EAFCFC"/>
<path d="M324.214 365.729C325.945 365.401 328.615 364.631 330.251 365.623C330.436 365.736 330.459 365.787 330.576 365.937L330.308 366.337C331.819 367.371 333.122 367.37 334.895 367.505L336.287 366.738L336.655 366.737L337.239 367.16L336.315 367.531L334.723 368.149C334.736 369.053 334.517 372.624 335.047 373.157L335.743 373.675L335.003 373.924L333.74 373.867C333.428 373.314 334.016 373.274 334.08 372.625C334.22 371.206 333.986 369.574 333.917 368.139C332.584 368.069 331.121 368.083 330.22 367.021C329.99 366.75 329.684 366.321 329.366 366.157C328.098 365.502 325.936 366.165 324.61 366.482C323.97 366.635 321.733 367.236 321.459 367.863C321.243 368.36 321.448 370.284 321.442 370.917C321.437 371.404 321.497 371.805 321.23 372.236L320.885 372.268C320.483 371.55 320.725 369.432 320.721 368.529C320.166 368.16 319.852 367.836 319.495 367.273C320.023 367.115 320.546 367.294 321.069 367.127C322.145 366.785 323.075 366.076 324.214 365.729Z" fill="#01141C"/>
<path d="M319.373 367.125C319.656 366.936 319.906 366.774 320.12 366.505C321.034 365.356 322.247 364.489 323.313 363.485C325.289 361.622 327.355 359.313 328.733 356.968C329.424 357.084 330.626 358.155 331.259 358.568L334.882 360.687L334.857 360.914C334.857 361.574 334.895 362.253 334.807 362.906L334.941 363.247L334.957 363.371L329.429 360.044C328.051 361.251 326.487 362.677 325.412 364.153C325.048 364.654 324.324 365.137 324.214 365.729C323.075 366.076 322.145 366.785 321.069 367.127C320.546 367.294 320.023 367.115 319.495 367.273L319.373 367.125Z" fill="#F48D1C"/>
<path d="M291.07 531.407C290.511 530.376 290.853 512.498 290.854 509.646L290.808 439.147L355.247 439.126L369.785 439.13L373.882 439.136C374.652 439.137 375.421 439.059 376.162 439.295C376.383 440.05 376.305 440.842 376.3 441.622L376.273 445.854L376.302 456.988L376.2 502.011L376.328 530.421C376.322 531.061 376.318 531.56 376.073 532.165L376.228 533.967C376.145 534.039 376.077 534.136 375.977 534.185C375.771 534.286 374.734 534.183 374.468 534.182L369.435 534.174L350.865 534.159L341.011 534.133L339.19 534.144L328.595 534.106L290.752 534.102L291.07 531.407Z" fill="#008175"/>
<path d="M347.513 483.19L345.676 486.496C343.812 491.225 340.906 494.383 337.386 495.79C336.176 496.274 334.933 496.577 333.682 496.709C333.655 499.351 333.812 502.361 333.455 504.938L333.005 505.567C335.779 505.876 342.462 502.848 344.942 501.003C347.742 498.92 347.046 496.198 348.064 491.804C347.76 489.473 348.02 485.533 347.513 483.19Z" fill="#9A4624"/>
<path d="M347.513 483.19L345.676 486.496C343.812 491.225 340.906 494.383 337.386 495.79C336.176 496.274 334.933 496.577 333.682 496.709C333.655 499.351 333.812 502.361 333.455 504.938L333.005 505.567C335.779 505.876 342.462 502.848 344.942 501.003C347.742 498.92 347.046 496.198 348.064 491.804C347.76 489.473 348.02 485.533 347.513 483.19Z" fill="#9A4624"/>
<path d="M321.3 477.401C321.367 479.598 321.267 481.778 321.948 483.897C321.815 484.431 321.742 484.837 321.795 485.396L321.344 484.777L321.109 485.537C321.265 486.891 321.205 488.246 321.183 489.606C321.173 490.235 321.244 490.996 321.116 491.608L320.969 492.145C320.683 492.161 320.46 492.171 320.175 492.123L319.508 491.932L319.251 490.275C319.282 489.901 319.213 489.576 319.144 489.209L319.113 487.916L319.122 483.343C319.114 482.432 319.178 481.518 318.87 480.649C319.065 480.32 319.203 479.926 319.36 479.574C319.613 480.225 319.892 480.867 320.037 481.552L320.332 481.554L320.592 481.213C320.451 479.96 320.316 478.823 320.347 477.556L321.3 477.401Z" fill="#94C1C7"/>
<path d="M319.36 479.574C319.613 480.225 319.892 480.867 320.037 481.552C320.148 483.546 320.119 485.519 320.049 487.513C320.005 488.763 319.805 490.458 320.105 491.643L320.175 492.123L319.508 491.932L319.251 490.275C319.282 489.901 319.213 489.576 319.144 489.209L319.113 487.916L319.122 483.343C319.114 482.432 319.178 481.518 318.87 480.649C319.065 480.32 319.203 479.926 319.36 479.574Z" fill="#5BB9B3"/>
<path d="M347.159 477.688C347.727 477.425 348.483 477.504 349.106 477.486L349.165 477.872L349.183 479.241C348.992 480.503 348.952 481.729 348.94 483.003L348.832 486.74C348.851 490.324 348.986 494.54 346.962 497.698C346.768 496.449 347.351 494.836 347.35 493.567L347.457 483.342L347.472 483.198C347.524 482.089 347.688 480.745 346.943 479.885C347.263 479.172 347.17 478.449 347.159 477.688Z" fill="#9A4624"/>
<path d="M349.183 479.241C349.833 479.028 350.644 478.779 351.294 479.13C351.738 479.37 352.028 479.93 352.142 480.41L353.587 480.533L353.773 480.94C353.912 482.435 353.897 483.562 352.916 484.792C351.978 485.966 350.561 486.616 349.08 486.729L348.832 486.74L348.94 483.003C348.952 481.729 348.992 480.503 349.183 479.241Z" fill="#863823"/>
<path d="M352.142 480.41L353.587 480.533L353.773 480.94C353.912 482.435 353.897 483.562 352.916 484.792C351.978 485.966 350.561 486.616 349.08 486.729L348.832 486.74L348.94 483.003L348.96 485.579L350.757 484.089C351.929 482.932 352.114 481.987 352.142 480.41Z" fill="#BA6545"/>
<path d="M314.504 479.532L314.773 479.484C315.138 479.411 315.425 479.254 315.757 479.094C316.463 478.754 317.435 478.459 318.214 478.732C318.647 478.884 319.032 479.263 319.36 479.574C319.203 479.926 319.065 480.32 318.87 480.649C319.178 481.518 319.114 482.432 319.122 483.343L319.113 487.916L319.144 489.209L318.952 489.147C317.037 488.445 315.319 486.965 314.479 485.089C313.64 483.217 313.768 481.396 314.504 479.532Z" fill="#863823"/>
<path d="M314.504 479.532L314.773 479.484C315.138 479.411 315.425 479.254 315.757 479.094C316.463 478.754 317.435 478.459 318.214 478.732C318.647 478.884 319.032 479.263 319.36 479.574C319.203 479.926 319.065 480.32 318.87 480.649C318.369 480.151 317.852 479.458 317.12 479.364C316.35 479.531 315.848 479.833 315.429 480.526C314.871 481.448 314.892 482.858 315.188 483.865C315.77 485.846 317.419 486.916 319.113 487.916L319.144 489.209L318.952 489.147C317.037 488.445 315.319 486.965 314.479 485.089C313.64 483.217 313.768 481.396 314.504 479.532Z" fill="#F6A071"/>
<path d="M332.161 485.796C332.963 485.56 333.899 485.509 334.694 485.8C335.49 486.074 336.436 485.976 337.276 485.983L342.047 486.012C342.787 486.361 343.982 486.21 344.811 486.22L344.697 486.546C344.567 486.93 344.587 486.775 344.578 487.05L345.228 487.177C344.734 487.976 344.243 488.247 343.335 488.462L343.177 488.498L341.94 488.505L323.855 488.679C323.286 488.166 322.913 487.689 322.528 487.027L332.024 487.196L331.561 486.957C331.687 486.599 331.855 486.293 332.041 485.964L332.161 485.796Z" fill="#5BB9B3"/>
<path d="M332.161 485.796C332.963 485.56 333.899 485.509 334.694 485.8C335.49 486.074 336.436 485.976 337.276 485.983H342.187C342.928 486.332 344.123 486.181 344.951 486.191L344.697 486.546C344.567 486.93 344.587 486.775 344.578 487.05L332.024 487.196L331.562 486.957C331.688 486.599 331.855 486.293 332.041 485.964L332.161 485.796Z" fill="#2C3F4E"/>
<path d="M330.18 487.16C334.842 487.16 342.371 486.863 345.493 487.047L344.575 488.883C342.66 493.515 342.077 494.822 338.357 497.263C335.534 498.218 333.037 498.743 330.18 497.592C326.008 495.913 324.196 491.824 322.354 487.16C323.178 486.11 328.674 487.4 330.18 487.16Z" fill="#BA6545"/>
<path d="M344.528 501.196C344.955 502.237 344.435 504.207 344.61 505.427L344.477 505.548L344.32 505.593C343.457 505.85 342.7 506.297 341.86 506.598C339.282 507.523 336.843 507.877 334.116 507.861C333.181 507.794 332.254 507.641 331.349 507.396C328.721 506.685 326.109 505.121 324.717 502.73C326.191 502.974 327.625 503.731 329.142 503.969L330.807 504.221C335.264 504.7 340.936 504.102 344.528 501.196Z" fill="#863823"/>
<path d="M321.3 477.401C323.248 477.096 325.462 477.291 327.44 477.297C328.497 477.3 329.886 477.144 330.893 477.435L330.287 477.957L330.342 478.353C330.975 478.536 331.411 478.675 332.05 478.397C332.09 480.795 331.86 483.437 332.161 485.796L332.041 485.964C331.855 486.293 331.687 486.599 331.561 486.957L332.024 487.196L322.528 487.027C322.543 486.803 321.913 485.69 321.795 485.396C321.742 484.837 321.815 484.431 321.948 483.897C321.267 481.778 321.367 479.598 321.3 477.401Z" fill="#BA6545"/>
<path d="M321.948 483.897C322.233 484.566 322.484 485.352 322.938 485.923L332.041 485.964C331.855 486.293 331.687 486.599 331.561 486.957L332.024 487.196L322.528 487.027C322.543 486.803 321.913 485.69 321.795 485.396C321.741 484.837 321.815 484.431 321.948 483.897Z" fill="#2C3F4E"/>
<path d="M346.926 477.518L347.159 477.688C347.17 478.449 347.263 479.172 346.943 479.885C347.688 480.745 347.524 482.089 347.472 483.198L347.457 483.342C346.853 484.656 346.3 486.172 345.228 487.177L344.578 487.05C344.587 486.775 344.567 486.93 344.697 486.546L344.811 486.22C343.982 486.21 342.787 486.361 342.047 486.012L337.276 485.983C336.436 485.976 335.49 486.074 334.694 485.8C333.899 485.509 332.963 485.56 332.161 485.796C331.861 483.437 332.09 480.795 332.05 478.397C332.074 478.144 332.129 477.9 332.179 477.652L334.486 477.643L346.926 477.518Z" fill="#9A4624"/>
<path d="M346.948 477.681C347.866 477.497 349.203 476.94 349.151 478.048L347.443 483.342C346.838 484.656 346.366 486.352 345.295 487.357L344.56 487.173C344.569 486.898 344.553 486.93 344.683 486.546L344.796 486.22C343.968 486.21 342.773 486.361 342.032 486.012L345.009 485.987C345.966 484.003 348.049 483.374 346.948 477.681Z" fill="#2C3F4E"/>
<path d="M332.05 478.397C332.074 478.144 332.129 477.9 332.179 477.652L334.486 477.643C334.51 480.263 334.263 483.229 334.694 485.8C333.899 485.509 332.963 485.56 332.161 485.796C331.861 483.438 332.09 480.795 332.05 478.397Z" fill="#2C3F4E"/>
<path d="M342.232 450.437C344.591 451.474 346.641 453.118 347.603 455.591L347.805 456.157C347.892 456.397 347.981 456.537 348.156 456.722L348.494 456.63C349.605 456.37 351.519 457.245 352.447 457.893C352.897 458.208 353.267 458.579 353.637 458.982L353.666 458.984C354.144 460.266 354.286 461.348 354.071 462.715L354.659 463.083C355.632 463.636 356.118 464.466 356.407 465.533C356.785 466.927 356.461 468.691 355.718 469.919L354.656 471.386C355.922 473.204 357.485 474.557 356.992 477.038C356.699 478.511 355.672 479.892 354.387 480.654C354.19 480.771 353.989 480.863 353.773 480.94L353.587 480.533L352.142 480.41C352.028 479.93 351.738 479.37 351.294 479.13C350.644 478.779 349.833 479.028 349.183 479.241L349.165 477.872L349.107 477.486C349.171 477.13 349.155 476.757 349.163 476.396C348.687 475.945 347.75 476.07 347.094 476.031L347.198 474.844C347.841 473.705 348.594 471.823 348.637 470.528C348.716 468.193 347.932 466.247 346.301 464.557C344.004 462.176 341.478 461.617 338.264 461.552C339.735 459.897 341.352 458.177 342.318 456.161C342.968 454.804 343.2 453.089 342.669 451.65L342.232 450.437Z" fill="#83D0C4"/>
<path d="M349.165 477.872C349.664 477.376 350.109 477.384 350.818 477.392C351.545 477.401 352.173 477.573 352.656 478.134C353.198 478.761 353.379 479.744 353.587 480.533L352.142 480.41C352.028 479.93 351.738 479.37 351.294 479.13C350.644 478.779 349.833 479.028 349.183 479.241L349.165 477.872Z" fill="#F6A071"/>
<path d="M338.264 461.552C341.478 461.617 344.004 462.176 346.301 464.557C347.932 466.247 348.716 468.193 348.637 470.528C348.594 471.823 347.841 473.705 347.198 474.844L347.094 476.031C347.75 476.07 348.687 475.945 349.163 476.396C349.155 476.757 349.171 477.13 349.106 477.486C348.483 477.504 347.727 477.425 347.159 477.688L346.926 477.518L334.486 477.643L332.179 477.652C332.129 477.9 332.074 478.144 332.05 478.397C331.411 478.675 330.975 478.536 330.343 478.353L330.287 477.957L330.893 477.435C329.886 477.144 328.497 477.3 327.44 477.297C325.462 477.291 323.248 477.096 321.3 477.401L320.347 477.555C320.251 476.983 320.061 476.573 320.334 476.049L321.653 476.018L321.546 474.155C321.335 473.421 321.198 472.608 321.134 471.846C320.897 469.031 321.486 466.04 323.42 463.879C324.427 462.753 325.801 462.078 327.312 462.067C329.888 462.049 331.385 463.509 333.092 465.192C334.444 463.808 335.762 462.724 337.495 461.848L338.264 461.552Z" fill="#BA6545"/>
<path d="M321.546 474.155C326.333 474.578 331.292 474.326 336.103 474.352C337.892 474.362 339.908 474.686 341.665 474.376L347.198 474.844L347.094 476.031C347.75 476.07 348.687 475.945 349.163 476.396C349.155 476.757 349.171 477.13 349.106 477.486C348.483 477.504 347.727 477.425 347.159 477.688L346.926 477.518L334.486 477.643L332.179 477.652C332.129 477.9 332.111 477.428 332.087 477.681C331.462 477.507 332.169 477.739 331.536 477.556L331.169 477.486L330.893 477.435C329.886 477.144 328.497 477.3 327.44 477.297C325.462 477.291 323.248 477.096 321.3 477.401L320.347 477.556C320.251 476.983 320.061 476.573 320.334 476.049L321.653 476.018L321.546 474.155Z" fill="#2C3F4E"/>
<path d="M321.546 474.155C326.333 474.578 331.292 474.326 336.103 474.352C337.892 474.362 339.908 474.686 341.665 474.376L347.198 474.844L347.094 476.031L346.786 476.081L332.179 476.013H331.72H331.169H330.985C330.618 476.212 322.691 476.02 321.653 476.018L321.546 474.155Z" fill="#BA6545"/>
<path d="M338.256 461.521C341.521 461.593 344.087 462.211 346.42 464.842C348.076 466.71 348.873 468.861 348.793 471.442C348.749 472.873 347.984 474.954 347.331 476.212H341.085C339.778 475.886 337.229 476.396 337.045 475.921L337.475 461.848L338.256 461.521Z" fill="#9A4624"/>
<path d="M314.504 479.532C314.105 479.147 313.498 478.879 313.041 478.539C311.912 477.701 311.095 476.659 310.592 475.333C310.061 473.935 309.856 472.416 310.519 471.022C311.078 469.85 312.237 468.792 313.46 468.369C313.71 468.282 313.587 468.366 313.782 468.132C313.199 467.364 312.694 466.556 312.549 465.585C312.342 464.196 312.711 462.813 313.606 461.725C315.2 459.787 316.913 459.373 319.309 459.122C319.17 458.07 318.846 456.974 318.976 455.912L319.013 455.644C319.17 454.473 319.538 453.434 320.155 452.427C321.291 450.576 323.042 449.233 325.158 448.727L325.476 448.655L325.981 448.542C329.028 448.015 331.585 448.984 334.018 450.727C334.446 450.422 334.892 450.091 335.384 449.897C337.522 449.054 340.202 449.574 342.232 450.437L342.669 451.65C343.2 453.089 342.968 454.804 342.318 456.161C341.352 458.177 339.735 459.897 338.264 461.552L337.495 461.848C335.762 462.724 334.444 463.808 333.092 465.192C331.385 463.509 329.888 462.049 327.312 462.067C325.801 462.078 324.427 462.753 323.42 463.879C321.486 466.04 320.897 469.031 321.134 471.846C321.198 472.608 321.335 473.421 321.546 474.155L321.653 476.018L320.334 476.049C320.061 476.573 320.251 476.983 320.347 477.556C320.316 478.823 320.451 479.96 320.592 481.213L320.332 481.554L320.037 481.552C319.892 480.867 319.613 480.225 319.36 479.574C319.033 479.263 318.647 478.884 318.214 478.732C317.435 478.459 316.463 478.754 315.757 479.094C315.425 479.254 315.138 479.411 314.774 479.484L314.504 479.532Z" fill="#EAFCFC"/>
<path d="M323.723 501.854L324.717 502.729C326.109 505.121 328.721 506.685 331.349 507.396C332.253 507.641 333.181 507.794 334.116 507.861C336.843 507.877 339.282 507.522 341.86 506.598C342.7 506.297 343.457 505.85 344.32 505.593L344.477 505.548L344.61 505.427C345.645 506.033 347.025 506.67 347.911 507.468C350.841 508.667 353.795 509.714 356.641 511.111C364.327 514.885 371.554 520.924 374.992 528.948L376.073 532.165L376.228 533.967C376.145 534.039 376.077 534.136 375.977 534.185C375.771 534.286 374.734 534.182 374.468 534.182L369.435 534.174L350.865 534.159L341.011 534.133L339.19 534.144L328.595 534.106L290.752 534.102L291.07 531.407C295.322 521.864 302.842 514.731 312.301 510.375C314.145 509.527 316.075 508.947 317.946 508.175C319.83 507.398 321.626 506.418 323.376 505.381C323.602 504.202 323.344 503.039 323.723 501.854Z" fill="#EAFCFC"/>
<path d="M344.477 505.548C343.269 508.453 340.001 510.345 337.218 511.478L334.621 512.34L334.285 512.022C334.019 510.719 334.135 509.197 334.116 507.861C336.843 507.877 339.282 507.522 341.86 506.598C342.7 506.297 343.457 505.85 344.32 505.593L344.477 505.548Z" fill="#E33115"/>
<path d="M331.174 520.468C331.102 519.469 330.571 519.235 329.873 518.556C329.756 518.442 329.497 518.376 329.523 518.215C329.572 517.913 330.953 516.501 331.207 516.207L333.954 513.185C334.888 514.416 335.887 515.548 336.939 516.679C337.286 517.053 338.155 517.791 338.272 518.255C337.749 518.746 336.569 519.596 336.34 520.235C336.079 520.481 335.809 520.745 335.486 520.906C334.142 521.577 332.51 520.851 331.174 520.468Z" fill="#BA6545"/>
<path d="M316.814 512.165L315.887 516.138C315.801 516.555 315.407 517.989 315.507 518.338C315.779 519.279 317.35 520.727 317.977 521.58L324.485 531.036L321.924 528.912L311.537 519.842L316.814 512.165Z" fill="#BAD9DD"/>
<path d="M346.405 525.44L346.537 525.36C347.728 524.593 348.725 523.325 349.744 522.336L353.776 518.517C353.257 516.985 352.668 515.571 351.943 514.124C353.423 515.602 354.489 517.054 355.59 518.816C355.887 519.293 356.387 519.902 356.516 520.439C352.052 524.148 347.189 527.852 343.373 532.222C342.95 532.707 342.626 532.827 342.279 533.417C342.326 533.722 342.266 533.584 342.463 533.829C342.199 533.833 341.989 533.827 341.726 533.783C342.041 533.261 342.369 532.792 342.474 532.18C343.673 529.88 345.326 527.805 346.405 525.44Z" fill="#BAD9DD"/>
<path d="M323.723 501.854L324.717 502.729C326.109 505.121 328.721 506.685 331.349 507.396C332.253 507.641 333.181 507.794 334.116 507.861C334.135 509.197 334.019 510.719 334.285 512.022L334.621 512.34C332.55 512.496 330.31 511.931 328.458 510.998C326.367 509.945 324.136 507.603 323.376 505.381C323.602 504.202 323.344 503.039 323.723 501.854Z" fill="#BA6545"/>
<path d="M321.252 484.476L322.724 486.8C324.634 491.647 328.218 494.816 331.823 496.258C333.063 496.754 334.336 497.064 335.618 497.199C335.645 499.907 335.485 502.992 335.85 505.632L336.311 506.277C333.47 506.593 326.547 504.179 324.007 502.289C321.139 500.154 321.927 496.676 320.885 492.174C321.196 489.785 320.732 486.876 321.252 484.476Z" fill="#BA6545"/>
<path d="M321.252 484.476L322.724 486.8C324.634 491.647 328.218 494.816 331.823 496.258C333.063 496.754 334.336 497.064 335.618 497.199C335.645 499.907 335.485 502.992 335.85 505.632L336.311 506.277C333.47 506.593 326.547 504.179 324.007 502.289C321.139 500.154 321.927 496.676 320.885 492.174C321.196 489.785 320.732 486.876 321.252 484.476Z" fill="#BA6545"/>
<path d="M331.174 520.468C332.51 520.851 334.142 521.577 335.486 520.906C335.809 520.745 336.079 520.481 336.34 520.235L339.19 534.144L328.595 534.106L331.174 520.468Z" fill="#E33115"/>
<path d="M500.28 532.765C500.087 532.461 499.988 532.281 499.972 531.912L499.913 502.272L499.83 439.132L585.688 439.143L585.66 479.185C585.675 484.928 586.069 529.534 585.282 531.338L585.189 531.574L585.122 531.736L585.37 534.078L553.539 534.134L550.84 534.205L546.219 534.234L538.613 534.225L534.408 534.166L532.174 534.093C530.044 534.411 527.396 534.116 525.223 534.115L508.293 534.087L502.678 534.076C502.037 534.075 501.099 534.196 500.485 534.071C500.36 534.046 500.266 533.94 500.157 533.875L500.28 532.765Z" fill="#008175"/>
<path d="M524.026 475.482L523.88 475.055C523.521 473.604 523.396 471.986 523.191 470.503C522.464 465.235 521.832 458.713 525.054 454.09C527.02 451.269 530.614 449.632 533.912 449.04C538.714 448.179 543.676 448.958 548.184 450.733C550.859 452.035 552.774 453.345 554.688 455.615C555.809 455.123 556.942 454.77 558.148 455.245C559.425 455.748 560.316 456.816 560.841 458.059C562.401 461.754 562.278 466.287 561.488 470.148C561.264 471.244 561.018 472.544 560.512 473.549C560.339 473.893 560.086 474.215 559.804 474.477C558.686 475.435 558.454 477.683 558.015 479.043C557.712 479.983 557.281 480.801 556.786 481.654L554.283 462.71C550.194 465.034 546.536 465.977 541.847 466.228C539.748 466.265 537.6 466.157 535.552 465.66C533.976 465.278 532.439 464.681 530.894 464.189C530.375 464.024 529.578 463.672 529.041 463.7C528.373 463.736 528.234 464.018 527.8 464.459C527.499 465.414 527.629 466.581 527.626 467.576C527.618 470.227 527.828 473.042 527.576 475.675L527.383 475.556C526.698 475.141 525.745 474.632 524.909 474.929C524.645 475.023 524.407 475.213 524.181 475.374L524.026 475.482Z" fill="#E33115"/>
<path d="M556.093 507.896C557.714 508.059 559.426 508.886 560.934 509.478C565.607 511.314 570.63 513.358 574.773 516.185C576.808 517.573 578.551 519.198 580.115 521.098C582.802 524.363 584.122 527.671 585.122 531.736L585.37 534.078L553.539 534.134L550.84 534.205L546.219 534.234L546.173 534.118L550.45 515.559C551.396 513.168 551.624 510.695 552.909 508.417L553.419 508.27L553.491 508.216L556.093 507.896Z" fill="#BAD9DD"/>
<path d="M553.491 508.216L556.093 507.896C556.42 509.159 556.785 510.41 557.285 511.618L560.031 517.991C560.169 518.317 560.705 519.277 560.699 519.584C560.696 519.734 560.339 520.296 560.26 520.433L552.236 533.875C552.673 534.063 553.071 534.082 553.539 534.134L550.84 534.205L559.375 519.614L557.273 515.151C556.52 513.462 555.803 511.769 554.921 510.14C554.546 509.449 554.132 508.646 553.419 508.27L553.491 508.216Z" fill="#94C1C7"/>
<path d="M553.419 508.27C554.132 508.646 554.546 509.449 554.921 510.14C555.803 511.769 556.52 513.462 557.273 515.151L559.375 519.614L550.84 534.205L546.219 534.234L546.173 534.118L550.45 515.559C551.396 513.168 551.624 510.695 552.909 508.417L553.419 508.27Z" fill="#BAD9DD"/>
<path d="M531.097 508.496C534.354 509.172 538.183 510.587 541.504 510.489L542.024 510.61L542.04 510.753C542.863 510.806 543.622 511.542 544.279 512.002C545.407 512.793 546.565 513.619 547.81 514.214C549.038 514.253 549.58 514.688 550.45 515.559L546.173 534.118L546.219 534.234L538.613 534.225L534.408 534.166L532.174 534.093C530.044 534.411 527.396 534.116 525.223 534.115L508.293 534.087L502.678 534.076C502.037 534.075 501.099 534.196 500.485 534.071C500.36 534.046 500.266 533.94 500.157 533.875L500.28 532.765C501.135 529.924 502.027 527.153 503.537 524.578C508.373 516.328 515.881 511.89 524.945 509.505C525.264 509.205 527.551 508.892 528.069 508.794L528.67 508.632L531.097 508.496Z" fill="#EAFCFC"/>
<path d="M524.945 509.505C525.264 509.205 527.551 508.892 528.069 508.794C527.844 509.17 527.632 509.518 527.351 509.855C526.453 510.933 526.026 512.513 525.489 513.784C524.878 515.228 524.168 516.591 523.409 517.96C524.016 519.095 524.886 520.15 525.607 521.221C528.502 525.526 531.876 529.642 534.408 534.166L532.174 534.093L533.632 533.981L533.691 533.783C531.314 531.378 529.427 528.223 527.403 525.504C525.551 523.016 523.475 520.676 521.76 518.092C522.905 515.393 524.499 512.649 525.206 509.803L524.945 509.505Z" fill="#BAD9DD"/>
<path d="M531.097 508.496C534.354 509.172 538.183 510.587 541.504 510.489L542.024 510.61L542.04 510.753C542.863 510.806 543.622 511.542 544.279 512.002C545.407 512.793 546.565 513.619 547.81 514.214C549.038 514.253 549.58 514.688 550.45 515.559L546.173 534.118L546.219 534.234L538.613 534.225L534.408 534.166C531.876 529.641 528.502 525.526 525.607 521.221C524.886 520.15 524.016 519.095 523.409 517.96C524.168 516.591 524.879 515.228 525.489 513.784C526.026 512.513 526.453 510.933 527.351 509.855C527.632 509.518 527.844 509.17 528.069 508.794L528.67 508.632L531.097 508.496Z" fill="#EAFCFC"/>
<path d="M529.843 508.768C530.119 508.789 530.843 508.754 531.061 508.86C531.477 509.063 532.173 509.949 532.542 510.293L537.102 514.419C535.717 514.847 534.314 515.336 532.846 515.291L531.158 510.828C530.839 510.025 530.372 509.44 529.843 508.768Z" fill="#BAD9DD"/>
<path d="M537.102 514.419L537.258 514.415C538.252 515.446 540.092 516.955 540.667 518.244L538.755 533.601C537.755 531.784 537.2 529.645 536.599 527.668C535.347 523.55 534.418 519.303 532.846 515.291C534.314 515.336 535.717 514.847 537.102 514.419Z" fill="#83D0C4"/>
<path d="M542.04 510.753C542.863 510.806 543.622 511.542 544.279 512.002C545.407 512.793 546.565 513.619 547.81 514.214C549.038 514.253 549.58 514.688 550.45 515.559L546.173 534.118L546.219 534.234L538.613 534.225L538.755 533.602L540.667 518.244C540.092 516.955 538.252 515.446 537.258 514.415C539.011 513.559 540.641 512.093 542.04 510.753Z" fill="#008175"/>
<path d="M547.81 514.214C549.038 514.253 549.58 514.689 550.45 515.559L546.173 534.118L545.88 533.778L544.791 524.68C544.596 523.027 544.199 521.258 544.222 519.598C544.233 518.798 544.423 518.062 544.725 517.324C545.911 516.534 546.884 515.278 547.81 514.214Z" fill="#83D0C4"/>
<path d="M554.283 462.71L556.786 481.654C557.281 480.801 557.711 479.983 558.015 479.043C558.454 477.683 558.686 475.435 559.804 474.477C561.097 475.475 561.841 476.456 562.052 478.137C562.334 480.388 561.604 482.633 560.151 484.358C559.157 485.538 558.067 486.163 556.639 486.652C556.583 490.512 556.166 494.591 553.43 497.587L553.491 508.216L553.419 508.27L552.909 508.417C551.624 510.695 551.396 513.168 550.45 515.559C549.58 514.688 549.038 514.253 547.81 514.214C546.565 513.619 545.407 512.793 544.279 512.002C543.622 511.542 542.863 510.806 542.04 510.753L542.024 510.61L541.504 510.489C538.182 510.587 534.354 509.172 531.097 508.496L530.97 502.466L530.824 498.646C530.046 497.072 529.035 495.795 528.452 494.097L528.335 493.75C527.891 492.47 527.81 491.354 527.75 490.01L527.662 490.864C527.289 490.537 527.044 489.873 526.802 489.426C526.203 488.323 525.518 487.255 525.144 486.051C524.27 485.067 523.688 484.301 523.308 483.006C522.653 480.771 522.93 477.517 524.026 475.482L524.181 475.374C524.407 475.213 524.645 475.023 524.909 474.929C525.745 474.632 526.698 475.141 527.383 475.556L527.576 475.675C527.828 473.042 527.618 470.227 527.626 467.576C527.629 466.581 527.499 465.414 527.8 464.459C528.234 464.018 528.373 463.736 529.041 463.7C529.578 463.672 530.374 464.024 530.894 464.189C532.439 464.681 533.976 465.278 535.552 465.66C537.6 466.157 539.748 466.265 541.847 466.228C546.536 465.977 550.194 465.034 554.283 462.71Z" fill="#F6A071"/>
<path d="M540.796 483.121C541.754 483.147 543.955 482.846 544.719 483.282C544.956 483.802 544.928 484.059 544.869 484.607C544.157 485.002 542.656 484.699 541.814 484.687L541.167 484.629C540.824 484.147 540.861 483.703 540.796 483.121Z" fill="#E33115"/>
<path d="M547.722 475.936L547.916 475.885C548.467 475.8 548.992 475.829 549.424 476.219C549.864 476.616 549.933 477.211 549.865 477.772C549.799 478.316 549.4 478.599 548.983 478.874C548.77 478.929 548.643 478.971 548.413 478.984C547.78 479.022 547.521 478.707 547.095 478.323C546.949 477.958 546.818 477.678 546.85 477.273C546.905 476.585 547.21 476.315 547.722 475.936Z" fill="#091314"/>
<path d="M534.594 475.753L534.759 475.719C535.445 475.645 535.856 475.932 536.339 476.357C536.561 476.885 536.66 477.205 536.47 477.772C536.293 478.3 535.869 478.6 535.417 478.874L534.642 478.962C534.164 478.902 533.922 478.709 533.644 478.323C533.355 477.92 533.356 477.208 533.53 476.763C533.746 476.21 534.103 476.017 534.594 475.753Z" fill="#542D1A"/>
<path d="M525.144 486.051L525.33 486.02C526.482 485.805 526.893 485.227 527.624 484.357L527.75 490.01L527.662 490.864C527.289 490.537 527.044 489.873 526.802 489.426C526.203 488.323 525.518 487.255 525.144 486.051Z" fill="#2C3F4E"/>
<path d="M532.359 473.182C533.161 472.952 538.111 472.801 538.774 473.168C538.841 473.746 538.842 474.098 538.649 474.651C537.196 474.896 535.45 474.73 533.955 474.73C533.397 474.73 532.795 474.82 532.285 474.559C532.194 474.051 532.26 473.677 532.359 473.182Z" fill="#542D1A"/>
<path d="M544.904 473.182C546.534 472.866 548.682 473.12 550.368 473.124C551.108 473.125 551.859 472.999 552.51 473.366C552.616 473.882 552.601 474.146 552.45 474.651L552.31 474.685C550.638 474.989 548.442 474.736 546.719 474.734C546.141 474.734 545.322 474.862 544.834 474.552C544.761 474.058 544.82 473.666 544.904 473.182Z" fill="#542D1A"/>
<path d="M525.782 476.671L526.115 476.59C526.605 476.516 526.988 476.591 527.385 476.855L527.43 479.426C527.458 480.81 526.763 481.899 526.14 483.098L525.827 483.538L525.552 483.408C524.967 481.951 524.83 480.626 524.894 479.069C524.936 478.065 525.026 477.377 525.782 476.671Z" fill="#E33115"/>
<path d="M542.814 493.914C541.457 493.894 540.356 493.807 539.141 493.092C537.586 492.177 536.924 490.305 536.456 488.669L542.414 488.915C543.378 488.988 544.33 489.043 545.299 489.001C545.861 488.977 546.934 488.763 547.435 488.968C546.759 490.739 545.801 492.575 543.993 493.427L543.177 493.765L542.95 493.859L542.814 493.914Z" fill="#EAFCFC"/>
<path d="M334.956 495.414C333.6 495.394 332.498 495.306 331.283 494.592C329.728 493.677 329.067 491.805 328.598 490.169L334.556 490.415C335.521 490.488 336.472 490.542 337.441 490.501C338.003 490.477 339.076 490.263 339.577 490.468C338.901 492.239 337.943 494.075 336.135 494.927L335.319 495.265L335.093 495.359L334.956 495.414Z" fill="#EAFCFC"/>
<path d="M541.461 500.817L546.546 500.503C547.994 500.301 549.388 500.135 550.719 499.49L550.986 499.357C551.926 498.905 552.646 498.262 553.43 497.587L553.491 508.216L553.419 508.27L552.909 508.417C551.624 510.695 551.396 513.168 550.45 515.559C549.58 514.688 549.038 514.253 547.81 514.214C546.565 513.619 545.407 512.793 544.279 512.002C543.622 511.542 542.863 510.806 542.04 510.753L542.024 510.61L541.504 510.489L541.529 504.382C541.34 503.247 541.452 501.97 541.461 500.817Z" fill="#F48D1C"/>
<path d="M542.024 510.61L552.909 508.417C551.624 510.695 551.396 513.168 550.45 515.559C549.58 514.689 549.038 514.253 547.81 514.214C546.565 513.619 545.407 512.793 544.279 512.002C543.622 511.542 542.863 510.806 542.04 510.753L542.024 510.61Z" fill="#94C1C7"/>
<path d="M400.577 319.958L392.337 319.945L392.292 230.123L482.848 230.138L482.856 274.628L482.889 320.018L457.17 320.182L451.546 320.181C450.637 320.181 449.601 320.284 448.713 320.084L404.537 319.965C403.44 320.212 401.737 319.969 400.577 319.958Z" fill="#008175"/>
<path d="M422.106 269.627L421.954 269.383C420.148 266.235 418.996 260.539 420.115 257.029C422.173 250.568 431.36 250.123 436.492 247.505C440.071 245.68 442.112 243.278 443.34 239.458L444.87 241.018C446.688 243.774 447.939 246.393 448.253 249.735C449.157 247.803 449.568 245.842 449.731 243.721L449.892 242.981C450.433 242.886 450.882 243.085 451.33 243.407C452.474 244.229 453.325 245.702 454.078 246.87C454.835 248.584 455.632 250.325 456.072 252.155C457.069 256.293 456.695 261.494 455.215 265.481L454.982 266.037C454.604 266.123 454.403 266.068 454.036 265.956L437.85 266.886C433.145 266.596 428.871 265.853 424.299 264.737C422.862 266.309 422.489 267.566 422.106 269.627Z" fill="#F48D1C"/>
<path d="M422.106 269.627C422.489 267.566 422.862 266.309 424.299 264.737C428.87 265.853 433.144 266.596 437.85 266.886L454.036 265.956L453.641 270.774C454.737 270.582 455.289 270.486 456.223 271.131C457.126 271.755 457.578 272.545 457.762 273.619C458.051 275.308 457.674 276.821 456.647 278.185C455.586 279.594 454.074 280.47 452.451 281.089L452.478 281.287C452.733 283.3 452.312 285.072 451.052 286.658L449.784 288.12L445.393 292.205L442.638 293.674L443.373 298.265C442.696 298.584 439.096 299.974 438.382 300.197L438.216 300.307C437.562 300.273 436.877 299.796 436.301 299.493L432.273 297.414L432.722 295.144V293.307L430.518 291.838L427.947 290.369L426.011 288.107C425.201 287.168 424.267 286.061 423.769 284.921L423.673 284.691C423.183 283.55 423.34 282.095 423.355 280.864L422.713 280.639C421.963 280.379 421.307 280.082 420.662 279.607C419.438 278.707 418.195 277.182 418.017 275.636C417.863 274.306 418.041 273.007 418.916 271.955C419.545 271.199 420.142 270.805 421.122 270.729C421.511 270.73 421.34 270.712 421.76 270.794C422.187 270.878 421.969 270.909 422.373 270.71L422.106 269.627Z" fill="#F6A071"/>
<path d="M454.915 271.098L454.994 271.793C455.091 273.034 455.135 275.125 454.57 276.248C454.232 276.921 453.603 277.562 453.119 278.139L454.915 271.098Z" fill="#F48D1C"/>
<path d="M444.506 273.566L444.859 273.495C445.307 273.484 445.689 273.78 445.951 274.117C446.279 274.539 446.38 275.261 446.232 275.769C446.067 276.335 445.762 276.531 445.301 276.831C444.595 276.928 444.591 276.879 444.016 276.528C443.669 276 443.471 275.592 443.575 274.943C443.681 274.286 444.006 273.962 444.506 273.566Z" fill="#01141C"/>
<path d="M431.554 273.75C431.705 273.715 431.829 273.678 431.991 273.683C432.418 273.695 432.777 273.926 433.04 274.252C433.331 274.613 433.469 275.033 433.417 275.494C433.344 276.132 432.925 276.537 432.446 276.905C431.75 276.958 431.666 276.995 431.034 276.627C430.665 276.058 430.574 275.805 430.545 275.126C430.794 274.457 430.984 274.185 431.554 273.75Z" fill="#01141C"/>
<path d="M444.579 269.282C445.176 269.248 445.841 269.232 446.432 269.332C447.472 269.507 448.076 270.332 448.607 271.16C448.167 271.503 447.532 271.393 447.001 271.389C445.882 271.294 443.503 271.537 442.604 270.922C442.524 270.546 442.467 270.628 442.648 270.321C443.053 269.635 443.861 269.475 444.579 269.282Z" fill="#7A3909"/>
<path d="M444.579 269.282C445.176 269.248 445.841 269.232 446.432 269.332C447.472 269.507 448.076 270.332 448.607 271.16C448.167 271.503 447.532 271.393 447.001 271.389C445.882 271.294 443.503 271.537 442.604 270.922C442.524 270.546 442.467 270.628 442.648 270.321C443.053 269.635 443.861 269.475 444.579 269.282Z" fill="#7A3909"/>
<path d="M444.579 269.282C445.176 269.248 445.841 269.232 446.432 269.332C447.472 269.507 448.076 270.332 448.607 271.16C448.167 271.503 447.532 271.393 447.001 271.389C445.882 271.294 443.503 271.537 442.604 270.922C442.524 270.546 442.467 270.628 442.648 270.321C443.053 269.635 443.861 269.475 444.579 269.282Z" fill="#7A3909"/>
<path d="M430.916 269.46C431.514 269.426 432.179 269.41 432.769 269.51C433.809 269.686 434.413 270.511 434.944 271.338C434.504 271.681 433.869 271.572 433.338 271.567C432.219 271.472 429.84 271.716 428.941 271.101C428.861 270.724 428.804 270.807 428.986 270.499C429.391 269.813 430.198 269.653 430.916 269.46Z" fill="#7A3909"/>
<path d="M430.916 269.46C431.514 269.426 432.179 269.41 432.769 269.51C433.809 269.686 434.413 270.511 434.944 271.338C434.504 271.681 433.869 271.572 433.338 271.567C432.219 271.472 429.84 271.716 428.941 271.101C428.861 270.724 428.804 270.807 428.986 270.499C429.391 269.813 430.198 269.653 430.916 269.46Z" fill="#7A3909"/>
<path d="M430.916 269.46C431.514 269.426 432.179 269.41 432.769 269.51C433.809 269.686 434.413 270.511 434.944 271.338C434.504 271.681 433.869 271.572 433.338 271.567C432.219 271.472 429.84 271.716 428.941 271.101C428.861 270.724 428.804 270.807 428.986 270.499C429.391 269.813 430.198 269.653 430.916 269.46Z" fill="#7A3909"/>
<path d="M432.273 297.414L436.301 299.493C436.877 299.796 437.562 300.273 438.216 300.307L438.382 300.197C439.096 299.974 439.772 299.608 440.449 299.289L443.026 302.895C443.871 302.452 444.992 301.697 445.937 301.627L446.693 302.408C456.513 303.924 466.636 307.547 472.665 315.872L475.213 320.005L455.933 320.019L451.142 320.029C450.381 320.031 449.454 319.934 448.713 320.084L404.537 319.965C403.44 320.212 401.737 319.969 400.577 319.958L402.46 316.721C408.597 307.455 419.222 304.156 429.576 302.121C430.177 301.964 430.556 301.723 431.057 301.362L431.29 300.346L432.273 297.414Z" fill="#EAFCFC"/>
<path d="M432.273 297.414L436.301 299.493C436.877 299.796 437.562 300.273 438.216 300.307L438.382 300.197C439.096 299.974 439.772 299.608 440.449 299.289L443.026 302.895C443.871 302.452 444.992 301.697 445.937 301.627L446.693 302.408L447.383 305.448C444.868 306.441 442.211 307.525 439.957 309.039C439.42 308.057 438.899 307.211 438.162 306.365L437.69 305.788L437.045 305.839C436.072 306.879 435.282 308.063 434.56 309.287C432.494 308.057 430.384 306.71 428.547 305.157L429.576 302.121C430.177 301.964 430.556 301.723 431.057 301.362L431.29 300.346L432.273 297.414Z" fill="#284663"/>
<path d="M443.371 298.17L445.577 301.755C444.051 302.611 439.837 304.396 438.196 304.999L438.066 304.677C437.842 303.924 437.88 300.999 438.216 300.307L438.196 299.918C438.91 299.695 442.694 298.489 443.371 298.17Z" fill="#E33115"/>
<path d="M432.652 297.347L436.68 299.426C437.256 299.729 437.942 300.206 438.595 300.24C438.259 300.932 438.221 303.857 438.445 304.61L438.575 304.932L438.22 304.989C437.535 304.855 436.827 304.384 436.207 304.052L431.436 301.295L431.669 300.279L432.652 297.347Z" fill="#F48D1C"/>
<path d="M437.862 283.879L445.336 283.391C444.169 285.747 442.83 288.018 440.176 288.911C439.408 289.169 438.69 289.218 437.886 289.22L435.981 288.775C433.578 287.981 432.138 285.867 431.069 283.695L437.862 283.879Z" fill="#EAFCFC"/>
<path d="M326.162 479.601L326.668 479.524C327.154 479.486 327.577 479.62 327.937 479.952C328.539 480.504 328.589 481.038 328.606 481.804C328.249 482.544 327.888 482.785 327.195 483.205C327.017 483.242 326.697 483.334 326.505 483.315C325.921 483.258 325.526 482.845 325.194 482.386C324.841 481.897 324.914 481.265 324.978 480.703C325.347 480.117 325.549 479.924 326.162 479.601Z" fill="#01141C"/>
<path d="M339.752 479.234L340.257 479.157C340.743 479.118 341.166 479.253 341.527 479.584C342.128 480.137 342.178 480.67 342.195 481.437C341.838 482.177 341.478 482.417 340.784 482.838C340.606 482.875 340.286 482.967 340.094 482.948C339.51 482.89 339.115 482.477 338.784 482.018C338.431 481.529 338.504 480.897 338.568 480.336C338.936 479.75 339.139 479.556 339.752 479.234Z" fill="#01141C"/>
</g>
<defs>
<linearGradient id="paint0_linear_256_1004" x1="443.54" y1="488.035" x2="433.038" y2="489.591" gradientUnits="userSpaceOnUse">
<stop stop-color="#F4683D"/>
<stop offset="1" stop-color="#FF8F71"/>
</linearGradient>
<clipPath id="clip0_256_1004">
<rect width="376.095" height="376.093" fill="white" transform="translate(250 189)"/>
</clipPath>
</defs>
</svg>
