<svg width="260" height="260" viewBox="0 0 260 260" fill="none" xmlns="http://www.w3.org/2000/svg">
<g clip-path="url(#clip0_54_5038)">
<path d="M26.8661 128.539C26.829 127.902 26.8534 127.816 26.4492 127.334C26.4121 126.613 26.2605 125.069 26.6602 124.515L27.5407 124.603C27.5532 125.772 27.6233 126.61 26.9037 127.588L26.8661 128.539Z" fill="#310402"/>
<path d="M31.0273 125.048L32.5 124.805L32.745 125.157L33.4372 127.657C32.8293 127.86 32.1689 128.01 31.5324 128.093L31.0273 125.048Z" fill="#EAFCFC"/>
<path d="M95.1326 70.2251L95.1062 70.0441C94.9498 69.1572 93.8438 68.54 94.1358 67.5454C94.4826 67.2519 94.5014 67.276 94.961 67.2661C95.3294 67.4929 95.3972 67.8234 95.5322 68.2089C96.1515 67.6627 95.9243 66.1139 96.8652 65.893C97.1217 66.1675 97.2715 66.3282 97.3431 66.7139L97.2387 67.0947L97.3393 67.1468L97.627 66.7789C98.0129 66.8284 98.0048 66.8665 98.2716 67.1582L98.3252 67.6005L98.4626 67.4756C98.8312 67.8036 98.8356 68.0131 98.9229 68.4889C98.9661 68.724 99.0633 68.9109 99.1644 69.126C99.073 69.8648 98.7381 70.5372 98.1434 70.9975C97.5777 71.4353 97.1953 71.7196 97.0039 72.4303C96.2942 71.7493 95.6323 71.0839 95.1326 70.2251Z" fill="#F6A071"/>
<path d="M42.716 94.3112L42.8223 96.2462C42.375 96.5341 41.8448 96.831 41.47 97.209C40.9445 97.7394 40.5715 98.4115 40.0482 98.9579L39.7996 98.915L39.6726 98.4745C39.3872 98.6944 39.191 98.7954 38.8474 98.9036C38.543 98.7185 38.3483 98.3889 38.138 98.1073L38.3013 97.7884L37.9588 97.855L37.7683 97.7008L37.8585 97.2476L37.9379 97.0128C37.6566 97.0673 37.6444 97.0719 37.3875 96.9483C37.3494 96.5763 37.489 96.3788 37.6371 96.04C37.4604 95.9702 37.3844 95.923 37.2407 95.8082L37.3039 95.4688C38.4216 94.0151 39.7656 93.3872 41.5498 93.0665C41.7775 93.4202 41.7346 93.8326 42.0847 93.9364L42.2244 93.9611C42.4417 94.0159 42.5593 94.1619 42.716 94.3112Z" fill="#F6A071"/>
<path d="M27.5407 124.603L29.8312 124.839C30.2212 124.878 30.6808 124.86 31.0274 125.048L31.5324 128.093L31.4298 128.154C30.6166 128.664 30.2634 129.577 29.8388 130.4C28.9692 132.084 28.2496 134.08 27.233 135.658C27.2165 135.684 26.9956 136.015 26.9669 136.023C26.8923 136.043 26.8125 136.022 26.7353 136.022C26.3636 135.28 26.7455 129.668 26.8661 128.539L26.9037 127.588C27.6232 126.61 27.5532 125.772 27.5407 124.603Z" fill="#610502"/>
<path d="M56.5252 109.568C56.7784 109.611 56.952 109.68 57.18 109.784C57.9428 110.134 58.9434 110.199 59.7714 110.363C61.5307 110.712 63.3545 111.043 65.077 111.533L54.8223 123.779L54.6699 119.558L51.9023 119.71C52.3256 118.463 52.9314 117.266 53.473 116.066L56.5252 109.568Z" fill="#040E1C"/>
<path d="M54.9894 94.7238C57.0653 94.7263 59.1943 94.7055 61.2548 94.4376C62.4789 94.2782 63.7095 93.9755 64.9181 93.7209C64.2653 94.8893 63.6341 96.0898 62.8663 97.1874L59.4353 101.642C58.5291 102.937 57.2606 103.962 56.0863 105.008L54.8294 106.005L49.457 97.5287C49.6426 97.2456 50.6956 96.8967 51.0351 96.7342L54.9894 94.7238Z" fill="#E33115"/>
<path d="M51.9023 119.71L54.6699 119.558L54.8223 123.779C54.4541 124.288 54.3683 124.454 53.7226 124.56L33.4373 127.657L32.7451 125.157C32.7652 124.98 32.7604 125.069 32.755 124.846L32.7499 124.668C33.4015 124.294 34.3569 124.185 35.0889 123.999L39.7278 122.807L51.9023 119.71Z" fill="#2C3F4E"/>
<path d="M68.7745 78.3941C68.7702 78.1818 68.5377 77.775 68.4521 77.5668C68.2154 76.9905 68.022 76.389 67.8729 75.7839C67.4639 74.1218 68.4221 71.8016 68.7314 70.1096C69.1409 69.8714 69.6104 69.5789 70.0781 69.4807C70.9858 69.2897 72.1576 69.5304 73.0892 69.6074C73.563 69.6467 74.0939 69.7407 74.5575 69.6239C75.4655 69.3954 76.3516 68.8302 77.3144 68.9378C77.6432 68.9746 77.9611 69.2265 78.1582 69.4875C78.4334 69.8514 78.5047 70.4019 78.4253 70.8401C78.3351 71.336 77.7212 71.7867 77.3421 72.0606L77.222 72.1457C77.4063 72.851 77.662 73.8677 77.4833 74.5852C77.2535 75.5071 78.4448 78.7203 77.4688 79.25C76.9239 79.5455 76.378 79.3543 75.7986 79.3586L75.7516 80.0721C75.4035 79.7933 75.1484 79.5882 74.7119 79.4767L74.5309 79.6631L74.6992 80.5551C73.9502 80.5634 73.2362 80.8806 72.5395 81.1299C71.8483 80.0795 71.1544 79.4285 70.2581 78.5771C69.9913 78.747 69.8478 78.8854 69.6642 79.1428C69.2803 78.9458 69.0597 78.7147 68.7745 78.3941Z" fill="url(#paint0_linear_54_5038)"/>
<path d="M77.2222 72.1457C77.4066 72.851 77.6622 73.8677 77.4835 74.5852C77.2537 75.5071 78.445 78.7203 77.469 79.25C76.9241 79.5455 76.3782 79.3543 75.7988 79.3586L75.7519 80.0721C75.4038 79.7933 75.1486 79.5882 74.7121 79.4767L74.5311 79.6631L74.6994 80.5551C73.9504 80.5634 73.2364 80.8806 72.5397 81.1299C71.8486 80.0795 71.1546 79.4285 70.2583 78.5771L71.226 76.4436L71.1049 76.165C70.6237 75.8568 70.2903 75.4447 70.1177 74.9023C70.1474 74.5517 70.1875 74.3328 70.4498 74.0771C70.7895 73.7461 71.1049 73.7831 71.5383 73.772C71.9428 74.0106 72.0583 74.1394 72.2736 74.5568L72.5057 74.8843L72.8078 74.9148C73.4593 74.3498 73.6503 73.0511 73.8377 72.2285C74.9203 72.2858 75.9301 72.3912 77.0067 72.1878L77.2222 72.1457Z" fill="#F6A071"/>
<path d="M69.664 79.1428C69.8476 78.8854 69.9911 78.747 70.2579 78.5771C71.1542 79.4285 71.8481 80.0795 72.5393 81.1299C73.236 80.8806 73.95 80.5634 74.699 80.5551L74.5306 79.6631L74.7117 79.4767C75.1481 79.5882 75.4033 79.7933 75.7514 80.0721L76.0625 80.192C76.0343 82.6145 75.0214 84.827 73.7481 86.8486C73.3964 87.4065 73.0169 88.0978 72.5575 88.5727L72.4458 88.6643C71.5084 89.6033 70.5753 90.6227 69.5198 91.4281C68.1817 92.4493 66.508 93.1874 64.918 93.7209C63.7094 93.9755 62.4787 94.2782 61.2546 94.4376C59.1942 94.7055 57.0652 94.7263 54.9893 94.7238C55.7091 94.2464 56.3553 93.7016 57.1228 93.2946C58.1984 92.1532 59.1094 90.8086 59.9262 89.474C60.2903 88.8789 60.7268 88.2568 60.9129 87.5801C61.5286 87.4176 62.239 87.3999 62.8733 87.3156L66.5867 86.7796L67.7023 86.6023L69.664 79.1428Z" fill="#EAFCFC"/>
<path d="M67.7024 86.6023L66.6223 89.5332C66.4912 89.3483 66.2391 89.0383 66.2216 88.8037C66.1695 88.1039 66.7469 87.6096 66.5867 86.7796L67.7024 86.6023Z" fill="#AE0B14"/>
<path d="M71.7023 87.5286C71.1769 86.3319 70.463 84.403 70.7989 83.0875L70.8329 82.9639C70.5742 82.7122 70.415 82.6742 70.073 82.6241L69.961 82.6094L69.9473 82.4561L71.4555 81.0393C71.8594 81.328 72.2299 81.5727 72.6938 81.7558L72.8075 81.7992L72.8603 82.0752C72.7504 82.4101 72.6549 82.7044 72.415 82.9717L72.2451 83.1543L72.9761 85.4141L73.0442 85.5877C72.7067 86.3335 72.0951 86.8301 71.7023 87.5286Z" fill="#E33115"/>
<path d="M74.699 80.5551L74.5306 79.6631L74.7117 79.4767C75.1481 79.5882 75.4033 79.7933 75.7514 80.0721L76.0625 80.192C76.0343 82.6145 75.0214 84.827 73.7481 86.8486C73.3964 87.4065 73.0169 88.0978 72.5575 88.5727L72.4458 88.6643C71.5084 89.6033 70.5753 90.6227 69.5198 91.4281C68.1817 92.4493 66.508 93.1874 64.918 93.7209C63.7094 93.9755 62.4787 94.2782 61.2546 94.4376C59.1942 94.7055 57.0652 94.7263 54.9893 94.7238C55.7091 94.2464 56.3553 93.7016 57.1228 93.2946C59.9173 93.1404 63.1633 92.9812 65.7661 91.8821C67.6475 91.1348 69.1737 90.2418 70.6147 88.8042C71.0082 88.4114 71.4571 88.0331 71.7021 87.5286C72.0949 86.8301 72.7066 86.3335 73.044 85.5877C73.7565 84.0427 74.3626 82.2275 74.699 80.5551Z" fill="#040E1C"/>
<path d="M60.9131 87.5801C61.5288 87.4176 62.2393 87.3999 62.8735 87.3156L66.5869 86.7796C66.7471 87.6096 66.1697 88.1039 66.2218 88.8037C66.2393 89.0383 66.4914 89.3483 66.6224 89.5332C66.3195 90.2807 65.9115 91.0901 65.7663 91.8821C63.1635 92.9812 59.9175 93.1404 57.123 93.2946C58.1986 92.1532 59.1096 90.8086 59.9264 89.474C60.2905 88.8789 60.727 88.2568 60.9131 87.5801Z" fill="#E33115"/>
<path d="M185.854 108.879L185.855 133.368L167.213 133.356C168.158 131.86 169.404 130.431 170.473 129.012L177.417 119.839L183.13 112.353C184.023 111.184 184.816 109.927 185.854 108.879Z" fill="#EAFCFC"/>
<path d="M63.3495 80.7422L63.9843 80.3613L64.6191 79.8535L65.3181 79.3139L68.7745 78.3941C69.0596 78.7147 69.2803 78.9458 69.6642 79.1428L67.7025 86.6023L66.5868 86.7796L62.8735 87.3156C62.2392 87.3999 61.5288 87.4176 60.9131 87.5801L51.9121 89.0223C51.0209 89.1221 50.2414 89.8797 49.533 90.402L44.7088 94.1322C44.5351 94.2655 43.8262 94.8921 43.6083 94.8957C43.5075 94.8972 42.8502 94.4003 42.7161 94.3112C42.5594 94.1619 42.4419 94.0159 42.2245 93.961L42.0849 93.9364C41.7348 93.8326 41.7777 93.4202 41.5499 93.0665C41.3803 92.857 41.4202 92.8647 41.4156 92.6123C42.3728 91.2778 43.844 90.1321 45.0396 88.9969L47.8029 86.3837C48.3031 85.9135 48.8093 85.3564 49.3941 84.9951C50.2668 84.4561 51.8059 84.3002 52.8124 84.0602L61.0481 82.1846C62.207 81.7578 61.0481 82.1846 62.207 81.7578C62.7148 81.25 62.207 81.7578 62.7148 81.25C63.3495 80.7422 62.7148 81.25 63.3495 80.7422Z" fill="#F48D1C"/>
<path d="M95.1327 70.2251C95.6324 71.0838 96.2944 71.7493 97.004 72.4303C96.9809 73.2238 96.176 74.2011 95.7685 74.8993L91.72 81.2835C90.7257 82.7379 89.6824 84.2908 88.3867 85.4933C88.34 85.5367 88.1038 85.7439 88.0719 85.7601C87.7679 85.9145 86.8881 85.9368 86.5164 85.9894L78.965 86.8656C78.7715 86.8865 77.7389 86.92 77.6262 87.003C77.5962 87.0251 77.1643 89.3547 77.1051 89.5738C76.6324 91.3285 75.6693 92.9942 74.8578 94.6126C74.4343 95.4576 74.0456 96.4397 73.5306 97.2263L69.4585 104.62L69.3823 104.605C68.7986 104.523 68.0821 104.17 67.6027 103.827C67.6443 103.467 67.7847 103.175 67.9198 102.842L59.4355 101.642L62.8666 97.1874C63.6344 96.0898 64.2656 94.8893 64.9184 93.7209C66.5084 93.1874 68.1821 92.4493 69.5202 91.4281C70.5757 90.6227 71.5088 89.6033 72.4462 88.6643L72.5579 88.5727C73.0172 88.0978 73.3968 87.4065 73.7485 86.8486C75.0218 84.827 76.0347 82.6145 76.0629 80.192L85.8933 81.415L95.1327 70.2251Z" fill="url(#paint1_linear_54_5038)"/>
<path d="M72.4462 88.6643C72.597 88.9992 72.447 89.3699 72.3848 89.7279C72.2388 90.5679 72.124 91.4121 71.9191 92.2408C71.8135 92.6684 71.5365 93.3072 71.5322 93.7305L67.9198 102.842L59.4355 101.642L62.8666 97.1874C63.6344 96.0898 64.2656 94.8893 64.9184 93.7209C66.5084 93.1874 68.1821 92.4493 69.5202 91.4281C70.5757 90.6227 71.5088 89.6033 72.4462 88.6643Z" fill="#EAFCFC"/>
<path d="M59.4354 101.642L67.9197 102.842C67.7846 103.175 67.6442 103.467 67.6026 103.827C68.082 104.17 68.7985 104.523 69.3822 104.605L69.4584 104.62L69.5899 104.723C69.9492 104.985 70.4882 105.052 70.9047 105.21L75.6855 107.017L81.2358 109.167C82.0265 109.487 83.0546 109.809 83.7551 110.294C84.0458 110.495 84.1938 110.978 84.3452 111.293C84.6336 111.894 84.9754 112.474 85.3077 113.052L92.0111 124.697L94.7878 129.487C93.9817 130.126 92.8736 130.795 92.197 131.557L92.0629 131.956C92.0251 131.356 91.6211 130.965 91.2598 130.503L88.5539 127.131C88.5095 127.004 88.5016 126.966 88.4229 126.835C88.0649 126.242 87.5045 125.659 87.0701 125.107L84.0567 121.311L81.0464 117.37C80.5965 116.793 80.0524 115.966 79.4727 115.522C78.9027 115.086 77.8906 114.876 77.2066 114.659C73.2106 113.389 69.0897 112.687 65.077 111.533C63.3545 111.043 61.5307 110.712 59.7714 110.363C58.9434 110.199 57.9427 110.134 57.18 109.784C56.952 109.68 56.7783 109.611 56.5252 109.568C56.5394 108.817 56.4071 108.036 56.3617 107.282C56.3195 106.58 56.3799 105.644 56.0864 105.008C57.2607 103.962 58.5293 102.937 59.4354 101.642Z" fill="#2C3F4E"/>
<path d="M220.788 37.7579L243.441 26.2267C243.788 26.0625 245.256 25.2644 245.51 25.3458L242.977 35.166L237.969 54.65L235.597 64.1954C235.088 66.1977 234.412 68.2518 234.117 70.2919L222.592 60.4452L218.993 65.3253L210.872 75.999L205.094 83.6466C204.825 83.9914 204.17 85.0629 203.846 85.2201L203.771 85.199L203.728 85.0269L205.827 82.2578C206.315 81.6745 206.867 81.038 207.268 80.3933C207.671 79.7469 208.228 79.2172 208.647 78.584C208.766 78.4055 208.845 78.2557 208.985 78.0881L210.107 76.6162C210.513 75.9799 211.044 75.302 211.539 74.7241L211.79 74.4263C212.008 74.0703 211.775 74.3171 211.971 74.1023C212.109 73.9515 212.244 73.8286 212.359 73.6564L213.644 72.0083L214.202 71.2166L215.789 69.1577L218.169 66.0156C218.284 65.8366 218.365 65.6896 218.505 65.5236L219.692 63.9844C219.856 63.7282 220 63.5185 220.201 63.2861C220.346 63.1201 220.514 62.9751 220.57 62.7545L220.582 62.6514C220.988 62.3058 221.318 61.9046 221.613 61.4611L222.232 60.5249C222.053 60.321 221.919 60.1473 221.685 60.0069C221.523 59.9097 221.423 59.7518 221.28 59.6675L221.089 59.6032C220.955 59.4189 220.862 59.2985 220.666 59.1741C220.373 58.9872 220.126 58.762 219.821 58.5889L219.692 58.5876C219.651 58.5178 219.598 58.4165 219.534 58.3667C219.34 58.2169 219.242 58.2377 219.052 58.029L218.899 57.8589C218.775 57.771 218.623 57.7256 218.504 57.6309L218.359 57.5098C218.045 57.771 217.916 58.0905 217.66 58.3984C217.293 58.8402 216.897 59.2409 216.582 59.7314C216.172 60.37 215.632 60.9329 215.208 61.5664C214.913 62.008 214.493 62.3627 214.215 62.8085C213.767 63.5284 213.165 64.3409 212.614 64.986L211.85 66.0037L211.249 66.7456C211.024 67.1089 211.324 66.7433 211.108 66.996L210.336 68.023L209.916 68.5547C209.813 68.6786 209.72 68.7832 209.63 68.9178L209.345 69.3159L209.091 69.6655L208.837 69.9507L208.773 70.1416C208.35 70.4999 208.137 70.9269 207.787 71.3357L207.695 71.4429L207.441 71.792L207.251 71.9824C207.003 72.3663 206.992 72.5395 206.552 72.7528L206.329 72.8571C206.684 72.2056 207.246 71.5896 207.698 70.999L210.117 67.8179C212.81 64.2583 215.405 60.4929 218.344 57.134C218.034 57.0235 217.605 56.6363 217.32 56.4363L213.946 53.9198L203.851 46.3569L220.788 37.7579Z" fill="url(#paint2_linear_54_5038)"/>
<path d="M88.5539 127.131L91.2598 130.503C91.6211 130.965 92.025 131.356 92.0629 131.956L93.6935 137.075C93.4352 137.282 92.9076 137.688 92.8657 138.032C92.2096 138.668 91.7051 139.52 91.1757 140.263L88.596 143.79L74.2783 162.888L68.2234 171.119L66.9046 172.885C66.8002 173.023 66.6055 173.359 66.459 173.443L61.6924 179.926L14.2842 179.894C14.52 179.502 14.9923 179.153 15.3314 178.835L17.6745 176.64L52.3634 145.11L64.0875 156.911L88.5539 127.131Z" fill="url(#paint3_linear_54_5038)"/>
<path d="M92.0112 124.697L118.119 89.8511L141.327 121.526L169.04 83.6235L182.913 103.66C181.923 105.361 180.414 107.008 179.207 108.575L170.964 119.223L151.914 144.942L146.509 137.209L140.601 128.92L137.34 124.27C137.028 123.832 136.621 123.044 136.199 122.765L108.334 159.007L93.8554 139.396C93.6037 139.265 93.0649 138.31 92.8659 138.032C92.9078 137.688 93.4354 137.282 93.6936 137.075L92.063 131.956L92.1971 131.557C92.8738 130.795 93.9818 130.126 94.788 129.487L92.0112 124.697Z" fill="#EAFCFC"/>
<path d="M94.7879 129.487C95.1292 130.063 95.446 130.586 95.9178 131.07L100.293 129.881C101.351 129.639 102.388 129.479 103.402 129.066C103.209 129.295 102.803 129.922 102.564 130.041L96.2507 137.377C95.7865 137.888 94.939 139.081 94.3179 139.309L93.6936 137.075L92.063 131.956L92.1971 131.557C92.8737 130.795 93.9818 130.126 94.7879 129.487Z" fill="#040E1C"/>
<path d="M94.7876 129.487C95.1289 130.063 95.4458 130.586 95.9175 131.07L100.293 129.881C101.351 129.639 102.388 129.479 103.401 129.066C103.209 129.295 102.803 129.922 102.564 130.041L102.393 130.087C102.042 130.193 101.715 130.535 101.439 130.767L99.5029 132.436C98.627 133.173 97.7134 133.863 96.7521 134.484C95.8903 133.979 95.0446 133.024 94.1623 132.676C93.7657 132.52 93.2401 132.615 92.88 132.469C92.586 132.35 92.3379 131.817 92.1968 131.557C92.8734 130.795 93.9815 130.126 94.7876 129.487Z" fill="#E33115"/>
<path d="M206.329 72.8571L206.552 72.7528C206.992 72.5395 207.003 72.3663 207.251 71.9824L207.442 71.792L207.695 71.4429L207.788 71.3357C208.137 70.9269 208.35 70.4999 208.773 70.1416L208.837 69.9507L209.091 69.6655L209.345 69.3159L209.63 68.9178C209.721 68.7832 209.814 68.6786 209.916 68.5547L210.337 68.023L211.108 66.996C211.325 66.7433 211.024 67.1089 211.249 66.7456L211.85 66.0037L212.614 64.986C213.165 64.3409 213.767 63.5284 214.216 62.8085C214.493 62.3627 214.913 62.008 215.209 61.5664C215.632 60.9329 216.173 60.37 216.582 59.7314C216.897 59.2409 217.293 58.8402 217.66 58.3984C217.916 58.0904 218.045 57.771 218.36 57.5098L218.504 57.6309C218.623 57.7256 218.775 57.771 218.899 57.8589L219.052 58.029C219.242 58.2377 219.34 58.2169 219.534 58.3667C219.598 58.4165 219.651 58.5178 219.693 58.5876L219.821 58.5889C220.126 58.762 220.373 58.9872 220.667 59.1741C220.862 59.2985 220.955 59.4189 221.089 59.6032L221.28 59.6675C221.423 59.7518 221.523 59.9097 221.685 60.0069C221.919 60.1473 222.054 60.321 222.232 60.5249L221.613 61.4611C221.318 61.9046 220.988 62.3058 220.582 62.6514L220.57 62.7545C220.514 62.9751 220.346 63.1201 220.202 63.2861C220 63.5185 219.856 63.7282 219.693 63.9844L218.505 65.5236C218.365 65.6896 218.285 65.8366 218.169 66.0156L215.789 69.1577L214.203 71.2166L213.644 72.0083L212.359 73.6564C212.244 73.8286 212.109 73.9515 211.971 74.1023C211.775 74.3171 212.008 74.0703 211.79 74.4263L211.539 74.7241C211.044 75.302 210.513 75.9799 210.108 76.6162L208.986 78.0881C208.845 78.2557 208.766 78.4055 208.648 78.584C208.228 79.2172 207.671 79.7469 207.268 80.3933C206.867 81.038 206.315 81.6745 205.827 82.2578L203.728 85.0269L203.771 85.199L203.846 85.2201L185.854 108.879C184.816 109.927 184.023 111.184 183.13 112.353L177.417 119.839L170.473 129.012C169.404 130.431 168.158 131.86 167.213 133.356L159.321 143.847L145.936 162.104C145.231 160.947 138.714 150.761 138.416 150.64L110.921 188.046H108.753L102.767 180.126L80.9036 180.09L65.476 200.711L59.1804 209.183L58.865 209.224L46.9649 192.4L23.142 224.486L22.8441 224.758L10.2801 241.817L3.03418 241.897L47.9719 181.459L54.2622 189.813L59.334 183.064L61.6925 179.926L66.4591 173.443C66.6056 173.359 66.8004 173.023 66.9047 172.885L68.2235 171.119L74.2784 162.888L88.5962 143.79L91.1759 140.263C91.7053 139.52 92.2098 138.668 92.8659 138.032C93.0649 138.31 93.6037 139.265 93.8553 139.396L108.334 159.007L136.199 122.765C136.621 123.044 137.028 123.832 137.34 124.27L140.601 128.92L146.509 137.209L151.914 144.942L170.964 119.223L179.207 108.575C180.414 107.008 181.923 105.361 182.913 103.66C185.033 100.517 187.446 97.5135 189.771 94.5184L196.689 85.428L203.028 77.0943C204.08 75.7136 205.119 74.0982 206.329 72.8571Z" fill="#E33115"/>
<path d="M80.9033 180.09L92.1402 165.516L102.766 180.126L80.9033 180.09Z" fill="#EAFCFC"/>
<path d="M10.2801 241.817L22.8423 241.859C23.3935 242.143 24.2318 242.017 24.8513 242.016L29.4917 242.017L49.6818 241.972L73.6632 241.955C74.6585 241.802 76.4755 241.658 77.4325 241.951L100.447 241.972L104.322 241.978L127.986 241.97L131.785 241.97L155.628 241.913C156.764 241.848 158.224 241.709 159.344 241.907L182.874 241.96L186.836 241.972L210.241 241.904L213.793 241.848C214.06 241.855 214.238 241.974 214.509 241.981L222.919 241.989C224.317 241.989 225.791 242.084 227.18 241.951L237.122 241.965L260 241.915V260H0.127148L0.125977 242.247L0.321526 241.958L3.03422 241.897L10.2801 241.817Z" fill="#008175"/>
</g>
<defs>
<linearGradient id="paint0_linear_54_5038" x1="74.519" y1="76.693" x2="71.4766" y2="69.0403" gradientUnits="userSpaceOnUse">
<stop stop-color="#080816"/>
<stop offset="1" stop-color="#130F2A"/>
</linearGradient>
<linearGradient id="paint1_linear_54_5038" x1="77.9091" y1="76.9059" x2="86.053" y2="98.0302" gradientUnits="userSpaceOnUse">
<stop stop-color="#FF8F0F"/>
<stop offset="1" stop-color="#D6281D"/>
</linearGradient>
<linearGradient id="paint2_linear_54_5038" x1="202.987" y1="49.9662" x2="237.203" y2="58.4492" gradientUnits="userSpaceOnUse">
<stop stop-color="#C75025"/>
<stop offset="1" stop-color="#EEAF76"/>
</linearGradient>
<linearGradient id="paint3_linear_54_5038" x1="55.1388" y1="180.122" x2="52.3735" y2="129.167" gradientUnits="userSpaceOnUse">
<stop stop-color="#86BDBC"/>
<stop offset="1" stop-color="#ECE9E3"/>
</linearGradient>
<clipPath id="clip0_54_5038">
<rect width="260" height="260" fill="white"/>
</clipPath>
</defs>
</svg>
