<svg width="760" height="664" viewBox="0 0 760 664" fill="none" xmlns="http://www.w3.org/2000/svg">
<path d="M0 -39.9996H760L623.28 714H0L0 -39.9996Z" fill="#008175"/>
<g clip-path="url(#clip0_259_1404)">
<path d="M150 149.367L150.086 149.178C150.843 148.699 153.55 149 154.623 149H525.633L525.978 149.207L526 251.842V450.758V511.161V521.879C526 522.547 526.213 524.1 526 524.633C525.96 524.736 525.883 524.82 525.824 524.915L525.633 525L150.207 524.978L150 524.633V149.367Z" fill="#2C3F4E"/>
<path d="M150 149.367L150.086 149.178C150.843 148.699 153.55 149 154.623 149H525.633L525.651 149.207L421.592 149.215L238.53 149.241C230.129 149.239 151.138 148.902 150.219 149.375L150 149.367Z" fill="#799DA0"/>
<path d="M150 149.367L150.219 149.375L150.205 524.655L150 524.633V149.367Z" fill="#67A794"/>
<path d="M461.39 365.78C462.004 366.648 464.942 367.178 466.041 367.351L466.203 367.373C469.027 369.018 471.248 371.296 472.135 374.527C473.006 377.7 472.553 381.716 472.533 385.01L472.299 385.283L471.387 385.344L446.689 385.337L461.39 365.78Z" fill="#67A794"/>
<path d="M417.786 367.984C418.67 367.515 419.604 366.791 420.583 366.57L420.801 366.526L423.382 366.189L434.267 380.024L437.074 383.428C437.544 383.997 438.15 384.621 438.475 385.284H412.325L412.286 378.43C412.268 376.998 412.082 375.269 412.508 373.891C413.301 371.325 415.47 369.23 417.786 367.984Z" fill="#83D0C4"/>
<path d="M354.121 354.358C362.009 357.719 370.493 361.515 376.658 367.61C378.822 369.75 380.732 372.159 381.873 375.005L382.572 377.049C383.179 379.56 382.819 382.753 382.785 385.346L344.856 385.336C345.332 384.628 345.96 383.895 346.285 383.11C347.536 380.09 349.641 376.801 351.546 374.13C351.247 373.65 350.512 372.525 350.443 371.975C350.385 371.512 350.914 370.518 351.072 370.022C352.139 366.679 353.642 363.209 354.235 359.745C354.53 358.018 354.292 356.092 354.121 354.358Z" fill="#BAD9DD"/>
<path d="M354.608 357.838C355.651 359.875 355.965 362.816 356.503 365.058L358.558 372.402L347.969 382.49L346.252 383.96C347.459 382.217 348.853 380.677 350.153 379.011L354.512 373.06C354.9 372.519 355.818 371.552 356.036 370.944C356.1 370.767 355.934 369.971 355.91 369.753L355.316 365.243L354.703 360.775C354.58 359.824 354.396 358.977 354.571 358.014L354.608 357.838Z" fill="#94C1C7"/>
<path d="M323.495 464.726C324.484 465.413 325.47 466.141 326.565 466.654C330.143 468.329 333.952 468.39 337.824 468.262L337.808 493.98L292.156 493.98L292.794 489.534C293.964 484.53 296.433 479.74 299.841 475.889C305.755 469.208 314.66 465.237 323.495 464.726Z" fill="#83D0C4"/>
<path d="M351.969 464.778C361.99 465.843 370.569 468.844 377.076 476.955C380.079 480.699 381.442 484.489 382.63 489.069L382.896 493.987L337.808 493.98L337.824 468.262C342.932 468.263 347.914 468.358 351.969 464.778Z" fill="#5BB9B3"/>
<path d="M338.167 349.466L340.297 349.144C344.366 348.242 346.983 346.081 350.157 343.575L350.13 352.86C350.853 353.069 351.57 353.259 352.257 353.569C352.881 353.809 353.543 354.023 354.121 354.358C354.292 356.092 354.53 358.018 354.235 359.745C353.642 363.21 352.139 366.679 351.072 370.022C350.914 370.518 350.385 371.512 350.443 371.975C350.512 372.525 351.247 373.65 351.546 374.13C349.641 376.801 347.536 380.09 346.285 383.11C345.96 383.895 345.332 384.628 344.856 385.336L342.792 385.349C339.834 385.267 336.662 385.11 333.726 385.414L330.873 385.379L292.497 385.404L292.483 374.687C294.233 372.559 295.847 370.565 297.923 368.728C304.15 363.214 311.725 359.02 319.221 355.479C320.714 354.774 322.133 353.959 323.714 353.458C324.393 353.336 325.049 353.078 325.701 352.857L325.761 343.761C326.714 344.432 327.787 345.366 328.524 346.26C330.857 348.131 333.174 349.259 336.164 349.5C336.66 349.54 337.398 349.662 337.88 349.577L338.167 349.466Z" fill="#EAFCFC"/>
<path d="M332.723 367.331C331.169 368.225 330.434 369.711 329.126 370.878C329.668 369.005 330.405 367.605 332.136 366.55L332.723 367.331Z" fill="#BAD9DD"/>
<path d="M320.981 359.49C321.229 360.083 321.056 361.038 321.01 361.662L320.246 368.615C320.158 369.227 319.713 370.903 319.847 371.437C319.877 371.557 320.349 372.008 320.445 372.118L322.731 374.705L330.636 384.734L330.564 384.955L329.41 383.749L317.485 372.502L320.981 359.49Z" fill="#BAD9DD"/>
<path d="M338.167 349.466L340.297 349.144C344.365 348.242 346.983 346.081 350.157 343.575L350.13 352.86C350.853 353.069 351.57 353.259 352.257 353.569C349.181 356.386 345.395 358.301 341.634 360.033C340.571 360.522 339.366 361.222 338.214 361.415L338.167 349.466Z" fill="#863823"/>
<path d="M325.761 343.761C326.715 344.431 327.787 345.366 328.524 346.26C330.857 348.131 333.174 349.259 336.164 349.5C336.66 349.54 337.398 349.662 337.88 349.577L338.167 349.466L338.214 361.415L337.97 361.357C332.786 359.66 327.294 357.755 323.714 353.458C324.393 353.336 325.049 353.078 325.701 352.857L325.761 343.761Z" fill="#BA6545"/>
<path d="M328.524 346.26C330.857 348.131 333.174 349.259 336.164 349.5C336.66 349.54 337.398 349.662 337.88 349.577L338.167 349.466L338.214 361.415L337.97 361.357L337.992 352.269C336.367 351.938 334.35 351.668 332.977 350.697C332.099 350.076 328.697 347.286 328.524 346.26Z" fill="#9A4624"/>
<path d="M332.136 366.55L336.231 363.084C336.865 362.57 337.54 361.916 338.279 361.574L342.133 364.575C342.968 365.203 343.932 365.813 344.66 366.559L341.51 369.889L342.793 385.349C339.834 385.267 336.662 385.11 333.726 385.414L334.631 373.175C334.686 372.396 335.047 370.818 334.88 370.121C334.701 369.371 333.24 367.947 332.723 367.331L332.136 366.55Z" fill="#008175"/>
<path d="M412.958 279.911C411.906 279.733 410.423 279.943 409.329 279.956L399.708 280.092L399.704 190.15L485.674 190.165L485.598 231.465L485.612 279.955L471.524 279.994L471.161 279.505L470.924 278.843C471.422 275.04 473.85 272.198 474.686 268.613C475 267.263 475.04 265.772 474.28 264.551C473.806 263.792 472.877 263.204 472.163 262.675C470.461 261.415 468.79 260.299 467.645 258.467L467.533 258.284C467.831 255.009 470.067 253.409 472.062 251.108C472.966 250.065 473.558 248.802 473.392 247.399C473.071 244.694 469.97 243.386 468.056 241.926C467.053 241.162 465.597 239.868 465.499 238.527C465.364 236.679 467.134 235 468.293 233.748C469.486 232.459 470.867 231.036 470.744 229.139C470.552 226.148 466.778 223.792 465.073 221.525C463.359 219.244 462.641 216.318 461.681 213.672C461.049 211.929 460.241 210.31 459.187 208.782C457.304 206.053 455.282 204.391 452.795 202.303C451.732 201.918 450.752 201.357 449.678 201C445.41 199.582 440.747 199.858 436.421 200.855C434.097 201.344 432.487 202.732 430.487 203.876C429.094 204.673 427.687 205.249 426.43 206.284C425.481 207.065 424.632 208.106 423.952 209.127C423.147 210.337 422.462 211.762 422.105 213.175C421.43 215.854 421.402 219.37 419.56 221.541C419.07 222.119 418.469 222.762 417.832 223.173C415.478 224.689 410.834 226.077 411.485 229.759C412.125 233.375 419.272 236.357 416.508 240.424C414.805 242.929 408.937 244.06 409.701 248.014C409.961 249.362 410.778 250.574 411.69 251.569C413.68 253.74 418.326 256.777 416.343 260.312C415.822 261.24 414.855 261.796 413.947 262.272C413.019 262.76 411.85 263.224 411.049 263.899C409.449 265.249 409.441 267.469 409.863 269.36C410.433 271.92 412.344 274.206 413.689 276.428L412.958 279.911Z" fill="#008175"/>
<path d="M436.421 200.855C440.747 199.858 445.41 199.582 449.678 201C450.752 201.357 451.732 201.918 452.795 202.303C455.282 204.391 457.304 206.053 459.187 208.782C460.241 210.31 461.049 211.929 461.681 213.672C462.641 216.318 463.359 219.244 465.073 221.525C466.778 223.792 470.552 226.148 470.744 229.139C470.867 231.036 469.486 232.459 468.293 233.748C467.134 235 465.364 236.678 465.499 238.527C465.597 239.868 467.053 241.161 468.056 241.926C469.97 243.386 473.071 244.694 473.392 247.399C473.558 248.802 472.966 250.065 472.062 251.107C470.067 253.409 467.831 255.008 467.533 258.284L467.645 258.467C468.79 260.299 470.461 261.415 472.163 262.675C472.877 263.204 473.806 263.792 474.28 264.551C475.04 265.771 475 267.263 474.685 268.613C473.85 272.198 471.422 275.04 470.924 278.843L471.161 279.505L471.006 280.018L451.348 279.983C448.384 279.965 445.11 280.221 442.186 279.901C440.17 280.047 438.098 279.958 436.074 279.962L425.206 279.978L417.593 280.004C416.071 280.01 414.466 280.117 412.958 279.911L413.689 276.428C412.344 274.206 410.433 271.92 409.863 269.36C409.441 267.469 409.449 265.249 411.049 263.899C411.85 263.224 413.019 262.759 413.947 262.272C414.855 261.796 415.822 261.24 416.343 260.312C418.326 256.776 413.68 253.74 411.69 251.569C410.778 250.574 409.961 249.362 409.701 248.014C408.937 244.06 414.805 242.929 416.508 240.424C419.272 236.357 412.125 233.375 411.485 229.758C410.834 226.077 415.478 224.689 417.832 223.173C418.469 222.762 419.07 222.119 419.56 221.541C421.402 219.37 421.43 215.854 422.105 213.174C422.462 211.762 423.147 210.336 423.952 209.127C424.632 208.106 425.481 207.064 426.43 206.283C427.687 205.249 429.094 204.673 430.487 203.876C432.487 202.732 434.097 201.344 436.421 200.855Z" fill="#2C3F4E"/>
<path d="M426.617 229.051C426.626 228.212 426.558 227.382 426.978 226.624C427.691 225.335 428.98 224.229 429.94 223.105C432.358 220.276 433.828 216.593 434.861 213.057L434.926 212.829C436.222 216.184 438.057 218.723 440.628 221.219C442.755 222.621 444.736 223.793 447.137 224.654C447.471 224.775 447.349 224.724 447.679 224.958L447.963 225.061C449.089 225.459 450.257 225.63 451.369 226.141L451.581 227.057L451.674 226.339C452.991 226.403 454.289 227.161 455.677 227.252C455.842 227.968 455.431 228.401 456.051 228.862C456.452 228.593 456.633 228.35 456.903 227.962C456.938 227.742 456.904 227.852 457.109 227.561C457.583 226.887 458.359 226.836 459.109 226.708C460.294 227.133 461.101 227.452 461.65 228.647C462.384 230.242 462.168 232.591 461.471 234.169C460.973 235.296 459.805 236.498 458.617 236.888C458.082 237.064 457.613 237.156 457.069 236.966L456.939 236.989L456.417 237.038C455.869 237.923 455.671 239.165 455.244 240.141C453.787 243.472 451.726 245.893 449.058 248.323L449.162 258.322L449.254 259.71C448.732 260.082 448.58 260.759 448.374 261.341L446.842 266.066C445.39 270.5 444.087 275.492 441.994 279.651C441.465 278.984 441.249 278.094 440.96 277.3L439.452 273.092L435.847 263.471C435.317 262.105 434.414 260.609 434.11 259.196L434.729 249.558C430.93 246.891 428.736 242.165 427.525 237.841C426.396 238.022 425.337 237.938 424.333 237.338C422.83 236.44 421.588 234.338 421.266 232.638C421.06 231.553 421.309 229.87 421.953 228.943C422.408 228.287 423.086 227.689 423.922 227.624C425.041 227.537 425.879 228.34 426.617 229.051Z" fill="#F6A071"/>
<path d="M434.695 228.221L435.06 228.208L435.48 228.589C435.916 229.071 436.058 229.793 435.995 230.425C435.931 231.068 435.711 231.466 435.225 231.893L434.751 232.029C434.36 231.814 434.127 231.627 434.034 231.158C433.813 230.042 434.022 229.102 434.695 228.221Z" fill="#01141C"/>
<path d="M445.423 225.567L447.679 224.958L447.964 225.061C449.089 225.459 450.257 225.63 451.369 226.141L451.582 227.057L451.558 227.439L451.369 227.552C449.63 226.271 448.571 225.53 446.363 226.338C445.885 226.513 445.636 226.713 445.125 226.57L445.033 226.018L445.423 225.567Z" fill="#01141C"/>
<path d="M433.722 224.663C435.198 224.542 436.487 224.746 437.929 225.051C437.695 225.534 437.487 226.01 437.141 226.425L435.733 225.665L435.211 225.607C433.905 225.513 433.166 225.668 432.165 226.527C431.948 226.714 432.079 226.674 431.816 226.672C431.647 226.27 431.762 226.012 431.87 225.606C432.452 225.13 433.02 224.919 433.722 224.663Z" fill="#01141C"/>
<path d="M447.608 228.588C447.959 228.456 448.07 228.478 448.432 228.52C448.975 229.089 449.173 229.312 449.203 230.148C449.229 230.879 449.077 231.423 448.615 231.978C448.368 232.107 448.152 232.136 447.881 232.188C447.461 231.937 447.271 231.672 447.129 231.192C446.843 230.228 447.142 229.418 447.608 228.588Z" fill="#01141C"/>
<path d="M436.167 240.338C437.695 239.868 439.914 240.475 441.55 240.474L448.695 240.246L448.343 241.072C447.985 241.91 447.538 242.422 446.92 243.07C445.341 244.176 443.81 244.774 441.841 244.616C439.759 244.449 437.953 243.534 436.682 241.869C436.242 241.293 436.057 241.042 436.167 240.338Z" fill="#EAFCFC"/>
<path d="M449.058 248.323C451.726 245.893 453.787 243.471 455.244 240.141C455.672 239.165 455.869 237.923 456.417 237.038L456.939 236.989L456.988 237.316C457.253 239.274 457.113 241.201 457.497 243.184L457.55 243.477C458.41 248.028 461.8 250.278 464.396 253.709C465.485 255.147 466.327 256.989 467.534 258.284L467.645 258.467C468.79 260.299 470.462 261.415 472.163 262.675C472.878 263.204 473.806 263.792 474.28 264.551C475.04 265.771 475 267.263 474.686 268.613C473.85 272.198 471.422 275.04 470.925 278.843L471.161 279.505L471.006 280.018L451.348 279.983C448.384 279.965 445.11 280.221 442.187 279.901C440.17 280.047 438.098 279.959 436.074 279.962L425.206 279.978L417.594 280.004C416.071 280.01 414.466 280.118 412.958 279.911L413.69 276.428C414.282 273.316 416.14 269.759 418.044 267.271C419.43 265.46 421.181 263.642 423.264 262.65C424.905 261.868 426.775 261.497 428.52 260.999C430.225 260.512 431.973 259.88 433.734 259.647L433.928 259.623L434.11 259.196C434.414 260.608 435.317 262.105 435.847 263.471L439.452 273.092L440.96 277.3C441.249 278.094 441.465 278.984 441.995 279.651C444.087 275.492 445.39 270.5 446.843 266.066L448.374 261.341C448.58 260.759 448.732 260.082 449.254 259.71L449.162 258.322L449.058 248.323Z" fill="#E33115"/>
<path d="M449.058 248.323C451.726 245.893 453.787 243.471 455.244 240.141C455.672 239.165 455.869 237.923 456.417 237.038L456.939 236.989L456.988 237.316C457.253 239.274 457.113 241.201 457.497 243.184L457.55 243.477C458.41 248.028 461.8 250.278 464.396 253.709C465.485 255.147 466.327 256.989 467.534 258.284L467.645 258.467C468.79 260.299 470.461 261.415 472.163 262.675C472.878 263.204 473.806 263.792 474.28 264.551C475.04 265.771 475 267.263 474.686 268.613C473.85 272.198 471.422 275.04 470.924 278.843C470.168 277.198 469.78 275.405 469.09 273.728C467.415 269.662 463.978 264.814 459.931 262.877C458.984 262.424 457.893 262.23 456.877 261.987L451.77 260.554C451.049 260.346 450.126 260.25 449.488 259.862L449.254 259.71L449.162 258.322L449.058 248.323Z" fill="#01141C"/>
<path d="M292.484 374.687L292.206 293.275L382.979 293.306L382.992 334.364L383.012 363.472L382.996 371.559C382.99 373.2 383.128 375.022 382.692 376.609L382.62 376.885L382.572 377.05L381.873 375.005C380.732 372.159 378.822 369.75 376.658 367.61C370.493 361.515 362.009 357.719 354.121 354.358C353.544 354.023 352.881 353.809 352.257 353.569C351.57 353.259 350.853 353.069 350.13 352.86L350.157 343.575C346.983 346.081 344.366 348.242 340.297 349.144L338.167 349.466L337.88 349.577C337.398 349.662 336.66 349.54 336.164 349.5C333.174 349.259 330.857 348.131 328.524 346.26C327.787 345.366 326.715 344.432 325.761 343.761L325.702 352.857C325.049 353.078 324.393 353.336 323.714 353.458C322.133 353.959 320.714 354.774 319.221 355.479C311.726 359.02 304.15 363.214 297.923 368.728C295.847 370.565 294.234 372.559 292.484 374.687Z" fill="#008175"/>
<path d="M321.505 322.243C321.011 319.888 321.083 317.312 321.166 314.916C321.308 310.86 322.2 306.188 325.381 303.347C328.929 300.178 334.347 298.982 338.997 299.219C343.983 299.472 348.446 301.001 351.825 304.73C352.474 306.067 353.206 307.372 353.639 308.801C354.953 313.138 354.552 318.166 354.511 322.663C353.76 322.988 353.595 323.965 352.871 324.137C352.632 324.006 352.403 323.825 352.282 323.572C351.94 322.863 351.947 321.58 351.841 320.759C351.418 317.48 351.094 311.213 348.59 308.789C346.096 306.373 341.238 306.73 338.021 306.706C334.361 306.672 329.561 306.56 326.759 309.343C324.482 311.604 324.346 315.75 324.002 318.756L323.199 324.695C322.595 323.938 321.906 323.129 321.505 322.243Z" fill="#2C3F4E"/>
<path d="M338.021 306.706C341.238 306.73 346.096 306.373 348.59 308.789C351.094 311.214 351.418 317.48 351.841 320.759C351.947 321.58 351.94 322.863 352.282 323.572C352.403 323.825 352.632 324.006 352.871 324.137C353.595 323.965 353.76 322.988 354.511 322.664C355.769 323.132 356.946 323.71 357.488 325.025C358.06 326.411 357.682 328.644 357.031 329.929C356.402 331.173 355.114 332.033 353.969 332.755C353.806 336.623 352.607 340.495 350.157 343.575C346.983 346.081 344.366 348.242 340.297 349.144L338.167 349.466L338.18 338.669C340.925 338.277 342.264 337.053 343.891 334.944L338.005 335.131L337.952 334.089L338.021 306.706Z" fill="#9A4624"/>
<path d="M354.171 324.424C354.322 324.405 354.431 324.38 354.588 324.422C355.302 324.614 355.765 325.1 356.127 325.709C356.174 326.996 356.198 327.674 355.517 328.827C355.203 329.143 354.869 329.412 354.524 329.694L354.351 329.564L354.171 324.424Z" fill="#863823"/>
<path d="M345.049 324.057L345.754 323.955C346.294 323.912 346.725 324.112 347.111 324.475C347.691 325.021 347.678 325.523 347.718 326.26C347.427 326.93 347.14 327.215 346.537 327.622C346.274 327.697 345.985 327.787 345.711 327.794C345.3 327.804 344.8 327.551 344.516 327.275C343.97 326.746 343.868 326.162 343.894 325.434C344.175 324.738 344.413 324.452 345.049 324.057Z" fill="#01141C"/>
<path d="M341.758 319.467C342.678 319.276 343.678 319.367 344.609 319.451C346.251 319.598 349.848 320.153 350.885 321.395C350.831 322.038 350.833 322.118 350.438 322.621L349.842 322.564C348.32 322.111 346.657 321.85 345.068 321.922C344.134 321.964 343.14 322.165 342.211 322.108C341.826 322.085 341.445 321.98 341.148 321.729C340.701 321.353 340.616 320.937 340.583 320.385C340.884 319.845 341.224 319.714 341.758 319.467Z" fill="#2C3F4E"/>
<path d="M321.505 322.243C321.906 323.129 322.595 323.938 323.199 324.695L324.002 318.756C324.346 315.75 324.482 311.604 326.759 309.343C329.561 306.56 334.361 306.673 338.021 306.706L337.952 334.089L338.005 335.131L343.891 334.944C342.264 337.053 340.925 338.277 338.18 338.669L338.167 349.466L337.88 349.577C337.398 349.662 336.66 349.54 336.164 349.5C333.174 349.259 330.857 348.131 328.524 346.26C327.787 345.366 326.714 344.432 325.761 343.761C323.477 341.708 322.099 338.02 321.631 335.05C321.548 334.523 321.634 333.343 321.45 332.922C321.393 332.792 320.013 332.006 319.789 331.828C318.99 331.193 318.393 330.221 318.073 329.258C317.56 327.713 317.604 326.055 318.375 324.596C319.067 323.286 320.136 322.677 321.505 322.243Z" fill="#BA6545"/>
<path d="M332.929 334.985C332.846 334.546 332.858 334.649 333.046 334.301C334.652 334.024 336.326 334.098 337.952 334.089L338.005 335.131L332.929 334.985Z" fill="#E33115"/>
<path d="M320.73 324.424L321.072 324.524L321.066 327.882C321.068 328.409 321.154 329.083 320.936 329.564L320.563 329.381L320.435 329.242C319.764 328.385 319.724 326.753 319.852 325.709C319.922 325.137 320.32 324.783 320.73 324.424Z" fill="#E33115"/>
<path d="M332.929 334.985L338.005 335.131C337.998 336.252 338.087 337.471 337.939 338.577C336.542 338.214 335.262 337.596 334.148 336.673C333.609 336.226 333.01 335.718 332.929 334.985Z" fill="#BA6545"/>
<path d="M329.762 323.873C330.084 323.801 330.378 323.733 330.711 323.803C331.249 323.915 331.723 324.306 331.99 324.777C332.282 325.291 332.392 325.879 332.201 326.449C331.973 327.125 331.545 327.372 330.932 327.663C330.593 327.783 330.706 327.774 330.386 327.781C329.696 327.796 329.403 327.743 328.912 327.207C328.53 326.789 328.404 325.962 328.501 325.428C328.653 324.593 329.089 324.289 329.762 323.873Z" fill="#2C3F4E"/>
<path d="M332.75 319.451C333.432 319.358 334.274 319.403 334.88 319.722C335.091 319.976 335.323 320.203 335.39 320.537C335.486 321.01 335.402 321.078 335.154 321.456C333.293 322.538 331.684 321.921 329.674 322.229L327.75 322.52L326.066 322.857C325.657 322.596 325.527 322.1 325.344 321.67L325.516 321.387C327.931 320.109 330.034 319.655 332.75 319.451Z" fill="#2C3F4E"/>
<path d="M292.794 489.534L292.72 489.261C292.438 488.492 292.512 487.648 292.502 486.828L292.468 482.406L292.418 466.347L292.36 399.067L382.896 399.079L382.981 447.243L382.975 475.098L382.933 484.776C382.899 486.199 383.022 487.693 382.63 489.069C381.442 484.489 380.079 480.699 377.076 476.955C370.569 468.844 361.99 465.843 351.969 464.778C347.914 468.358 342.932 468.263 337.824 468.262C333.952 468.39 330.143 468.329 326.565 466.654C325.47 466.141 324.484 465.413 323.495 464.726C314.66 465.237 305.755 469.208 299.841 475.889C296.432 479.74 293.964 484.53 292.794 489.534Z" fill="#008175"/>
<path d="M354.101 430.695C355.84 431.369 357.196 432.143 358.008 433.937C358.839 435.776 358.988 437.513 358.206 439.403C357.572 440.937 356.211 442.473 354.631 443.069L354.005 443.273L354.101 430.695Z" fill="#F48D1C"/>
<path d="M317.601 443.016C316.812 442.222 316.222 441.356 315.841 440.297L315.737 439.996C315.174 438.398 315.265 436.687 315.974 435.153C316.862 433.231 318.698 430.858 320.711 430.096L320.835 435.673L320.927 445.44C319.704 444.733 318.664 443.944 317.601 443.016Z" fill="#F6A071"/>
<path d="M320.711 430.096C320.547 427.096 320.367 423.728 320.816 420.753C321.311 417.466 323.641 414.792 326.285 412.942C330.74 409.825 336.789 408.447 342.136 409.457C347.053 410.385 350.312 412.734 353.107 416.817C354.175 419.85 354.182 422.263 354.176 425.431L354.102 430.695L354.005 443.273C353.981 446.076 354.215 449.069 353.25 451.749C352.882 452.77 352.304 453.702 351.916 454.717C352.277 455.918 352.131 457.504 352.132 458.76C352.133 460.69 352.265 462.876 351.969 464.778C347.914 468.358 342.932 468.263 337.824 468.262C333.952 468.39 330.143 468.329 326.565 466.654C325.471 466.141 324.484 465.413 323.495 464.726L323.358 455.2C320.931 452.029 320.923 449.21 320.927 445.44L320.835 435.673L320.711 430.096Z" fill="#2C3F4E"/>
<path d="M334.082 446.458L334.271 446.422L334.585 446.369C335.847 446.145 337.087 446.197 338.364 446.216C340.598 446.405 342.396 446.86 344.332 448.024C342.879 449.708 340.628 451.496 338.367 451.748C336.676 451.936 335.292 451.666 333.912 450.575C333.164 449.984 332.652 449.342 332.574 448.369C332.537 447.907 332.609 447.502 332.916 447.136C333.25 446.735 333.597 446.611 334.082 446.458Z" fill="url(#paint0_linear_259_1404)"/>
<path d="M333.594 448.886C335.287 448.521 339.806 448.643 341.652 448.651L342.039 449.031L341.197 449.793L339.911 450.358L337.061 450.358C335.217 450.805 334.557 449.698 333.594 448.886Z" fill="#EAFCFC"/>
<path d="M333.594 446.685L333.949 446.649L334.695 446.441L336.164 446.238C338.544 446.012 340.57 446.649 341.672 446.883C341.606 447.5 341.707 447.709 340.992 448.223C339.217 448.577 337.451 448.579 335.581 448.625C334.763 448.022 334.186 447.601 333.759 446.883L333.594 446.685Z" fill="#EAFCFC"/>
<path d="M323.495 464.726L323.358 455.199C324.43 456.289 325.499 457.456 326.697 458.406C329.762 460.84 333.537 462.008 337.431 462.033L337.964 462.032L337.824 468.262C333.952 468.39 330.143 468.329 326.565 466.653C325.47 466.141 324.484 465.413 323.495 464.726Z" fill="#F6A071"/>
<path d="M351.916 454.717C352.277 455.918 352.131 457.504 352.132 458.76C352.133 460.69 352.265 462.876 351.969 464.778C347.914 468.358 342.932 468.263 337.824 468.262L337.964 462.032C339.074 462.037 340.232 461.851 341.32 461.638C345.683 460.786 349.415 458.412 351.916 454.717Z" fill="#F48D1C"/>
<path d="M337.693 443.64C335.851 443.614 333.668 443.439 331.89 443.951C330.438 444.37 329.181 445.24 327.902 446.016C327.505 445.925 327.098 445.826 326.732 445.642C325.439 444.991 324.25 443.477 323.866 442.109L323.798 441.853C323.682 441.447 323.578 441.061 323.542 440.639C323.213 436.736 323.473 432.585 323.477 428.66L323.487 424.394C323.49 423.624 323.409 422.744 323.563 421.996C323.886 420.415 324.97 418.909 325.975 417.685C329.272 420.821 333.025 421.939 337.477 422.324C339.981 422.175 342.357 421.868 344.801 421.27C346.215 420.924 347.707 420.243 349.156 420.127C349.712 420.083 350.086 420.157 350.576 420.409C350.917 420.801 351.172 421.092 351.246 421.63C351.669 424.748 351.378 428.266 351.387 431.419C351.4 435.944 351.654 440.618 351.34 445.127C351.031 445.565 350.795 445.848 350.209 445.868C349.634 445.888 348.877 445.541 348.35 445.339C346.949 444.801 345.602 444.125 344.129 443.792C342.242 443.365 339.654 443.638 337.693 443.64Z" fill="#F6A071"/>
<path d="M344.086 431.275C344.429 431.206 344.81 431.227 345.16 431.216C345.453 431.346 345.731 431.441 345.935 431.699C346.232 432.077 346.327 432.541 346.236 433.02C346.103 433.723 345.691 433.99 345.169 434.397C344.988 434.465 344.902 434.508 344.696 434.531C344.147 434.591 343.585 434.294 343.232 433.882C342.854 433.439 342.922 432.915 342.956 432.377C343.303 431.784 343.478 431.595 344.086 431.275Z" fill="#01141C"/>
<path d="M330.956 430.908L331.461 430.831C331.948 430.793 332.371 430.927 332.731 431.259C333.333 431.811 333.383 432.345 333.4 433.111C333.043 433.851 332.682 434.092 331.989 434.512C331.811 434.549 331.491 434.641 331.299 434.622C330.715 434.565 330.32 434.152 329.988 433.693C329.635 433.204 329.708 432.572 329.772 432.01C330.141 431.424 330.343 431.231 330.956 430.908Z" fill="#01141C"/>
<path d="M412.325 385.284L399.821 385.312L399.697 293.293L485.397 293.361C485.864 294.006 485.621 309.908 485.618 312.124L485.433 385.428L476.597 385.443C474.899 385.442 473.066 385.553 471.387 385.344L472.299 385.283L472.533 385.01C472.553 381.716 473.006 377.7 472.135 374.527C471.248 371.296 469.027 369.018 466.203 367.373L466.041 367.351C464.942 367.178 462.004 366.648 461.39 365.78L446.689 385.337L445.464 385.324L438.475 385.284C438.15 384.621 437.544 383.997 437.074 383.428L434.267 380.024L423.382 366.189L420.801 366.526L420.583 366.57C419.604 366.791 418.67 367.515 417.785 367.984C415.47 369.23 413.301 371.325 412.508 373.891C412.082 375.269 412.268 376.998 412.286 378.43L412.325 385.284Z" fill="#008175"/>
<path d="M448.234 306.57C450.139 307.108 452.05 307.585 453.844 308.445C457.449 310.176 460.058 313.341 461.98 316.772L462.428 317.61C464.829 323.231 465.326 328.32 464.314 334.319C463.925 336.625 463.215 339.047 463.874 341.371C464.502 343.583 466.057 345.305 467.637 346.897C469.778 349.054 472.54 351.264 473.537 354.225C474.271 356.404 473.749 359.125 472.901 361.183C471.674 364.159 469.206 366.126 466.305 367.334L466.203 367.373L466.041 367.351C464.942 367.178 462.004 366.648 461.39 365.78C460.354 365.446 459.347 365.549 458.272 365.566C456.548 365.593 454.889 365.64 453.179 365.384C451.878 365.148 450.579 364.41 449.59 363.55L449.569 350.813C452.66 348.171 454.835 344.689 455.416 340.622C455.234 339.196 455.479 337.89 455.788 336.5C455.984 335.117 456.203 333.354 455.93 331.988C455.657 330.618 455.003 329.49 454.385 328.259L452.071 323.452C451.064 321.188 450.301 318.828 449.445 316.505L449.315 316.495L448.426 317.724C448.193 316.355 448.281 314.899 448.27 313.511L448.234 306.57Z" fill="#E33115"/>
<path d="M455.788 336.5L456.046 336.546C457.129 336.701 458.007 336.256 458.797 337.296C459.084 337.674 459.253 338.605 459.128 339.057C458.993 339.547 458.508 340.071 458.025 340.237C457.214 340.517 456.342 340.044 455.528 340.394L455.416 340.622C455.235 339.196 455.479 337.89 455.788 336.5Z" fill="#F48D1C"/>
<path d="M421.873 329.808C421.454 329.445 421.087 327.864 420.984 327.346C420.267 323.743 420.666 320.498 422.253 317.185C424.738 311.997 429.098 307.465 434.605 305.548C439.568 303.821 443.56 304.341 448.234 306.57L448.27 313.511C448.281 314.899 448.193 316.354 448.426 317.724C447.314 319.907 445.143 321.939 443.199 323.388L442.411 324.003C438.171 326.738 433.096 328.055 428.139 328.81L427.956 335.852L427.688 340.447C428.095 344.171 430.361 347.71 433.255 350.038L434.627 351.064L434.731 363.885C433.784 364.581 432.902 364.833 431.905 365.367C429.05 366.242 426.333 366.218 423.382 366.189L420.801 366.526L420.583 366.57C419.604 366.791 418.67 367.515 417.785 367.984L416.726 367.097C415.518 366.202 414.34 365.278 413.332 364.155C411.496 362.108 410.52 359.307 410.741 356.56C411.1 352.095 414.046 349.882 417.137 347.162C420.18 344.486 421.354 342.43 421.621 338.31C420.964 335.173 420.952 332.874 421.873 329.808Z" fill="#F48D1C"/>
<path d="M421.873 329.808L422.399 330.559C423.542 332.264 423.285 334.121 423.593 336.078C423.475 336.603 423.337 337.019 423.11 337.508C422.81 336.538 422.752 335.475 422.27 334.571L422.03 334.911L422.365 337.831L421.621 338.311C420.965 335.173 420.952 332.874 421.873 329.808Z" fill="#F6A071"/>
<path d="M423.978 339.715C425.183 340.289 426.07 340.501 427.41 340.129L427.688 340.447C428.095 344.171 430.362 347.71 433.255 350.038L434.627 351.064L434.731 363.885C433.785 364.581 432.902 364.833 431.906 365.367C429.05 366.242 426.333 366.218 423.382 366.189L420.801 366.526L420.583 366.57C419.604 366.791 418.67 367.515 417.785 367.984L416.726 367.097C416.887 366.735 416.782 366.475 416.783 366.1C416.786 365.427 416.938 364.639 417.244 364.038C418.858 360.866 422.609 359.095 424.86 356.433L425.089 356.16L425.514 355.656C426.778 354.065 427.37 352.226 427.118 350.2L427.071 349.852C426.881 348.36 426.519 346.953 425.965 345.554C425.312 343.904 423.993 341.762 423.973 339.984L423.978 339.715Z" fill="#E33115"/>
<path d="M448.427 317.724L449.316 316.495L449.445 316.505C450.301 318.828 451.064 321.188 452.072 323.452L454.385 328.259C455.003 329.49 455.657 330.618 455.93 331.987C456.203 333.354 455.984 335.117 455.788 336.499C455.479 337.89 455.235 339.196 455.416 340.622C454.835 344.689 452.66 348.171 449.569 350.813L449.59 363.55C450.579 364.41 451.878 365.148 453.179 365.384C454.889 365.64 456.548 365.593 458.272 365.566C459.347 365.549 460.354 365.446 461.39 365.78L446.689 385.337L445.464 385.324L438.475 385.284C438.15 384.621 437.544 383.997 437.074 383.428L434.267 380.024L423.382 366.189C426.333 366.218 429.05 366.242 431.906 365.367C432.902 364.833 433.785 364.581 434.731 363.885L434.627 351.064L433.255 350.038C430.362 347.71 428.095 344.171 427.688 340.447L427.957 335.852L428.139 328.809C433.096 328.055 438.171 326.738 442.412 324.003L443.199 323.388C445.144 321.939 447.314 319.907 448.427 317.724Z" fill="#F6A071"/>
<path d="M447.983 330.115C448.097 330.07 448.23 330.01 448.354 330.004C448.813 329.981 449.154 330.209 449.415 330.574C449.669 330.93 449.78 331.452 449.717 331.885C449.643 332.393 449.379 332.702 448.982 333.004C448.471 333.136 448.389 333.134 447.881 332.986C447.463 332.538 447.155 332.256 447.155 331.584C447.155 330.862 447.523 330.583 447.983 330.115Z" fill="#01141C"/>
<path d="M434.679 329.564L435.034 329.453C435.515 329.379 435.859 329.518 436.187 329.869C436.483 330.186 436.578 330.663 436.59 331.082C436.612 331.802 436.376 332.165 435.912 332.686L435.658 332.767C435.103 332.875 434.954 332.781 434.478 332.528C434.278 332.235 434.09 331.986 434.035 331.627C433.905 330.77 434.144 330.216 434.679 329.564Z" fill="#01141C"/>
<path d="M442.922 341.382L447.828 341.562C446.678 343.587 445.511 345.094 443.278 345.99C441.907 346.014 440.533 345.966 439.252 345.411C437.634 344.709 436.866 342.988 436.236 341.453L442.922 341.382Z" fill="#EAFCFC"/>
<path d="M453.179 365.384C454.889 365.64 456.548 365.593 458.272 365.566C459.347 365.549 460.354 365.446 461.39 365.78L446.689 385.337L445.464 385.324L438.475 385.284C438.15 384.621 437.544 383.997 437.074 383.428L434.267 380.024L423.382 366.189C426.333 366.218 429.05 366.242 431.906 365.367L442.789 381.095C443.066 380.698 443.251 380.256 443.459 379.819L453.179 365.384Z" fill="#EAFCFC"/>
<path d="M216.523 279.949C215.886 280.193 214.937 280.098 214.25 280.099L209.649 280.104L191.05 280.02C190.897 279.107 190.969 278.12 190.963 277.191L190.939 271.918L190.944 254.064L190.947 190.118L276.149 190.133L276.119 235.311L276.159 263.849L276.278 274.204C276.288 275.967 276.431 277.883 276.189 279.627L275.745 280.045L245.203 279.95L243.104 279.98L239.521 279.934L237.689 279.93L229.888 279.943L228.442 279.948L225.795 279.942L216.62 279.93L216.523 279.949Z" fill="#008175"/>
<path d="M251.485 222.958L252.813 223.008C253.099 223.542 252.928 224.027 252.856 224.622C252.648 226.353 252.32 228.039 251.813 229.709C251.144 231.91 250.256 233.278 248.535 234.821C247.962 233.547 248.972 225.077 249.514 223.372C250.084 223.055 250.841 223.038 251.485 222.958Z" fill="#F48D1C"/>
<path d="M244.573 206.572C246.064 206.947 247.821 207.731 248.965 208.778C249.481 209.25 249.855 209.856 250.322 210.373C250.744 211.151 251.214 211.944 251.459 212.799C252.396 216.08 251.648 219.62 251.485 222.958C250.841 223.038 250.084 223.055 249.514 223.372L249.01 223.307C246.565 221.055 246.243 218.216 246.217 215.092C246.205 213.639 246.273 212.037 245.773 210.653L245.681 210.412C245.211 209.143 244.689 208.443 243.609 207.613C244.074 207.284 244.279 207.061 244.573 206.572Z" fill="#CBBEB1"/>
<path d="M216.829 222.573C215.961 220.175 215.732 216.15 216.143 213.687C216.751 210.055 219.707 207.665 223.105 206.713C223.705 206.545 224.996 206.437 225.463 206.077C225.796 205.819 226.111 205.208 226.359 204.861C226.886 204.126 227.409 203.527 228.176 203.022C230.739 201.331 234.298 200.992 237.254 201.612C239.633 202.111 241.508 203.188 242.823 205.282L243.268 205.989C243.561 206.458 244.051 206.437 244.573 206.572C244.279 207.061 244.074 207.284 243.609 207.613C242.283 206.958 240.614 207.169 239.178 207.173L234.033 207.134L225.354 207.193C224.284 208.423 223.43 209.482 222.893 211.055C222.265 212.896 222.405 214.782 222.208 216.681C222.037 218.336 221.612 220.093 221.108 221.679C220.867 222.434 220.439 223.834 219.49 223.922L218.074 223.859C218.044 223.691 218.008 223.333 217.917 223.172C217.643 222.686 217.317 222.697 216.829 222.573Z" fill="#EAFCFC"/>
<path d="M216.853 256.204C218.576 255.388 220.742 255.174 222.602 254.836C222.732 255.376 222.978 256.041 223.01 256.588C224.923 257.034 226.751 257.726 228.646 258.23C229.822 258.543 231.961 258.689 232.918 259.366L232.954 259.516C231.617 259.967 230.246 261.554 229.288 262.598C229.927 263.568 230.371 264.529 230.873 265.568C231.05 265.935 231.397 266.38 231.498 266.751C231.57 267.013 231.441 267.678 231.421 267.966C231.326 269.351 231.119 270.71 230.916 272.083L229.889 279.943L228.442 279.948L225.796 279.942L216.62 279.93L216.523 279.949L192.464 279.925L193.62 276.792C197.795 266.862 205.196 260.815 215.029 256.82L216.853 256.204Z" fill="#EAFCFC"/>
<path d="M246.688 254.761L251.743 256.534L252.963 257.039C255.506 258.096 258.068 259.118 260.458 260.496C266.361 263.9 271.605 269.209 274.224 275.567C274.73 276.796 275.729 278.729 275.745 280.045L245.203 279.95L243.104 279.98L239.521 279.934L237.69 279.93L229.889 279.943L230.916 272.083C231.119 270.71 231.327 269.351 231.421 267.966C231.441 267.678 231.57 267.013 231.498 266.751C231.397 266.38 231.05 265.935 230.873 265.568C230.371 264.529 229.927 263.568 229.288 262.598C230.246 261.554 231.617 259.967 232.954 259.516L232.918 259.366C233.379 259.396 233.766 259.338 234.219 259.267C238.672 258.533 242.396 257.396 246.461 255.405L246.688 254.761Z" fill="#EAFCFC"/>
<path d="M251.743 256.534L252.963 257.039L250.797 263.834L256.407 265.277L253.639 269.381L254.047 269.843C253.994 270.221 254.083 270.069 253.836 270.285C252.603 271.36 251.531 272.634 250.433 273.844L245.203 279.95L243.104 279.98L253.654 266.582L249.007 264.429L251.743 256.534Z" fill="#BAD9DD"/>
<path d="M246.688 254.761L251.743 256.534L249.007 264.429L253.654 266.582L243.104 279.98L239.521 279.934L246.46 255.405L246.688 254.761Z" fill="#EAFCFC"/>
<path d="M234.219 259.267C238.672 258.533 242.396 257.396 246.461 255.405L239.521 279.934L237.69 279.93L229.889 279.943L230.916 272.083C231.119 270.71 231.327 269.351 231.421 267.966C231.441 267.678 231.57 267.013 231.498 266.751C231.397 266.38 231.05 265.935 230.873 265.568C230.371 264.529 229.927 263.568 229.288 262.598C230.246 261.554 231.617 259.967 232.954 259.516L232.918 259.366C233.379 259.396 233.766 259.338 234.219 259.267Z" fill="#BAD9DD"/>
<path d="M232.954 259.516L233.296 259.596C233.716 259.69 234.891 259.655 235.198 259.818C235.37 259.909 235.751 260.422 235.9 260.589C236.644 261.423 237.394 262.331 238.008 263.267L238.146 263.48L236.472 265.896C236.371 266.044 235.98 266.528 235.95 266.672C235.903 266.9 236.054 267.567 236.086 267.825L236.502 270.826L237.69 279.93L229.889 279.943L230.916 272.083C231.119 270.71 231.327 269.351 231.421 267.966C231.441 267.678 231.57 267.013 231.498 266.751C231.397 266.38 231.05 265.935 230.873 265.568C230.371 264.529 229.927 263.568 229.288 262.598C230.246 261.554 231.617 259.967 232.954 259.516Z" fill="#008175"/>
<path d="M218.074 223.859L219.49 223.922C220.439 223.834 220.867 222.434 221.108 221.679C221.613 220.093 222.037 218.336 222.208 216.681C222.405 214.782 222.265 212.896 222.893 211.055C223.43 209.482 224.284 208.423 225.354 207.193L234.033 207.134L239.178 207.173C240.614 207.17 242.283 206.958 243.609 207.613C244.689 208.443 245.211 209.143 245.681 210.412L245.773 210.653C246.273 212.037 246.205 213.639 246.217 215.092C246.243 218.216 246.565 221.055 249.01 223.307L249.514 223.372C248.972 225.077 247.962 233.547 248.535 234.821C248.716 237.629 247.662 240.913 246.605 243.498L246.688 254.761L246.46 255.405C242.396 257.396 238.672 258.533 234.219 259.267C233.766 259.338 233.379 259.396 232.917 259.366C231.961 258.689 229.822 258.543 228.646 258.23C226.751 257.726 224.923 257.034 223.01 256.588C222.978 256.041 222.732 255.376 222.602 254.836C222.272 251.633 222.551 248.158 222.559 244.925C220.596 241.596 219.929 238.545 219.377 234.75C219.061 234.608 218.775 234.41 218.516 234.18C215.806 231.78 214.901 226.246 214.695 222.813C215.367 222.781 216.01 222.739 216.671 222.606L216.829 222.573C217.317 222.698 217.643 222.686 217.917 223.172C218.008 223.333 218.044 223.691 218.074 223.859Z" fill="#F6A071"/>
<path d="M239.877 223.906L240.411 223.953C241.138 224.46 241.136 224.529 241.43 225.383C241.28 226.294 241.271 226.464 240.653 227.195L240.169 227.211C239.747 227.181 239.517 227.109 239.263 226.766C238.885 226.258 238.781 225.831 238.916 225.205C239.093 224.383 239.171 224.377 239.877 223.906Z" fill="#091314"/>
<path d="M227.725 223.906L228.628 223.936C229.096 224.453 229.248 224.574 229.304 225.266C229.374 226.153 229.014 226.558 228.378 227.186C227.858 227.249 227.848 227.192 227.392 227.013C226.944 226.47 226.667 226.018 226.76 225.312C226.859 224.555 227.078 224.352 227.725 223.906Z" fill="#01141C"/>
<path d="M233.667 235.48L241.139 234.992C239.972 237.348 238.633 239.619 235.981 240.511C235.213 240.769 234.495 240.818 233.691 240.82L231.786 240.375C229.384 239.581 227.944 237.468 226.876 235.297L233.667 235.48Z" fill="#EAFCFC"/>
<path d="M233.713 250.158C235.428 250.199 237.274 250.2 238.933 249.725L239.227 249.636C241.528 248.962 243.529 247.562 245.057 245.72C245.631 245.028 246.053 244.215 246.605 243.498L246.688 254.761L246.46 255.405C242.396 257.396 238.672 258.533 234.219 259.267L233.9 259.131C233.452 258.563 233.685 251.327 233.713 250.158Z" fill="#F48D1C"/>
<path d="M197.35 385.356L190.85 385.434L190.924 293.277L276.289 293.299L276.284 333.526L276.307 385.338L270.58 385.419L247.111 385.422L234.304 385.349L221.255 385.36L197.35 385.356Z" fill="#008175"/>
<path d="M247.013 359.688C250.801 360.904 254.207 362.429 257.66 364.41C262.023 366.912 265.58 369.58 267.939 374.164C269.697 377.58 270.818 381.543 270.58 385.419L247.11 385.422C246.634 384.614 247.05 362.209 247.013 359.688Z" fill="#EAFCFC"/>
<path d="M221.546 359.49L222.899 359.209C223.807 365.503 226.069 372.133 231.422 376.053C232.444 376.801 233.436 377.272 234.665 377.576C234.805 380.051 234.932 382.724 234.657 385.186L234.304 385.349L221.255 385.36L197.35 385.356C197.462 379.63 198.752 374.588 202.56 370.139C206.186 365.9 211.261 363.275 216.332 361.174C217.792 360.569 219.492 359.788 221.072 359.675L221.546 359.49Z" fill="#EAFCFC"/>
<path d="M221.546 359.49L222.899 359.209C223.807 365.503 226.069 372.133 231.422 376.053C232.444 376.801 233.436 377.272 234.665 377.576C234.805 380.051 234.932 382.724 234.657 385.186L234.304 385.349L221.255 385.36L221.073 359.675L221.546 359.49Z" fill="#5BB9B3"/>
<path d="M234.959 301.846C241.248 302.024 247.103 304.366 251.475 308.97L253.015 310.807C256.109 315.481 257.86 320.073 258.252 325.704L258.628 335.441C258.941 339.208 259.744 342.474 260.674 346.108L249.217 346.15C247.357 346.165 245.126 345.946 243.321 346.378C244.175 345.454 245.184 344.662 246.057 343.745C248.59 341.085 249.743 338.57 250.772 335.081C251.825 335.034 253.012 334.877 253.901 334.256C254.923 333.541 255.757 332.488 255.909 331.217C256.059 329.954 255.803 328.261 254.921 327.299C254.287 326.608 253.321 326.542 252.445 326.516L252.117 326.668L250.885 326.806C250.357 326.539 250.474 326.314 250.251 325.801C250.103 325.459 249.877 325.343 249.548 325.189C246.486 323.763 242.752 323.326 239.502 322.413L234.836 320.872L234.86 320.644L231.239 318.526C230.605 318.113 229.403 317.042 228.713 316.927C227.336 319.27 225.27 321.579 223.295 323.441C222.229 324.446 221.016 325.312 220.102 326.461C219.889 326.729 219.638 326.892 219.356 327.081C218.074 326.943 216.726 326.775 215.635 327.629C214.864 328.232 214.353 329.084 214.253 330.067C214.111 331.45 214.483 332.726 215.401 333.787C216.235 334.752 217.392 335.205 218.617 335.426C218.764 335.453 219.684 335.556 219.743 335.608C219.808 335.665 220.058 336.779 220.11 336.943C220.387 337.814 220.8 338.68 221.232 339.484C222.587 342.002 224.489 344.029 226.614 345.917L226.516 346.128L208.536 346.203C208.465 346.036 208.444 346.009 208.409 345.803C208.302 345.159 208.392 344.341 208.393 343.682L208.479 339.083C208.881 329.768 210.063 320.161 215.411 312.233C219.096 306.771 224.334 303.543 230.758 302.23C232.148 301.945 233.546 301.91 234.959 301.846Z" fill="#E33115"/>
<path d="M219.356 327.081C219.638 326.892 219.889 326.729 220.102 326.461C221.016 325.312 222.229 324.446 223.295 323.441C225.27 321.579 227.336 319.27 228.714 316.927C229.404 317.042 230.605 318.113 231.239 318.526L234.86 320.644L234.836 320.872L239.502 322.413C242.752 323.326 246.486 323.763 249.548 325.189C249.878 325.343 250.103 325.459 250.251 325.801C250.474 326.314 250.357 326.539 250.885 326.806L252.118 326.668L252.445 326.516C253.321 326.542 254.288 326.608 254.921 327.299C255.803 328.261 256.059 329.954 255.909 331.217C255.757 332.488 254.923 333.541 253.901 334.256C253.013 334.877 251.826 335.034 250.772 335.081C249.743 338.57 248.59 341.085 246.057 343.745C245.184 344.662 244.176 345.454 243.321 346.378L242.303 347.051L242.255 358.619C243.094 358.734 244.169 358.752 244.899 359.192C243.914 365.656 241.664 372.556 236.197 376.657C235.725 377.011 235.207 377.34 234.665 377.576C233.436 377.272 232.444 376.801 231.422 376.053C226.069 372.133 223.807 365.503 222.899 359.209C223.979 358.781 225.404 358.693 226.562 358.58L226.516 346.128L226.614 345.917C224.489 344.029 222.587 342.002 221.233 339.484C220.8 338.68 220.387 337.814 220.11 336.943C220.058 336.779 219.808 335.665 219.744 335.608C219.684 335.556 218.764 335.453 218.618 335.426C217.392 335.205 216.235 334.752 215.401 333.787C214.483 332.726 214.111 331.45 214.253 330.067C214.353 329.084 214.864 328.232 215.635 327.629C216.727 326.775 218.074 326.943 219.356 327.081Z" fill="#F6A071"/>
<path d="M237.2 326.298C237.5 325.456 238.015 325.168 238.782 324.752L239.01 324.632C239.198 324.53 239.384 324.418 239.594 324.364C240.611 324.105 241.593 324.346 242.454 324.856C240.431 325.002 239.041 325.462 237.2 326.298Z" fill="#F48D1C"/>
<path d="M227.317 328.096C227.828 327.895 228.15 327.953 228.67 328.042C229.009 328.365 229.231 328.593 229.313 329.083C229.442 329.848 229.221 330.251 228.818 330.85L228.522 331.055C228.045 331.265 227.797 331.084 227.385 330.872C227.081 330.482 226.935 330.201 226.877 329.703C226.794 328.985 226.861 328.634 227.317 328.096Z" fill="#01141C"/>
<path d="M240.271 327.912C240.871 327.962 240.989 327.982 241.486 328.317C241.751 328.801 241.937 329.15 241.889 329.729C241.838 330.338 241.414 330.719 240.971 331.077C240.18 331.139 240.213 331.116 239.625 330.666C239.353 330.057 239.271 329.679 239.286 329.014C239.604 328.379 239.625 328.281 240.271 327.912Z" fill="#091314"/>
<path d="M242.454 324.856C244.117 325.136 245.335 325.529 246.65 326.653C246.852 326.826 247.203 327.246 247.41 327.33C247.854 327.51 249.561 327.06 250.242 327.119L250.308 327.292L249.863 327.613C249.136 327.694 248.396 327.932 247.684 328.106L247.631 332.135L247.305 332.355L246.951 332.135L246.934 328.217C246.34 327.44 245.556 326.666 244.663 326.243C242.403 325.172 239.373 326.29 237.217 327.116L236.633 326.693L237.2 326.298C239.041 325.462 240.431 325.002 242.454 324.856Z" fill="#091314"/>
<path d="M235.482 340.588C234.169 340.526 232.909 340.488 231.791 339.694C231.011 339.141 229.718 337.842 229.551 336.908L229.771 336.822L230.23 337.576C231.08 337.783 232.006 337.716 232.877 337.723C234.199 337.733 235.543 337.803 236.851 337.582L237.06 337.543L239.878 337.326C238.52 339.368 237.842 339.917 235.482 340.588Z" fill="#EAFCFC"/>
<path d="M224.195 325.685C225.926 325.358 228.595 324.587 230.23 325.579C230.415 325.692 230.439 325.743 230.555 325.893L230.288 326.293C231.798 327.326 233.101 327.325 234.873 327.46L236.265 326.694L236.633 326.693L237.217 327.116L236.293 327.486L234.702 328.105C234.714 329.008 234.496 332.578 235.025 333.111L235.721 333.63L234.981 333.878L233.719 333.821C233.407 333.269 233.995 333.229 234.059 332.579C234.199 331.161 233.964 329.529 233.896 328.095C232.563 328.024 231.1 328.039 230.2 326.977C229.97 326.706 229.663 326.277 229.345 326.113C228.078 325.458 225.917 326.121 224.591 326.438C223.951 326.591 221.715 327.192 221.441 327.819C221.225 328.316 221.43 330.239 221.424 330.872C221.419 331.359 221.478 331.759 221.212 332.191L220.867 332.223C220.465 331.505 220.707 329.387 220.703 328.484C220.148 328.116 219.834 327.791 219.477 327.229C220.005 327.071 220.528 327.25 221.051 327.083C222.127 326.74 223.057 326.032 224.195 325.685Z" fill="#01141C"/>
<path d="M219.356 327.081C219.638 326.892 219.889 326.729 220.102 326.461C221.016 325.312 222.229 324.446 223.295 323.441C225.27 321.579 227.336 319.27 228.714 316.927C229.404 317.042 230.605 318.113 231.239 318.526L234.86 320.644L234.836 320.872C234.835 321.531 234.874 322.21 234.786 322.863L234.92 323.204L234.936 323.328L229.409 320.002C228.031 321.208 226.468 322.634 225.394 324.109C225.029 324.61 224.305 325.093 224.195 325.685C223.057 326.032 222.127 326.74 221.051 327.083C220.528 327.25 220.005 327.07 219.477 327.229L219.356 327.081Z" fill="#F48D1C"/>
<path d="M191.06 491.322C190.5 490.292 190.842 472.418 190.843 469.566L190.798 399.085L255.221 399.064L269.755 399.068L273.851 399.073C274.621 399.075 275.39 398.997 276.13 399.232C276.351 399.987 276.273 400.779 276.268 401.56L276.241 405.79L276.27 416.922L276.168 461.933L276.296 490.336C276.29 490.976 276.286 491.475 276.041 492.08L276.196 493.881C276.113 493.954 276.045 494.05 275.945 494.099C275.74 494.2 274.703 494.097 274.437 494.096L269.405 494.088L250.84 494.073L240.988 494.047L239.168 494.058L228.576 494.02L190.742 494.017L191.06 491.322Z" fill="#008175"/>
<path d="M247.488 443.117L245.652 446.422C243.788 451.15 240.883 454.307 237.364 455.714C236.154 456.197 234.912 456.5 233.661 456.632C233.634 459.274 233.791 462.283 233.434 464.859L232.984 465.488C235.757 465.797 242.439 462.77 244.918 460.926C247.717 458.843 247.022 456.122 248.039 451.729C247.736 449.399 247.996 445.459 247.488 443.117Z" fill="#9A4624"/>
<path d="M247.488 443.117L245.652 446.422C243.788 451.15 240.883 454.307 237.364 455.714C236.154 456.197 234.912 456.5 233.661 456.632C233.634 459.274 233.791 462.283 233.434 464.859L232.984 465.488C235.757 465.797 242.439 462.77 244.918 460.926C247.717 458.843 247.022 456.122 248.039 451.729C247.736 449.399 247.996 445.459 247.488 443.117Z" fill="#9A4624"/>
<path d="M221.283 437.33C221.349 439.526 221.249 441.706 221.93 443.824C221.797 444.358 221.724 444.764 221.777 445.322L221.326 444.704L221.092 445.463C221.247 446.817 221.187 448.172 221.165 449.531C221.155 450.16 221.226 450.921 221.098 451.532L220.951 452.069C220.665 452.085 220.443 452.096 220.158 452.047L219.49 451.857L219.233 450.201C219.265 449.826 219.195 449.501 219.127 449.134L219.096 447.841L219.105 443.27C219.096 442.359 219.16 441.446 218.853 440.577C219.048 440.248 219.186 439.854 219.343 439.502C219.596 440.152 219.874 440.795 220.019 441.479L220.315 441.481L220.574 441.141C220.433 439.887 220.298 438.751 220.329 437.484L221.283 437.33Z" fill="#94C1C7"/>
<path d="M219.343 439.502C219.596 440.152 219.874 440.795 220.019 441.479C220.131 443.473 220.101 445.445 220.032 447.439C219.988 448.688 219.787 450.383 220.087 451.568L220.158 452.047L219.49 451.857L219.233 450.201C219.265 449.826 219.195 449.501 219.127 449.134L219.096 447.841L219.105 443.27C219.096 442.359 219.16 441.446 218.853 440.577C219.048 440.248 219.186 439.854 219.343 439.502Z" fill="#5BB9B3"/>
<path d="M247.135 437.616C247.702 437.353 248.458 437.432 249.082 437.415L249.14 437.801L249.158 439.169C248.967 440.43 248.927 441.656 248.915 442.93L248.807 446.666C248.826 450.249 248.961 454.464 246.938 457.621C246.744 456.373 247.326 454.76 247.325 453.491L247.433 443.269L247.448 443.125C247.5 442.016 247.663 440.672 246.919 439.813C247.238 439.1 247.146 438.378 247.135 437.616Z" fill="#9A4624"/>
<path d="M249.158 439.169C249.807 438.955 250.619 438.707 251.268 439.058C251.713 439.298 252.002 439.857 252.116 440.338L253.561 440.46L253.747 440.868C253.885 442.362 253.871 443.489 252.89 444.718C251.952 445.892 250.536 446.542 249.055 446.655L248.807 446.666L248.915 442.93C248.927 441.656 248.966 440.43 249.158 439.169Z" fill="#863823"/>
<path d="M252.116 440.338L253.561 440.46L253.747 440.868C253.885 442.362 253.871 443.489 252.89 444.718C251.952 445.892 250.536 446.542 249.055 446.655L248.807 446.666L248.915 442.93L248.935 445.505L250.732 444.016C251.904 442.859 252.088 441.914 252.116 440.338Z" fill="#BA6545"/>
<path d="M214.488 439.46L214.757 439.412C215.122 439.338 215.409 439.182 215.741 439.022C216.446 438.682 217.418 438.387 218.197 438.66C218.63 438.812 219.015 439.191 219.343 439.502C219.186 439.854 219.048 440.248 218.852 440.577C219.16 441.446 219.096 442.359 219.105 443.27L219.096 447.841L219.127 449.134L218.934 449.072C217.02 448.37 215.303 446.891 214.463 445.016C213.624 443.144 213.752 441.323 214.488 439.46Z" fill="#863823"/>
<path d="M214.488 439.46L214.757 439.412C215.122 439.338 215.409 439.182 215.741 439.022C216.446 438.682 217.418 438.387 218.197 438.66C218.63 438.812 219.015 439.191 219.343 439.502C219.186 439.854 219.048 440.248 218.852 440.577C218.352 440.079 217.835 439.386 217.103 439.292C216.333 439.459 215.832 439.76 215.412 440.454C214.855 441.376 214.876 442.785 215.172 443.792C215.754 445.773 217.402 446.842 219.096 447.841L219.127 449.134L218.934 449.072C217.02 448.37 215.303 446.891 214.463 445.016C213.624 443.144 213.752 441.323 214.488 439.46Z" fill="#F6A071"/>
<path d="M232.14 445.722C232.943 445.486 233.878 445.435 234.673 445.726C235.469 446 236.414 445.902 237.254 445.909L242.023 445.938C242.764 446.287 243.959 446.136 244.787 446.146L244.673 446.472C244.543 446.856 244.563 446.701 244.554 446.976L245.204 447.103C244.71 447.902 244.219 448.172 243.312 448.388L243.153 448.423L241.917 448.43L223.837 448.605C223.268 448.092 222.894 447.615 222.51 446.953L232.004 447.122L231.541 446.883C231.667 446.525 231.834 446.219 232.02 445.891L232.14 445.722Z" fill="#5BB9B3"/>
<path d="M232.14 445.722C232.943 445.486 233.878 445.435 234.673 445.726C235.469 446 236.414 445.902 237.254 445.909H242.164C242.904 446.258 244.099 446.107 244.928 446.117L244.673 446.472C244.543 446.856 244.563 446.701 244.555 446.976L232.004 447.122L231.541 446.883C231.667 446.525 231.834 446.219 232.02 445.891L232.14 445.722Z" fill="#2C3F4E"/>
<path d="M230.159 447.086C234.82 447.086 242.348 446.789 245.469 446.973L244.551 448.809C242.637 453.439 242.054 454.746 238.335 457.186C235.512 458.142 233.016 458.666 230.159 457.515C225.988 455.836 224.177 451.749 222.336 447.086C223.16 446.037 228.654 447.326 230.159 447.086Z" fill="#BA6545"/>
<path d="M244.504 461.119C244.931 462.159 244.411 464.129 244.586 465.348L244.453 465.47L244.296 465.514C243.433 465.771 242.677 466.218 241.837 466.519C239.259 467.443 236.822 467.797 234.094 467.782C233.16 467.715 232.233 467.562 231.329 467.317C228.701 466.606 226.09 465.042 224.698 462.652C226.172 462.896 227.605 463.653 229.122 463.891L230.786 464.143C235.243 464.621 240.913 464.024 244.504 461.119Z" fill="#863823"/>
<path d="M221.282 437.33C223.23 437.024 225.443 437.219 227.421 437.225C228.478 437.228 229.866 437.073 230.873 437.363L230.266 437.885L230.322 438.281C230.955 438.465 231.39 438.603 232.029 438.325C232.069 440.723 231.84 443.364 232.14 445.722L232.02 445.891C231.834 446.219 231.667 446.525 231.541 446.883L232.004 447.122L222.51 446.953C222.525 446.729 221.895 445.616 221.777 445.322C221.723 444.764 221.797 444.358 221.929 443.824C221.249 441.706 221.349 439.526 221.282 437.33Z" fill="#BA6545"/>
<path d="M221.93 443.824C222.214 444.493 222.466 445.279 222.92 445.849L232.02 445.891C231.834 446.219 231.667 446.525 231.541 446.883L232.004 447.122L222.51 446.953C222.525 446.729 221.895 445.616 221.777 445.322C221.724 444.764 221.797 444.358 221.93 443.824Z" fill="#2C3F4E"/>
<path d="M246.901 437.446L247.135 437.616C247.146 438.378 247.238 439.1 246.918 439.813C247.663 440.672 247.5 442.016 247.448 443.125L247.433 443.268C246.828 444.582 246.276 446.098 245.204 447.103L244.555 446.976C244.563 446.701 244.543 446.856 244.673 446.472L244.787 446.146C243.959 446.136 242.764 446.287 242.023 445.938L237.254 445.909C236.414 445.902 235.469 446 234.673 445.726C233.878 445.435 232.943 445.486 232.14 445.722C231.84 443.364 232.069 440.723 232.029 438.325C232.053 438.072 232.108 437.829 232.158 437.58L234.465 437.571L246.901 437.446Z" fill="#9A4624"/>
<path d="M246.923 437.609C247.841 437.426 249.178 436.868 249.126 437.977L247.418 443.268C246.814 444.582 246.342 446.278 245.271 447.283L244.536 447.099C244.545 446.824 244.529 446.856 244.659 446.472L244.772 446.146C243.944 446.136 242.749 446.287 242.009 445.938L244.985 445.913C245.942 443.929 248.025 443.301 246.923 437.609Z" fill="#2C3F4E"/>
<path d="M232.029 438.325C232.053 438.072 232.108 437.829 232.158 437.58L234.465 437.571C234.489 440.191 234.242 443.156 234.673 445.726C233.878 445.435 232.943 445.486 232.14 445.722C231.84 443.364 232.069 440.723 232.029 438.325Z" fill="#2C3F4E"/>
<path d="M242.209 410.372C244.567 411.409 246.617 413.053 247.578 415.525L247.781 416.09C247.868 416.331 247.957 416.471 248.131 416.656L248.469 416.563C249.579 416.303 251.493 417.179 252.421 417.826C252.871 418.141 253.241 418.512 253.61 418.915L253.64 418.917C254.118 420.198 254.26 421.281 254.045 422.647L254.632 423.015C255.606 423.568 256.092 424.397 256.381 425.464C256.758 426.858 256.434 428.621 255.692 429.849L254.63 431.315C255.896 433.133 257.458 434.486 256.965 436.967C256.672 438.439 255.646 439.82 254.361 440.582C254.163 440.699 253.963 440.791 253.747 440.868L253.561 440.46L252.116 440.338C252.003 439.857 251.713 439.298 251.269 439.058C250.619 438.707 249.807 438.956 249.158 439.169L249.14 437.801L249.082 437.415C249.146 437.059 249.13 436.686 249.138 436.324C248.663 435.873 247.726 435.999 247.07 435.96L247.173 434.773C247.817 433.635 248.569 431.753 248.612 430.458C248.691 428.124 247.907 426.178 246.277 424.489C243.981 422.109 241.455 421.55 238.241 421.484C239.713 419.83 241.329 418.11 242.295 416.094C242.945 414.738 243.176 413.024 242.646 411.584L242.209 410.372Z" fill="#83D0C4"/>
<path d="M249.14 437.801C249.639 437.305 250.084 437.312 250.793 437.32C251.52 437.329 252.147 437.502 252.63 438.062C253.172 438.689 253.353 439.671 253.561 440.46L252.116 440.338C252.003 439.857 251.713 439.298 251.269 439.058C250.619 438.707 249.808 438.955 249.158 439.169L249.14 437.801Z" fill="#F6A071"/>
<path d="M238.242 421.484C241.455 421.55 243.981 422.109 246.277 424.489C247.907 426.178 248.691 428.124 248.612 430.458C248.569 431.753 247.817 433.635 247.173 434.773L247.07 435.96C247.726 435.999 248.663 435.873 249.138 436.324C249.13 436.686 249.146 437.059 249.082 437.415C248.458 437.432 247.702 437.353 247.135 437.616L246.901 437.446L234.465 437.571L232.158 437.58C232.108 437.829 232.053 438.072 232.029 438.325C231.39 438.603 230.955 438.465 230.322 438.281L230.267 437.885L230.873 437.363C229.866 437.073 228.478 437.228 227.421 437.225C225.443 437.219 223.23 437.024 221.283 437.33L220.329 437.484C220.234 436.911 220.043 436.501 220.317 435.978L221.635 435.947L221.528 434.084C221.317 433.35 221.18 432.537 221.116 431.776C220.879 428.961 221.468 425.971 223.401 423.811C224.409 422.685 225.782 422.01 227.292 422C229.868 421.982 231.365 423.44 233.071 425.124C234.423 423.739 235.74 422.656 237.473 421.78L238.242 421.484Z" fill="#BA6545"/>
<path d="M221.528 434.084C226.314 434.507 231.271 434.255 236.081 434.281C237.87 434.291 239.886 434.615 241.642 434.305L247.173 434.772L247.07 435.96C247.726 435.999 248.663 435.873 249.138 436.324C249.13 436.686 249.146 437.059 249.082 437.415C248.458 437.432 247.702 437.353 247.135 437.616L246.901 437.446L234.465 437.571L232.158 437.58C232.108 437.829 232.091 437.357 232.067 437.609C231.441 437.435 232.148 437.667 231.516 437.484L231.149 437.415L230.873 437.363C229.866 437.073 228.478 437.228 227.421 437.225C225.443 437.219 223.23 437.024 221.283 437.33L220.329 437.484C220.234 436.911 220.043 436.501 220.317 435.978L221.635 435.947L221.528 434.084Z" fill="#2C3F4E"/>
<path d="M221.528 434.084C226.314 434.507 231.271 434.255 236.081 434.281C237.87 434.291 239.886 434.615 241.642 434.305L247.173 434.772L247.07 435.96L246.762 436.01L232.158 435.942H231.699H231.149H230.965C230.598 436.141 222.673 435.949 221.635 435.947L221.528 434.084Z" fill="#BA6545"/>
<path d="M238.234 421.453C241.498 421.525 244.063 422.143 246.396 424.774C248.051 426.641 248.848 428.792 248.768 431.372C248.724 432.803 247.96 434.883 247.306 436.141H241.062C239.755 435.815 237.207 436.324 237.023 435.85L237.453 421.78L238.234 421.453Z" fill="#9A4624"/>
<path d="M214.488 439.46C214.088 439.075 213.482 438.807 213.025 438.468C211.896 437.629 211.08 436.587 210.577 435.262C210.046 433.864 209.84 432.345 210.504 430.952C211.062 429.78 212.222 428.722 213.444 428.299C213.694 428.213 213.571 428.297 213.766 428.063C213.183 427.295 212.678 426.487 212.533 425.516C212.326 424.128 212.695 422.745 213.589 421.658C215.184 419.719 216.896 419.306 219.291 419.055C219.152 418.003 218.828 416.907 218.958 415.846L218.996 415.578C219.153 414.407 219.52 413.368 220.137 412.362C221.272 410.511 223.024 409.169 225.139 408.662L225.457 408.591L225.962 408.477C229.008 407.95 231.564 408.92 233.996 410.662C234.425 410.357 234.871 410.026 235.362 409.832C237.5 408.989 240.179 409.509 242.208 410.372L242.645 411.584C243.176 413.024 242.945 414.738 242.295 416.094C241.329 418.11 239.713 419.83 238.241 421.484L237.473 421.78C235.74 422.656 234.423 423.739 233.071 425.124C231.365 423.44 229.868 421.982 227.292 422C225.782 422.01 224.409 422.685 223.401 423.811C221.468 425.971 220.879 428.961 221.116 431.776C221.18 432.537 221.317 433.35 221.528 434.084L221.635 435.947L220.316 435.978C220.043 436.501 220.233 436.911 220.329 437.484C220.298 438.751 220.433 439.887 220.574 441.141L220.314 441.481L220.019 441.479C219.874 440.795 219.596 440.152 219.343 439.502C219.015 439.191 218.63 438.812 218.197 438.66C217.418 438.387 216.446 438.682 215.741 439.022C215.409 439.182 215.122 439.339 214.757 439.412L214.488 439.46Z" fill="#EAFCFC"/>
<path d="M223.704 461.777L224.698 462.652C226.09 465.042 228.701 466.606 231.329 467.317C232.233 467.562 233.16 467.715 234.094 467.782C236.822 467.797 239.259 467.443 241.837 466.52C242.677 466.218 243.433 465.771 244.296 465.514L244.453 465.47L244.586 465.348C245.621 465.954 247.001 466.591 247.887 467.389C250.816 468.587 253.769 469.634 256.614 471.031C264.298 474.804 271.523 480.842 274.96 488.863L276.041 492.08L276.197 493.881C276.113 493.954 276.045 494.05 275.945 494.099C275.74 494.2 274.703 494.097 274.437 494.096L269.405 494.088L250.84 494.073L240.988 494.047L239.168 494.058L228.576 494.02L190.742 494.017L191.06 491.322C195.311 481.781 202.828 474.65 212.285 470.296C214.129 469.447 216.059 468.867 217.929 468.096C219.812 467.319 221.607 466.34 223.357 465.302C223.584 464.124 223.325 462.961 223.704 461.777Z" fill="#EAFCFC"/>
<path d="M244.453 465.47C243.245 468.373 239.979 470.265 237.196 471.398L234.6 472.259L234.264 471.941C233.997 470.639 234.114 469.117 234.094 467.782C236.821 467.797 239.259 467.443 241.837 466.52C242.677 466.218 243.433 465.771 244.296 465.514L244.453 465.47Z" fill="#E33115"/>
<path d="M231.154 480.385C231.082 479.387 230.551 479.153 229.853 478.474C229.736 478.36 229.477 478.294 229.503 478.133C229.552 477.831 230.933 476.42 231.187 476.126L233.932 473.105C234.866 474.335 235.865 475.467 236.917 476.597C237.264 476.972 238.133 477.71 238.25 478.173C237.727 478.664 236.548 479.514 236.318 480.153C236.057 480.398 235.788 480.662 235.464 480.824C234.12 481.495 232.489 480.768 231.154 480.385Z" fill="#BA6545"/>
<path d="M216.797 472.085L215.871 476.057C215.784 476.474 215.391 477.907 215.491 478.256C215.762 479.197 217.333 480.645 217.96 481.497L224.466 490.951L221.906 488.828L211.521 479.76L216.797 472.085Z" fill="#BAD9DD"/>
<path d="M246.381 485.357L246.512 485.276C247.704 484.51 248.7 483.242 249.719 482.253L253.749 478.435C253.231 476.903 252.642 475.49 251.917 474.043C253.397 475.52 254.463 476.973 255.563 478.734C255.86 479.211 256.36 479.819 256.489 480.356C252.027 484.065 247.164 487.768 243.35 492.137C242.926 492.622 242.603 492.742 242.256 493.332C242.303 493.636 242.243 493.499 242.44 493.743C242.176 493.747 241.966 493.742 241.703 493.697C242.017 493.176 242.346 492.706 242.45 492.095C243.649 489.796 245.302 487.721 246.381 485.357Z" fill="#BAD9DD"/>
<path d="M223.704 461.777L224.698 462.652C226.09 465.042 228.701 466.606 231.329 467.317C232.233 467.562 233.16 467.715 234.094 467.782C234.114 469.117 233.998 470.639 234.264 471.941L234.6 472.259C232.529 472.415 230.29 471.851 228.439 470.918C226.348 469.865 224.117 467.523 223.357 465.302C223.584 464.124 223.325 462.961 223.704 461.777Z" fill="#BA6545"/>
<path d="M221.234 444.402L222.706 446.726C224.616 451.572 228.198 454.74 231.802 456.181C233.042 456.677 234.315 456.987 235.596 457.123C235.623 459.83 235.463 462.914 235.828 465.553L236.289 466.198C233.449 466.514 226.528 464.101 223.988 462.211C221.121 460.077 221.909 456.6 220.867 452.098C221.178 449.71 220.715 446.802 221.234 444.402Z" fill="#BA6545"/>
<path d="M221.234 444.402L222.706 446.726C224.616 451.572 228.198 454.74 231.802 456.181C233.042 456.677 234.315 456.987 235.596 457.123C235.623 459.83 235.463 462.914 235.828 465.553L236.289 466.198C233.449 466.514 226.528 464.101 223.988 462.211C221.121 460.077 221.909 456.6 220.867 452.098C221.178 449.71 220.715 446.802 221.234 444.402Z" fill="#BA6545"/>
<path d="M231.154 480.385C232.489 480.768 234.12 481.495 235.464 480.824C235.787 480.662 236.057 480.398 236.318 480.153L239.168 494.058L228.575 494.02L231.154 480.385Z" fill="#E33115"/>
<path d="M400.217 492.679C400.024 492.376 399.925 492.195 399.909 491.826L399.85 462.194L399.767 399.07L485.604 399.081L485.576 439.113C485.591 444.854 485.985 489.449 485.198 491.253L485.105 491.489L485.038 491.651L485.286 493.992L453.463 494.048L450.764 494.12L446.144 494.148L438.54 494.139L434.337 494.08L432.103 494.007C429.974 494.325 427.326 494.03 425.154 494.029L408.228 494.001L402.615 493.99C401.974 493.989 401.035 494.111 400.422 493.985C400.297 493.96 400.203 493.854 400.094 493.789L400.217 492.679Z" fill="#008175"/>
<path d="M423.957 435.411L423.811 434.984C423.452 433.533 423.327 431.916 423.123 430.433C422.396 425.166 421.763 418.646 424.985 414.024C426.95 411.204 430.543 409.567 433.84 408.976C438.641 408.115 443.602 408.893 448.109 410.668C450.783 411.969 452.698 413.279 454.611 415.549C455.732 415.057 456.865 414.704 458.07 415.179C459.347 415.682 460.237 416.749 460.763 417.992C462.322 421.687 462.2 426.218 461.41 430.078C461.186 431.174 460.94 432.474 460.434 433.479C460.261 433.822 460.008 434.144 459.726 434.406C458.608 435.364 458.376 437.612 457.937 438.971C457.634 439.911 457.204 440.729 456.709 441.581L454.207 422.642C450.118 424.966 446.462 425.908 441.774 426.159C439.675 426.196 437.528 426.088 435.48 425.591C433.905 425.209 432.368 424.612 430.823 424.121C430.304 423.956 429.508 423.604 428.971 423.632C428.303 423.667 428.164 423.95 427.73 424.391C427.429 425.345 427.559 426.512 427.556 427.507C427.548 430.157 427.758 432.971 427.506 435.604L427.313 435.485C426.628 435.07 425.676 434.561 424.84 434.858C424.576 434.952 424.338 435.142 424.112 435.303L423.957 435.411Z" fill="#E33115"/>
<path d="M456.016 467.816C457.637 467.98 459.348 468.806 460.855 469.399C465.528 471.234 470.55 473.278 474.691 476.103C476.726 477.492 478.468 479.116 480.032 481.016C482.718 484.28 484.038 487.587 485.038 491.651L485.286 493.992L453.463 494.048L450.764 494.12L446.144 494.148L446.099 494.032L450.374 475.478C451.32 473.088 451.548 470.615 452.832 468.337L453.342 468.191L453.415 468.137L456.016 467.816Z" fill="#BAD9DD"/>
<path d="M453.415 468.137L456.016 467.816C456.343 469.08 456.708 470.33 457.207 471.537L459.953 477.91C460.09 478.235 460.627 479.195 460.621 479.501C460.618 479.652 460.26 480.214 460.182 480.35L452.16 493.789C452.597 493.977 452.995 493.997 453.463 494.048L450.764 494.12L459.297 479.532L457.196 475.07C456.442 473.381 455.726 471.689 454.844 470.061C454.469 469.369 454.055 468.566 453.342 468.191L453.415 468.137Z" fill="#94C1C7"/>
<path d="M453.342 468.191C454.055 468.566 454.469 469.369 454.844 470.061C455.726 471.689 456.443 473.381 457.196 475.07L459.297 479.532L450.764 494.12L446.144 494.148L446.099 494.032L450.374 475.478C451.32 473.088 451.548 470.615 452.832 468.337L453.342 468.191Z" fill="#BAD9DD"/>
<path d="M431.026 468.416C434.282 469.092 438.11 470.508 441.431 470.409L441.95 470.53L441.967 470.673C442.789 470.726 443.548 471.461 444.205 471.922C445.332 472.713 446.49 473.538 447.735 474.133C448.963 474.172 449.505 474.608 450.374 475.478L446.099 494.032L446.144 494.148L438.54 494.139L434.337 494.08L432.103 494.007C429.974 494.325 427.326 494.03 425.154 494.029L408.228 494.001L402.615 493.99C401.974 493.989 401.035 494.111 400.422 493.985C400.297 493.96 400.203 493.854 400.094 493.789L400.217 492.679C401.072 489.839 401.964 487.069 403.473 484.495C408.308 476.247 415.814 471.81 424.876 469.425C425.195 469.125 427.481 468.812 427.999 468.715L428.6 468.552L431.026 468.416Z" fill="#EAFCFC"/>
<path d="M424.876 469.425C425.195 469.125 427.481 468.812 427.999 468.715C427.774 469.09 427.562 469.438 427.281 469.776C426.384 470.853 425.956 472.433 425.42 473.704C424.809 475.147 424.099 476.51 423.34 477.878C423.947 479.013 424.817 480.067 425.537 481.139C428.432 485.442 431.805 489.557 434.337 494.08L432.103 494.007L433.561 493.896L433.62 493.697C431.243 491.293 429.356 488.139 427.333 485.421C425.482 482.933 423.407 480.593 421.691 478.01C422.836 475.312 424.43 472.568 425.137 469.723L424.876 469.425Z" fill="#BAD9DD"/>
<path d="M431.026 468.416C434.282 469.092 438.11 470.508 441.431 470.409L441.95 470.53L441.967 470.673C442.789 470.726 443.548 471.461 444.205 471.922C445.332 472.713 446.49 473.538 447.735 474.133C448.963 474.172 449.505 474.608 450.374 475.478L446.099 494.032L446.144 494.148L438.54 494.139L434.337 494.08C431.805 489.557 428.432 485.442 425.538 481.139C424.817 480.067 423.947 479.013 423.34 477.878C424.099 476.51 424.809 475.147 425.42 473.704C425.957 472.433 426.384 470.853 427.281 469.776C427.562 469.438 427.774 469.09 427.999 468.715L428.6 468.552L431.026 468.416Z" fill="#EAFCFC"/>
<path d="M429.773 468.689C430.049 468.71 430.772 468.675 430.99 468.781C431.407 468.984 432.102 469.869 432.471 470.213L437.03 474.338C435.645 474.766 434.242 475.255 432.775 475.21L431.088 470.748C430.768 469.946 430.302 469.361 429.773 468.689Z" fill="#BAD9DD"/>
<path d="M437.03 474.338L437.186 474.334C438.179 475.365 440.019 476.873 440.594 478.163L438.683 493.516C437.682 491.699 437.128 489.56 436.527 487.584C435.275 483.467 434.346 479.221 432.775 475.21C434.242 475.255 435.645 474.766 437.03 474.338Z" fill="#83D0C4"/>
<path d="M441.967 470.673C442.789 470.726 443.548 471.462 444.205 471.922C445.332 472.713 446.49 473.538 447.735 474.134C448.963 474.172 449.505 474.608 450.374 475.478L446.099 494.032L446.144 494.148L438.54 494.139L438.683 493.516L440.594 478.163C440.019 476.873 438.179 475.365 437.186 474.334C438.938 473.478 440.568 472.013 441.967 470.673Z" fill="#008175"/>
<path d="M447.735 474.134C448.963 474.172 449.504 474.608 450.374 475.478L446.099 494.032L445.805 493.693L444.717 484.597C444.522 482.944 444.124 481.175 444.148 479.516C444.159 478.716 444.348 477.98 444.651 477.243C445.837 476.453 446.809 475.197 447.735 474.134Z" fill="#83D0C4"/>
<path d="M454.207 422.642L456.709 441.581C457.204 440.729 457.634 439.911 457.937 438.971C458.376 437.612 458.608 435.364 459.726 434.406C461.019 435.404 461.763 436.384 461.973 438.065C462.255 440.316 461.525 442.561 460.073 444.285C459.08 445.465 457.989 446.089 456.561 446.578C456.506 450.437 456.089 454.515 453.354 457.51L453.415 468.137L453.342 468.191L452.832 468.337C451.548 470.615 451.32 473.088 450.374 475.478C449.504 474.608 448.963 474.172 447.735 474.134C446.49 473.538 445.332 472.713 444.205 471.922C443.548 471.462 442.789 470.726 441.967 470.673L441.95 470.53L441.431 470.41C438.11 470.508 434.282 469.092 431.026 468.416L430.899 462.388L430.753 458.569C429.975 456.995 428.965 455.718 428.382 454.021L428.265 453.674C427.821 452.395 427.74 451.279 427.68 449.935L427.592 450.789C427.219 450.462 426.975 449.798 426.732 449.352C426.134 448.248 425.449 447.18 425.074 445.978C424.201 444.993 423.619 444.227 423.24 442.933C422.585 440.699 422.861 437.445 423.957 435.411L424.112 435.303C424.338 435.142 424.576 434.952 424.84 434.858C425.675 434.561 426.628 435.07 427.313 435.485L427.506 435.604C427.758 432.971 427.548 430.157 427.556 427.507C427.559 426.512 427.429 425.345 427.73 424.391C428.164 423.95 428.303 423.667 428.971 423.632C429.508 423.604 430.304 423.956 430.823 424.121C432.368 424.612 433.905 425.209 435.48 425.591C437.528 426.088 439.675 426.196 441.774 426.159C446.462 425.908 450.118 424.966 454.207 422.642Z" fill="#F6A071"/>
<path d="M440.723 443.048C441.681 443.074 443.881 442.773 444.645 443.209C444.882 443.729 444.854 443.986 444.795 444.533C444.083 444.929 442.583 444.626 441.741 444.613L441.094 444.555C440.751 444.073 440.788 443.63 440.723 443.048Z" fill="#E33115"/>
<path d="M447.647 435.865L447.841 435.814C448.392 435.728 448.918 435.758 449.35 436.148C449.789 436.545 449.858 437.14 449.79 437.701C449.724 438.245 449.325 438.528 448.908 438.803C448.695 438.857 448.569 438.899 448.339 438.913C447.706 438.95 447.446 438.636 447.02 438.252C446.874 437.887 446.743 437.607 446.775 437.202C446.83 436.514 447.135 436.243 447.647 435.865Z" fill="#091314"/>
<path d="M434.523 435.682L434.688 435.647C435.373 435.574 435.785 435.861 436.267 436.286C436.49 436.813 436.588 437.133 436.398 437.701C436.221 438.229 435.798 438.529 435.346 438.803L434.57 438.891C434.092 438.83 433.85 438.638 433.573 438.252C433.284 437.849 433.285 437.136 433.459 436.691C433.675 436.138 434.032 435.946 434.523 435.682Z" fill="#542D1A"/>
<path d="M425.074 445.978L425.26 445.946C426.412 445.731 426.823 445.153 427.554 444.284L427.68 449.935L427.592 450.789C427.219 450.462 426.975 449.798 426.732 449.352C426.134 448.248 425.449 447.18 425.074 445.978Z" fill="#2C3F4E"/>
<path d="M432.288 433.111C433.09 432.881 438.039 432.731 438.701 433.097C438.768 433.675 438.769 434.027 438.576 434.58C437.123 434.825 435.378 434.659 433.883 434.659C433.326 434.659 432.724 434.749 432.214 434.488C432.123 433.98 432.189 433.606 432.288 433.111Z" fill="#542D1A"/>
<path d="M444.83 433.111C446.46 432.796 448.607 433.05 450.292 433.053C451.033 433.054 451.783 432.928 452.434 433.295C452.54 433.812 452.525 434.075 452.374 434.58L452.234 434.614C450.563 434.918 448.367 434.665 446.644 434.663C446.067 434.663 445.247 434.791 444.76 434.481C444.686 433.987 444.746 433.595 444.83 433.111Z" fill="#542D1A"/>
<path d="M425.713 436.6L426.045 436.518C426.535 436.445 426.918 436.519 427.315 436.783L427.36 439.354C427.388 440.737 426.693 441.827 426.071 443.025L425.758 443.465L425.482 443.335C424.897 441.879 424.761 440.554 424.825 438.997C424.866 437.993 424.957 437.305 425.713 436.6Z" fill="#E33115"/>
<path d="M442.74 453.839C441.384 453.819 440.283 453.731 439.068 453.017C437.513 452.102 436.852 450.23 436.384 448.594L442.34 448.841C443.305 448.914 444.256 448.968 445.224 448.927C445.786 448.903 446.859 448.688 447.36 448.893C446.684 450.664 445.726 452.5 443.919 453.351L443.103 453.689L442.877 453.784L442.74 453.839Z" fill="#EAFCFC"/>
<path d="M234.935 455.338C233.578 455.318 232.477 455.23 231.263 454.516C229.708 453.601 229.047 451.73 228.578 450.094L234.535 450.34C235.499 450.413 236.451 450.468 237.419 450.426C237.981 450.402 239.054 450.188 239.554 450.393C238.878 452.164 237.921 454 236.113 454.851L235.298 455.189L235.071 455.283L234.935 455.338Z" fill="#EAFCFC"/>
<path d="M441.388 460.739L446.471 460.425C447.919 460.224 449.312 460.057 450.643 459.413L450.91 459.28C451.85 458.828 452.569 458.185 453.354 457.51L453.415 468.137L453.342 468.191L452.832 468.338C451.548 470.615 451.32 473.088 450.374 475.478C449.504 474.608 448.963 474.172 447.735 474.134C446.49 473.538 445.332 472.713 444.205 471.922C443.548 471.462 442.789 470.726 441.967 470.673L441.95 470.53L441.431 470.41L441.455 464.303C441.267 463.169 441.379 461.892 441.388 460.739Z" fill="#F48D1C"/>
<path d="M441.95 470.53L452.832 468.337C451.548 470.615 451.32 473.088 450.374 475.478C449.504 474.608 448.963 474.172 447.735 474.134C446.49 473.538 445.332 472.713 444.205 471.922C443.548 471.462 442.789 470.726 441.967 470.673L441.95 470.53Z" fill="#94C1C7"/>
<path d="M300.539 279.926L292.301 279.912L292.256 190.113L382.789 190.128L382.798 234.607L382.83 279.985L357.118 280.15L351.495 280.148C350.586 280.148 349.551 280.252 348.663 280.051L304.498 279.932C303.401 280.18 301.699 279.937 300.539 279.926Z" fill="#008175"/>
<path d="M322.063 229.606L321.911 229.363C320.105 226.216 318.954 220.522 320.072 217.012C322.129 210.553 331.314 210.108 336.445 207.491C340.023 205.666 342.064 203.265 343.292 199.446L344.821 201.005C346.638 203.76 347.889 206.379 348.203 209.72C349.107 207.788 349.518 205.828 349.681 203.708L349.842 202.968C350.382 202.873 350.832 203.072 351.28 203.393C352.423 204.215 353.274 205.688 354.026 206.856C354.783 208.57 355.58 210.31 356.021 212.139C357.017 216.276 356.643 221.476 355.163 225.462L354.93 226.018C354.553 226.104 354.351 226.049 353.984 225.937L337.803 226.867C333.098 226.576 328.825 225.834 324.255 224.718C322.818 226.289 322.446 227.547 322.063 229.606Z" fill="#F48D1C"/>
<path d="M322.063 229.606C322.446 227.547 322.818 226.289 324.255 224.718C328.826 225.834 333.099 226.576 337.803 226.867L353.985 225.937L353.59 230.754C354.685 230.561 355.237 230.465 356.171 231.11C357.074 231.734 357.526 232.524 357.71 233.598C357.999 235.286 357.622 236.799 356.595 238.163C355.535 239.572 354.022 240.447 352.4 241.066L352.427 241.264C352.682 243.277 352.262 245.048 351.002 246.633L349.734 248.095L345.344 252.18L342.59 253.648L343.324 258.238C342.648 258.557 339.048 259.946 338.335 260.169L338.169 260.279C337.515 260.246 336.83 259.768 336.254 259.465L332.227 257.387L332.676 255.117V253.281L330.473 251.812L327.902 250.344L325.967 248.083C325.157 247.143 324.224 246.037 323.725 244.897L323.63 244.667C323.14 243.527 323.296 242.072 323.311 240.841L322.67 240.616C321.92 240.356 321.264 240.059 320.619 239.584C319.396 238.685 318.153 237.16 317.975 235.615C317.821 234.285 317.999 232.986 318.874 231.934C319.502 231.178 320.099 230.784 321.079 230.709C321.468 230.709 321.298 230.691 321.716 230.774C322.144 230.858 321.925 230.889 322.329 230.689L322.063 229.606Z" fill="#F6A071"/>
<path d="M354.864 231.078L354.942 231.772C355.04 233.013 355.083 235.104 354.519 236.226C354.181 236.899 353.552 237.54 353.068 238.117L354.864 231.078Z" fill="#F48D1C"/>
<path d="M344.457 233.545L344.81 233.474C345.258 233.463 345.64 233.759 345.902 234.096C346.23 234.518 346.331 235.24 346.183 235.748C346.018 236.314 345.713 236.51 345.252 236.81C344.546 236.907 344.542 236.858 343.967 236.507C343.62 235.979 343.422 235.571 343.526 234.922C343.632 234.265 343.957 233.941 344.457 233.545Z" fill="#01141C"/>
<path d="M331.508 233.729C331.66 233.694 331.784 233.657 331.945 233.662C332.372 233.674 332.732 233.905 332.994 234.231C333.285 234.592 333.424 235.012 333.371 235.473C333.298 236.111 332.88 236.516 332.4 236.884C331.704 236.937 331.62 236.974 330.989 236.606C330.619 236.037 330.528 235.784 330.499 235.105C330.748 234.436 330.938 234.164 331.508 233.729Z" fill="#01141C"/>
<path d="M344.53 229.262C345.127 229.228 345.792 229.212 346.382 229.312C347.422 229.487 348.026 230.312 348.557 231.139C348.117 231.482 347.482 231.373 346.951 231.368C345.832 231.273 343.454 231.517 342.555 230.902C342.476 230.526 342.418 230.608 342.6 230.3C343.005 229.615 343.812 229.455 344.53 229.262Z" fill="#7A3909"/>
<path d="M344.53 229.262C345.127 229.228 345.792 229.212 346.382 229.312C347.422 229.487 348.026 230.312 348.557 231.139C348.117 231.482 347.482 231.373 346.951 231.368C345.832 231.273 343.454 231.517 342.555 230.902C342.476 230.526 342.418 230.608 342.6 230.3C343.005 229.615 343.812 229.455 344.53 229.262Z" fill="#7A3909"/>
<path d="M344.53 229.262C345.127 229.228 345.792 229.212 346.382 229.312C347.422 229.487 348.026 230.312 348.557 231.139C348.117 231.482 347.482 231.373 346.951 231.368C345.832 231.273 343.454 231.517 342.555 230.902C342.476 230.526 342.418 230.608 342.6 230.3C343.005 229.615 343.812 229.455 344.53 229.262Z" fill="#7A3909"/>
<path d="M330.871 229.44C331.468 229.406 332.133 229.39 332.723 229.49C333.763 229.666 334.366 230.49 334.897 231.318C334.458 231.66 333.823 231.551 333.292 231.546C332.173 231.452 329.795 231.695 328.896 231.08C328.816 230.704 328.759 230.786 328.94 230.479C329.345 229.793 330.153 229.633 330.871 229.44Z" fill="#7A3909"/>
<path d="M330.871 229.44C331.468 229.406 332.133 229.39 332.723 229.49C333.763 229.666 334.366 230.49 334.897 231.318C334.458 231.66 333.823 231.551 333.292 231.546C332.173 231.452 329.795 231.695 328.896 231.08C328.816 230.704 328.759 230.786 328.94 230.479C329.345 229.793 330.153 229.633 330.871 229.44Z" fill="#7A3909"/>
<path d="M330.871 229.44C331.468 229.406 332.133 229.39 332.723 229.49C333.763 229.666 334.366 230.49 334.897 231.318C334.458 231.66 333.823 231.551 333.292 231.546C332.173 231.452 329.795 231.695 328.896 231.08C328.816 230.704 328.759 230.786 328.94 230.479C329.345 229.793 330.153 229.633 330.871 229.44Z" fill="#7A3909"/>
<path d="M332.227 257.388L336.254 259.465C336.83 259.768 337.515 260.246 338.168 260.279L338.334 260.169C339.048 259.946 339.724 259.58 340.401 259.262L342.978 262.866C343.822 262.423 344.943 261.669 345.888 261.6L346.643 262.38C356.461 263.896 366.581 267.517 372.609 275.84L375.156 279.972L355.881 279.986L351.091 279.996C350.33 279.998 349.404 279.902 348.663 280.051L304.498 279.932C303.401 280.18 301.699 279.937 300.539 279.926L302.422 276.689C308.557 267.425 319.179 264.127 329.531 262.093C330.131 261.935 330.51 261.695 331.012 261.334L331.244 260.319L332.227 257.388Z" fill="#EAFCFC"/>
<path d="M332.227 257.388L336.254 259.465C336.83 259.768 337.515 260.246 338.169 260.279L338.335 260.169C339.048 259.946 339.724 259.58 340.401 259.262L342.978 262.866C343.822 262.423 344.943 261.669 345.888 261.6L346.644 262.38L347.334 265.419C344.819 266.412 342.163 267.495 339.909 269.009C339.373 268.028 338.851 267.182 338.115 266.336L337.643 265.759L336.998 265.81C336.026 266.85 335.235 268.033 334.513 269.257C332.448 268.027 330.338 266.681 328.502 265.129L329.531 262.093C330.132 261.935 330.51 261.695 331.012 261.334L331.244 260.319L332.227 257.388Z" fill="#284663"/>
<path d="M343.322 258.143L345.527 261.727C344.002 262.583 339.789 264.367 338.149 264.971L338.018 264.649C337.795 263.896 337.833 260.972 338.169 260.279L338.149 259.891C338.863 259.667 342.645 258.462 343.322 258.143Z" fill="#E33115"/>
<path d="M332.606 257.32L336.633 259.398C337.209 259.701 337.894 260.178 338.547 260.212C338.211 260.904 338.174 263.828 338.397 264.581L338.528 264.903L338.173 264.96C337.488 264.826 336.78 264.355 336.16 264.023L331.391 261.267L331.623 260.252L332.606 257.32Z" fill="#F48D1C"/>
<path d="M337.815 243.856L345.286 243.367C344.12 245.723 342.781 247.994 340.129 248.886C339.361 249.145 338.642 249.193 337.838 249.196L335.934 248.751C333.532 247.956 332.092 245.843 331.023 243.672L337.815 243.856Z" fill="#EAFCFC"/>
<path d="M226.143 439.529L226.649 439.452C227.135 439.413 227.558 439.548 227.918 439.879C228.52 440.432 228.57 440.966 228.587 441.732C228.23 442.472 227.87 442.713 227.176 443.133C226.998 443.17 226.678 443.262 226.486 443.243C225.902 443.186 225.507 442.772 225.176 442.313C224.823 441.824 224.895 441.192 224.96 440.631C225.328 440.045 225.531 439.851 226.143 439.529Z" fill="#01141C"/>
<path d="M239.729 439.162L240.235 439.084C240.721 439.046 241.144 439.181 241.504 439.512C242.106 440.065 242.156 440.598 242.173 441.365C241.816 442.105 241.456 442.345 240.762 442.766C240.584 442.803 240.264 442.895 240.072 442.876C239.488 442.818 239.093 442.405 238.761 441.946C238.409 441.457 238.481 440.825 238.546 440.263C238.914 439.677 239.117 439.484 239.729 439.162Z" fill="#01141C"/>
</g>
<defs>
<linearGradient id="paint0_linear_259_1404" x1="343.491" y1="447.961" x2="332.992" y2="449.517" gradientUnits="userSpaceOnUse">
<stop stop-color="#F4683D"/>
<stop offset="1" stop-color="#FF8F71"/>
</linearGradient>
<clipPath id="clip0_259_1404">
<rect width="376" height="376" fill="white" transform="translate(150 149)"/>
</clipPath>
</defs>
</svg>
