<svg width="810" height="754" viewBox="0 0 810 754" fill="none" xmlns="http://www.w3.org/2000/svg">
<path d="M0 0L810 0L664.286 754H0L0 0Z" fill="#CFEBF9"/>
<g clip-path="url(#clip0_254_832)">
<path d="M130.039 601.341L130.024 250.387L130.024 178.2L130.025 159.718L130.024 154.695C130.024 153.815 129.889 152.816 130.258 152H130.843H579.546H579.819C580.188 152.816 580.052 153.818 580.052 154.698V159.729V178.237V250.531L580.039 602H579.16L130.159 601.991L130.039 601.341Z" fill="#CFEBF9"/>
<path d="M511.033 480.62L511.622 480.805C513.909 483.291 516.332 485.986 518.103 488.863C519.949 492.069 523.043 494.779 524.345 498.27C524.597 499.06 524.96 499.786 525.32 500.532L527.103 522.445C528.096 519.422 529.339 516.703 530.673 513.822L530.816 513.847L531.126 514.08L527.601 522.192C527.097 523.644 527.083 524.986 527.12 526.503L526.504 526.398L525.385 526.402C525.229 525.989 525.128 525.686 525.126 525.243C525.092 524.17 524.204 523.219 523.572 522.409L524.465 521.937C525.078 521.971 525.564 522.042 526.124 521.734L526.269 519.744C526.25 515.784 525.87 511.829 525.457 507.893C525.198 505.429 525.054 502.721 524.172 500.398C522.721 496.57 520.087 493.006 517.881 489.577C517.498 488.636 516.656 487.697 516.037 486.889C514.42 484.779 512.497 482.831 511.033 480.62Z" fill="#A9A74F"/>
<path d="M526.269 519.744L526.504 526.398L525.385 526.402C525.229 525.989 525.128 525.686 525.126 525.243C525.092 524.17 524.204 523.219 523.572 522.409L524.465 521.937C525.078 521.971 525.564 522.042 526.124 521.734L526.269 519.744Z" fill="#008175"/>
<path d="M486.734 545.962L495.367 545.96L505.545 545.981L505.599 548.22C503.554 548.657 500.875 548.369 498.751 548.375L490.684 548.385C488.774 548.386 486.728 548.572 484.891 547.97C484.954 547.688 485.01 547.33 485.148 547.068C485.521 546.364 486.052 546.228 486.734 545.962Z" fill="#EAFCFC"/>
<path d="M458.901 545.787L465.901 545.765L465.75 547.856L465.47 548.31L453.456 548.367C450.972 548.363 448.436 548.471 445.964 548.219L446.023 546.739C446.438 546.079 447.17 546.046 447.901 545.834C451.207 546.217 454.858 545.837 458.197 545.762L458.901 545.787Z" fill="#EAFCFC"/>
<path d="M458.979 540.073L463.207 540.078L464.791 540.381L465.179 540.3L465.668 544.346L465.901 545.765L458.901 545.787L458.197 545.762C454.858 545.837 451.207 546.217 447.901 545.834C450.279 544.198 453.205 543.129 455.799 541.864C456.846 541.261 457.837 540.714 458.975 540.297L458.979 540.073Z" fill="#E33115"/>
<path d="M511.024 471.939C514.256 473.343 516.663 476.341 517.962 479.568C518.429 480.729 518.644 481.799 518.848 483.027C519.193 485.104 518.878 486.918 518.103 488.863C516.332 485.986 513.909 483.291 511.622 480.805C511.379 480.409 510.742 479.61 510.655 479.199C510.497 478.447 510.973 476.675 511.078 475.856C511.241 474.578 511.093 473.223 511.024 471.939Z" fill="#008175"/>
<path d="M500.876 540.17L503.869 540.205L504.239 540.059L505.431 545.12L505.545 545.981L495.367 545.96L486.734 545.962L495.84 541.338L497.076 540.595L498.147 540.332L500.876 540.17Z" fill="#E33115"/>
<path d="M500.876 540.17L503.868 540.205C502.838 541.322 502.264 541.496 500.776 541.79C500.181 541.814 499.686 541.801 499.093 541.7C498.892 541.258 498.722 540.767 498.338 540.451L498.147 540.332L500.876 540.17Z" fill="#E9604B"/>
<path d="M497.322 544.597C500.045 545.17 502.709 544.791 505.431 545.12L505.545 545.981L495.367 545.96L496.566 545.713C497.107 545.523 497.317 545.433 497.908 545.424L498.104 545.423C497.78 545.195 497.576 544.902 497.322 544.597Z" fill="#F48D1C"/>
<path d="M485.796 200.157L485.909 200.287C488.593 203.68 489.575 209.385 488.98 213.57L488.921 213.963C488.352 218.107 486.215 222.431 483.093 225.272C478.961 229.032 473.566 230.974 467.985 230.634C462.371 230.292 457.935 227.616 454.272 223.441C451.002 219.715 449.639 214.736 449.992 209.836C450.356 204.768 452.7 199.895 456.558 196.568C460.685 193.009 465.778 191.203 471.242 191.668C476.224 192.092 480.711 194.301 483.927 198.148L483.136 198.305C480.126 195.009 475.671 192.587 471.143 192.405C465.812 192.191 460.519 193.811 456.58 197.506C452.954 200.908 450.862 205.982 450.73 210.918C450.598 215.876 452.733 220.876 456.146 224.429C458.375 226.749 461.163 228.458 464.261 229.333L464.646 229.444C469.372 230.768 474.725 229.766 478.939 227.348C483.267 224.866 486.456 220.753 487.742 215.918C489.236 210.305 487.652 205.525 485.463 200.363L485.796 200.157Z" fill="#47B098"/>
<path d="M517.881 489.577C517.301 490.483 516.46 491.594 515.413 491.97C514.032 492.467 512.238 491.877 510.968 491.292C507.24 489.573 504.677 485.762 503.37 481.983C502.495 479.454 502.508 477.109 503.732 474.701C504.388 473.409 505.388 472.048 506.829 471.61C508.014 471.25 509.552 471.332 510.639 471.902L511.024 471.939C511.093 473.223 511.241 474.578 511.078 475.856C510.973 476.675 510.497 478.447 510.655 479.199C510.742 479.61 511.379 480.409 511.622 480.805L511.033 480.62C512.497 482.831 514.42 484.779 516.037 486.889C516.656 487.697 517.498 488.636 517.881 489.577Z" fill="#008175"/>
<path d="M510.639 471.903L511.024 471.939C511.093 473.223 511.241 474.578 511.078 475.856C510.973 476.675 510.497 478.447 510.655 479.199C510.742 479.61 511.379 480.409 511.622 480.805L511.033 480.62L510.795 480.383C510.18 479.814 510.316 480.446 509.532 480.482C508.109 478.972 506.771 477.475 505.784 475.629C505.319 474.758 505.081 474.187 505.358 473.24L505.686 473.107C507.169 474.311 508.365 476.219 509.519 477.753C509.508 475.773 509.311 473.539 510.639 471.903Z" fill="#4BCDAD"/>
<path d="M424.15 508.755C425.754 508.952 427.084 508.45 428.597 507.999L434.256 506.229L451.17 500.733C453.775 499.86 456.311 498.806 458.967 498.087L459.125 498.217L459.173 502.034C458.623 502.765 450.702 504.916 449.087 505.475C446.956 506.212 426.642 513.675 426.428 514.235C424.734 514.442 422.922 514.345 421.212 514.371C419.493 514.163 417.568 514.355 415.828 514.374L415.44 513.466L415.407 513.21L415.915 513.278C418.865 512.772 421.722 510.431 424.15 508.755Z" fill="#080C3C"/>
<path d="M528.216 526.411L537.152 526.433L537.012 548.634C535.87 549.356 529.914 548.926 528.209 548.898L528.216 526.411Z" fill="#792F22"/>
<path d="M549.808 432.353C551.815 433.466 552.936 436.943 553.554 439.076C554.878 443.643 554.175 448.751 553.501 453.372L538.563 456.217C538.66 455.555 539.133 454.747 539.418 454.131L541.234 450.247L546.831 438.046L549.808 432.353Z" fill="#5A9250"/>
<path d="M531.947 445.571C534.107 442.667 536.484 440.096 539.11 437.616C541.29 435.558 543.676 433.456 546.553 432.454C547.594 432.091 548.778 431.883 549.808 432.353L546.831 438.046L541.234 450.247L539.418 454.131C539.133 454.747 538.66 455.555 538.563 456.217L538.267 456.656L537.422 458.084H537.253L529.99 448.087L531.947 445.571Z" fill="#51AE77"/>
<path d="M529.99 448.087L531.947 445.571C532.944 448.195 534.716 450.811 536.13 453.245C536.771 454.349 537.372 455.759 538.267 456.656L537.422 458.084H537.253L529.99 448.087Z" fill="#417E59"/>
<path d="M372.395 215.321L371.712 214.517C370.479 212.935 370.025 209.887 370.326 207.92L370.382 207.591C370.572 206.392 370.874 205.321 371.513 204.273C374.722 199.007 380.891 201.395 385.825 201.471C386.718 201.484 387.77 201.556 388.63 201.295C390.356 200.772 391.104 199.224 391.947 197.771C392.561 198.414 393.242 199.154 393.552 200.002C394.272 201.968 394.163 204.832 393.197 206.675C392.384 208.226 391.187 209.179 389.542 209.712C388.258 209.922 386.941 210.155 385.64 210.228C383.406 210.354 380.682 209.759 379.156 211.774C378.988 211.997 378.865 212.218 378.76 212.476C377.729 212.66 376.48 212.749 375.532 213.19C374.735 213.127 373.906 213.024 373.28 213.633C372.807 214.094 372.612 214.715 372.395 215.321Z" fill="#E33115"/>
<path d="M378.76 212.476C378.865 212.218 378.988 211.997 379.156 211.774C380.682 209.759 383.406 210.354 385.64 210.228C386.941 210.155 388.258 209.922 389.542 209.712L389.195 218.071C389.034 220.212 388.907 222.23 388.152 224.27C387.798 225.226 387.341 226.412 386.64 227.168C386.175 227.67 385.612 227.94 384.983 228.18C383.576 228.609 382.105 228.873 380.74 229.405C380.498 228.96 380.601 229.098 380.321 228.751C379.477 227.708 378.673 226.645 378.044 225.454C377.433 224.299 376.971 223.082 376.131 222.066L375.389 221.09C375.139 220.698 375.31 220.824 374.95 220.672L374.596 219.921C373.788 219.678 372.901 219.311 372.441 218.553C371.895 217.652 372.207 216.283 372.395 215.321C372.612 214.715 372.807 214.094 373.28 213.633C373.906 213.024 374.735 213.127 375.532 213.19C376.48 212.749 377.729 212.66 378.76 212.476Z" fill="#F6A071"/>
<path d="M385.661 222.642L386.684 222.779L386.863 223.191C386.519 223.727 386.211 223.943 385.695 224.29C385.136 224.312 384.914 224.248 384.434 223.96L384.404 223.377C384.829 222.741 384.944 222.814 385.661 222.642Z" fill="#EAFCFC"/>
<path d="M375.532 213.19C376.48 212.749 377.728 212.66 378.76 212.476C378.273 213.704 377.612 216.72 376.465 217.246C375.421 215.96 376.383 214.524 375.532 213.19Z" fill="#A74336"/>
<path d="M374.596 219.921L375.256 219.462C375.929 219.588 376.173 219.854 376.552 220.417C378.578 223.42 379.049 227.021 383.223 227.865L384.983 228.18C383.576 228.609 382.105 228.873 380.74 229.405C380.498 228.96 380.601 229.098 380.321 228.751C379.477 227.708 378.673 226.645 378.044 225.454C377.433 224.299 376.971 223.082 376.131 222.066L375.389 221.09C375.139 220.698 375.31 220.825 374.95 220.672L374.596 219.921Z" fill="#E33115"/>
<path d="M146.283 492.414L145.899 491.938C146.833 491.565 148.484 491.734 149.509 491.719C156.7 491.616 164.329 492.21 171.007 495.087C176.013 497.244 180.365 500.341 184.386 503.994L190.871 510.266C189.66 510.379 187.6 509.168 186.387 508.712L173.153 503.696L155.623 497.103L149.363 494.149C148.31 493.594 147.363 492.92 146.283 492.414Z" fill="#51AE77"/>
<path d="M413.631 521.505C416.14 521.355 418.691 521.45 421.208 521.441C422.293 521.437 423.718 521.196 424.746 521.538L423.275 521.636C422.61 523.37 422.432 525.543 422.046 527.387L419.301 540.37C418.778 542.878 418.424 545.526 417.646 547.967C414.974 549.401 410.829 548.874 407.84 548.689L408.441 548.531C409.072 547.851 409.355 544.602 409.574 543.498L413.519 522.924L413.631 521.505Z" fill="#9EA6AA"/>
<path d="M146.283 492.414C147.363 492.92 148.31 493.594 149.363 494.149L155.623 497.103L173.153 503.696L186.387 508.712C187.6 509.168 189.66 510.379 190.871 510.266C191.913 510.875 193.332 512.425 194.467 512.538L195.09 513.073L179.783 512.951L172.05 511.044C163.75 508.597 155.549 503.659 149.868 497.135C148.589 495.666 147.225 494.122 146.283 492.414Z" fill="#008175"/>
<path d="M501.862 498.327C505.581 497.649 508.887 497.761 512.048 500.093C514.867 502.173 515.619 505.467 516.011 508.766C516.213 510.469 516.28 512.36 515.773 514.01L515.543 514.736C518.361 517.106 521.35 519.447 523.572 522.409C524.204 523.219 525.092 524.17 525.126 525.243C522.724 521.329 519.17 518.399 515.74 515.419L515.539 515.678C515.297 515.994 515.125 516.325 514.938 516.675C514.218 518.021 513.462 518.855 511.962 519.298C509.75 519.95 507.555 520.063 505.51 518.858C504.557 518.297 503.827 517.407 502.884 516.899C502.467 516.256 502.58 513.377 502.54 512.504L501.862 498.327Z" fill="#417E59"/>
<path d="M515.741 515.419C514.141 513.938 512.609 512.132 510.889 510.815C508.593 509.057 505.817 507.865 503.23 506.607C503.736 504.95 504.082 503.252 504.82 501.678C505.556 502.178 506.171 503.173 506.714 503.876L511.384 510.484C512.572 512.004 514.169 513.373 515.543 514.736C518.361 517.106 521.35 519.447 523.573 522.409C524.204 523.219 525.092 524.17 525.126 525.243C522.724 521.329 519.17 518.399 515.741 515.419Z" fill="#47B098"/>
<path d="M525.385 526.402L526.504 526.398L527.12 526.503L528.216 526.411L528.209 548.898L518.844 548.859C517.804 548.855 516.124 549.11 515.242 548.579L515.187 526.366L525.385 526.402Z" fill="#E33115"/>
<path d="M529.99 448.087L537.253 458.084C537.308 460.083 535.192 463.49 534.353 465.368C532.324 469.909 529.971 474.644 528.393 479.346C526.487 477.969 524.648 476.3 523.478 474.235C521.484 470.712 520.349 466.157 521.487 462.192L521.599 461.814C523.066 456.793 526.611 452.01 529.99 448.087Z" fill="#51AE77"/>
<path d="M472.573 362.842C472.58 359.7 473.616 356.611 475.882 354.351L477.421 353.056C478.464 355.311 479.586 357.387 481.523 359.006C482.074 359.467 484.933 360.709 485.091 360.99C485.176 361.142 485.21 361.787 485.241 361.991L485.73 365.381C486.43 364.178 487.035 361.772 488.418 361.421C489.063 361.258 489.698 361.397 490.256 361.744C490.889 362.136 491.239 362.635 491.406 363.359C491.582 364.121 491.065 365.379 490.556 365.938C489.976 366.576 489.074 366.656 488.274 366.783C488.108 367.146 488.045 367.443 487.985 367.831C487.856 368.653 487.549 369.422 487.267 370.2L486.273 374.014C486.726 375.635 487.149 376.529 488.397 377.714C486.23 380.797 482.116 383.171 479.036 385.304L476.006 378.604C476.732 378.128 477.314 377.489 477.925 376.878C478.406 376.408 478.855 375.907 479.095 375.265C479.389 374.478 479.516 374.081 479.177 373.324C478.087 373.103 477.138 372.725 476.289 371.983C473.815 369.822 472.713 366.011 472.573 362.842Z" fill="#F6A071"/>
<path d="M537.422 458.084L537.552 458.965C539.36 459.034 541.176 458.599 542.946 458.268C546.237 457.652 549.651 456.872 552.998 456.737C551.791 462.071 550.044 467.439 547.272 472.179C545.958 474.426 544.298 476.679 542.07 478.093C538.871 480.121 534.982 481.169 531.218 480.291L528.982 479.572C527.198 484.484 525.776 489.254 525.427 494.503C525.294 496.501 525.502 498.548 525.32 500.532C524.96 499.786 524.598 499.06 524.345 498.27C524.846 498.09 524.639 496.5 524.65 495.945C524.76 490.155 525.672 484.518 528.393 479.346C529.971 474.644 532.324 469.909 534.353 465.368C535.192 463.49 537.308 460.083 537.253 458.084H537.422Z" fill="#5A9250"/>
<path d="M485.463 200.363C487.652 205.525 489.236 210.305 487.742 215.918C486.456 220.753 483.267 224.866 478.939 227.348C474.725 229.766 469.372 230.768 464.646 229.444L464.261 229.333C461.163 228.458 458.375 226.749 456.146 224.429C452.732 220.876 450.598 215.876 450.73 210.918C450.862 205.982 452.954 200.908 456.58 197.506C460.519 193.811 465.812 192.191 471.143 192.405C475.671 192.587 480.126 195.009 483.136 198.305C482.501 199.9 481.098 200.337 480.807 201.293C476.74 198.204 473.303 195.811 467.887 196.499C464.096 196.981 460.65 199.149 458.373 202.196C457.701 203.095 457.151 204.276 456.838 205.351C455.599 207.535 455.2 210.785 455.54 213.262C455.753 214.286 455.931 215.374 456.291 216.358C457.561 219.83 460.51 223.025 463.856 224.574C467.208 226.126 470.984 226.145 474.422 224.822C478.081 223.413 481.193 220.498 482.709 216.878C484.601 212.359 483.965 208.559 482.116 204.121L485.463 200.363Z" fill="#2C3F4E"/>
<path d="M413.519 522.924L409.574 543.498C409.355 544.602 409.072 547.851 408.441 548.531L407.84 548.69L395.439 548.593C394.797 548.127 394.288 547.636 393.761 547.044L392.279 539.065L388.909 523.141L413.519 522.924Z" fill="#EAFCFC"/>
<path d="M534.587 492.485C535.83 490.85 537.57 489.408 539.222 488.203C543.05 485.41 546.758 485.352 551.266 486.078C552.308 486.543 552.662 487.245 553.048 488.282C554.394 491.898 553.934 495.459 552.317 498.907C551.402 500.859 550.186 502.73 548.821 504.396L547.614 505.815C544.35 509.621 539.035 513.998 533.846 514.468C532.925 514.551 532.017 514.279 531.126 514.08L530.816 513.847L530.673 513.822C528.49 511.798 527.531 508.954 527.396 506.026C527.2 501.765 530.983 496.593 533.679 493.606L534.587 492.485Z" fill="#E33115"/>
<path d="M538.53 502.211C538.904 502.044 539.223 502.017 539.625 501.963C540.32 502.346 540.957 502.713 541.727 502.916L542.219 503.446L541.877 503.916C540.576 503.696 539.265 503.749 538.097 503.087L538.53 502.211Z" fill="#A74336"/>
<path d="M534.587 492.485C535.83 490.85 537.57 489.408 539.222 488.203C543.05 485.41 546.758 485.352 551.266 486.078L539.364 500.971L536.624 496.087C535.95 494.941 535.083 493.712 534.587 492.485Z" fill="#F48D1C"/>
<path d="M533.679 493.606L538.53 502.211L538.097 503.087C535.87 505.113 534.068 508.239 532.468 510.788C531.95 511.614 531.046 512.897 530.816 513.847L530.673 513.822C528.49 511.798 527.531 508.954 527.396 506.026C527.2 501.765 530.983 496.593 533.679 493.606Z" fill="#F48D1C"/>
<path d="M367.122 530.589H367.33L367.282 539.126L384.095 538.961C386.733 538.952 389.683 538.694 392.279 539.065L393.761 547.044L341.024 546.895L325.657 547.028C323.55 547.051 321.107 546.789 319.058 547.117C318.599 546.959 318.312 546.748 317.966 546.417C317.118 545.608 316.962 544.814 316.938 543.687C316.908 542.268 317.221 541.199 318.241 540.172C318.7 539.711 319.336 539.313 319.986 539.192C322.216 538.778 324.83 538.984 327.106 538.967L341.651 538.939L341.674 533.607C341.9 535.424 341.791 537.388 341.826 539.225L367.081 539.066L367.122 530.589Z" fill="url(#paint0_linear_254_832)"/>
<path d="M165.5 463.889L165.191 463.243C165.959 462.987 166.988 463.499 167.745 463.768C170.04 464.583 172.26 465.391 174.443 466.478C181.779 470.135 188.386 476.22 192.456 483.313C193.997 485.997 195.119 488.894 196.319 491.74L198.772 501.168L198.626 509.191C198.619 510.217 198.412 511.679 198.759 512.639L199.008 513.179L197.703 513.2L195.09 513.073L194.467 512.538L187.135 501.931L178.994 491.862C172.828 483.516 168.601 473.722 165.5 463.889Z" fill="#008175"/>
<path d="M165.5 463.889C166.827 464.265 168.238 466.282 169.147 467.298C172.857 471.447 176.1 475.908 179.363 480.409C182.777 485.117 186.169 489.808 189.007 494.899C191.667 499.668 194.174 504.509 196.305 509.538C196.779 510.659 197.504 511.997 197.703 513.2L195.09 513.073L194.467 512.538L187.135 501.931L178.994 491.862C172.827 483.516 168.601 473.722 165.5 463.889Z" fill="#47B098"/>
<path d="M200.108 513.218L218.855 513.231L219.074 547.563L218.938 548.567C217.837 549.056 215.092 548.664 213.792 548.665L200.095 548.712L200.108 513.218Z" fill="#E33115"/>
<path d="M456.569 205.394C457.009 204.295 457.701 203.095 458.373 202.196C460.65 199.149 464.096 196.981 467.887 196.499C473.303 195.811 476.74 198.204 480.807 201.293C481.098 200.337 482.465 199.299 483.161 198.582L483.927 198.148C484.562 198.798 485.244 199.434 485.796 200.157L485.463 200.363L482.116 204.121C483.965 208.559 484.601 212.359 482.709 216.878C481.193 220.498 478.081 223.413 474.422 224.822C470.984 226.145 467.208 226.126 463.857 224.574C460.51 223.025 457.561 219.83 456.291 216.358C455.931 215.374 455.753 214.286 455.54 213.262C455.2 210.785 455.547 207.949 456.569 205.394Z" fill="#008175"/>
<path d="M483.927 198.148C484.562 198.798 485.244 199.434 485.795 200.157L485.463 200.363L482.116 204.121L466.355 221.892C465.5 221.479 465.14 220.994 461.843 215.017C461.184 213.084 459.643 210.351 459.264 208.799C459.66 208.34 459.841 208.024 460.415 207.807L464.261 214.622L465.579 216.38L466.678 217.478L468.647 215.017L475.171 207.597C476.365 206.278 477.007 205.613 478.106 204.075L479.864 202.098C483.092 198.351 479.919 202.098 482.116 199.461C483.215 198.143 482.281 199.241 483.136 198.305L483.927 198.148Z" fill="#E33115"/>
<path d="M179.783 512.951L195.09 513.073L197.703 513.2L199.008 513.179L200.108 513.218L200.095 548.711L185.987 548.735C184.004 548.758 181.81 548.971 179.853 548.671L179.783 512.951Z" fill="#F48D1C"/>
<path d="M550.322 387.207C554.128 387.042 558.019 388.484 560.847 390.998C564.202 393.98 566.103 398.345 566.327 402.802C566.531 406.834 564.841 411.075 562.086 413.989C559.171 417.073 555.317 418.453 551.16 418.63C549.121 418.618 547.23 418.293 545.321 417.549C540.895 415.825 537.636 412.458 535.741 408.168C535.252 407.061 535.201 406.237 535.175 405.051L535.15 404.576L534.872 403.916C534.744 403.398 534.932 402.435 534.98 401.889C535.286 398.459 536.275 395.472 538.507 392.812C541.529 389.211 545.751 387.583 550.322 387.207Z" fill="#008175"/>
<path d="M390.797 238.588L390.825 238.175C390.863 237.555 390.858 237.313 390.474 236.814C390.231 236.499 389.981 236.171 389.979 235.771L389.842 235.568L389.443 234.92C389.21 234.539 388.884 234.39 388.662 234.068L388.497 233.683C388.074 233.007 387.083 232.233 386.409 231.816C385.643 231.342 385.003 231.162 384.164 230.882C383.861 230.781 383.58 230.744 383.278 230.662C381.991 230.314 383.727 230.786 382.728 230.388L382.397 230.333C381.959 230.224 381.974 230.195 381.737 229.783L382.069 229.451C382.616 229.451 382.691 229.512 383.168 229.232C383.581 228.989 383.913 228.99 384.377 229.012L384.596 228.792C385.131 228.67 385.335 228.625 385.805 228.353L386.127 228.195C386.428 228.045 386.645 227.903 386.904 227.694C387.489 227.694 387.945 227.583 388.442 227.913C389.091 227.914 390.654 227.711 391.079 228.133C391.664 228.134 392.12 228.022 392.618 228.353L393.497 228.355L393.552 229.065C393.725 228.754 393.763 228.437 394.14 228.363C394.784 228.237 395.825 228.619 396.474 228.762C401.865 229.95 406.676 232.213 411.627 234.604C415.511 236.479 419.557 238.653 423.86 239.342C426.36 239.743 428.889 239.688 431.414 239.655C433.438 239.628 435.519 239.343 437.532 239.508C438.072 239.553 438.768 239.541 439.244 239.811C438.243 240.158 438.021 240.666 437.571 241.601L431.291 254.436L408.341 254.377L400.907 269.605C400.431 266.613 399.201 263.788 398.148 260.958L394.759 251.347C393.326 247.123 392.351 242.761 390.797 238.588Z" fill="#008175"/>
<path d="M465.06 442.962L466.286 443.284C469.006 443.78 472.11 443.856 474.741 444.574C474.365 445.881 474.467 447.515 474.429 448.878C474.232 456.013 475.019 463.345 476.598 470.299C476.876 471.525 478.929 478.487 478.74 479.078C478.237 480.378 478.08 481.783 477.782 483.145L475.9 491.697L467.654 529.068L466.179 536.355C465.932 537.603 465.851 539.141 465.264 540.274L465.179 540.3L464.791 540.381L463.207 540.078L458.979 540.073C458.72 539.023 458.845 537.71 458.841 536.626L458.871 530.177L459.335 501.952L459.461 495.564L465.06 442.962Z" fill="#A8DAD8"/>
<path d="M466.286 443.284C469.006 443.78 472.11 443.856 474.74 444.574C474.365 445.881 474.467 447.515 474.429 448.878C474.232 456.013 475.019 463.345 476.597 470.299C476.876 471.525 478.929 478.487 478.74 479.077C478.236 480.378 478.08 481.783 477.782 483.145L475.9 491.697L467.654 529.068L466.179 536.355C465.932 537.603 465.851 539.141 465.264 540.274L465.179 540.3L464.791 540.381L463.207 540.078C465.17 521.707 468.904 503.431 469.022 484.901C469.083 475.135 468.132 465.198 467.294 455.474C466.945 451.432 466.335 447.341 466.286 443.284Z" fill="#88BABC"/>
<path d="M474.74 444.574C483.741 445.42 492.649 445.957 501.339 443.041L501.862 498.327L502.54 512.504C502.58 513.377 502.467 516.256 502.884 516.899L504.239 540.059L503.869 540.205L500.876 540.17L498.147 540.331L497.076 540.595L478.74 479.077C478.929 478.487 476.876 471.525 476.597 470.299C475.019 463.345 474.232 456.013 474.429 448.878C474.467 447.515 474.365 445.881 474.74 444.574Z" fill="#EAFCFC"/>
<path d="M374.95 220.672C375.31 220.825 375.139 220.698 375.389 221.09L376.131 222.066C376.971 223.082 377.433 224.299 378.044 225.454C378.673 226.645 379.477 227.708 380.321 228.751C380.601 229.098 380.498 228.96 380.74 229.405L381.834 230.59C385.568 231.645 387.661 232.659 389.6 236.125L390.797 238.588C392.351 242.761 393.326 247.123 394.759 251.347L398.148 260.958C399.201 263.788 400.431 266.613 400.907 269.605L399.55 272.646L397.483 277.355L397.308 277.374L393.657 284.186L390.944 284.304C389.659 284.563 388.368 284.474 387.075 284.622L387.149 277.43C380.228 277.527 373.22 277.669 366.36 276.606C364.379 276.299 360.926 275.917 359.725 274.211L359.59 274.011C358.604 272.593 358 270.988 357.374 269.389C355.165 263.75 353.934 257.143 353.559 251.098C353.381 248.235 353.757 245.142 353.049 242.351L352.965 242.036C353.165 240.472 353.613 238.992 354.12 237.505C354.654 236.361 355.231 235.304 355.986 234.284C359.279 229.835 364.797 228.965 369.912 228.207L372.183 228.077L372.447 228.003C373.278 227.599 374.701 221.864 374.95 220.672Z" fill="#F48D1C"/>
<path d="M387.998 261.207C388.619 262.485 388.895 263.885 389.32 265.235C389.922 267.15 390.698 269.085 391.141 271.038L387.084 270.095L387.998 261.207Z" fill="#008175"/>
<path d="M369.912 228.207L372.183 228.077C372.673 229.437 373.56 230.047 374.829 230.647C376.926 231.639 378.846 232.088 381.064 231.281C381.385 231.164 381.285 231.217 381.482 231.093C381.139 232.327 380.746 233.881 379.623 234.637C378.605 235.323 377.123 235.468 375.947 235.158L375.696 235.087C373.645 234.521 371.004 233.072 369.827 231.246C369.234 230.327 369.656 229.169 369.912 228.207Z" fill="#EAFCFC"/>
<path d="M374.95 220.672C375.31 220.825 375.139 220.698 375.389 221.09L376.131 222.066C376.971 223.082 377.433 224.299 378.044 225.454C378.673 226.645 379.477 227.708 380.321 228.751C380.601 229.098 380.498 228.96 380.74 229.405L381.834 230.59L381.482 231.093C381.285 231.217 381.385 231.164 381.064 231.281C378.846 232.088 376.926 231.639 374.829 230.647C373.56 230.047 372.672 229.437 372.183 228.077L372.447 228.003C373.278 227.599 374.701 221.864 374.95 220.672Z" fill="#F6A071"/>
<path d="M389.396 277.419C390.499 276.747 395.268 276.843 396.683 277.048C396.989 277.092 397.101 277.165 397.308 277.374L393.657 284.186L390.944 284.303C389.659 284.563 388.368 284.474 387.075 284.622L387.149 277.43C387.892 277.441 388.656 277.487 389.396 277.419Z" fill="#E33115"/>
<path d="M389.395 277.419L389.9 277.793C390.207 279.927 390.388 282.229 390.943 284.304C389.659 284.563 388.368 284.474 387.075 284.622L387.149 277.43C387.892 277.441 388.656 277.487 389.395 277.419Z" fill="#008175"/>
<path d="M363.486 240.44C363.948 240.679 364.635 244.132 364.838 244.881L367.754 255.052C368.413 257.253 369.039 259.538 369.968 261.644C370.413 262.65 370.961 263.663 371.81 264.39C373.125 265.519 374.791 266.111 376.406 266.667C379.541 267.745 382.909 268.444 385.965 269.664C384.914 269.75 383.342 269.139 382.289 268.9C377.337 267.777 372.094 266.84 367.303 265.165C366.525 263.493 366.513 260.954 366.216 259.123L363.486 240.44Z" fill="#E33115"/>
<path d="M387.998 261.207L388.432 246.445C388.519 244.471 388.332 242.407 388.584 240.454C389.71 244.555 389.255 249.086 390.283 253.184L391.846 260.326C392.695 263.91 394.107 267.725 394.044 271.421C393.449 271.729 391.832 271.235 391.142 271.038C390.698 269.085 389.922 267.15 389.32 265.235C388.895 263.885 388.619 262.485 387.998 261.207Z" fill="#E33115"/>
<path d="M476.006 378.604L479.036 385.304C482.116 383.171 486.23 380.797 488.397 377.714L488.64 377.858C490.712 379.054 493.019 379.689 495.09 380.917C501.703 384.838 504.804 392.619 506.778 399.715L507.736 403.561L507.726 403.746C508.309 407.397 508.877 411.868 507.851 415.468L507.757 415.807C507.284 417.444 506.446 419.021 504.917 419.881C503.193 420.85 500.898 420.981 498.953 420.801L503.286 442.008L501.339 443.041C492.649 445.957 483.741 445.42 474.741 444.574C472.11 443.856 469.006 443.78 466.286 443.284L465.06 442.962L465.074 441.846C465.337 441.251 465.377 440.442 465.497 439.792L466.35 434.733L466.378 434.719L468.936 419.13C467.438 419.048 466.033 418.965 464.583 418.56L461.947 423.365C461.412 422.298 461.109 420.819 460.731 419.669C460.611 419.093 460.506 418.528 460.284 417.979C457.994 417.42 455.454 417.615 453.114 417.182C452.187 417.011 451.91 416.815 451.373 416.045C451.282 415.38 451.209 414.767 451.498 414.134C452.685 411.525 457.145 414.354 459.135 413.554L459.439 413.417L459.924 413.318C460.525 412.276 460.633 410.59 460.901 409.403L463.314 399.21L463.876 395.705C464.417 392.629 465.648 389.589 466.846 386.716L467.901 384.118C469.718 380.419 472.436 379.776 476.006 378.604Z" fill="#E33115"/>
<path d="M459.439 413.417L459.924 413.318C460.525 412.276 460.633 410.59 460.901 409.403L463.314 399.21C463.619 403.203 463.996 407.25 464.768 411.184C464.891 411.81 464.98 413.087 465.357 413.52L469.359 413.511L479.655 413.561L500.084 413.415C500.154 412.574 499.838 411.598 499.679 410.767L498.566 404.93C501.666 404.496 504.689 404.635 507.726 403.746C508.309 407.397 508.877 411.868 507.851 415.468L507.757 415.807C507.284 417.444 506.446 419.021 504.917 419.881C503.193 420.85 500.898 420.981 498.953 420.801L468.936 419.13C467.438 419.048 466.033 418.965 464.583 418.56L461.947 423.365C461.412 422.298 461.109 420.819 460.731 419.669C460.611 419.093 460.506 418.528 460.284 417.979C457.994 417.42 455.454 417.615 453.114 417.182C452.187 417.011 451.91 416.815 451.373 416.045C451.282 415.38 451.209 414.767 451.498 414.134C452.685 411.525 457.145 414.354 459.135 413.554L459.439 413.417Z" fill="#F6A071"/>
<path d="M468.936 419.13L498.953 420.801L503.286 442.008L501.339 443.041C492.649 445.957 483.741 445.42 474.74 444.574C472.11 443.856 469.006 443.78 466.286 443.284L465.06 442.962L465.074 441.846C465.337 441.251 465.377 440.442 465.497 439.792L466.35 434.733L466.378 434.719L468.936 419.13Z" fill="#E33115"/>
<path d="M204.663 242.367L184.24 242.336C184.296 238.963 184.922 235.595 186.253 232.483C191.095 221.153 201.521 215.6 213.62 217.29C215.13 217.501 216.621 217.862 218.076 218.316C218.481 218.443 219.646 218.896 219.716 218.843C219.806 218.773 220.112 218.005 220.184 217.856L221.732 214.845C225.143 208.787 231.026 203.625 237.542 201.142C244.793 198.379 253.444 199.195 260.457 202.298C269.243 206.185 276.007 214.101 279.467 222.926C281.117 221.924 282.602 221.006 284.53 220.588C286.587 220.142 288.614 219.94 290.713 220.24L291.087 220.297C293.858 220.695 296.377 221.562 298.8 222.975C305.282 226.755 310.343 234.853 312.226 242.029L312.111 242.276L204.663 242.367Z" fill="#47B098"/>
<path d="M203.044 364.511C206.023 364.987 208.794 366.098 211.87 366.307C218.414 367.068 225.19 367.11 231.714 366.129L238.159 365.08L238.842 365.245L249.544 385.789L253.017 392.865C253.319 393.486 253.808 394.883 254.296 395.301L256.486 401.193C256.809 407.406 255.527 413.444 254.842 419.579C255.454 421.14 255.722 422.84 256.081 424.473L257.706 431.909L262.275 451.492L283.324 547.756L283.36 548.491C282.745 548.936 281.016 548.675 280.209 548.664C279.655 548.349 279.674 548.036 279.469 547.448L274.965 524.692L226.409 524.795L231.011 547.67L231.258 548.826L230.981 549.104C229.905 549.107 228.47 549.29 227.455 548.947L227.006 547.573C226.871 545.92 226.464 544.258 226.163 542.627L224.288 533.006L221.154 517.038L217.844 501.072C213.596 503.821 209.014 506.164 203.925 506.785C202.955 508.042 202.222 509.369 201.385 510.71C200.903 511.481 200.272 512.316 200.108 513.218L199.008 513.179L198.759 512.639C198.412 511.679 198.619 510.217 198.626 509.191L198.772 501.167L196.319 491.74C196.461 487.933 197.284 484.032 197.797 480.259L202.183 450.914L205.496 428.365L207.044 417.447L205.023 405.015C204.847 403.735 204.612 402.576 204.215 401.344L201.632 395.234C199.373 390.964 196.641 386.635 195.625 381.863C194.984 378.847 195.258 375.45 195.339 372.371L196.918 373.925C197.27 373.781 197.384 373.706 197.683 373.44L198.351 372.522C200.378 370.286 202.336 370.12 205.036 369.404L205.355 369.317L203.044 364.511Z" fill="#F48D1C"/>
<path d="M206.14 451.769L207.571 442.078L209.235 452.433L208.78 452.656C207.862 452.439 207.014 452.116 206.14 451.769Z" fill="#008175"/>
<path d="M250.607 448.391C251.616 447.059 251.527 443.65 251.74 441.986L253.227 431.163C253.364 430.042 253.208 428.661 253.861 427.707L256.466 439.353C257.165 442.321 258.099 445.547 258.402 448.572L250.607 448.391Z" fill="#008175"/>
<path d="M198.772 501.167C199.261 499.269 199.424 497.211 199.709 495.27L201.244 484.916L206.14 451.769C207.014 452.116 207.862 452.439 208.78 452.656L209.235 452.433L213.57 477.354L215.439 487.793L216.29 492.124L217.844 501.072C213.596 503.821 209.014 506.164 203.925 506.785C202.955 508.042 202.222 509.369 201.385 510.71C200.903 511.481 200.272 512.316 200.108 513.218L199.008 513.179L198.759 512.639C198.412 511.679 198.619 510.217 198.626 509.191L198.772 501.167Z" fill="#2C3F4E"/>
<path d="M213.57 477.354L215.439 487.793L216.29 492.124L217.844 501.072C213.596 503.821 209.014 506.164 203.925 506.785C202.955 508.042 202.222 509.369 201.385 510.71C200.903 511.481 200.272 512.316 200.108 513.218L199.008 513.179L198.759 512.639C200.176 510.46 201.131 508.023 202.081 505.613C202.94 503.434 203.773 501.388 204.388 499.12C205.028 496.765 205.432 494.353 206.134 492.013C207.626 487.038 210.184 481.327 213.57 477.354Z" fill="#51AE77"/>
<path d="M216.29 492.124C214.902 493.064 213.809 494.552 212.703 495.801L204.267 505.745L203.951 505.766L203.749 504.661C203.607 502.47 205.287 500.661 206.462 498.948C209.223 494.925 212.047 491.318 215.439 487.793L216.29 492.124Z" fill="#4BCDAD"/>
<path d="M235.703 478.03L265.046 478.2L269.681 500.046L221.797 500.053L221.207 496.841C225.84 493.231 229.544 488.559 232.541 483.53C233.596 481.76 234.453 479.65 235.703 478.03Z" fill="#2C3F4E"/>
<path d="M222.057 501.876L270.12 501.883L274.679 522.86L226.167 522.864L222.057 501.876Z" fill="#2C3F4E"/>
<path d="M215.903 447.432C217.226 447.445 220.624 447.099 221.629 447.808L221.454 448.636C222.008 448.686 222.687 448.817 223.234 448.772C224.35 448.436 225.892 448.575 227.068 448.548C230.868 448.46 234.82 448.712 238.593 448.352L238.465 447.763L243.424 447.726C245.185 447.724 246.852 447.671 248.577 448.082L250.417 448.452L250.607 448.391L258.402 448.572L258.859 448.851L258.98 450.062C258.928 451.696 259.643 453.187 259.649 454.785L259.923 455.917C260.888 457.967 261.112 460.849 261.602 463.096L264.469 476.28L236.516 476.398L235.703 478.03C234.453 479.65 233.596 481.76 232.541 483.53C229.544 488.559 225.84 493.231 221.207 496.841L219.158 486.274L217.368 477.06L213.76 457.488C213.215 457.423 213.109 457.429 212.687 457.09L212.647 454.8C212.315 452.434 211.749 449.89 211.859 447.503L215.903 447.432Z" fill="#2C3F4E"/>
<path d="M238.593 448.352L238.75 450.556C238.614 450.432 238.513 450.254 238.344 450.184C237.859 449.984 236.018 450.174 235.385 450.173L223.567 450.203L223.234 448.772C224.35 448.436 225.892 448.575 227.068 448.548C230.868 448.46 234.82 448.712 238.593 448.352Z" fill="#E33115"/>
<path d="M225.429 454.774C226.967 454.828 228.533 454.82 230.047 455.113C230.553 455.546 230.825 455.942 230.855 456.651C230.869 456.962 230.825 457.088 230.762 457.369C229.193 457.645 227.412 457.49 225.811 457.49L213.76 457.488C213.215 457.423 213.109 457.429 212.687 457.09L212.647 454.8L225.429 454.774Z" fill="#EAFCFC"/>
<path d="M215.903 447.432C217.226 447.445 220.624 447.099 221.629 447.808L221.454 448.636L219.165 451.072L220.508 453.137C219.88 453.185 219.777 453.246 219.537 452.599L219.334 451.988L218.894 451.694C218.329 451.956 218.28 452.059 217.931 452.586C218.191 453.076 218.444 453.5 219.004 453.691C219.253 453.776 219.559 453.763 219.814 453.794L221.247 454.014L221.642 454.581C222.256 454.61 222.818 454.684 223.398 454.434L222.934 454.212L224.389 452.96C224.927 453.302 224.998 453.567 225.287 454.124L225.158 454.383L224.171 454.454C224.59 454.701 224.952 454.723 225.429 454.774L212.647 454.8C212.315 452.434 211.749 449.89 211.859 447.503L215.903 447.432Z" fill="#F6A071"/>
<path d="M248.492 454.291L249.478 454.234L249.659 454.388C250.864 455.152 257.726 454.705 259.649 454.785L259.923 455.917L259.737 456.379C259.143 456.817 258.549 457.188 257.812 457.332C255.705 457.742 253.162 457.533 251.01 457.545L238.571 457.529L238.642 454.516C241.865 454.531 245.305 454.76 248.492 454.291Z" fill="#EAFCFC"/>
<path d="M243.424 447.727C245.185 447.724 246.852 447.671 248.577 448.082L250.417 448.452L250.607 448.391L258.402 448.572L258.859 448.851L258.98 450.062C258.928 451.697 259.643 453.187 259.649 454.785C257.726 454.705 250.864 455.152 249.659 454.388L249.478 454.234L248.492 454.291C245.305 454.76 241.865 454.531 238.642 454.516C238.874 453.294 238.737 451.812 238.75 450.556L238.593 448.352L238.465 447.763L243.424 447.727Z" fill="#2C3F4E"/>
<path d="M250.607 448.391L258.402 448.572L258.859 448.851L258.98 450.062L252.36 450.158C251.402 449.531 250.684 449.194 249.546 448.962L249.277 448.909L250.417 448.452L250.607 448.391Z" fill="#E33115"/>
<path d="M243.424 447.727C245.185 447.724 246.852 447.671 248.577 448.082L250.417 448.452L249.277 448.909C248.452 449.042 248.066 449.227 247.502 449.878C247.367 450.035 247.342 450.111 247.263 450.279L247.47 450.47C247.774 450.764 247.664 450.642 247.903 451.03C247.524 450.994 247.175 450.925 246.804 450.837L246.243 451.487L246.365 451.962C247.16 452.176 247.746 452.167 248.3 452.806L248.013 452.977L246.365 452.358L246.299 452.789C247.042 453.261 248.081 453.473 248.492 454.291C245.305 454.76 241.865 454.531 238.642 454.516C238.874 453.294 238.737 451.812 238.75 450.556L238.593 448.352L238.465 447.763L243.424 447.727Z" fill="#F6A071"/>
<path d="M217.368 477.06L220.695 474.728C225.794 471.458 231.151 469.24 236.96 467.582C237.907 467.312 239.249 466.722 240.212 466.931C240.184 467.186 240.139 467.395 240.037 467.632L239.759 468.235L236.516 476.398L235.703 478.03C234.453 479.65 233.596 481.76 232.541 483.531C229.544 488.559 225.84 493.231 221.207 496.841L219.158 486.274L217.368 477.06Z" fill="#4BCDAD"/>
<path d="M217.368 477.06L220.695 474.728C225.794 471.458 231.151 469.24 236.96 467.582C237.907 467.312 239.249 466.722 240.212 466.931C240.184 467.186 240.139 467.395 240.037 467.632L239.759 468.235C238.099 468.496 235.807 470.814 234.486 471.902C229.082 476.352 223.688 480.906 219.158 486.274L217.368 477.06Z" fill="#51AE77"/>
<path d="M203.044 364.511C206.023 364.987 208.794 366.098 211.87 366.307C218.414 367.068 225.19 367.11 231.714 366.129L238.159 365.08L238.842 365.245L249.544 385.789L253.017 392.865C253.319 393.486 253.808 394.883 254.296 395.301L256.486 401.193C256.809 407.406 255.527 413.444 254.842 419.579C254.406 421.913 253.355 425.451 253.861 427.707C253.208 428.661 253.364 430.042 253.227 431.163L251.739 441.985C251.527 443.65 251.616 447.059 250.607 448.391L250.417 448.452L248.577 448.082C246.852 447.671 245.185 447.724 243.424 447.726L238.465 447.763L238.593 448.352C234.82 448.712 230.868 448.46 227.068 448.548C225.892 448.575 224.35 448.436 223.234 448.772C222.687 448.817 222.008 448.686 221.454 448.636L221.629 447.808C220.624 447.099 217.226 447.445 215.903 447.432L211.859 447.503C211.957 446.226 211.602 444.709 211.429 443.437L209.729 432.922C208.89 427.832 208.459 422.4 207.044 417.447L205.023 405.015C204.847 403.735 204.612 402.576 204.215 401.344L201.632 395.234C199.373 390.964 196.641 386.635 195.625 381.863C194.984 378.847 195.258 375.45 195.339 372.371L196.918 373.925C197.27 373.781 197.384 373.706 197.683 373.44L198.351 372.522C200.378 370.286 202.336 370.12 205.036 369.404L205.355 369.317L203.044 364.511Z" fill="#2C3F4E"/>
<path d="M222.77 391.094C227.263 393.517 232.017 397.264 235.317 401.168L225.051 401.394L223.74 395.536C223.39 394.086 222.868 392.582 222.77 391.094Z" fill="#008175"/>
<path d="M205.355 369.318C206.991 372.223 208.139 374.284 208.545 377.651C208.646 378.484 208.763 379.511 208.437 380.317C208.237 380.811 207.597 381.408 207.088 381.557C206.021 381.87 204.651 380.938 203.849 380.342C202.158 379.085 200.739 377.21 199.434 375.559C198.931 374.923 198.353 373.871 197.683 373.44L198.351 372.522C200.378 370.286 202.336 370.12 205.036 369.405L205.355 369.318Z" fill="#F6A071"/>
<path d="M229.197 427.259L237.235 427.315L237.798 438.132C237.912 441.035 237.528 445.043 238.465 447.763L238.593 448.352C234.82 448.712 230.868 448.46 227.068 448.548C225.892 448.575 224.35 448.436 223.234 448.772C222.687 448.817 222.008 448.686 221.454 448.636L221.629 447.808L222.481 447.422C223.293 446.487 223.252 444.57 223.407 443.374C224.095 438.067 224.353 432.646 224.582 427.301L229.197 427.259Z" fill="#008175"/>
<path d="M235.317 401.168C235.877 401.564 236.459 401.875 236.59 402.598C236.739 403.42 236.763 404.561 236.644 405.387L237.171 425.349L237.235 427.315L229.197 427.259C227.918 427.136 225.889 427.522 224.76 426.988C224.714 426.355 224.708 425.922 224.924 425.307C224.749 425.02 224.769 424.802 224.775 424.461C224.807 422.624 225.128 420.726 225.24 418.881L225.485 405.347L225.051 401.394L235.317 401.168Z" fill="#008175"/>
<path d="M224.924 425.307L237.171 425.349L237.235 427.315L229.197 427.258C227.918 427.136 225.889 427.522 224.76 426.988C224.714 426.355 224.708 425.922 224.924 425.307Z" fill="#E33115"/>
<path d="M235.317 401.168C235.877 401.564 236.459 401.875 236.59 402.598C236.739 403.42 236.763 404.561 236.644 405.387L225.485 405.347L225.051 401.394L235.317 401.168Z" fill="#F48D1C"/>
<path d="M440.6 240.848C441.457 240.244 442.05 238.496 442.567 237.57C443.374 236.125 444.236 234.747 445.239 233.428C447.616 230.304 450.343 227.911 453.504 225.638C454.398 226.805 455.601 227.981 456.756 228.891C459.252 230.858 461.805 232.128 464.873 232.944C469.282 234.118 475.292 233.313 479.252 230.999C480.507 230.266 481.974 228.852 483.277 228.358C483.556 228.252 484.529 228.397 484.856 228.413C487.195 228.524 489.52 229.012 491.769 229.65L496.736 231.315C497.392 231.566 498.596 232.198 499.274 232.155L500.392 232.135C501.181 231.761 501.014 233.978 501.84 233.827L499.863 233.958L500.444 232.155C500.001 232.442 499.028 232.701 498.544 232.859C498.186 232.977 499.833 232.145 500.734 232.135L504.803 235.113C508.716 234.062 512.164 234.166 515.776 236.261C519.184 238.238 521.437 241.673 522.406 245.44C523.338 249.059 522.867 252.684 520.928 255.905L520.371 256.791C520.28 258.545 519.422 262.526 519.549 264.194L517.004 266.697L515.686 264.28C516.383 264.097 517.258 267.739 517.663 267.137C517.26 267.54 517.971 266.68 517.663 267.137C514.011 270.118 512.814 265.211 513.048 264.72L513.708 264.061C513.898 264.348 513.78 265.332 513.708 265.599C513.536 266.228 515.812 263.045 515.466 263.621C514.869 264.614 515.153 267.026 514.147 267.576C513.844 267.742 519.88 264.083 519.549 264.194C518.333 275.875 516.864 287.174 518.906 298.893C519.987 305.1 521.517 311.293 523.487 317.276C526.429 326.213 530.312 334.861 532.512 344.035C534.006 350.268 534.481 356.549 534.187 362.94C533.893 369.324 532.565 375.774 529.927 381.612C527.201 387.644 522.965 393.946 517.805 398.167L517.004 398.79C515.546 399.912 513.68 401.54 511.754 401.382C512.287 400.923 512.862 400.452 513.292 399.893C514.158 398.768 514.739 397.211 515.193 395.872C516.27 392.694 517.082 389.127 516.659 385.752L516.605 385.35L516.559 384.985C516.342 383.395 515.541 381.435 514.292 380.397C512.514 378.918 510.125 378.26 508.269 376.818C506.855 375.719 505.656 374.007 505.612 372.16C505.569 370.357 506.156 368.611 505.884 366.804L505.825 366.453C505.567 364.837 504.957 363.432 503.813 362.236C501.34 359.649 497.954 359.343 494.59 359.203C494.606 356.493 494.587 353.738 492.731 351.544C491.039 349.544 488.543 348.828 486.019 348.672C482.566 348.458 477.118 348.603 474.423 351.116C471.124 354.192 472.316 358.948 472.258 362.941C472.203 364.788 472.018 366.77 472.224 368.605C472.479 370.874 473.654 373.787 473.33 376.011C473.237 376.648 472.751 377.234 472.286 377.659C471.317 378.546 470.197 379.256 469.206 380.118C466.946 382.083 464.294 385.421 463.783 388.426L463.728 388.726C463.359 390.976 463.886 393.424 463.876 395.705L463.314 399.21L460.901 409.403C460.633 410.591 460.525 412.276 459.924 413.318L459.439 413.417C458.421 411.302 457.91 408.772 457.272 406.513L454.637 397.508C454.111 395.642 453.483 391.575 452.046 390.236C451.63 389.849 451.142 389.635 450.584 389.54C449.705 389.389 448.507 389.745 447.636 389.916C445.526 390.331 443.306 390.924 441.162 391.035L440.759 391.051C441.042 392.199 441.396 393.365 441.539 394.539C438.515 395.292 435.051 395.868 431.932 395.967L431.728 392.345C430.902 392.103 429.892 392.47 429.052 392.642L424.949 393.257C424.916 387.415 424.593 344.082 426.294 341.59C426.5 342.064 426.68 342.575 426.953 343.014L428.479 342.818C428.842 342.895 429.518 342.685 429.896 342.605C431.608 342.243 433.27 341.58 434.907 340.975C435.495 339.123 430.035 317.21 429.117 313.862L429.101 313.713L428.989 312.806C428.417 309.7 427.513 306.51 426.571 303.494C426.134 302.093 425.727 300.46 424.911 299.227C424.214 298.174 423.07 297.143 422.01 296.463L421.71 296.276C419.116 294.62 416.256 293.333 413.407 292.188C412.12 291.671 410.77 291.302 409.517 290.706L409.349 290.624C407.182 289.941 404.89 289.846 402.742 289.105L401.489 288.916C400.047 288.333 398.248 288.128 396.724 287.753C393.558 286.976 390.28 285.907 387.039 285.535L387.074 284.622C388.368 284.474 389.659 284.563 390.944 284.304L393.657 284.186L397.308 277.374L397.483 277.355L399.55 272.646L400.907 269.605L408.341 254.377L431.291 254.436L437.571 241.601C438.021 240.666 438.243 240.158 439.244 239.811C439.735 240.131 440.173 240.44 440.6 240.848Z" fill="#008175"/>
<path d="M452.966 351.686C452.951 352.391 453.083 352.848 452.525 353.379C451.522 354.333 449.341 354.726 448.027 354.916C447.841 354.943 446.595 355.035 446.509 355.112C446.5 355.12 446.418 355.545 446.413 355.577L446.35 356.144L446.069 356.236C445.952 355.889 445.936 355.68 445.975 355.317C445.394 355.239 445.067 355.241 444.484 355.391L443.425 355.577L443.054 356.259L442.704 356.236L442.175 355.611C441.718 355.699 441.451 355.761 441.034 355.961C440.133 356.392 438.875 356.426 437.889 356.583C435.375 356.984 432.08 357.974 429.603 357.173L429.495 356.572L442.441 354.613C446.145 354.037 449.639 353.495 452.966 351.686Z" fill="#EAFCFC"/>
<path d="M432.998 392.099L432.43 389.415C432.314 388.585 432.228 387.341 432.765 386.671C433.216 386.109 433.283 386.117 434.006 386.02C433.509 388.039 433.699 389.469 434.55 391.341C435.914 391.361 437.38 391.087 438.74 390.933C439.4 390.936 440.124 390.875 440.759 391.051C441.042 392.199 441.396 393.365 441.539 394.539C438.515 395.292 435.051 395.868 431.932 395.967L431.728 392.345C432.146 392.326 432.588 392.187 432.998 392.099Z" fill="#2C3F4E"/>
<path d="M428.479 342.818C428.842 342.894 429.518 342.685 429.896 342.605C431.608 342.243 433.27 341.58 434.907 340.974C435.12 343.068 435.98 345.057 436.415 347.112C436.302 348.049 436.289 348.056 435.555 348.625C434.563 349.395 431.852 350.346 430.643 350.18C430.244 350.125 430.324 350.134 429.985 349.989C428.758 347.731 427.865 345.412 426.953 343.014L428.479 342.818Z" fill="#F48D1C"/>
<path d="M436.415 347.112L436.68 347.807L436.893 347.795C439.532 347.674 450.111 348.289 451.978 350.091C452.406 350.504 452.693 351.161 452.966 351.686C449.639 353.495 446.145 354.037 442.441 354.613L429.495 356.572L429.985 349.989C430.324 350.134 430.244 350.125 430.643 350.18C431.852 350.346 434.563 349.395 435.555 348.625C436.289 348.056 436.302 348.049 436.415 347.112Z" fill="#E33115"/>
<path d="M504.803 235.113C508.716 234.062 512.164 234.166 515.776 236.261C519.184 238.238 521.437 241.673 522.406 245.44C523.338 249.059 522.867 252.684 520.928 255.905L520.371 256.791C519.225 258.135 517.959 259.408 516.43 260.312C513.412 262.096 509.405 262.667 506.013 261.75C502.339 260.757 499.093 258.353 497.233 255.017C495.634 252.148 494.858 248.293 495.761 245.093L495.87 244.725L496.382 243.077C497.98 239.162 500.95 236.667 504.803 235.113Z" fill="#EAFCFC"/>
<path d="M512.732 241.884L512.92 241.88C513.605 241.839 514.239 241.742 514.896 242.01C515.732 242.352 516.545 243.123 516.878 243.968C517.629 245.878 516.927 248.195 516.071 249.951C514.774 252.615 512.386 255.135 509.55 256.106C507.892 255.725 506.417 254.941 505.005 254.017C504.504 253.634 504.059 253.208 503.615 252.759C502.171 251.299 500.961 249.368 501.042 247.235C501.088 246.023 501.665 244.854 502.596 244.075C503.279 243.503 504.119 243.26 505.002 243.35C506.786 243.53 507.902 245.005 508.977 246.277C509.893 244.072 510.69 243.078 512.732 241.884Z" fill="#F48D1C"/>
<path d="M400.907 269.605L408.341 254.377L431.291 254.436L437.571 241.601C438.021 240.666 438.243 240.158 439.244 239.811C439.735 240.131 440.173 240.44 440.6 240.848L417.928 284.244L413.859 284.225L415.803 284.402C414.384 284.707 413.066 284.98 411.737 285.601C410.531 286.165 409.471 286.936 408.213 287.407C406.426 288.074 404.494 288.411 402.742 289.105L401.489 288.916C400.047 288.333 398.248 288.128 396.724 287.753C393.558 286.976 390.28 285.907 387.039 285.535L387.074 284.622C388.368 284.474 389.659 284.563 390.944 284.304L393.657 284.186L397.308 277.374L397.483 277.355L399.55 272.646L400.907 269.605Z" fill="#EAFCFC"/>
<path d="M399.55 272.646C402.076 272.637 405.219 272.3 407.657 272.829C409.922 272.989 412.235 273.373 414.295 274.365L404.507 273.729L404.782 273.896C406.195 274.696 409.221 274.864 410.885 275.057C412.087 275.198 413.556 275.04 414.274 276.146C413.808 276.782 413.035 276.906 412.317 277.134L412.531 277.248C412.922 277.459 413.495 277.685 413.656 278.098C411.685 279.121 400.287 277.431 397.483 277.355L399.55 272.646Z" fill="#C9AFA8"/>
<path d="M393.657 284.186L413.859 284.225L415.803 284.402C414.384 284.707 413.066 284.98 411.737 285.601C410.531 286.165 409.471 286.936 408.213 287.407C406.426 288.074 404.494 288.411 402.742 289.105L401.489 288.916C400.047 288.333 398.248 288.128 396.724 287.753C393.558 286.976 390.28 285.907 387.039 285.535L387.074 284.622C388.368 284.474 389.659 284.563 390.944 284.304L393.657 284.186Z" fill="#2C3F4E"/>
<path d="M312.226 242.029C313.132 240.687 314.128 239.546 315.293 238.418C323.531 230.44 335.562 226.547 346.851 226.705C348.469 228.543 349.998 230.45 351.251 232.56C352.187 234.135 352.934 235.832 353.993 237.329L354.12 237.505C353.613 238.992 353.165 240.472 352.965 242.036L353.049 242.351C353.757 245.142 353.381 248.235 353.559 251.098C353.934 257.143 355.165 263.75 357.374 269.389C358 270.988 358.604 272.593 359.59 274.011L359.725 274.211C360.926 275.917 364.379 276.299 366.36 276.606C373.22 277.669 380.228 277.527 387.149 277.43L387.075 284.622L387.039 285.535C390.28 285.907 393.558 286.976 396.724 287.753C398.248 288.128 400.047 288.333 401.489 288.916L402.742 289.105C404.89 289.846 407.182 289.941 409.349 290.624L409.517 290.706C410.77 291.302 412.12 291.671 413.407 292.188C416.257 293.333 419.117 294.62 421.71 296.276L422.01 296.463C423.07 297.143 424.214 298.174 424.911 299.227C425.727 300.46 426.134 302.093 426.571 303.494C427.513 306.51 428.417 309.7 428.989 312.806L429.101 313.713L429.117 313.862C430.035 317.21 435.495 339.123 434.907 340.975C433.27 341.58 431.608 342.243 429.896 342.605C429.518 342.685 428.842 342.894 428.479 342.818L426.953 343.014C426.68 342.575 426.5 342.064 426.294 341.59L422.338 331.107C421.679 329.392 421.055 326.981 419.914 325.552C419.895 324.237 418.851 322.367 418.372 321.102L415.608 313.291C414.633 313.864 413.363 317.073 412.76 318.205L407.564 327.565C406.587 329.361 405.722 331.433 404.546 333.081C403.379 332.222 401.984 331.618 400.678 331.002C399.805 330.578 398.958 330.227 398.031 329.936C398.68 328.444 398.993 326.523 399.386 324.927C397.523 324.528 394.961 324.845 393.035 324.853L379.421 324.876L317.342 324.858L288.904 324.773L288.957 327.992C287.459 328.395 285.977 329.157 284.545 329.761C284.197 329.269 284.356 325.778 284.295 324.904L284.064 325.132C283.008 326.186 282.247 327.373 281.401 328.592C281.129 328.984 280.491 329.975 280.107 330.214C279.48 330.603 278.243 330.884 277.514 331.061C278.917 333.735 278.48 336.759 280.929 338.962C278.708 340.579 276.257 341.964 273.881 343.347C266.88 347.425 259.563 350.829 251.413 351.677C250.413 351.781 249.127 352.038 248.141 351.947C247.621 351.899 247.005 351.503 246.561 351.227C243.843 349.535 242.934 346.646 240.926 344.375L238.711 364.805L238.159 365.08L231.714 366.129C225.19 367.11 218.414 367.068 211.87 366.307C208.794 366.098 206.023 364.987 203.044 364.511L205.355 369.317L205.036 369.405C202.336 370.12 200.378 370.286 198.351 372.522L197.683 373.44C197.384 373.706 197.27 373.781 196.918 373.925L195.339 372.371C195.258 375.45 194.984 378.847 195.625 381.863C196.641 386.635 199.373 390.964 201.632 395.234L204.215 401.344C204.612 402.576 204.847 403.735 205.023 405.015L207.044 417.447L205.496 428.365L202.183 450.914L194.017 446.855C190.603 444.944 187.373 442.6 184.268 440.223C179.668 436.701 175.765 433.339 171.999 428.906C167.955 423.852 164.841 418.149 162.221 412.245C160.718 408.857 159.306 405.439 158.329 401.857L156.769 395.249C153.198 378.448 155.523 360.293 162.774 344.785L161.426 344.502C158.987 343.895 156.394 342.468 155.128 340.198L154.985 339.93C154.564 339.155 154.2 338.427 153.969 337.572L153.882 337.238C153.142 334.537 153.533 331.905 154.851 329.44C156.104 327.097 158.116 325.305 160.686 324.533L160.987 324.446C162.44 324.002 164.227 323.849 165.726 324.189L166.041 324.267C169.079 324.991 171.034 326.524 173.02 328.892C178.677 321.679 184.923 315.368 188.787 306.898C191.95 299.964 193.123 292.668 194.601 285.264C195.501 280.76 196.568 276.186 198.122 271.861C202.213 260.479 209.641 250.332 218.786 242.489L204.663 242.367L312.111 242.276L312.226 242.029Z" fill="#008175"/>
<path d="M201.508 401.707L204.215 401.344C204.612 402.576 204.846 403.735 205.022 405.015C203.704 404.963 202.623 404.795 201.533 404.014C201.166 403.261 201.384 402.498 201.508 401.707Z" fill="#F6A071"/>
<path d="M163.062 331.846C163.503 331.812 164.052 331.822 164.475 331.971C165.229 332.239 165.674 332.615 165.821 333.494C166.041 334.812 166.48 335.252 165.162 336.351C164.726 336.573 163.624 337.229 163.074 336.573C162.527 336.099 162.15 335.662 161.82 335.01C161.437 334.253 161.355 333.636 161.608 332.835C162.089 332.21 162.308 332.078 163.062 331.846Z" fill="#EAFCFC"/>
<path d="M356.089 290.937C355.632 290.886 355.326 290.852 354.928 290.611C354.595 288.872 354.625 286.967 354.501 285.196L353.75 274.06L352.548 253.814C352.441 249.894 352.361 245.922 352.965 242.036L353.049 242.351C353.757 245.142 353.381 248.234 353.559 251.098C353.934 257.143 355.165 263.75 357.374 269.389C358 270.988 358.604 272.593 359.59 274.011L359.725 274.211C360.926 275.917 364.379 276.299 366.36 276.606C373.22 277.669 380.228 277.527 387.149 277.43L387.075 284.622L387.039 285.535C376.812 287.695 366.577 290.553 356.089 290.937Z" fill="#E33115"/>
<path d="M215.887 293.322C212.486 291.034 209.467 287.628 208.416 283.616C208.13 282.524 208.014 281.611 208.008 280.482C207.989 277.387 209.361 274.833 211.515 272.679C214.818 269.378 217.956 269.502 222.301 269.481C227.122 269.458 230.188 268.066 233.542 264.662C234.51 266.772 234.67 269.769 234.428 272.044C234.236 273.856 233.508 276.219 231.99 277.352L231.72 277.54L231.829 278.497L233.89 288.392C234.768 289.26 234.659 292.197 234.666 293.387C234.677 295.523 234.365 297.841 232.74 299.4C231.465 300.621 229.705 301.06 227.982 300.944C226.291 300.829 224.636 300.293 223.023 299.804C223.456 300.429 223.945 301.055 224.282 301.737C223.032 301.702 221.205 301.725 220.097 301.11L219.883 300.983C218.875 300.397 218.037 299.543 217.181 298.758C216.945 298.541 216.572 298.079 216.314 297.959C216.039 297.832 215.323 297.849 214.993 297.812C215.018 296.156 214.749 294.646 215.887 293.322Z" fill="#2C3F4E"/>
<path d="M229.744 292.295C230.128 292.231 229.908 292.245 230.403 292.295C230.202 292.792 230.059 293.183 229.625 293.52C228.771 294.183 227.996 293.986 227.005 293.833C226.602 293.747 226.42 293.668 226.112 293.394C227.269 293.118 228.379 292.838 229.488 292.399L229.744 292.295Z" fill="#F6A071"/>
<path d="M214.935 283.287C215.226 283.209 215.447 283.189 215.75 283.266C216.584 283.481 217.203 284.296 217.547 285.044C217.879 285.77 217.939 286.57 217.615 287.314C217.28 288.084 217.002 288.25 216.257 288.582C215.961 288.55 215.921 288.556 215.598 288.463C214.516 288.155 213.717 287.342 213.145 286.419C213.055 285.824 212.974 285.272 213.212 284.699C213.545 283.897 214.176 283.606 214.935 283.287Z" fill="#F6A071"/>
<path d="M215.887 293.322L216 293.19C216.358 292.714 216.595 292.1 216.855 291.565C217.943 294.309 219.796 298.286 222.626 299.666L223.023 299.804C223.456 300.429 223.945 301.055 224.282 301.737C223.032 301.702 221.205 301.725 220.097 301.11L219.883 300.983C218.875 300.397 218.037 299.543 217.181 298.758C216.945 298.541 216.572 298.079 216.314 297.959C216.039 297.832 215.323 297.849 214.993 297.812C215.018 296.156 214.749 294.646 215.887 293.322Z" fill="#F48D1C"/>
<path d="M233.89 288.392L233.639 288.331C233.109 288.187 231.758 287.839 231.356 287.524C231.191 287.394 231.189 287.138 231.108 286.944C230.559 285.637 230.25 284.362 229.529 283.117C229.489 284.64 229.749 286.05 230.028 287.542C228.35 288.291 223.942 291.184 222.238 290.606C221.55 290.372 220.729 289.551 220.351 288.939C219.794 288.037 219.633 286.794 219.409 285.768C218.924 283.542 217.896 280.192 218.634 277.952C218.849 277.3 219.331 276.584 219.993 276.33C221.38 275.798 224.525 277.483 226.049 277.793C227.089 278.005 228.498 277.837 229.553 277.691C230.266 277.591 231.038 277.225 231.72 277.54L231.829 278.497L233.89 288.392Z" fill="#F6A071"/>
<path d="M400.678 331.002C400.872 328.716 401.995 325.988 402.706 323.796L408.876 306.005L379.112 302.656C374.711 302.133 369.766 301.855 365.579 300.341C363.538 299.603 362.105 298.445 360.505 297.031L368.734 293.353C373.637 291.182 378.77 288.928 384.006 287.715C385.989 287.256 388.235 287.217 390.25 287.517C392.001 287.777 400.019 289.663 401.177 289.092L401.489 288.916L402.742 289.105C404.89 289.846 407.182 289.941 409.349 290.624L409.517 290.706C410.77 291.302 412.12 291.671 413.407 292.188C416.257 293.333 419.117 294.62 421.71 296.276L422.01 296.463C423.07 297.143 424.214 298.174 424.911 299.227C425.727 300.46 426.134 302.093 426.571 303.494C427.513 306.51 428.417 309.7 428.989 312.806L429.101 313.713L429.117 313.862C430.035 317.21 435.495 339.123 434.907 340.975C433.27 341.58 431.608 342.243 429.896 342.605C429.518 342.685 428.842 342.895 428.479 342.818L426.953 343.014C426.68 342.575 426.5 342.064 426.294 341.59L422.338 331.108C421.679 329.392 421.055 326.981 419.914 325.552C419.895 324.237 418.851 322.367 418.372 321.102L415.608 313.291C414.633 313.864 413.363 317.073 412.76 318.205L407.564 327.566C406.587 329.361 405.722 331.433 404.546 333.081C403.379 332.222 401.984 331.618 400.678 331.002Z" fill="#47B098"/>
<path d="M415.608 313.291C415.664 312.037 416.568 310.868 417.137 309.775C417.453 309.168 417.75 308.364 418.218 307.867L423.484 327.732L426.809 337.821C427.251 339.077 428.616 341.63 428.479 342.818L426.953 343.014C426.68 342.575 426.5 342.064 426.294 341.59L422.338 331.107C421.679 329.392 421.055 326.981 419.914 325.552C419.895 324.237 418.851 322.367 418.371 321.102L415.608 313.291Z" fill="url(#paint1_linear_254_832)"/>
<path d="M366.568 305.123L404.816 307.288C404.76 308.161 404.293 308.916 404.168 309.761C402.481 314.566 400.491 319.709 399.551 324.713L338.903 324.7L324.018 324.704C321.961 324.706 319.326 324.412 317.342 324.858L288.904 324.773L288.956 327.992C287.459 328.395 285.977 329.157 284.544 329.761C284.197 329.269 284.356 325.778 284.295 324.904L284.267 317.927C284.267 314.767 283.832 311.508 285.787 308.794C286.884 307.27 288.709 305.887 290.607 305.589L290.867 305.552C293.25 305.193 295.806 305.344 298.219 305.337L310.467 305.327L345.955 305.318C352.785 305.316 359.754 305.568 366.568 305.123Z" fill="#2C3F4E"/>
<path d="M317.852 314.488L318.143 314.441C318.718 314.406 318.994 314.583 319.428 314.927C319.683 315.43 319.833 315.891 319.696 316.465C319.533 317.147 319.211 317.279 318.667 317.632C318.224 317.637 317.986 317.584 317.568 317.464C316.84 316.7 316.866 316.648 316.795 315.586C317.076 314.989 317.319 314.835 317.852 314.488Z" fill="#008175"/>
<path d="M294.763 314.048C294.931 314.016 295.096 313.974 295.269 313.993C295.897 314.063 296.445 314.384 296.785 314.927C297.166 315.536 297.285 316.343 297.007 317.015C296.725 317.695 296.201 317.866 295.592 318.144C295.311 318.155 294.888 318.2 294.603 318.134C294.045 318.004 293.512 317.537 293.269 317.015C293.036 316.516 293.043 316.015 293.208 315.499C293.459 314.716 294.061 314.37 294.763 314.048Z" fill="#EAFCFC"/>
<path d="M303.634 314.048C304.113 313.92 304.549 313.938 305.041 313.935C305.48 314.145 305.835 314.311 306.127 314.715C306.485 315.212 306.562 315.836 306.435 316.429C306.243 317.329 305.781 317.706 305.041 318.141C304.851 318.206 304.582 318.31 304.382 318.313C303.746 318.324 303.242 317.977 302.844 317.512C302.343 316.926 302.304 316.32 302.317 315.586C302.669 314.798 302.888 314.493 303.634 314.048Z" fill="#EAFCFC"/>
<path d="M214.993 297.812C215.323 297.849 216.039 297.832 216.314 297.959C216.572 298.079 216.945 298.541 217.181 298.758C218.037 299.543 218.875 300.397 219.883 300.983L220.097 301.11C221.205 301.725 223.032 301.702 224.282 301.737L224.716 302.112C226.064 302.062 227.346 302.434 228.66 302.696C232.888 303.54 236.635 304.528 239.88 307.555C242.954 310.422 244.894 314.172 246.722 317.894L254.846 336.284L276.482 331.218L277.514 331.061C278.917 333.735 278.479 336.759 280.929 338.962C278.708 340.579 276.257 341.964 273.881 343.347C266.88 347.425 259.563 350.829 251.413 351.677C250.413 351.781 249.126 352.038 248.141 351.947C247.621 351.899 247.005 351.503 246.561 351.227C243.843 349.535 242.934 346.646 240.926 344.375L238.711 364.805L238.159 365.08L231.714 366.129C225.19 367.11 218.414 367.068 211.869 366.307C208.794 366.098 206.023 364.987 203.044 364.511L205.355 369.318L205.036 369.405C202.336 370.12 200.378 370.286 198.35 372.522L197.683 373.44C197.384 373.706 197.27 373.781 196.918 373.925L195.339 372.371C190.855 366.803 186.32 361.162 182.895 354.858C181.67 352.602 180.443 350.265 179.936 347.726C178.621 341.14 185.358 324.21 189.004 318.763C190.217 316.035 192.504 313.295 194.569 311.162C199.904 305.651 206.72 302.126 214.45 302.004L214.993 297.812Z" fill="#EAFCFC"/>
<path d="M198.154 341.612L198.39 350.996C198.416 352.203 198.675 353.705 198.432 354.87L195.404 346.924L198.154 341.612Z" fill="#008175"/>
<path d="M214.993 297.812C215.323 297.849 216.039 297.832 216.314 297.959C216.572 298.079 216.945 298.541 217.181 298.758C218.037 299.543 218.875 300.397 219.883 300.983L220.097 301.11C221.205 301.725 223.032 301.702 224.282 301.737L224.716 302.112C223.107 305.342 222.293 309.361 220.301 312.382L217.206 307.196C216.224 305.607 214.85 303.852 214.45 302.004L214.993 297.812Z" fill="#F6A071"/>
<path d="M404.546 333.081C405.722 331.433 406.587 329.361 407.564 327.565L412.76 318.205C413.363 317.073 414.633 313.864 415.608 313.291L418.371 321.102C418.851 322.367 419.895 324.237 419.914 325.552C421.055 326.981 421.679 329.392 422.338 331.107L426.294 341.59C424.593 344.082 424.917 387.415 424.949 393.257L429.052 392.642C429.892 392.47 430.902 392.103 431.728 392.345L431.932 395.967C435.051 395.868 438.515 395.292 441.539 394.539C441.396 393.365 441.042 392.199 440.759 391.051L441.162 391.035C443.306 390.924 445.526 390.331 447.636 389.916C448.507 389.745 449.705 389.389 450.584 389.54C451.142 389.635 451.63 389.849 452.046 390.236C453.483 391.575 454.111 395.642 454.637 397.508L457.272 406.513C457.91 408.772 458.421 411.302 459.439 413.417L459.135 413.554C457.145 414.354 452.685 411.525 451.498 414.134C451.209 414.767 451.282 415.38 451.373 416.045C451.91 416.815 452.187 417.011 453.114 417.182C455.454 417.615 457.994 417.42 460.284 417.979C460.506 418.528 460.611 419.093 460.731 419.669C461.109 420.819 461.412 422.298 461.947 423.364L464.583 418.56C466.033 418.965 467.438 419.048 468.936 419.13L466.378 434.719L466.35 434.733L465.497 439.792C465.377 440.442 465.337 441.251 465.074 441.846L465.06 442.962L459.461 495.564L441.971 495.654C438.902 495.664 435.27 495.303 432.298 495.922C429.349 498.171 425.196 500.073 421.563 500.825L421.236 501.056C422.643 502.027 424.423 502.427 425.889 503.447L428.152 504.806C427 506.345 425.63 507.54 424.15 508.755C421.722 510.431 418.865 512.772 415.915 513.278L415.407 513.21L415.44 513.466L415.828 514.374C417.568 514.355 419.493 514.163 421.212 514.371C422.922 514.344 424.734 514.442 426.428 514.235C426.447 515.987 426.932 519.439 426.132 520.931C425.649 521.232 425.31 521.404 424.746 521.538C423.718 521.196 422.293 521.437 421.208 521.441C418.691 521.45 416.14 521.355 413.631 521.505L413.519 522.924L388.909 523.141L392.279 539.065C389.683 538.694 386.733 538.952 384.095 538.961L367.282 539.126L367.33 530.589H367.122L367.081 539.066L341.826 539.225C341.791 537.388 341.9 535.424 341.674 533.607L341.651 538.939L327.106 538.967C324.83 538.984 322.216 538.778 319.986 539.192C319.336 539.313 318.7 539.711 318.241 540.172C317.221 541.199 316.908 542.268 316.938 543.687C316.962 544.814 317.118 545.608 317.966 546.417C318.312 546.748 318.599 546.959 319.058 547.117C316.647 547.867 312.873 547.381 310.321 547.36L289.169 547.266L284.88 547.269C284.626 547.271 283.759 547.278 283.557 547.412C283.442 547.488 283.402 547.641 283.324 547.756L262.275 451.492L257.706 431.909L256.081 424.473C255.722 422.84 255.454 421.14 254.842 419.579C255.527 413.444 256.809 407.406 256.486 401.193L254.296 395.301C253.808 394.883 253.319 393.486 253.017 392.865L249.544 385.789L238.842 365.245L238.159 365.08L238.711 364.805L240.926 344.375C242.934 346.646 243.843 349.535 246.561 351.227C247.005 351.503 247.621 351.899 248.141 351.947C249.127 352.038 250.413 351.781 251.413 351.677C259.563 350.829 266.88 347.425 273.881 343.347C276.257 341.964 278.708 340.579 280.929 338.962C278.48 336.759 278.917 333.735 277.514 331.061C278.243 330.884 279.48 330.603 280.107 330.214C280.491 329.975 281.129 328.984 281.401 328.592C282.247 327.373 283.008 326.186 284.064 325.132L284.295 324.904C284.356 325.778 284.197 329.269 284.545 329.761C285.977 329.157 287.459 328.395 288.957 327.992L288.904 324.773L317.342 324.858L379.421 324.876L393.034 324.853C394.96 324.845 397.523 324.528 399.386 324.927C398.993 326.523 398.68 328.444 398.031 329.936C398.958 330.227 399.805 330.578 400.678 331.002C401.984 331.618 403.379 332.222 404.546 333.081Z" fill="#A8DAD8"/>
<path d="M383.854 486.985C384.855 487.855 385.831 488.768 386.974 489.452C386.836 490.026 386.652 490.073 386.189 490.452C384.822 490.892 382.916 492.2 382.173 493.477C381.414 494.069 380.742 494.623 380.276 495.483C377.734 495.212 374.954 495.436 372.389 495.437L354.942 495.393C356.728 495.189 358.645 495.293 360.447 495.281L371.191 495.255C372.564 495.244 374.475 495.414 375.806 495.116C377.212 494.801 378.532 494.868 379.981 494.885L380.423 494.334L383.397 491.582C383.695 491.343 383.564 491.529 383.72 491.148C383.417 490.597 383.137 490.006 382.495 489.784C381.871 489.567 380.918 490.19 380.29 490.412C378.804 490.94 375.882 491.975 374.376 491.198L374.15 491.06C375.538 491.183 376.962 490.906 378.3 490.552C380.815 489.887 382.492 489.349 383.854 486.985Z" fill="#47B098"/>
<path d="M398.031 329.936C398.958 330.227 399.805 330.578 400.678 331.002C401.984 331.618 403.379 332.222 404.546 333.081C403.466 334.925 402.123 336.825 401.328 338.804L399.187 339.976C397.152 338.887 396.536 338.042 395.833 335.934C396.053 334.036 397.3 331.741 398.031 329.936Z" fill="#F48D1C"/>
<path d="M334.087 448.23L335.809 448.425C336.423 449.522 335.949 455.606 335.945 457.337L335.915 486.863C335.388 487.254 334.754 487.13 334.107 487.149L334.087 448.23Z" fill="#88BABC"/>
<path d="M333.997 338.768L334.18 338.941C334.723 339.378 335.504 339.581 336.128 339.9L336.156 378.272L319.133 378.343C316.216 378.358 312.841 378.701 309.983 378.278C311.928 378.036 314.028 378.178 315.999 378.163L328.017 378.122L333.933 378.191L333.997 338.768Z" fill="#88BABC"/>
<path d="M334.144 393.26L336.117 393.322C336.732 394.321 336.353 400.7 336.355 402.524L336.37 424.201C336.375 427.898 336.58 431.708 336.334 435.391L333.946 435.459L334.144 393.26Z" fill="#88BABC"/>
<path d="M284.295 324.904C284.356 325.778 284.197 329.269 284.545 329.761C285.977 329.157 287.459 328.395 288.957 327.992C290.268 327.984 291.554 327.935 292.845 328.191C293.787 328.378 295.308 328.504 295.918 329.356C296.175 329.715 296.127 329.835 296.054 330.252C295.961 330.791 295.655 331.154 295.221 331.469C293.528 332.694 290.948 332.036 289.089 332.435C287.801 332.417 286.521 333.828 285.584 334.716L285.238 335.069C285.594 335.99 286.393 337.319 286.031 338.218C285.4 338.764 284.907 338.832 284.094 338.955L282.27 338.789L280.929 338.962C278.479 336.759 278.917 333.735 277.514 331.061C278.243 330.884 279.48 330.603 280.107 330.214C280.491 329.975 281.129 328.984 281.401 328.592C282.247 327.373 283.008 326.186 284.064 325.132L284.295 324.904Z" fill="#F6A071"/>
<path d="M307.145 378.198L297.447 378.148L297.463 352.429L297.462 344.043C297.464 342.674 297.353 341.182 297.499 339.828C297.568 339.188 297.865 338.67 298.315 338.218C298.7 337.832 299.269 337.375 299.816 337.279C300.765 337.111 301.903 337.236 302.875 337.233L308.849 337.217L332.395 337.197C333.128 337.674 333.528 338.027 333.997 338.768L333.933 378.191L328.017 378.122L315.999 378.163C314.028 378.178 311.928 378.036 309.983 378.278L307.145 378.198Z" fill="#47B098"/>
<path d="M312.446 353.435L312.298 353.36C311.533 352.786 310.991 351.841 310.846 350.909L310.807 350.633C310.501 348.659 310.337 346.202 311.52 344.48C312.36 343.259 313.872 342.355 315.325 342.103C317.61 341.705 319.093 342.281 321.186 343.003C321.764 343.203 322.333 343.282 322.835 343.654C323.501 344.147 323.649 345.1 323.738 345.878C323.998 348.162 323.942 350.222 322.446 352.075C322.277 353.373 320.743 355.949 319.691 356.767L319.225 357.091L319.015 357.145C316.912 357.494 314.926 356.411 313.301 355.239C313.368 354.64 312.778 353.91 312.446 353.435Z" fill="#2C3F4E"/>
<path d="M312.446 353.435C312.361 352.78 312.182 352.021 312.396 351.38L312.514 351.047C312.676 349.717 312.72 348.471 312.98 347.129L313.195 347.264C315.203 348.481 317.334 349.016 319.67 348.465L321.813 347.984C321.864 348.923 321.781 351.015 322.258 351.793L322.446 352.075C322.277 353.373 320.743 355.949 319.691 356.767L319.225 357.091L319.015 357.145C316.912 357.494 314.926 356.411 313.301 355.239C313.368 354.64 312.778 353.91 312.446 353.435Z" fill="#F6A071"/>
<path d="M313.32 357.606C313.408 356.813 313.131 355.973 313.301 355.239C314.926 356.411 316.912 357.494 319.015 357.145L319.225 357.091L320.108 357.849C321.582 358.162 323.056 358.509 324.468 359.039C326.366 359.849 328.674 360.652 329.455 362.77C330.24 364.901 329.853 368.636 328.874 370.646C328.634 371.139 328.342 371.607 328.004 372.038L328.017 378.122L315.999 378.163C314.028 378.178 311.928 378.036 309.983 378.278L307.146 378.198L307.154 373.009C306.142 372.515 305.09 372.042 304.414 371.096C303.175 369.363 302.949 366.515 303.305 364.462L303.365 364.146C303.461 363.621 303.566 363.126 303.784 362.635C304.713 360.531 306.857 359.733 308.836 358.93L313.32 357.606Z" fill="#E33115"/>
<path d="M307.154 373.009L308.476 373.375C311.409 374.044 314.432 374.172 317.43 374.17C321.32 374.169 324.6 374.139 328.004 372.038L328.017 378.122L315.999 378.163C314.028 378.178 311.928 378.036 309.983 378.278L307.146 378.198L307.154 373.009Z" fill="#2C3F4E"/>
<path d="M313.32 357.606C313.408 356.813 313.131 355.973 313.301 355.239C314.926 356.411 316.912 357.494 319.015 357.145L319.225 357.091L320.108 357.849C321.582 358.162 323.056 358.509 324.468 359.039C322.943 363.919 320.061 368.855 317.104 373.007C313.314 369.376 310.732 363.74 308.836 358.93L313.32 357.606Z" fill="#F6A071"/>
<path d="M313.32 357.606C313.408 356.813 313.131 355.973 313.301 355.239C314.926 356.411 316.912 357.494 319.015 357.145L319.225 357.091L320.108 357.849C320.004 358.643 319.934 359.541 319.604 360.279C319.302 360.96 318.669 361.477 317.965 361.702C316.405 362.202 315.136 361.57 313.804 360.834C313.433 359.868 313.431 358.636 313.32 357.606Z" fill="#E33115"/>
<path d="M302.716 487.18L297.502 487.29L297.456 446.197L325.036 446.217C326.795 446.217 332.806 445.831 333.891 446.442L334.087 448.23L334.107 487.149L332.293 487.088L309.959 487.09L307.311 487.089L302.716 487.18Z" fill="#47B098"/>
<path d="M313.476 464.862C314.588 464.786 315.703 464.554 316.799 464.492C317.333 464.461 317.737 464.634 318.267 464.424C318.222 465.347 317.882 466.113 317.161 466.753C316.755 467.114 315.907 467.289 315.371 467.251C314.573 467.196 314.229 466.963 313.666 466.437C313.524 465.883 313.47 465.434 313.476 464.862Z" fill="#F6A071"/>
<path d="M310.286 456.439L310.866 455.962C311.133 456.317 311.296 456.626 311.49 457.022L311.744 457.09C312.435 455.819 312.265 454.497 313.832 453.986C314.925 454.212 316.279 455.122 317.239 455.21C317.494 455.234 318.195 454.865 318.447 454.76C319.162 454.871 319.323 454.894 319.888 455.333C319.967 457.021 319.865 458.636 319.638 460.311L319.358 460.954L318.573 462.137C318.431 462.905 318.294 463.643 318.268 464.424C317.737 464.634 317.334 464.461 316.799 464.492C315.703 464.554 314.588 464.786 313.476 464.862L313.481 463.108C312.564 462.478 311.746 461.759 311.102 460.844C310.22 459.59 310.083 458.55 310.358 457.059L310.286 456.439Z" fill="#F6A071"/>
<path d="M318.572 462.137C318.43 462.905 318.293 463.643 318.267 464.424C317.736 464.634 317.333 464.461 316.799 464.492C315.703 464.554 314.588 464.786 313.476 464.862L313.481 463.108L313.724 463.167C315.9 463.665 316.747 463.255 318.572 462.137Z" fill="#F48D1C"/>
<path d="M310.286 456.44C309.97 456.097 309.753 455.77 309.583 455.338C309.125 454.176 308.955 452.589 309.526 451.448C310.123 450.252 311.017 449.727 312.266 449.374C314.494 448.746 317.456 448.855 319.767 448.81C320.266 449.305 320.846 449.827 321.221 450.424C321.947 451.58 321.949 452.813 323.122 453.685C323.351 454.57 323.243 455.684 322.769 456.483C321.965 457.839 320.686 459.122 319.638 460.311C319.865 458.636 319.967 457.021 319.888 455.333C319.324 454.894 319.162 454.871 318.448 454.76C318.195 454.865 317.494 455.234 317.239 455.21C316.279 455.122 314.925 454.212 313.832 453.986C312.265 454.497 312.435 455.819 311.744 457.09L311.49 457.022C311.296 456.626 311.133 456.317 310.866 455.962L310.286 456.44Z" fill="#080C3C"/>
<path d="M302.716 487.18C303.044 481.454 303.087 473.422 307.811 469.324C308.692 468.56 311.87 466.551 313.053 466.637L313.253 466.681C313.642 467.343 313.827 467.61 314.614 467.812C315.981 468.164 316.769 467.649 317.88 466.951C317.94 466.913 318.557 466.487 318.6 466.489C318.851 466.501 319.747 467.101 319.982 467.23C322.648 468.705 325.191 470.08 326.991 472.628C329.793 476.595 331.373 482.353 332.293 487.088L309.959 487.09L307.311 487.089L302.716 487.18Z" fill="#E33115"/>
<path d="M301.841 435.522L297.475 435.562L297.529 404.475L297.499 395.986C297.486 394.398 297.366 392.725 297.531 391.149L325.861 391.089L331.974 391.075C332.698 391.073 333.486 390.906 334.085 391.327L334.144 393.26L333.946 435.459L332.163 435.45L301.841 435.522Z" fill="#47B098"/>
<path d="M310.233 407.246C309.74 404.838 309.35 402.216 310.749 400.022C311.676 398.568 313.043 397.767 314.712 397.441C317.169 396.96 319.665 397.446 321.717 398.889C322.927 399.739 323.728 400.723 323.973 402.214C324.213 403.679 323.878 405.486 323.758 406.969C323.297 407.281 322.946 407.636 322.383 407.681C322.106 406.47 322.127 404.175 321.577 403.203C319.61 401.871 315.496 404.251 313.251 404.285C312.857 404.291 312.573 404.238 312.208 404.413C311.933 404.545 311.579 406.796 311.458 407.282C310.977 407.372 310.714 407.314 310.233 407.246Z" fill="#080C3C"/>
<path d="M310.233 407.246C310.714 407.314 310.977 407.372 311.458 407.282C311.579 406.796 311.933 404.545 312.208 404.413C312.573 404.238 312.857 404.291 313.251 404.285C315.496 404.25 319.61 401.871 321.576 403.203C322.127 404.174 322.106 406.47 322.383 407.681C322.946 407.636 323.297 407.281 323.758 406.969C323.899 407.727 324.107 408.514 323.619 409.19L320.039 413.781L320.179 415.648L320.97 416.569C320.443 417.439 319.828 418.387 319.07 419.078C318.4 419.688 317.671 419.715 316.799 419.645C315.322 419.524 314.579 417.203 313.673 416.226L313.487 416.045C313.799 415.483 313.898 414.939 314.022 414.317C313.198 413.102 312.57 411.663 311.719 410.508C311.354 410.013 310.823 409.663 310.445 409.19C310.028 408.667 310.183 407.869 310.233 407.246Z" fill="#F6A071"/>
<path d="M313.487 416.045L313.673 416.226C314.579 417.203 315.322 419.524 316.799 419.645C317.671 419.715 318.4 419.688 319.07 419.078C319.828 418.387 320.443 417.439 320.97 416.569L322.416 416.891C324.384 416.943 326.437 417.505 327.805 419.002C330.387 421.827 331.121 428.465 331.677 432.216C331.819 433.176 331.832 434.561 332.163 435.45L301.841 435.522L302.722 430.311C303.399 426.588 304.369 419.661 307.81 417.438C308.795 416.801 310.515 416.464 311.656 416.71C312.293 416.613 312.894 416.294 313.487 416.045Z" fill="#008175"/>
<path d="M313.487 416.045L313.673 416.226C314.579 417.203 315.322 419.524 316.799 419.645C317.671 419.715 318.4 419.688 319.07 419.078C319.828 418.387 320.443 417.439 320.97 416.569L322.416 416.891L317.279 428.729C314.82 425.065 312.833 420.953 311.656 416.71C312.293 416.613 312.894 416.294 313.487 416.045Z" fill="#EAFCFC"/>
<path d="M385.638 400.751C387.467 401.007 389.359 400.93 391.202 400.95L399.499 401.03L399.493 430.816L342.825 430.881L342.764 397.385C346.763 397.152 350.814 397.307 354.818 397.351L371.688 397.512L378.391 397.591C379.032 397.599 380.162 397.476 380.723 397.75L380.894 397.865C382.357 398.796 384.344 399.668 385.638 400.751Z" fill="#EAFCFC"/>
<path d="M380.894 397.865C382.357 398.796 384.343 399.668 385.637 400.751C384.256 400.75 382.737 400.866 381.382 400.621C380.806 399.848 380.926 398.794 380.894 397.865Z" fill="#88BABC"/>
<path d="M349.548 419.078C350.579 418.551 385.827 418.928 389.752 418.984L389.946 419.517C388.86 419.777 387.401 419.625 386.264 419.63L379.005 419.643L349.773 419.635L349.548 419.078Z" fill="#008175"/>
<path d="M349.276 412.925C349.519 412.858 349.733 412.798 349.985 412.779C354.757 412.423 359.828 412.761 364.627 412.755L385.025 412.749L388.269 412.771C388.574 412.774 389.392 412.695 389.651 412.784C389.776 412.827 389.858 412.948 389.962 413.03L389.651 413.499C385.422 413.501 349.948 413.868 349.214 413.46L349.276 412.925Z" fill="#008175"/>
<path d="M395.833 335.934C396.536 338.042 397.152 338.887 399.187 339.976L401.328 338.804C401.82 340.733 402.244 342.822 403.39 344.488C405.231 347.165 409.255 348.85 409.111 352.501C408.634 352.867 408.574 352.856 407.966 352.886C408.414 353.194 408.261 352.991 408.436 353.489L407.972 354.1C406.461 354.341 404.886 353.027 403.403 353.138L403.489 377.476L342.9 377.593L342.989 346.228L380.529 346.152L380.506 350.426L400.579 350.017C397.905 348.071 395.213 346.538 392.839 344.184C392.032 343.383 391.199 342.637 390.86 341.521L391.313 341.185C392.321 339.191 394.638 337.912 395.833 335.934Z" fill="#EAFCFC"/>
<path d="M349.657 366.343C351.265 366.034 353.288 366.254 354.932 366.252L366.525 366.244L387.145 366.221L392.759 366.22C393.757 366.22 394.802 366.134 395.782 366.343L395.804 366.824C394.065 367.143 391.944 366.925 390.167 366.926L378.133 366.937L358.623 366.948C355.775 366.95 352.375 367.299 349.602 366.838L349.657 366.343Z" fill="#008175"/>
<path d="M395.833 335.934C396.536 338.042 397.152 338.887 399.187 339.976C397.954 341.182 397.238 342.592 396.448 344.099L396.702 344.245C398.042 345.046 400.061 346.799 400.563 348.327C400.659 348.619 400.639 348.978 400.645 349.282C397.133 347.254 394.006 344.187 391.313 341.185C392.321 339.191 394.638 337.912 395.833 335.934Z" fill="#792F22"/>
<path d="M401.328 338.804C401.82 340.733 402.244 342.822 403.39 344.487C405.231 347.165 409.255 348.85 409.111 352.5C408.634 352.867 408.574 352.856 407.966 352.886C405.198 352.587 402.85 350.847 400.645 349.282C400.639 348.978 400.659 348.619 400.563 348.327C400.061 346.799 398.042 345.046 396.702 344.245L396.448 344.099C397.238 342.592 397.954 341.182 399.187 339.976L401.328 338.804Z" fill="#A2511D"/>
<path d="M285.238 335.069L285.584 334.716C286.521 333.828 287.801 332.417 289.089 332.435L289.076 495.636L354.941 495.393L372.389 495.437C374.954 495.436 377.734 495.212 380.276 495.483C381.666 495.559 384.944 495.109 386.013 495.807C387.289 495.554 389.782 495.024 390.977 495.673C391.307 495.851 391.602 496.219 391.844 496.497L391.944 496.36C392.38 496.955 392.638 497.341 392.756 498.076L392.805 498.234L393.696 498.228L395.543 500.979C395.706 501.862 395.807 502.687 396.315 503.453L396.134 503.766L395.984 504.112L396.185 504.508C396.384 504.906 396.471 505.232 396.523 505.676L396.703 505.466L398.279 509.474L398.003 509.59C397.38 509.831 396.68 509.753 396.026 509.868C386.649 511.514 376.755 511.093 367.262 510.793L367.33 530.589H367.122L367.081 539.066L341.826 539.225C341.791 537.388 341.9 535.424 341.674 533.607L341.813 510.651L341.611 510.713C339.791 510.971 337.628 510.762 335.775 510.767L322.976 510.794L301.204 510.742C297.972 510.724 294.486 511.031 291.296 510.57C290.054 510.39 288.673 509.761 287.744 508.926C286.164 507.504 284.94 505.789 284.536 503.664C284.127 501.518 284.302 499.128 284.321 496.946L284.433 486.147L284.49 461.901L284.32 444.837L284.094 338.955C284.907 338.832 285.4 338.764 286.031 338.218C286.393 337.319 285.594 335.99 285.238 335.069Z" fill="#2C3F4E"/>
<path d="M393.696 498.228L395.543 500.978C395.706 501.862 395.807 502.687 396.315 503.453L396.134 503.766L395.984 504.112L396.185 504.508C396.384 504.906 396.471 505.232 396.523 505.676C395.563 506.926 394.592 507.818 393.194 508.568C391.853 509.288 390.283 509.842 388.772 509.264C387.998 508.967 387.755 508.672 387.405 507.957C387.528 507.021 387.869 506.402 388.468 505.672C390.36 503.366 392.486 502.885 395.298 502.555L392.805 498.234L393.696 498.228Z" fill="#47B098"/>
<path d="M386.013 495.808C387.289 495.554 389.782 495.024 390.977 495.673C391.307 495.851 391.602 496.219 391.844 496.497L391.944 496.36C392.38 496.955 392.638 497.341 392.756 498.076C392.217 498.617 391.807 499.275 391.235 499.78C389.745 501.095 387.886 501.822 385.893 501.708C384.301 501.618 382.927 501.398 381.832 500.157C381.736 499.829 381.574 499.57 381.703 499.231C382.207 497.905 384.193 496.702 385.391 496.106L386.013 495.808Z" fill="#47B098"/>
<path d="M419.914 325.552C421.055 326.981 421.679 329.392 422.338 331.107L426.294 341.59C424.593 344.082 424.916 387.415 424.949 393.257L429.052 392.642C429.892 392.47 430.902 392.103 431.728 392.345L431.932 395.967C435.051 395.868 438.515 395.292 441.539 394.539C441.396 393.365 441.042 392.199 440.759 391.051L441.162 391.035C443.306 390.924 445.526 390.331 447.636 389.916C448.507 389.745 449.705 389.389 450.584 389.54C451.142 389.635 451.63 389.849 452.046 390.236C453.483 391.575 454.111 395.642 454.637 397.508L457.272 406.513C457.91 408.772 458.421 411.302 459.439 413.417L459.135 413.554C457.145 414.354 452.685 411.525 451.498 414.134C451.209 414.767 451.282 415.38 451.373 416.045C451.91 416.815 452.187 417.011 453.114 417.182C455.454 417.615 457.994 417.42 460.284 417.979C460.506 418.528 460.611 419.093 460.731 419.669C461.109 420.819 461.412 422.298 461.947 423.365L464.583 418.56C466.033 418.965 467.438 419.048 468.936 419.13L466.378 434.719L466.35 434.733L465.497 439.792C465.377 440.442 465.337 441.251 465.074 441.846L465.06 442.962L459.461 495.564L441.971 495.654C438.902 495.664 435.27 495.303 432.298 495.922C429.839 492.884 426.143 491.536 422.638 490.085L422.536 489.952C422.503 489.104 422.718 488.646 423.1 487.898L428.324 477.145C426.08 475.09 422.832 473.082 419.875 472.293L419.914 325.552Z" fill="url(#paint2_linear_254_832)"/>
<path d="M430.193 474.573L435.927 466.256L436.021 466.102L436.751 465.964L437.022 466.294C437.738 467.125 438.755 467.736 439.606 468.423L444.269 472.222C440.745 474.82 436.064 476.563 431.626 476.01C431.005 475.933 430.273 475.844 429.776 475.437C429.905 475.136 430.015 474.85 430.193 474.573Z" fill="#51AE77"/>
<path d="M437.451 462.728L437.316 462.619C436.461 461.791 436.29 460.765 436.313 459.62C436.37 456.843 437.589 454.411 439.552 452.502C440.486 451.593 442.096 450.557 443.493 450.815C444.022 450.913 444.117 451.141 444.413 451.544C445.038 456.335 439.408 458.16 437.849 462.147L437.755 462.398L437.978 462.329C438.476 462.096 438.747 461.554 439.098 461.15C440.94 459.024 442.809 456.846 445.878 457.579L447.573 458.119C446.182 460.503 444.264 462.108 441.562 462.832C440.327 463.162 439.259 463.158 437.999 463.099L437.451 462.728Z" fill="#51AE77"/>
<path d="M429.019 477.556C432.493 479.281 436.43 481.065 439.085 483.955C437.019 485.641 434.5 486.533 432.009 487.387C430.114 487.962 426.607 489.01 424.703 488.41C424.168 488.241 423.871 488.151 423.603 487.632C424.097 486.157 424.962 484.776 425.714 483.416L429.019 477.556Z" fill="#008175"/>
<path d="M427.545 459.68L427.88 459.211C428.228 458.728 428.562 458.249 428.98 457.822C431.14 460.118 433.582 462.671 435.258 465.341C433.734 468.38 431.289 470.807 429.881 473.936C429.625 474.402 429.416 474.879 428.989 475.213C427.947 474.513 427.091 473.548 426.621 472.373C425.025 468.384 425.879 463.497 427.545 459.68Z" fill="#51AE77"/>
<path d="M440.759 391.051L441.162 391.035C443.306 390.924 445.526 390.331 447.636 389.916C448.507 389.745 449.705 389.389 450.584 389.54C451.142 389.635 451.63 389.849 452.046 390.236C453.483 391.575 454.111 395.642 454.637 397.508L457.272 406.513C457.91 408.772 458.421 411.302 459.439 413.417L459.135 413.554C457.145 414.354 452.685 411.525 451.498 414.134C451.209 414.767 451.282 415.38 451.373 416.045C451.91 416.815 452.187 417.011 453.114 417.182C455.454 417.615 457.994 417.42 460.284 417.979C460.506 418.528 460.611 419.093 460.731 419.669C461.109 420.819 461.412 422.298 461.947 423.365C462.301 424.754 463.015 426.885 462.165 428.197C461.546 429.151 460.652 429.533 459.566 429.71L449.934 431.131C448.942 430.967 447.139 431.534 446.1 431.716L436.972 433.233C435.953 433.423 434.128 433.973 433.131 433.827C432.82 433.781 432.232 433.429 431.934 433.281C429.718 432.179 429.757 429.843 429.225 427.716C428.782 425.941 428.328 424.176 427.746 422.442C427.687 421.087 427.05 419.558 426.719 418.232L423.019 404.16L421.565 398.762C421.237 397.543 420.814 396.399 421.017 395.127C422.198 393.759 423.244 393.504 424.949 393.257L429.052 392.642C429.892 392.47 430.902 392.103 431.728 392.345L431.932 395.967C435.051 395.868 438.515 395.292 441.539 394.539C441.396 393.365 441.042 392.199 440.759 391.051Z" fill="#EAFCFC"/>
<path d="M379.584 449.106C380.024 447.956 381.09 447.275 382.177 446.777C384.317 445.795 387.344 445.355 389.633 445.895L390.602 446.102C390.107 445.407 389.595 444.611 388.971 444.027C388.11 443.219 386.973 442.588 386.04 441.846C383.822 440.083 380.704 436.563 381.4 433.468C381.489 433.07 381.682 432.875 381.959 432.6C384.047 432.535 386.341 433.663 387.864 435.061C389.237 436.32 390.367 438.631 390.444 440.501C390.48 441.361 390.446 442.248 390.283 443.093L392.476 446.292C393.278 443.224 394.413 440.106 397.263 438.331C397.67 438.078 397.991 437.964 398.469 437.974C399.736 439.349 400.001 441.212 399.93 443.028C399.834 445.52 398.857 448.293 397.148 450.152L398.466 450.948C399.071 451.3 399.413 451.683 399.828 452.241C401.432 450.688 403.319 448.885 405.694 448.862C406.081 449.094 406.201 449.044 406.324 449.508C406.981 451.985 405.104 456.296 403.767 458.344C402.674 460.018 401.511 460.593 399.874 461.605L400.76 465.809C402.95 462.51 405.18 460.275 409.268 459.531C409.681 459.455 409.974 459.451 410.383 459.507C410.841 460.16 410.563 461.953 410.424 462.727C409.748 466.5 407.451 470.301 404.238 472.446L402.889 473.235L403.437 477.545C406.453 474.262 409.33 473.325 413.626 472.573C413.094 475.094 412.433 477.242 411.021 479.419C410.536 480.166 410.032 480.941 409.43 481.6C409.064 482 408.01 482.742 407.801 483.159C407.749 483.264 407.797 483.394 407.795 483.512C408.938 483.769 409.939 483.781 411.096 483.74L411.076 483.018C411.526 482.026 412.293 481.041 413.353 480.649C414.519 480.217 415.18 481.248 416.172 481.697L416.536 481.855L416.721 481.475L416.521 480.469C416.179 478.551 415.857 475.074 417.118 473.441C417.826 472.525 418.798 472.429 419.875 472.293C422.832 473.082 426.08 475.09 428.324 477.145L423.1 487.898C422.718 488.646 422.503 489.104 422.536 489.952L422.638 490.084C426.143 491.536 429.839 492.884 432.298 495.922C429.349 498.171 425.196 500.073 421.563 500.825L421.236 501.056C422.643 502.028 424.423 502.427 425.889 503.447L428.152 504.806C427 506.345 425.63 507.54 424.15 508.755C421.722 510.431 418.865 512.772 415.915 513.278L415.407 513.21L415.44 513.466L415.828 514.374C417.568 514.355 419.493 514.163 421.212 514.371C422.922 514.344 424.734 514.442 426.428 514.235C426.447 515.987 426.932 519.439 426.132 520.931C425.649 521.232 425.31 521.404 424.746 521.538C423.718 521.196 422.293 521.437 421.208 521.441C418.691 521.45 416.14 521.355 413.631 521.505L413.519 522.924L388.909 523.141L392.279 539.065C389.683 538.694 386.733 538.952 384.095 538.961L367.282 539.126L367.33 530.589L367.262 510.793C376.755 511.093 386.649 511.514 396.026 509.868C396.68 509.753 397.38 509.831 398.003 509.59L398.279 509.474L396.703 505.466L396.523 505.676C396.471 505.232 396.384 504.906 396.185 504.508L395.984 504.112L396.134 503.766L396.315 503.453C395.807 502.687 395.706 501.862 395.543 500.979L393.696 498.228L392.805 498.234L392.756 498.076C392.638 497.341 392.38 496.955 391.944 496.36L391.844 496.497C391.602 496.219 391.307 495.851 390.977 495.673C389.782 495.024 387.289 495.554 386.013 495.807C384.944 495.109 381.666 495.559 380.276 495.483C380.742 494.623 381.414 494.069 382.173 493.477C382.916 492.2 384.822 490.892 386.189 490.452C386.652 490.073 386.836 490.026 386.974 489.452C385.831 488.768 384.855 487.855 383.854 486.985C382.492 489.349 380.815 489.887 378.3 490.553C376.962 490.906 375.538 491.183 374.15 491.06C373.88 490.783 373.84 490.626 373.718 490.269C374.224 488.595 375.787 487.347 377.005 486.164L342.488 486.811L342.506 449.093L379.584 449.106Z" fill="#008175"/>
<path d="M411.168 488.652L411.586 491.892L408.637 492.076L411.168 488.652Z" fill="#47B098"/>
<path d="M372.143 475.508C372.817 476.125 373.467 476.677 374.24 477.166L374.37 477.355C374.886 478.071 375.677 478.625 375.668 479.521L374.342 478.712L371.239 476.46C371.615 476.184 371.851 475.867 372.143 475.508Z" fill="#2C3F4E"/>
<path d="M418.733 486.7C418.18 486.372 417.693 485.925 417.256 485.454C416.615 484.763 414.95 483.109 414.989 482.197C415.602 482.078 416.217 482.364 416.797 482.547L416.958 482.891L418.806 486.492L418.733 486.7Z" fill="#A8DAD8"/>
<path d="M415.828 514.374L412.731 514.326C410.473 512.268 409.081 510.226 408.059 507.379C408.81 508.152 409.313 508.966 410.14 509.71C411.529 511.21 413.448 512.849 415.44 513.466L415.828 514.374Z" fill="#2C3F4E"/>
<path d="M382.173 493.477C382.916 492.2 384.822 490.892 386.189 490.452C387.084 491.332 389.011 493.034 389.28 494.191C386.882 493.89 384.598 493.476 382.173 493.477Z" fill="#4BCDAD"/>
<path d="M389.466 485.955L390.386 486.094C390.699 486.682 390.603 487.09 390.445 487.742C390.293 488.369 389.753 489.137 389.211 489.485C388.804 489.747 388.512 489.775 388.055 489.668L387.291 488.869L385.922 487.193C385.457 486.829 385.038 486.552 384.598 486.126C385.409 486.103 386.235 486.249 387.04 486.129C387.842 486.011 388.656 485.995 389.466 485.955Z" fill="#51AE77"/>
<path d="M399.827 452.241C398.929 453.561 398.293 454.857 397.704 456.338L395.108 451.27L397.148 450.152L398.465 450.948C399.07 451.3 399.412 451.683 399.827 452.241Z" fill="#EAFCFC"/>
<path d="M408.198 492.418L408.42 492.446C409.025 492.515 411.481 492.315 411.774 492.604L412.53 495.673L411.085 495.385C408.572 494.815 406.14 494.522 403.572 494.333C403.671 494.071 403.787 493.88 403.936 493.644C405.284 493.096 406.76 492.647 408.198 492.418Z" fill="#47B098"/>
<path d="M396.703 505.466C396.941 505.108 396.996 505.185 397.395 505.089L399.13 509.419L399.398 509.181C400.769 507.972 402.356 507.275 403.8 506.197C403.734 508.134 403.199 509.932 402.376 511.677C401.815 512.252 400.912 513.508 400.147 513.615L399.448 512.555C399.575 512.084 398.514 509.982 398.279 509.474L396.703 505.466Z" fill="#47B098"/>
<path d="M393.38 487.507C394.6 488.811 395.744 490.141 397.174 491.224C396.268 492.131 395.407 493.054 394.597 494.05C394.103 494.658 393.689 495.445 392.947 495.713L392.417 495.542C392.252 496.303 393.261 497.552 393.696 498.228L392.805 498.234L392.756 498.076C392.638 497.341 392.38 496.955 391.944 496.36L391.298 495.221C391.537 493.742 392.17 492.537 392.65 491.144C393.056 489.963 393.231 488.739 393.38 487.507Z" fill="#4BCDAD"/>
<path d="M368.248 466.378L374.456 466.391C372.963 468.35 372.452 470.542 372.778 472.977C372.983 474.51 373.593 475.783 374.241 477.166C373.468 476.677 372.817 476.125 372.143 475.508C371.307 474.794 370.522 474.216 369.557 473.674C368.417 471.935 368.377 468.445 368.248 466.378Z" fill="#EAFCFC"/>
<path d="M422.638 490.084C426.143 491.536 429.839 492.884 432.298 495.922C429.349 498.171 425.196 500.073 421.563 500.825C421.365 500.688 420.385 500.737 420.088 500.694C419.506 500.611 419.255 500.519 418.889 500.065C419.637 497.588 420.405 495.1 421.347 492.689C421.695 491.796 421.861 490.696 422.638 490.084Z" fill="#51AE77"/>
<path d="M374.813 466.457L387.04 466.383L387.301 466.706C388.684 468.4 390.25 469.742 392.099 470.901C394.831 472.24 397.582 473.199 400.632 473.495C401.082 475.213 401.433 476.812 401.509 478.592C398.354 476.38 394.422 473.633 390.402 473.645C389.703 473.968 389.53 474.008 389.087 474.668C388.893 476.452 389.831 477.999 390.908 479.361C392.458 481.323 394.214 482.619 396.464 483.636C395.966 483.88 395.542 483.747 395 483.701C393.922 483.378 393.39 483.399 392.809 482.31L392.728 482.145C391.371 482.606 389.173 483.544 388.268 484.701L388.154 484.934L387.513 485.254C386.578 485.082 385.566 485.109 384.615 485.069C385.146 483.978 385.645 482.805 385.942 481.627C386.512 479.37 386.744 476.134 385.367 474.119C385.023 473.615 384.728 473.559 384.157 473.447C383.551 473.668 383.23 474.159 382.857 474.656C382.17 475.573 381.232 476.957 381.01 478.074C380.71 479.582 381.288 481.395 381.497 482.907C380.185 481.465 378.835 480.461 377.201 479.423C377.908 477.099 378.356 474.904 378.099 472.457C377.872 470.285 376.472 467.844 374.813 466.457Z" fill="#EAFCFC"/>
<path d="M421.212 514.371C422.922 514.345 424.734 514.442 426.428 514.235C426.447 515.987 426.932 519.439 426.132 520.931C425.649 521.232 425.31 521.404 424.746 521.538C423.718 521.196 422.292 521.437 421.208 521.441C418.691 521.45 416.14 521.355 413.631 521.505L413.519 522.924L388.909 523.141L388.557 521.743L386.038 521.323C386.018 519.264 385.676 516.786 386.524 514.878C386.687 514.775 386.831 514.629 387.014 514.568C387.661 514.352 389.117 514.565 389.868 514.564L399.881 514.52C402.254 514.814 405.033 514.545 407.442 514.544C411.987 514.542 416.687 514.77 421.212 514.371Z" fill="#EAFCFC"/>
<path d="M388.557 521.743L413.631 521.505L413.519 522.924L388.909 523.141L388.557 521.743Z" fill="#968A8F"/>
<path d="M377.005 486.164L342.488 486.811L342.506 449.093L379.584 449.106L379.843 449.353C381.143 450.523 383.572 451.257 385.256 451.508L385.641 451.569C387.493 451.846 388.978 451.729 390.745 451.126C391.141 450.991 391.905 450.608 392.288 450.584C392.734 450.555 393.19 451.089 393.426 451.4C394.35 452.62 394.953 454.369 395.759 455.722C393.15 454.574 391.094 453.975 388.223 454.485L387.871 454.545C386.567 454.788 385.407 455.382 384.434 456.279C384.249 456.831 384.292 456.849 384.568 457.39C384.734 457.717 384.943 457.99 385.152 458.287C385.309 458.51 385.256 458.416 385.334 458.703C382.619 458.479 379.84 458.627 377.116 458.651L364.776 458.694L354.512 458.714C352.7 458.717 350.692 458.549 348.902 458.792L348.727 459.174C349.625 459.779 356.366 459.425 357.833 459.423L385.803 459.377C386.218 459.437 386.506 459.519 386.895 459.692C390.681 461.384 393.732 461.537 397.8 460.921C398.116 462.726 398.565 464.336 399.148 466.075C396.289 464.092 392.731 462.475 389.149 463.02C388.353 463.142 387.671 463.48 386.974 463.864C386.6 464.461 386.675 464.747 386.676 465.44C385.358 465.707 383.856 465.562 382.503 465.563L373.821 465.567C372.063 465.569 370.183 465.427 368.459 465.776L368.248 466.378C368.377 468.445 368.417 471.935 369.557 473.674C370.522 474.216 371.307 474.794 372.143 475.508C371.851 475.867 371.615 476.184 371.239 476.46L374.342 478.712C372.12 479.915 368.322 481.871 367.414 484.412C367.295 484.746 367.283 485.086 367.277 485.435C368.121 486.014 370.731 485.691 371.807 485.505C374.036 485.119 375.43 483.945 376.638 482.072L377.195 481.095L378.761 482.212C379.851 482.989 380.762 483.935 381.699 484.885C379.723 484.805 378.69 485.044 377.005 486.164Z" fill="#EAFCFC"/>
<path d="M369.557 473.674C370.522 474.216 371.307 474.794 372.143 475.508C371.851 475.867 371.615 476.184 371.239 476.46C370.738 476.561 369.578 478.377 369.029 478.825C366.6 480.806 363.777 480.451 360.886 480.108C362.018 478.447 363.371 477.012 365.134 476.024C366.164 475.447 367.291 475.085 368.326 474.526L368.645 474.351C369.203 474.201 369.203 474.142 369.557 473.674Z" fill="#008175"/>
<path d="M353.292 465.1C353.013 464.239 352.841 463.296 353.256 462.442C353.55 461.839 353.931 461.517 354.489 461.172C355.425 461.078 355.872 461.095 356.627 461.691C358.168 462.908 358.925 464.483 360.036 466.033C360.709 466.969 361.537 467.842 362.336 468.669C362.978 469.217 363.649 469.908 364.405 470.289L362.742 466.024C362.935 464.683 363.349 463.474 364.221 462.421C366.247 461.868 366.755 465.13 368.183 465.682L368.459 465.776L368.248 466.378C368.377 468.445 368.417 471.935 369.557 473.674C369.203 474.142 369.203 474.201 368.645 474.351C367.361 473.586 365.431 472.58 364.699 471.246L364.013 471.373L364.187 471.655C363.598 472.466 362.966 473.035 362.18 473.652L361.986 473.809C361.073 474.489 358.039 474.225 356.837 474.171C354.44 474.202 351.416 474.572 349.092 474.156L348.972 473.79C349.126 473.67 349.25 473.497 349.434 473.431C349.808 473.297 350.756 473.433 351.216 473.434L356.499 473.442C356.626 472.92 356.736 472.441 357.063 472.001C358.074 470.636 360.019 470.011 361.596 469.689C361.427 469.376 361.503 469.44 361.271 469.242C360.623 468.687 360.071 468.043 359.2 468.11C357.921 468.207 356.541 468.136 355.453 467.361C354.691 466.818 354.233 466.077 353.245 465.948C352.993 466.045 352.922 466.082 352.621 466.136C351.852 466.271 349.528 466.494 348.995 466.11L349.138 465.44C350.373 465.027 351.987 465.139 353.292 465.1Z" fill="#2C3F4E"/>
<path d="M282.27 338.789L284.094 338.955L284.32 444.837L284.49 461.901L284.433 486.147L284.321 496.946C284.302 499.128 284.127 501.518 284.536 503.664C284.94 505.789 286.164 507.504 287.744 508.926C288.673 509.761 290.054 510.39 291.296 510.57C294.486 511.031 297.972 510.724 301.204 510.742L322.976 510.794L335.775 510.767C337.628 510.762 339.791 510.971 341.611 510.713L341.813 510.651L341.674 533.607L341.651 538.939L327.106 538.967C324.83 538.984 322.216 538.778 319.986 539.192C319.336 539.313 318.7 539.711 318.241 540.172C317.221 541.199 316.908 542.268 316.938 543.687C316.962 544.814 317.118 545.608 317.966 546.417C318.312 546.748 318.599 546.959 319.058 547.117C316.647 547.867 312.873 547.381 310.321 547.36L289.169 547.266L284.88 547.269C284.626 547.271 283.759 547.278 283.557 547.412C283.442 547.488 283.402 547.641 283.324 547.756L262.275 451.492L257.706 431.909L256.081 424.473C255.722 422.84 255.454 421.14 254.842 419.579C255.527 413.444 256.809 407.406 256.486 401.193L254.296 395.301C253.808 394.883 253.319 393.486 253.017 392.865L249.544 385.789L238.842 365.245L238.159 365.08L238.711 364.805L240.926 344.375C242.934 346.646 243.843 349.535 246.561 351.227C247.005 351.503 247.621 351.899 248.141 351.947C249.127 352.038 250.413 351.781 251.413 351.677C259.563 350.829 266.88 347.425 273.881 343.347C276.257 341.964 278.708 340.579 280.929 338.962L282.27 338.789Z" fill="#008175"/>
</g>
<defs>
<linearGradient id="paint0_linear_254_832" x1="355.056" y1="547.653" x2="355.322" y2="538.344" gradientUnits="userSpaceOnUse">
<stop stop-color="#061530"/>
<stop offset="1" stop-color="#053947"/>
</linearGradient>
<linearGradient id="paint1_linear_254_832" x1="413.502" y1="323.639" x2="431.02" y2="327.471" gradientUnits="userSpaceOnUse">
<stop stop-color="#019F72"/>
<stop offset="1" stop-color="#1ABA93"/>
</linearGradient>
<linearGradient id="paint2_linear_254_832" x1="400.152" y1="404.196" x2="477.274" y2="423.593" gradientUnits="userSpaceOnUse">
<stop stop-color="#063144"/>
<stop offset="1" stop-color="#04806B"/>
</linearGradient>
<clipPath id="clip0_254_832">
<rect width="450.076" height="450" fill="white" transform="translate(130 152)"/>
</clipPath>
</defs>
</svg>
