<svg width="260" height="260" viewBox="0 0 260 260" fill="none" xmlns="http://www.w3.org/2000/svg">
<g clip-path="url(#clip0_54_4896)">
<path d="M113.895 44.64C115.925 44.0781 117.968 43.498 120.045 43.1308C128.709 41.599 137.861 42.0837 146.289 44.6243L144.006 52.0569C143.648 53.2246 143.101 54.536 142.917 55.7322C149.131 57.6966 155.015 60.8045 159.797 65.2917L162.914 68.4079C163.457 68.9802 164.029 69.7813 164.656 70.2432L164.656 70.4267C165.704 71.4073 166.493 72.802 167.253 74.0104C170.743 79.56 173.088 85.573 173.663 92.1441L162.481 93.4535C161.636 88.1093 159.768 83.3092 156.689 78.8531C156.52 78.7582 156.25 78.2795 156.11 78.0957L154.367 75.918C150.371 71.3565 145.611 68.1175 139.9 66.0994C137.57 65.5114 135.348 65.0157 132.941 64.8106C128.723 64.4513 124.648 65.017 120.568 66.0672C118.396 66.7862 116.216 67.5726 114.203 68.6745C110.184 70.8749 106.557 74.4519 103.823 78.099C101.788 81.2018 100.185 84.2656 99.1543 87.8516C98.7602 89.2229 98.4479 90.6255 98.2636 92.041C98.2209 92.3678 98.1798 93.7536 98.0526 93.9029C97.7507 93.5827 88.1025 92.5658 86.8147 92.3947C86.9343 91.0117 87.29 89.589 87.5919 88.2324C89.0628 81.623 91.809 75.8276 95.7537 70.3318H95.8515C96.3603 69.5073 97.0712 68.7832 97.7202 68.0644C98.841 66.8233 100.054 65.5469 101.341 64.4775C105.987 60.6191 111.431 57.2163 117.336 55.6997C117.37 54.906 116.756 53.7057 116.507 52.9263L113.895 44.64Z" fill="#4FB29C"/>
<path d="M117.424 55.7345C118.429 55.1802 119.856 54.9509 120.974 54.698C127.969 53.1159 135.292 53.5808 142.167 55.5029L142.816 55.7405L140.956 62.3934C140.616 63.6358 140.374 64.8977 139.9 66.0994C137.57 65.5114 135.348 65.0157 132.941 64.8106C128.723 64.4513 124.648 65.017 120.568 66.0672L117.424 55.7345Z" fill="#81BFA9"/>
<path d="M181.825 127.261L224.455 84.9819L244.255 103.36L199.993 145.366L181.825 127.261Z" fill="#7A3909"/>
<path d="M22.8804 110.21L15.9263 103.095L35.4262 84.4736L77.6642 126.698L59.776 145.226L22.8804 110.21Z" fill="#E33115"/>
<path d="M120.568 66.0672C124.648 65.017 128.723 64.4513 132.941 64.8106C135.348 65.0157 137.57 65.5114 139.9 66.0994C145.611 68.1175 150.371 71.3565 154.367 75.918L156.11 78.0957C156.25 78.2795 156.52 78.7582 156.689 78.8531C159.768 83.3092 161.636 88.1093 162.481 93.4535C163.307 98.7005 162.875 103.692 161.104 108.713C160.656 109.983 160.07 111.172 159.507 112.392L146.204 97.1113L142.398 92.7507C141.672 91.9229 140.927 90.9581 140.053 90.286C140.03 90.284 139.825 90.0126 139.787 89.9653L134.407 83.7566C133.04 82.2029 131.686 80.4512 130.119 79.0992L129.904 79.1159L122.075 88.7664C120.981 90.1268 119.932 91.7483 118.699 92.9662C118.066 93.3969 117.575 94.0182 117.058 94.5785L114.283 97.5668L109.92 101.668C106.864 104.633 103.738 107.918 101.118 111.279C98.1422 105.958 97.7374 99.8446 98.0525 93.9029C98.1797 93.7536 98.2209 92.3678 98.2635 92.041C98.4479 90.6255 98.7602 89.2229 99.1542 87.8516C100.185 84.2656 101.788 81.2018 103.823 78.099C106.557 74.4519 110.184 70.8749 114.203 68.6745C116.216 67.5726 118.396 66.7862 120.568 66.0672Z" fill="url(#paint0_linear_54_4896)"/>
<path d="M118.699 92.9663C119.932 91.7483 120.981 90.1268 122.075 88.7664L129.904 79.1159L130.119 79.0992C131.686 80.4512 133.04 82.2029 134.407 83.7566L139.787 89.9653C139.825 90.0126 140.03 90.284 140.054 90.286C140.927 90.9581 141.672 91.923 142.398 92.7507L146.204 97.1113L159.507 112.392L166.744 121.382L173.01 128.779C174.102 130.078 175.123 131.549 176.361 132.71L171.079 137.982C169.746 139.323 168.248 141.201 166.59 142.097C165.589 142.637 164.527 142.706 163.42 142.792L149.123 142.736C146.11 142.731 142.912 142.52 139.926 142.936C138.486 143.137 137.075 143.557 135.769 144.202C134.239 144.958 132.935 146.174 131.651 147.282C131.126 147.736 130.607 148.263 130.017 148.624L129.956 148.723L128.927 149.473C126.452 148.071 124.862 145.425 122.317 144.095C120.827 143.316 119.233 142.809 117.571 142.568C114.817 142.167 111.734 142.435 108.936 142.438L93.7238 142.387L93.2263 142.401C93.0753 142.401 92.8709 142.392 92.7394 142.306C92.4357 142.108 92.0858 141.624 91.8271 141.354L89.3197 138.714L83.4883 132.725C83.5431 132.582 83.5099 132.631 83.6089 132.518L92.5063 121.743L101.118 111.279C103.738 107.918 106.864 104.633 109.92 101.668L114.284 97.5668L117.058 94.5786C117.575 94.0182 118.066 93.3969 118.699 92.9663Z" fill="#2C3F4E"/>
<path d="M130.119 79.0992C131.686 80.4512 133.04 82.2029 134.407 83.7566L139.787 89.9653C139.825 90.0126 140.03 90.284 140.053 90.286C140.959 91.845 142.068 93.2717 142.939 94.8576C144.961 98.5418 146.61 102.512 148.268 106.373L151.299 113.593L141.506 101.796L144.775 114.122L134.728 99.9677L132.037 96.2305C131.604 95.631 131.181 94.8843 130.619 94.4112L130.55 94.4635L130.441 94.3688C130.292 94.2211 130.224 94.1114 130.19 93.8999C129.944 92.35 130.144 90.4455 130.14 88.8649L130.119 79.0992Z" fill="#ADBABC"/>
<path d="M118.699 92.9663C119.932 91.7483 120.981 90.1268 122.075 88.7664L129.904 79.1159L130.119 79.0992L130.14 88.8649C130.144 90.4455 129.945 92.35 130.191 93.8999C130.224 94.1114 130.292 94.2211 130.441 94.3688L130.55 94.4635L129.854 96.6969L126.663 103.756L125.359 98.6888C124.289 100.645 123.042 102.462 121.82 104.323L116.145 112.527C115.793 112.998 115.023 114.301 114.535 114.494L116.78 105.859L109.088 111.685L114.335 103.425C115.565 101.605 117.047 99.7542 117.978 97.7628C117.507 97.9037 117.052 98.3917 116.622 98.6525L113.118 100.593L118.699 92.9663Z" fill="#EAFCFC"/>
<path d="M107.588 192.47C109.488 193.963 111.108 195.964 112.777 197.711C113.373 198.336 114.218 199.002 114.683 199.709C113.277 199.903 111.886 199.721 110.648 198.999C109.336 198.233 108.165 197.024 107.781 195.52L107.732 195.317C107.499 194.366 107.556 193.442 107.588 192.47Z" fill="#F6A071"/>
<path d="M99.5891 185.077C101.081 186.189 102.196 187.731 103.712 188.851C104.989 189.79 106.233 191.15 107.321 192.312C106.459 192.396 105.557 192.484 104.703 192.29C103.007 191.905 100.941 190.501 100.063 188.97C99.3941 187.803 99.239 186.366 99.5891 185.077Z" fill="#F6A071"/>
<path d="M115.345 200.928L115.464 200.591C116.325 200.859 122.23 207.062 123.032 208.067L122.319 208.184C120.604 208.329 118.86 207.599 117.601 206.457C115.92 204.931 115.449 203.125 115.345 200.928Z" fill="#F6A071"/>
<path d="M130.226 162.77C130.416 162.142 130.957 161.787 131.427 161.338C132.003 160.79 132.527 160.234 133.015 159.605L142.322 168.675C143.272 169.576 144.332 170.861 145.448 171.505L154.573 180.683C156.021 182.106 157.858 183.565 159.055 185.204C159.721 186.354 160.117 187.699 159.76 189.034C159.384 190.439 158.396 191.775 157.104 192.46C156.048 193.019 154.939 193.139 153.765 192.992L152.166 192.807L152.472 194.406C152.522 196.208 152.232 197.734 150.944 199.091C150.027 200.058 148.725 200.661 147.393 200.702C146.32 200.735 145.376 200.486 144.403 200.059L144.376 202.037C144.447 203.672 144.24 204.975 143.101 206.224C142.204 207.209 141.089 207.917 139.726 207.976C139.218 207.997 138.749 207.964 138.252 207.852L138.074 207.814C137.45 207.668 136.785 207.365 136.223 207.054L135.908 207.22L135.988 208.597C135.962 209.42 135.817 210.244 135.439 210.984C134.81 212.211 133.501 213.12 132.208 213.531C128.686 214.653 126.276 211.447 124.229 209.169C123.945 208.854 123.547 208.267 123.156 208.101L123.032 208.067C122.23 207.062 116.325 200.859 115.464 200.591L115.345 200.928L115.333 200.684C115.3 200.206 115.025 199.995 114.683 199.709C114.218 199.002 113.373 198.336 112.777 197.711C111.108 195.964 109.488 193.963 107.588 192.47L107.321 192.312C106.233 191.15 104.989 189.79 103.712 188.851C102.196 187.731 101.081 186.189 99.5891 185.077L100.092 184.457C101.346 185.717 102.715 186.98 103.763 188.422C104.009 188.716 104.188 189.005 104.546 189.163L110.346 183.364L111.993 181.721L117.988 175.831L119.672 174.148L125.851 168.255L127.39 166.74L130.056 164.214C130.379 163.843 130.241 163.24 130.226 162.77Z" fill="#F6A071"/>
<path d="M181.825 127.261L199.994 145.366L159.055 185.204C157.858 183.565 156.021 182.106 154.573 180.683L145.448 171.505C144.332 170.861 143.272 169.576 142.322 168.675L133.015 159.605C132.527 160.234 132.003 160.79 131.427 161.338C130.957 161.787 130.416 162.142 130.226 162.77L130.154 162.791C127.777 165.029 125.58 166.826 122.129 166.701C121.214 166.669 120.565 166.45 119.771 166.001L119.691 165.958C119.937 165.918 120.111 165.948 120.351 165.991C121.423 166.185 122.589 166.298 123.668 166.099C124.273 165.987 124.854 165.905 125.43 165.67C127.07 164.999 128.463 163.671 129.868 162.618C129.963 162.426 130.038 162.245 130.077 162.033C130.269 160.999 130.142 159.757 130.144 158.696L130.146 151.687C130.143 150.968 130.333 149.282 129.956 148.723L130.017 148.624C130.607 148.263 131.126 147.736 131.651 147.282C132.935 146.174 134.238 144.958 135.769 144.202C137.075 143.557 138.486 143.137 139.926 142.936C142.912 142.52 146.11 142.731 149.123 142.736L163.42 142.792C164.527 142.706 165.589 142.637 166.59 142.097C168.248 141.201 169.745 139.323 171.079 137.982L176.361 132.71L176.447 132.643C177.145 132.152 177.767 131.377 178.366 130.768L181.825 127.261Z" fill="#F6A071"/>
<path d="M130.017 148.624C130.607 148.263 131.126 147.736 131.651 147.282C132.935 146.174 134.238 144.958 135.769 144.202C137.075 143.557 138.486 143.137 139.926 142.936C142.912 142.52 146.11 142.731 149.123 142.736L163.42 142.792L163.315 142.845C161.679 143.655 159.55 143.856 157.765 144.215C156.265 144.518 154.697 144.794 153.241 145.263C148.206 146.882 144.58 150.234 142.863 155.268C141.424 159.489 141.781 164.461 143.774 168.436C144.272 169.427 145.169 170.457 145.448 171.505C144.332 170.861 143.272 169.576 142.322 168.675L133.015 159.605C132.527 160.234 132.003 160.79 131.427 161.338C130.957 161.787 130.416 162.142 130.226 162.77L130.154 162.791C127.777 165.029 125.58 166.826 122.129 166.701C121.214 166.669 120.565 166.45 119.771 166.001L119.691 165.958C119.937 165.918 120.111 165.948 120.351 165.991C121.423 166.185 122.589 166.298 123.668 166.099C124.273 165.987 124.854 165.905 125.43 165.67C127.07 164.999 128.463 163.671 129.868 162.618C129.963 162.426 130.038 162.245 130.077 162.033C130.269 160.999 130.142 159.757 130.144 158.696L130.146 151.687C130.143 150.968 130.333 149.282 129.956 148.723L130.017 148.624Z" fill="#DFC9B0"/>
<path d="M77.6643 126.698L83.3782 132.632L83.4882 132.725L89.3196 138.714L91.827 141.354C92.0857 141.624 92.4356 142.108 92.7393 142.306C92.8708 142.392 93.0752 142.401 93.2262 142.401L93.7236 142.387L108.935 142.438C111.734 142.435 114.816 142.167 117.571 142.568C119.233 142.809 120.827 143.316 122.317 144.095C124.862 145.425 126.452 148.071 128.927 149.473L129.956 148.723C130.333 149.282 130.143 150.968 130.145 151.687L130.144 158.696C130.142 159.757 130.269 160.999 130.077 162.033C130.038 162.245 129.963 162.426 129.868 162.618C128.463 163.671 127.07 164.999 125.43 165.67C124.854 165.905 124.273 165.987 123.668 166.099C122.589 166.298 121.423 166.185 120.351 165.991C120.111 165.948 119.937 165.918 119.691 165.958L119.771 166.001C120.565 166.45 121.214 166.669 122.129 166.701C125.58 166.826 127.777 165.029 130.154 162.791L130.226 162.77C130.241 163.24 130.379 163.843 130.056 164.214L127.39 166.74L125.851 168.255L119.672 174.148L117.988 175.831L111.993 181.721L110.346 183.364L104.546 189.163C104.188 189.005 104.009 188.716 103.763 188.422C102.715 186.98 101.346 185.717 100.092 184.457L59.7761 145.226L77.6643 126.698Z" fill="#F6A071"/>
</g>
<defs>
<linearGradient id="paint0_linear_54_4896" x1="122.436" y1="65.7486" x2="135.222" y2="117.684" gradientUnits="userSpaceOnUse">
<stop stop-color="#FD9916"/>
<stop offset="1" stop-color="#DF401E"/>
</linearGradient>
<clipPath id="clip0_54_4896">
<rect width="260" height="260" fill="white"/>
</clipPath>
</defs>
</svg>
