<svg width="760" height="664" viewBox="0 0 760 664" fill="none" xmlns="http://www.w3.org/2000/svg">
<path d="M760.002 714.001L0.00212336 714.001L136.722 -39.9994L760.002 -39.9994L760.002 714.001Z" fill="#EAFCFC"/>
<path d="M454.517 257.665C453.209 255.652 448.076 247.776 448.228 245.831L449.093 245.332C449.287 245.391 449.507 245.397 449.676 245.51C450.118 245.807 450.819 247.236 451.102 247.727L454.814 254.236L456.749 257.774C455.859 257.908 455.384 257.904 454.517 257.665Z" fill="#E33115"/>
<path d="M193.436 505.081C193.628 503.517 193.703 501.067 194.435 499.716L209.174 499.749L207.277 505.198C204.454 505.479 201.449 505.251 198.605 505.223L191.211 535.791C190.446 539.023 188.995 542.511 188.828 545.813L187.887 545.815L187.542 545.413L189.23 534.919L193.436 505.081Z" fill="#E33115"/>
<path d="M198.605 505.223C201.449 505.251 204.454 505.479 207.278 505.198L197.74 533.438L193.467 546.099C192.006 546.045 190.245 546.139 188.828 545.813C188.995 542.511 190.446 539.024 191.211 535.791L198.605 505.223Z" fill="#F48D1C"/>
<path d="M454.517 257.665C455.384 257.904 455.859 257.908 456.749 257.774C459.014 257.442 461.49 257.717 463.779 257.793C465.905 257.705 467.812 257.633 469.911 258.061L470.341 258.137C472.538 262.718 475.828 267.221 478.655 271.461L489.392 287.052L492.413 290.799L481.847 287.515C477.088 286.55 472.522 284.832 467.622 284.834C464.174 284.912 461.612 285.396 458.37 286.597C457.456 286.935 456.221 287.291 455.492 287.938C453.15 285.383 451.436 282.299 449.512 279.433L439.766 265.304L436.414 260.524C435.846 259.702 435.904 259.175 436.083 258.225C436.274 258.108 436.436 257.924 436.654 257.874C438.063 257.555 440.419 257.895 441.912 257.891L454.517 257.665Z" fill="#008175"/>
<path d="M463.779 257.793C465.905 257.705 467.812 257.633 469.911 258.061L470.341 258.137C472.538 262.718 475.828 267.221 478.655 271.461L489.392 287.052L492.413 290.799L481.846 287.515C481.68 287.259 481.516 287.063 481.291 286.856L480.45 286.058C477.673 283.078 475.651 278.593 473.382 275.143L467.65 266.705C466.431 264.957 464.942 263.07 464.066 261.126C463.639 260.178 463.767 258.819 463.779 257.793Z" fill="#2C3F4E"/>
<path d="M455.492 287.938C456.221 287.291 457.456 286.935 458.37 286.597C461.612 285.396 464.174 284.912 467.622 284.834C472.522 284.832 477.088 286.55 481.847 287.515L492.413 290.799L489.392 287.052L489.765 285.264C491.805 284.832 493.518 285.782 495.177 286.851C496.915 287.969 497.155 288.759 498.112 290.466C499.071 292.179 502.11 295.151 503.875 295.958C505.157 296.544 506.892 296.783 508.28 297.099C508.652 298.674 508.713 307.063 508.011 308.347C505.857 308.423 503.745 308.961 501.599 308.504C500.785 308.331 500.017 308.213 499.188 308.147L498.896 308.125L494.146 307.663L494.241 309.234C494.026 309.843 493.921 310.289 493.463 310.765L491.921 311.346C488.418 312.54 484.726 313.393 481.132 314.294C479.456 314.713 477.152 314.965 475.725 315.872C475.423 315.89 475.211 315.914 474.898 315.87C474.24 315.779 473.608 315.489 473.127 315.029C472.035 313.987 471.127 312.572 470.227 311.364L465.06 304.072C464.405 304.796 463.545 305.323 462.747 305.879C459.677 305.032 456.147 302.525 454.019 300.185C452.706 298.742 450.18 293.626 450.552 291.615C450.856 289.973 454.124 288.776 455.492 287.938Z" fill="#F6A071"/>
<path d="M471.603 297.841L471.909 298.02C475.038 299.893 477.364 302.463 480.193 304.663C481.728 305.856 483.892 305.988 485.746 306.311L494.146 307.663L494.241 309.234C494.026 309.843 493.921 310.289 493.463 310.765L491.921 311.346C488.418 312.54 484.726 313.393 481.132 314.294C479.456 314.713 477.152 314.965 475.725 315.873C475.423 315.89 475.211 315.914 474.898 315.87C474.239 315.779 473.608 315.489 473.127 315.029C472.035 313.987 471.127 312.572 470.227 311.364L465.06 304.072C467.097 301.794 469.734 300.322 471.603 297.841Z" fill="#2C3F4E"/>
<path d="M493.463 310.765C494.461 311.069 495.357 311.135 496.396 311.181C496.938 311.785 497.872 311.879 498.632 312.072L498.696 314.057L498.854 336.606L498.663 356.453C498.651 358.906 498.149 362.732 498.935 364.978C497.757 365.112 496.284 364.639 495.115 364.404C490.686 363.513 486.465 362.231 482.26 360.582C480.482 359.886 478.81 358.962 477.02 358.292L476.781 358.205C476.136 357.568 474.898 357.193 474.084 356.757C473.68 356.541 471.698 355.397 471.534 355.032C471.513 354.986 471.699 354.025 471.715 353.94L472.739 348.515C474.097 339.916 474.863 331.242 475.487 322.562C475.625 320.644 476.268 317.675 475.725 315.873C477.152 314.965 479.456 314.713 481.132 314.294C484.726 313.393 488.418 312.54 491.921 311.346L493.463 310.765Z" fill="#F48D1C"/>
<path d="M493.992 332.714C493.214 332.287 493.068 332.273 492.662 331.445C492.819 330.595 493.023 330.283 493.553 329.639C494.63 329.558 494.866 329.771 495.8 330.259C496.515 330.676 497.041 330.837 497.436 331.577C497.265 332.181 497.084 332.521 496.465 332.779C495.589 333.143 494.867 333.022 493.992 332.714Z" fill="#E33115"/>
<path d="M265.975 275L289.007 275.254C293.998 275.343 299.714 274.893 304.557 276.106C307.1 276.744 309.79 278.107 311.646 279.973C313.261 281.597 314.4 283.726 315.198 285.859C315.939 287.84 316.358 289.991 316.931 292.029L320.447 304.498L333.017 347.058L330.51 346.365C327.547 343.865 324.775 340.679 322.278 337.719C315.536 329.726 309.939 320.854 304.296 312.071C301.976 307.678 300.73 302.846 298.993 298.211C297.234 293.519 294.215 289.565 289.941 286.865C283.047 282.512 274.466 281.097 267.102 277.727L265.975 275Z" fill="#008175"/>
<path d="M580.93 387.021L580.663 386.946C579.691 386.766 579.115 387.247 578.241 386.688C577.433 382.795 578.759 379.794 580.848 376.59C583.05 373.213 586.278 370.192 588.183 366.692C591.099 361.336 589.771 352.679 597.26 351.065C601.466 350.158 606.182 350.599 610.064 348.515C612.802 347.045 614.579 344.786 616.435 342.378C617.637 340.817 618.747 339.162 620.431 338.075C621.951 337.094 624.002 336.745 625.787 336.769C628.234 336.801 630.964 337.801 632.998 339.131C634.93 340.393 636.176 341.748 636.674 344.05C637.042 345.747 636.624 347.339 635.681 348.779C634.182 351.066 631.727 352.582 629.414 353.935C628.205 354.643 626.633 355.392 625.72 356.464C621.556 361.349 628.645 367.586 618.628 369.392C615.038 370.039 610.395 369.434 607.978 372.73C605.685 375.857 606.577 380.67 603.677 383.251C602.627 384.186 601.4 384.558 600.074 384.921L599.577 385.063C595.657 386.147 591.155 385.363 587.1 385.899C585.584 386.1 584.016 386.723 582.57 387.217C581.194 387.987 580.316 390.197 579.58 391.549C575.647 398.764 572.758 405.876 570.527 413.782C568.673 420.354 567.028 427.595 566.937 434.438C566.432 434.479 566.02 434.478 565.548 434.66C566.163 417.692 571.862 401.282 580.93 387.021Z" fill="#55B380"/>
<path d="M580.93 387.021C583.52 383.599 586.005 380.165 588.843 376.933C595.672 369.156 603.595 362 611.877 355.804C615.017 353.454 618.384 350.927 621.908 349.198L622.205 349.213C621.066 350.178 619.701 350.939 618.467 351.782L611.766 356.678C600.798 365.07 590.016 374.913 582.37 386.492L582.57 387.217C581.194 387.987 580.316 390.197 579.58 391.549C575.647 398.764 572.758 405.876 570.527 413.782C568.673 420.354 567.028 427.595 566.937 434.438C566.432 434.479 566.02 434.478 565.548 434.66C566.163 417.692 571.862 401.282 580.93 387.021Z" fill="#2C3F4E"/>
<path d="M494.146 307.663L498.896 308.125L499.188 308.147C500.017 308.213 500.785 308.331 501.599 308.504C503.744 308.961 505.857 308.423 508.011 308.347L507.823 312.202C512.891 314.083 518.876 314.635 524.186 315.733L541.353 319.172C543.547 319.602 545.812 320.299 548.009 320.599L554.975 321.806C554.647 324.644 553.85 327.332 551.573 329.231L556.605 347.346C557.012 348.444 557.497 349.44 557.351 350.632C556.955 351.223 556.589 351.811 556.075 352.307C547.56 358.711 534.951 361.269 524.581 362.867L504.949 363.907L499.682 363.756C499.305 364.154 499.138 364.47 498.935 364.978C498.149 362.732 498.651 358.906 498.663 356.453L498.854 336.606L498.696 314.057L498.631 312.072C497.872 311.879 496.938 311.785 496.396 311.181C495.357 311.135 494.461 311.069 493.463 310.765C493.921 310.289 494.026 309.843 494.241 309.234L494.146 307.663Z" fill="#F48D1C"/>
<path d="M494.146 307.663L498.896 308.125L499.188 308.147C500.017 308.213 500.785 308.331 501.599 308.504C503.744 308.961 505.857 308.423 508.011 308.347L507.823 312.202C512.891 314.083 518.876 314.635 524.186 315.733L541.353 319.172C543.547 319.602 545.812 320.299 548.009 320.599L554.975 321.806C554.647 324.644 553.85 327.332 551.573 329.231L556.605 347.346C555.707 346.812 554.809 346.297 553.985 345.65C551.24 344.802 548.813 343.205 546.351 341.764L536.994 336.371L500.042 314.7L499.986 322.563L500.022 352.639L499.987 359.856C499.979 361.102 500.101 362.577 499.682 363.756C499.305 364.154 499.138 364.47 498.935 364.978C498.149 362.732 498.651 358.906 498.663 356.453L498.854 336.606L498.696 314.057L498.631 312.072C497.872 311.879 496.938 311.785 496.396 311.181C495.357 311.135 494.461 311.069 493.463 310.765C493.921 310.289 494.026 309.843 494.241 309.234L494.146 307.663Z" fill="#E33115"/>
<path d="M548.009 320.599L554.975 321.806C554.647 324.643 553.85 327.332 551.573 329.231L548.009 320.599Z" fill="#EAFCFC"/>
<path d="M407.09 307.008L416.25 303.807C417.217 303.46 418.577 302.738 419.594 303.089C419.865 303.634 419.977 303.942 419.717 304.533L394.139 350.367C394.472 350.78 394.309 350.609 394.612 350.897C395.275 351.95 395.308 352.38 395.007 353.649L394.697 354.802C394.505 354.741 394.32 354.596 394.119 354.621C393.237 354.727 391.842 355.494 390.974 355.835L383.228 358.842L352.881 370.4C349.656 371.496 346.156 371.95 342.844 372.798L328.771 376.633C327.304 376.999 325.157 377.724 323.649 377.697C323.156 377.688 322.798 377.501 322.388 377.252L322.569 377.038C323.471 376.052 324.67 375.578 325.854 375.02L325.832 374.361L324.171 363.066C323.981 361.841 323.214 359.854 323.739 358.717C325.067 358.727 326.501 358.29 327.824 358.113L334.944 357.225C335.626 357.107 336.585 357.005 337.129 356.57C338.159 355.747 339.107 354.73 340.119 353.866L344.41 350.256C345.103 349.67 346.03 349.122 346.317 348.229C347.385 348.084 349.038 346.352 350.026 345.736C352.471 344.214 354.645 343.548 357.507 343.256L359.493 343.134L364.615 332.367L369.54 322.49C370.033 321.523 370.568 319.967 371.244 319.167C372.328 317.884 402.957 308.465 407.09 307.008Z" fill="#B1D5DD"/>
<path d="M353.223 366.344L382.256 355.321C385.717 354.033 389.233 352.203 392.722 351.119C393.329 350.93 393.98 350.889 394.612 350.897C395.275 351.95 395.308 352.38 395.007 353.649L394.697 354.802C394.505 354.741 394.32 354.596 394.119 354.621C393.237 354.727 391.842 355.494 390.974 355.835L383.228 358.842L352.881 370.4C349.656 371.496 346.156 371.95 342.844 372.798L328.771 376.633C327.304 376.999 325.157 377.724 323.649 377.696C323.156 377.687 322.798 377.501 322.388 377.252L322.569 377.037C324.089 376.692 325.468 375.689 327.02 375.272L349.717 369.548C350.247 369.401 351.459 369.126 351.859 368.822C352.261 368.518 352.935 366.868 353.223 366.344Z" fill="#008175"/>
<path d="M359.493 343.134C362.824 342.701 365.963 342.544 369.325 342.562C371.22 342.572 373.132 342.487 374.893 343.29L375.336 343.883C375.162 344.631 375.002 345.071 374.347 345.537C373.263 346.309 371.52 346.546 370.227 346.814L361.814 348.445L359.006 348.955L358.705 349.334C357.538 350.868 356.806 353.095 355.849 354.811L352.298 360.972C350.723 363.674 349.233 366.74 346.206 368.071C343.222 369.383 339.663 370.073 336.529 371.053C334.918 371.557 333.269 372.054 331.711 372.705C329.772 373.516 327.922 374.564 325.854 375.02L325.832 374.361L324.171 363.066C323.981 361.841 323.214 359.854 323.739 358.717C325.067 358.727 326.501 358.29 327.824 358.113L334.944 357.225C335.626 357.107 336.585 357.005 337.129 356.57C338.159 355.747 339.107 354.73 340.119 353.866L344.41 350.256C345.103 349.67 346.029 349.122 346.317 348.229C347.385 348.084 349.037 346.352 350.026 345.736C352.471 344.214 354.645 343.548 357.507 343.256L359.493 343.134Z" fill="#F6A071"/>
<path d="M480.606 174.421C480.209 173.139 480.078 171.728 479.975 170.39C479.559 164.988 480.893 159.507 484.481 155.367C489.381 149.715 498.876 145.618 506.293 145.092C512.806 144.63 519.826 145.821 525.384 149.411C526.859 150.365 528.176 151.568 529.503 152.715C531.395 152.547 533.201 153.111 534.965 153.734C535.456 153.907 535.247 153.857 535.799 153.872C536.897 153.252 537.809 152.721 539.073 152.527L539.504 152.456C544.085 151.765 549.801 152.662 553.562 155.532C554.738 156.429 555.904 157.636 556.852 158.77C557.635 159.705 559.274 160.075 560.403 160.476C559.824 161.054 558.695 161.911 558.434 162.659C559.291 164.067 559.729 165.621 560.51 166.988C560.665 167.262 561.114 167.395 561.391 167.46L562.467 167.672C561.76 169.371 560.144 169.718 560.518 171.864C560.764 173.278 560.24 175.496 559.923 176.89L559.816 177.37C558.783 181.887 555.978 185.652 552.015 188.064C549.028 189.883 544.891 190.716 541.464 189.845C539.475 189.339 537.792 188.599 536.082 187.444C533.298 192.785 530.027 195.955 524.625 198.648L524.449 193.554C524.04 192.981 523.574 192.844 522.955 192.549C522.939 193.357 523.076 193.175 523.373 193.828C523.817 194.806 523.559 197.386 523.678 198.568L523.381 199.228C522.828 198.9 522.607 198.652 522.272 198.106C520.922 198.739 520.404 200.473 519.645 201.74C518.817 203.123 517.893 204.422 516.851 205.654C513.35 209.795 508.002 213.159 502.816 214.732L502.367 210.935C501.059 211.126 499.274 211.563 497.966 211.402C495.741 211.127 493.911 210.663 491.981 209.492C484.974 205.239 482.549 196.43 482.286 188.694C482.167 185.219 482.747 182.09 481.856 178.655L481.793 178.422C481.109 177.205 480.839 175.781 480.606 174.421Z" fill="#2C3F4E"/>
<path d="M529.503 152.715C531.395 152.547 533.201 153.111 534.965 153.734C535.456 153.907 535.247 153.857 535.799 153.872C537.654 154.395 539.086 155.731 540.216 157.252C542.745 160.654 544.219 165.913 543.56 170.112L543.488 170.539C542.899 174.152 541.137 175.968 538.608 178.404L538.621 176.966C538.579 171.038 537.827 164.233 534.756 159.013C533.346 156.618 531.469 154.656 529.503 152.715Z" fill="#E33115"/>
<path d="M482.425 173.518L482.598 173.152C483.297 171.56 483.426 169.123 483.951 167.358C485.043 163.69 488.89 158.399 492.65 157.15L493.122 157.053L493.321 157.373C495.9 161.465 499.379 164.463 502.937 167.657C506.389 170.756 509.753 173.777 513.655 176.319L517.824 178.933C518.111 179.121 518.871 179.579 519.02 179.846C519.232 180.225 519.283 181.06 519.377 181.522C519.754 183.376 519.907 185.207 520.212 187.062C521.067 185.299 521.816 181.794 523.743 181.087C524.426 180.836 525.012 180.862 525.708 181.039L526.005 181.112C527.053 181.403 528.001 182.192 528.529 183.144C529.488 184.873 528.975 187.217 528.341 188.975C527.558 191.15 526.257 192.252 524.448 193.554C524.04 192.981 523.574 192.844 522.955 192.548C522.938 193.357 523.075 193.175 523.372 193.828C523.817 194.806 523.559 197.386 523.678 198.568L523.381 199.228C522.828 198.899 522.607 198.652 522.272 198.106C520.922 198.739 520.404 200.473 519.645 201.74C518.817 203.123 517.893 204.422 516.851 205.654C513.35 209.795 508.002 213.159 502.816 214.732L502.367 210.935C501.059 211.126 499.274 211.563 497.966 211.402C495.74 211.127 493.911 210.663 491.981 209.492C484.974 205.239 482.549 196.43 482.286 188.694C482.167 185.219 482.747 182.09 481.856 178.655L481.792 178.422C481.967 177.946 482.203 176.809 482.655 176.6C483.986 175.984 486.328 176.405 487.626 176.919C488.2 177.145 488.72 177.331 489.319 177.475C489.907 177.007 489.864 176.974 490.015 176.229C489.35 175.582 488.597 175.044 487.731 174.69C486.706 174.271 484.821 174.148 483.794 174.556C483.344 174.735 483.219 174.801 482.703 174.875L482.425 173.518Z" fill="#F6A071"/>
<path d="M521.754 195.3C521.769 193.969 521.021 190.766 521.56 189.726C521.643 190.727 521.914 191.314 522.665 191.986L522.883 191.578H523.043L523.289 192.1L522.955 192.548C522.939 193.357 523.076 193.175 523.373 193.828C523.817 194.806 523.559 197.386 523.678 198.568L523.381 199.228C522.828 198.899 522.607 198.652 522.272 198.106L521.754 195.3Z" fill="#2C3F4E"/>
<path d="M502.441 181.786L502.744 181.699C503.5 181.601 503.955 181.635 504.51 182.201C504.888 182.587 505.018 183.124 505.035 183.645C505.073 184.82 504.621 185.681 503.875 186.544C503.274 186.727 503.246 186.678 502.652 186.45C502.028 185.526 501.716 184.713 501.427 183.639C501.571 182.756 501.828 182.425 502.441 181.786Z" fill="#2C3F4E"/>
<path d="M485.524 181.786L485.815 181.758C486.478 181.754 487.02 181.949 487.466 182.459C487.857 182.905 488.097 183.551 488.078 184.145C488.043 185.231 487.419 186.059 486.709 186.815C486.246 187.183 486.517 187.044 485.879 187.195C485.134 186.079 484.263 183.924 484.527 182.6C484.6 182.234 485.216 181.983 485.524 181.786Z" fill="#2C3F4E"/>
<path d="M501.375 174.82C503.724 174.721 505.228 174.859 507.282 176.167C508.471 176.924 508.908 177.401 509.221 178.743L508.903 179.118L507.092 177.889L506.873 177.754C504.366 176.333 501.779 176.776 499.111 177.402L498.63 177.023L498.812 176.229C499.639 175.456 500.293 175.139 501.375 174.82Z" fill="#2C3F4E"/>
<path d="M501.223 198.988L502.022 198.75L502.415 198.988C501.756 200.457 500.291 201.87 498.846 202.556C497.118 203.377 495.405 203.209 493.656 202.589C492.684 202.036 491.924 201.196 491.125 200.422C494.683 200.254 497.77 199.912 501.223 198.988Z" fill="#EAFCFC"/>
<path d="M512.593 188.316L513.362 188.397C515.084 188.629 516.69 189.554 517.662 191.028C518.069 191.645 518.186 192.679 517.956 193.382C517.498 194.78 516.05 195.499 514.783 195.971C513.737 195.953 512.479 196.031 511.484 195.673C510.469 195.309 509.567 194.443 509.168 193.44C508.8 192.517 508.841 191.118 509.329 190.255C510.022 189.028 511.33 188.631 512.593 188.316Z" fill="#F48D1C"/>
<path d="M502.367 210.935C503.535 210.898 505.357 210.126 506.43 209.651C511.653 207.336 518.881 202.556 520.939 196.942C521.109 196.481 521.255 196.074 521.52 195.656L521.754 195.3L522.271 198.105C520.922 198.739 520.404 200.473 519.645 201.74C518.817 203.123 517.893 204.422 516.851 205.654C513.35 209.795 508.002 213.159 502.816 214.732L502.367 210.935Z" fill="#E33115"/>
<path d="M225.354 207.057L225.567 206.723C226.06 205.886 225.865 204.447 225.975 203.487C226.582 198.21 230.043 194.104 235.087 192.471C240.755 190.635 247.065 190.824 252.953 190.161C256.482 189.763 260.122 189.255 263.045 187.049C264.559 185.905 265.616 184.362 266.665 182.807C269.116 184.47 271.991 187.07 272.635 190.139L272.736 190.784L272.813 191.156C273.127 192.765 272.973 194.428 272.899 196.056C275.819 194.166 278.092 191.038 280.679 188.704C283.039 193.13 285.543 199.78 284.065 204.809C283.245 207.596 281.324 209.488 279.184 211.304C280.366 217.403 280.619 223.295 280.309 229.499C280.205 231.588 281.38 233.177 282.207 235.013L284.704 241.137C285.032 242.071 285.571 243.414 285.367 244.412C285.271 244.882 284.9 245.323 284.561 245.644C283.419 246.724 282.105 247.277 280.892 248.202C281.22 249.373 281.729 250.681 281.794 251.892C281.743 253.152 281.901 254.682 281.116 255.721C281.877 259.503 283.131 264.174 280.823 267.623C279.086 270.219 275.11 273.069 272.054 273.681C269.421 274.208 267.115 273.305 264.91 271.928L265.975 275L267.102 277.727L267.229 280.99C267.367 282.227 267.249 283.631 267.112 284.868C266.895 286.822 266.25 288.596 264.616 289.794C262.285 291.501 259.398 291.752 256.632 291.308L256.164 291.231C252.859 290.717 249.745 289.321 246.702 287.978L232.377 281.031C230.102 279.887 227.162 278.904 225.244 277.259L226.976 274.641L227.245 274.413C228.728 272.836 229.852 270.531 230.867 268.644C232.138 266.282 233.646 263.735 234.294 261.11C234.663 259.614 234.637 258.019 234.751 256.488C233.821 253.303 233.595 249.672 231.978 246.745C230.921 244.831 229.182 242.998 227.815 241.28C225.568 238.455 224.419 234.704 223.471 231.265C221.996 225.922 220.743 220.441 221.457 214.873C221.835 211.924 222.901 208.902 225.354 207.057Z" fill="#2C3F4E"/>
<path d="M276.998 255.393C274.924 254.93 272.885 254.456 270.905 253.675C271.611 253.132 272.981 252.102 273.838 251.869C274.347 251.731 276.08 252.201 276.709 252.248C278.019 252.347 279.38 252.166 280.684 252.019L281.794 251.892C281.743 253.152 281.901 254.682 281.117 255.721L280.731 255.496L276.998 255.393Z" fill="#F6A071"/>
<path d="M236.607 242.549C235.786 241.038 234.752 239.441 234.337 237.759C234.082 236.728 233.836 235.105 234.292 234.104C234.808 232.974 236.538 232.619 237.615 232.41C238.926 232.155 241.277 231.821 242.437 232.542L242.719 232.714C244.533 233.852 246.616 236.269 247.209 238.368C247.69 240.073 248.036 244.703 247.206 246.139C246.755 246.918 246.002 247.251 245.214 247.599C243.99 246.532 242.668 246.537 241.211 245.95C239.367 245.207 237.995 243.929 236.607 242.549Z" fill="#F6A071"/>
<path d="M240.608 234.716C241.242 234.549 241.845 234.617 242.49 234.657C242.972 235.097 243.31 235.382 243.578 235.994C244.32 237.691 243.239 240.412 242.667 242.076L242.252 242.113C240.983 240.601 239.421 238.238 239.688 236.168C239.802 235.283 239.893 235.243 240.608 234.716Z" fill="#F48D1C"/>
<path d="M270.933 213.929C273.98 213.809 276.624 212.926 279.184 211.304C280.366 217.403 280.619 223.295 280.309 229.499C280.205 231.588 281.38 233.177 282.207 235.013L284.703 241.137C285.032 242.071 285.571 243.414 285.367 244.412C285.271 244.882 284.9 245.323 284.56 245.644C283.419 246.724 282.105 247.277 280.892 248.202C278.594 248.797 276.002 248.269 273.608 248.937C270.045 249.932 268.311 253.299 264.281 252.73L263.839 252.662C260.384 252.151 257.085 250.377 254.885 247.635C252.457 244.608 252.488 241.308 251.957 237.658C251.608 235.26 251.104 232.218 251.687 229.869C252.445 226.821 254.406 224.301 254.759 221.115C255.154 217.541 253.948 215.333 251.759 212.64L251.84 212.099C257.789 214.05 264.721 214.132 270.933 213.929Z" fill="#F6A071"/>
<path d="M271.293 231.54C271.973 231.257 272.259 231.295 272.969 231.468C273.483 231.957 273.815 232.259 273.895 233C273.998 233.952 273.675 234.547 273.101 235.26C272.622 235.478 272.542 235.477 272.043 235.443C271.239 234.979 271.01 234.754 270.598 233.922C270.631 232.718 270.607 232.511 271.293 231.54Z" fill="#2C3F4E"/>
<path d="M272.499 223.776C273.793 223.633 275.414 223.436 276.587 224.078C276.716 224.801 276.728 225.244 276.585 225.982L269.129 226.96L264.135 227.939C266.505 225.714 269.409 224.582 272.499 223.776Z" fill="#2C3F4E"/>
<path d="M236.607 242.549C237.995 243.929 239.367 245.207 241.211 245.95C242.668 246.537 243.99 246.532 245.214 247.599L244.725 247.816C244.989 252.044 248.669 256.622 251.689 259.334C253.359 260.835 255.221 262.003 257.14 263.152C258.236 263.808 259.607 264.459 260.535 265.338C261.435 266.192 261.931 267.607 262.554 268.68C263.215 269.82 264.083 270.905 264.91 271.928L265.975 275L267.102 277.727L267.229 280.99C267.367 282.227 267.249 283.632 267.112 284.868C266.895 286.822 266.25 288.596 264.616 289.794C262.285 291.501 259.398 291.752 256.632 291.308L256.164 291.231C252.859 290.717 249.745 289.321 246.702 287.978L232.377 281.031C230.102 279.887 227.162 278.904 225.244 277.259L226.976 274.641L227.245 274.413C228.728 272.836 229.852 270.531 230.867 268.644C232.138 266.282 233.646 263.735 234.294 261.11C234.663 259.614 234.637 258.019 234.751 256.488C235.238 255.672 235.175 254.179 235.245 253.218L235.872 245.593L236.607 242.549Z" fill="#F6A071"/>
<path d="M236.607 242.549C237.995 243.929 239.367 245.207 241.211 245.95C242.668 246.537 243.99 246.532 245.214 247.599L244.725 247.816C244.989 252.044 248.669 256.622 251.689 259.334C253.359 260.835 255.221 262.003 257.14 263.152C258.235 263.808 259.607 264.459 260.535 265.338C261.435 266.192 261.93 267.607 262.553 268.68C263.215 269.82 264.083 270.905 264.91 271.928L265.975 275L267.102 277.727L267.229 280.99C264.752 279.526 262.548 277.559 260.213 275.88C258.271 274.485 256.182 273.318 254.333 271.788C248.773 267.193 245.126 260.597 241.35 254.57C239.591 251.761 238.092 248.358 236.051 245.81L235.872 245.593L236.607 242.549Z" fill="#F48D1C"/>
<path d="M566.932 275.771C572.667 272.609 579.864 271.909 581.955 264.686C582.598 262.467 582.347 259.805 582.364 257.508C582.383 254.681 582.352 251.919 582.948 249.14C584.184 243.372 588.259 239.192 593.215 236.31C597.143 234.026 600.25 232.137 603.202 228.587C608.704 221.97 611.397 211.245 620.278 208.139C622.011 207.533 624.325 207.314 626.128 207.813C629.353 208.706 631.884 211.411 633.337 214.344C634.439 216.566 634.526 219.115 634.512 221.541C634.491 225.299 634.104 228.896 632.811 232.445C630.144 239.767 622.919 247.928 626.737 256.101C627.946 258.689 629.497 260.893 630.259 263.695L630.353 264.033C631.11 267.039 630.397 269.425 628.794 271.934C627.979 273.208 626.738 274.271 625.66 275.317C624.276 276.66 622.724 278.001 621.58 279.555C619.123 282.895 618.95 287.16 619.689 291.09L622.085 302.201L622.148 302.645C622.753 307.089 622.475 311.469 619.68 315.169C615.98 320.065 609.916 322.261 604.327 324.216C600.784 325.456 597.303 326.547 594.647 329.343C590.91 333.278 590.531 338.688 589.625 343.753C588.016 352.753 584.387 359.2 577.09 364.704C573.818 367.172 570.175 369.514 566.287 370.894L564.453 394.497C564.186 396.509 564.343 398.64 564.219 400.674L563.744 434.441C563.179 434.456 562.722 434.32 562.181 434.169L561.8 434.347L561.25 434.114C560.874 434.283 560.456 434.316 560.052 434.387L552.609 393.966L553.464 392.748C553.996 390.688 555.586 388.503 556.624 386.633C557.709 384.68 558.856 382.603 559.482 380.449C560.734 376.148 560.568 369.799 559.596 365.435L559.678 363.423C559.097 360.367 558.31 354.55 556.075 352.307C556.59 351.811 556.955 351.223 557.351 350.632C557.497 349.44 557.012 348.444 556.606 347.346L551.573 329.231C553.85 327.332 554.647 324.644 554.975 321.807C557.369 322.317 560.364 322.771 562.774 322.297C565.293 321.801 567.695 320.422 569.114 318.241C572.303 313.339 571.2 305.47 570.65 299.952C569.844 291.859 568.562 283.737 566.932 275.771Z" fill="#2C3F4E"/>
<path d="M559.677 363.423C560.91 366.455 562.609 368.555 564.946 370.825L562.18 434.169L561.799 434.347L561.25 434.114C560.874 434.283 560.456 434.316 560.052 434.387L552.609 393.966L553.464 392.748C553.996 390.688 555.585 388.503 556.624 386.633C557.709 384.68 558.855 382.603 559.482 380.449C560.734 376.148 560.568 369.799 559.596 365.435L559.677 363.423Z" fill="#EAFCFC"/>
<path d="M553.464 392.748C557.994 405.737 560.418 420.393 561.25 434.114C560.874 434.283 560.456 434.316 560.052 434.387L552.609 393.966L553.464 392.748Z" fill="#2C3F4E"/>
<path d="M522.271 198.106C522.607 198.652 522.828 198.9 523.381 199.228L523.099 199.527L523.183 199.814C524.594 204.813 524.749 210.457 525.626 215.605C525.739 216.271 525.803 217.885 526.105 218.446C526.199 218.622 526.422 218.688 526.58 218.809L530.202 220.032L531.246 220.516L539.522 224.407L546.748 227.698C548.859 228.632 551.159 229.343 552.972 230.824C555.215 232.655 556.82 235.616 557.873 238.28C562.535 250.081 564.406 263.384 566.932 275.771C568.562 283.737 569.844 291.859 570.65 299.952C571.2 305.47 572.303 313.339 569.114 318.241C567.695 320.422 565.293 321.801 562.774 322.297C560.364 322.771 557.369 322.317 554.975 321.807L548.009 320.599C545.812 320.299 543.547 319.603 541.353 319.172L524.186 315.733C518.876 314.635 512.891 314.083 507.823 312.202L508.011 308.347C508.713 307.063 508.652 298.674 508.28 297.099C506.892 296.783 505.157 296.544 503.875 295.958C502.11 295.151 499.071 292.179 498.112 290.466C497.155 288.759 496.915 287.969 495.177 286.851C493.517 285.783 491.805 284.832 489.765 285.264L489.392 287.052L478.655 271.461C475.828 267.221 472.538 262.718 470.341 258.137C472.472 255.022 474.488 251.772 476.08 248.345L480.917 236.71C482.646 233.209 484.699 229.605 488.041 227.374C490.263 225.891 492.884 224.882 495.335 223.838L496.991 223.044C498.535 222.275 500.18 221.492 501.859 221.088L502.546 220.802C503.283 219.391 502.903 216.321 502.816 214.732C508.002 213.159 513.35 209.795 516.851 205.654C517.893 204.422 518.817 203.123 519.645 201.74C520.404 200.473 520.922 198.739 522.271 198.106Z" fill="#F48D1C"/>
<path d="M496.991 223.044C495.708 228.004 495.979 234.064 495.817 239.183C495.563 247.2 494.823 255.249 496.017 263.219L496.902 270.549C497.339 276.968 498.787 283.57 498.485 289.988C496.005 283.928 496.986 277.145 495.507 270.885L495.44 270.616C494.975 267.889 494.914 265.037 494.695 262.278C493.686 249.596 494.301 236.52 495.335 223.838L496.991 223.044Z" fill="#E33115"/>
<path d="M536.832 257.893C536.871 256.655 536.614 253.838 537.092 252.812C537.636 254.454 537.767 256.109 538.087 257.8L540.016 267.929L544.048 287.239L545.556 294.053C545.754 294.853 545.891 295.952 546.271 296.675C549.238 297.04 552.326 297.856 554.701 299.759L555.043 300.028C552.387 299.37 549.159 298.17 546.433 298.111L533.696 296.658L528.736 296.17C529.395 294.76 530.446 293.378 531.248 292.028C532.463 289.985 533.528 287.914 534.996 286.033L537.426 277.192C538.54 273.172 537.675 268.589 537.444 264.489C537.327 262.408 537.789 259.786 536.832 257.893Z" fill="#E33115"/>
<path d="M502.192 222.209C502.736 222.563 503.749 222.757 504.404 222.894C510.298 224.128 516.891 222.922 522.532 221.156C523.56 220.835 524.869 220.634 525.754 220.016C526.229 219.686 525.88 219.825 526.442 219.618L526.728 219.528C527.732 220.562 528.68 221.348 530.123 221.625C529.578 222.754 528.459 223.649 527.687 224.638L517.107 238.075C511.871 244.75 507.134 252.035 501.439 258.319L496.966 262.073C495.946 259.999 496.68 256.036 496.936 253.773C498.118 243.338 500.607 233.082 502.122 222.703L502.192 222.209Z" fill="#F6A071"/>
<path d="M556.075 352.307C558.31 354.55 559.097 360.367 559.677 363.423L559.596 365.435C560.568 369.799 560.734 376.148 559.482 380.449C558.855 382.603 557.709 384.68 556.624 386.633C555.585 388.503 553.996 390.687 553.464 392.748L552.609 393.966L560.052 434.387L533.232 434.323C532.855 435.119 533.093 437.054 533.097 437.999L533.118 448.512L533.113 514.25L528.919 512.46C526.099 511.102 523.92 508.631 521.05 507.377C519.779 507.601 518.642 506.647 517.374 506.542C515.565 506.07 510.788 500.742 509.3 499.225L509.241 498.86C508.016 497.476 507.002 496.001 506.277 494.297L511.07 491.689C512.199 490.584 514.131 490.078 515.618 489.572C516.033 488.763 515.686 488.161 515.486 487.293L488.008 427.016C485.689 423.543 483.995 419.518 482.132 415.784C480.803 413.121 479.259 410.517 478.189 407.737C478.428 405.995 478.23 404.04 478.179 402.278L477.708 391.104L476.781 358.205L477.02 358.292C478.81 358.961 480.482 359.886 482.26 360.582C486.465 362.231 490.686 363.513 495.115 364.404C496.284 364.639 497.757 365.112 498.935 364.978C499.138 364.47 499.305 364.154 499.682 363.756L504.949 363.907L524.581 362.867C534.951 361.269 547.56 358.711 556.075 352.307Z" fill="#008175"/>
<path d="M511.071 491.689C510.953 492.266 510.822 492.761 510.614 493.311C509.965 495.026 510.113 497.305 509.241 498.861C508.016 497.476 507.002 496.001 506.277 494.297L511.071 491.689Z" fill="#008175"/>
<path d="M552.609 393.966L560.052 434.387L533.232 434.323C532.855 435.119 533.093 437.054 533.097 437.999L533.118 448.512L533.113 514.25L528.919 512.46C526.099 511.102 523.92 508.631 521.05 507.377C520.748 506.523 520.627 505.668 520.713 504.764C521.074 500.994 521.995 497.124 522.695 493.403C523.785 487.605 524.793 481.359 525.02 475.471C525.39 465.892 523.565 456.478 520.066 447.572C520.148 447.152 520.077 447.286 520.296 446.96L528.964 432.723L543.258 409.317L548.103 401.127C549.514 398.672 550.81 396.167 552.609 393.966Z" fill="#EAFCFC"/>
<path d="M561.25 434.114L561.799 434.347L562.18 434.169C562.721 434.32 563.179 434.456 563.744 434.441L565.548 434.66C566.021 434.478 566.432 434.479 566.937 434.438L568.289 434.644L595.735 434.359L595.59 450.567L594.966 496.725L594.801 514.351C594.765 521.056 595.097 527.693 593.255 534.225C592.237 537.491 591.17 540.444 589.538 543.457L568.611 543.305L535.772 543.306L533.684 538.385C533.067 536.653 532.468 535.05 531.501 533.478L519.673 537.017L501.876 541.971C500.046 539.878 499.109 536.478 498.109 533.894L497.839 533.983C496.879 534.142 495.389 533.926 494.677 533.302L494.755 532.672C493.731 531.682 492.626 531.175 491.356 530.583C489.078 529.484 486.415 528.745 484.032 527.869L475.153 524.737L474.452 524.289C474.43 524.009 474.356 523.727 474.384 523.447C474.414 523.154 474.832 522.485 474.964 522.202L476.813 518.261C479.23 513.128 481.344 507.559 484.185 502.663L484.412 502.648C485.264 502.583 486.048 502.423 486.875 502.217C488.049 503.887 489.532 506.349 491.191 507.519L491.277 507.193C492.23 506.36 493.917 505.966 495.095 505.496L504.272 501.84C506.02 501.077 507.591 500.054 509.3 499.225C510.788 500.742 515.565 506.07 517.374 506.542C518.642 506.648 519.779 507.601 521.05 507.377C523.92 508.631 526.099 511.102 528.919 512.46L533.113 514.25L533.118 448.512L533.097 437.999C533.093 437.054 532.855 435.119 533.232 434.323L560.052 434.387C560.456 434.316 560.874 434.283 561.25 434.114Z" fill="#F48D1C"/>
<path d="M509.3 499.225C510.788 500.742 515.565 506.07 517.374 506.542C518.642 506.648 519.779 507.601 521.05 507.377C523.92 508.631 526.099 511.102 528.919 512.46L533.113 514.25L540.793 515.948L541.113 516.001C542.849 516.259 545.002 515.715 546.73 515.475C552.842 514.624 558.829 515.3 563.683 519.554C564.523 520.393 564.97 520.973 565.291 522.124C564.742 523.013 563.857 523.422 562.925 523.825C560.648 524.81 558.083 525.351 555.717 526.111L531.501 533.478L519.673 537.018L501.876 541.971C500.046 539.878 499.109 536.478 498.109 533.894L497.839 533.983C496.879 534.142 495.389 533.926 494.677 533.302L494.755 532.672C493.731 531.682 492.626 531.175 491.356 530.583C489.078 529.484 486.415 528.745 484.032 527.869L475.153 524.737L474.452 524.29C474.43 524.009 474.356 523.727 474.384 523.447C474.414 523.154 474.832 522.485 474.964 522.202L476.813 518.261C479.23 513.128 481.344 507.559 484.185 502.663L484.412 502.648C485.264 502.583 486.048 502.423 486.875 502.217C488.049 503.887 489.532 506.35 491.191 507.519L491.277 507.193C492.23 506.36 493.917 505.966 495.095 505.496L504.272 501.84C506.02 501.077 507.591 500.054 509.3 499.225Z" fill="#2C3F4E"/>
<path d="M496.443 529.248L498.109 533.894L497.839 533.982C496.879 534.142 495.389 533.926 494.677 533.302L494.756 532.672L496.443 529.248Z" fill="#EAFCFC"/>
<path d="M509.3 499.225C510.788 500.742 515.565 506.07 517.374 506.542C514.802 511.855 512.529 517.808 506.473 519.951L505.727 520.185L505.448 520.273C503.745 520.761 500.931 520.533 499.394 519.707C497.785 518.843 496.917 517.172 496.108 515.616C495.32 512.965 492.787 509.817 491.191 507.519L491.277 507.193C492.23 506.36 493.917 505.966 495.095 505.496L504.272 501.84C506.02 501.077 507.591 500.054 509.3 499.225Z" fill="#F6A071"/>
<path d="M484.185 502.663L484.412 502.648C485.264 502.583 486.048 502.423 486.875 502.217C488.049 503.887 489.532 506.349 491.191 507.519C492.786 509.817 495.32 512.965 496.108 515.616C495.421 517.528 494.997 519.385 494.806 521.407C495.006 524.22 495.533 526.579 496.443 529.248L494.755 532.672C493.731 531.682 492.626 531.175 491.356 530.583C489.078 529.484 486.415 528.745 484.032 527.869L475.153 524.737L474.452 524.289C474.43 524.009 474.356 523.727 474.384 523.447C474.414 523.154 474.832 522.485 474.964 522.202L476.813 518.261C479.23 513.128 481.344 507.559 484.185 502.663Z" fill="#008175"/>
<path d="M528.919 512.46L533.113 514.25L540.793 515.948L541.113 516.001C542.849 516.259 545.002 515.715 546.73 515.475C552.842 514.624 558.829 515.3 563.683 519.554C557.631 522.427 550.846 523.999 544.416 525.839L524.663 531.92C523.816 524.805 524.436 518.293 528.919 512.46Z" fill="#E33115"/>
<path d="M225.244 277.259C227.161 278.904 230.102 279.887 232.377 281.031L246.702 287.978C249.745 289.321 252.859 290.717 256.164 291.231L256.632 291.308C259.398 291.752 262.285 291.501 264.616 289.794C266.249 288.596 266.895 286.822 267.112 284.868C267.249 283.631 267.367 282.227 267.229 280.99L267.102 277.727C274.466 281.097 283.047 282.512 289.941 286.865C294.215 289.565 297.234 293.519 298.993 298.211C300.73 302.847 301.976 307.678 304.296 312.071C309.939 320.854 315.536 329.726 322.278 337.719C324.775 340.679 327.547 343.865 330.51 346.365L333.017 347.058L346.317 348.229C346.029 349.122 345.103 349.67 344.41 350.256L340.119 353.866C339.107 354.73 338.159 355.747 337.129 356.57C336.585 357.005 335.625 357.107 334.944 357.225L327.824 358.113C326.5 358.29 325.067 358.727 323.739 358.717C323.214 359.854 323.98 361.841 324.171 363.066L325.832 374.361L325.854 375.02C324.67 375.578 323.471 376.052 322.569 377.038L322.388 377.252L278.592 403.039L254.052 402.877C252.617 400.394 250.864 398.013 249.247 395.641L237.52 379.242L225.891 362.445C222.472 357.505 218.443 352.223 215.97 346.73C211.934 340.185 208.247 333.359 205.279 326.259C202.732 320.167 200.398 313.412 201.116 306.713C202.149 297.083 207.086 288.106 215.492 282.957C218.761 280.954 222.243 279.697 225.244 277.259Z" fill="#E33115"/>
<path d="M317.744 499.01L393.457 499.762C395.706 499.776 398.881 499.373 401.008 499.91C402.878 499.914 405.082 500.142 406.909 499.834L415.316 526.508L435.217 526.638L435.321 526.046L434.797 522.325C436.708 521.509 440.233 521.663 442.385 521.374L455.585 519.402L456.527 523.65L457.01 526.975L457.696 530.461C459.866 530.315 463.004 533.213 464.704 534.471L468.533 536.354L474.488 527.281C474.957 526.351 475.158 525.784 475.153 524.737L484.032 527.869C486.415 528.745 489.078 529.484 491.356 530.583C492.626 531.175 493.731 531.682 494.755 532.672L494.677 533.302C495.389 533.926 496.879 534.142 497.839 533.983L498.109 533.894C499.109 536.478 500.046 539.878 501.875 541.971L519.673 537.018L531.501 533.478C532.468 535.05 533.067 536.653 533.684 538.385L535.772 543.306L568.611 543.305L589.538 543.457C591.169 540.444 592.237 537.491 593.255 534.225L593.515 534.319C596.343 535.301 599.9 535.437 602.877 535.771L612.652 537.304C616.91 538.062 621.467 538.943 625.318 540.942L625.646 541.107C626.857 541.735 627.692 542.666 628.118 543.958C627.929 545.024 627.211 545.521 626.374 546.11C623.845 547.889 620.775 548.521 617.81 549.209L605.393 551.573C588.489 554.27 571.761 555.938 554.687 557.06L489.848 560.221L471.588 561.116L437.977 561.791L360.766 562.16L273.631 559.15L222.786 555.935C205.345 554.616 187.767 552.967 170.558 549.782C165.426 548.832 157.311 547.68 153.398 544.09C153.247 543.383 153.132 543.154 153.535 542.502C155.613 539.142 173.75 536.537 177.885 536.055L189.23 534.919L187.541 545.413L187.887 545.815L188.828 545.813C190.245 546.139 192.006 546.045 193.467 546.099L197.739 533.438L308.537 528.069L300.017 505.921L297.444 499.238C298.571 499.472 299.895 499.397 301.057 499.416L310.048 499.214L317.744 499.01Z" fill="#B1D5DD"/>
<path d="M317.744 499.01L393.457 499.762C395.706 499.776 398.881 499.373 401.008 499.91C402.878 499.914 405.082 500.142 406.909 499.834L415.316 526.508L435.217 526.638L435.321 526.046L434.797 522.325C436.708 521.509 440.233 521.663 442.385 521.374L455.585 519.402L456.527 523.65L457.01 526.975L457.696 530.461C459.866 530.315 463.004 533.213 464.704 534.471L468.533 536.354L474.488 527.281C474.957 526.351 475.158 525.784 475.153 524.737L484.032 527.869C486.415 528.745 489.078 529.484 491.356 530.583C492.626 531.175 493.731 531.682 494.755 532.672L494.677 533.302C495.389 533.926 496.879 534.142 497.839 533.983L498.109 533.894C499.109 536.478 500.046 539.878 501.875 541.971L519.673 537.018L531.501 533.478C532.468 535.05 533.067 536.653 533.684 538.385L535.772 543.306L568.611 543.305L589.538 543.457C591.169 540.444 592.237 537.491 593.255 534.225L593.515 534.319C596.343 535.301 599.9 535.437 602.877 535.771L612.652 537.304C616.91 538.062 621.467 538.943 625.318 540.942L625.646 541.107C626.857 541.735 627.692 542.666 628.118 543.958C627.929 545.024 627.211 545.521 626.374 546.11C623.845 547.889 620.775 548.521 617.81 549.209L605.393 551.573C588.489 554.27 571.761 555.938 554.687 557.06L489.848 560.221L471.588 561.116L437.977 561.791L360.766 562.16L273.631 559.15L222.786 555.935C205.345 554.616 187.767 552.967 170.558 549.782C165.426 548.832 157.311 547.68 153.398 544.09C153.247 543.383 153.132 543.154 153.535 542.502C155.613 539.142 173.75 536.537 177.885 536.055L189.23 534.919L187.541 545.413L187.887 545.815L188.828 545.813C190.245 546.139 192.006 546.045 193.467 546.099L197.739 533.438L308.537 528.069L300.017 505.921L297.444 499.238C298.571 499.472 299.895 499.397 301.057 499.416L310.048 499.214L317.744 499.01Z" fill="#B1D5DD"/>
<path d="M505.042 545.285C507.083 544.32 509.305 543.703 511.417 542.904C512.903 542.343 514.328 541.545 515.918 541.361C513.72 543.235 510.025 546.575 506.968 546.322C506.084 546.249 505.64 545.916 505.042 545.285Z" fill="#2C3F4E"/>
<path d="M519.673 537.018L531.501 533.478C532.468 535.05 533.067 536.653 533.684 538.385L517.803 539.909C518.589 538.979 519.152 538.119 519.673 537.018Z" fill="#EAFCFC"/>
<path d="M501.875 541.971L519.673 537.017C519.152 538.119 518.589 538.979 517.803 539.909L515.918 541.361C514.328 541.545 512.902 542.343 511.417 542.904C509.305 543.702 507.083 544.32 505.042 545.285C504.819 544.527 502.542 542.654 501.875 541.971Z" fill="#2C3F4E"/>
<path d="M393.457 499.762C395.706 499.776 398.881 499.373 401.008 499.91C402.878 499.914 405.082 500.142 406.909 499.834L415.316 526.508L422.013 547.209L418.269 547.146L416.408 547.044C416.331 547.025 415.918 546.855 415.838 546.736C414.807 545.197 414.086 542.93 413.257 541.226L406.005 526.261L393.457 499.762Z" fill="#E33115"/>
<path d="M297.444 499.238C298.571 499.472 299.895 499.397 301.057 499.416L310.048 499.214C310.611 501.218 311.156 503.396 311.987 505.298L317.495 527.532L321.095 542.126C321.84 545.111 322.883 548.224 323.173 551.282L319.817 551.328C319.121 551.356 317.954 551.528 317.339 551.237C316.79 550.977 309.337 530.293 308.537 528.069L300.017 505.921L297.444 499.238Z" fill="#E33115"/>
<path d="M309.892 505.36L311.987 505.298L317.496 527.532L321.095 542.126C321.841 545.111 322.883 548.224 323.173 551.282L319.817 551.328C318.37 548.743 317.692 544.851 316.88 541.962L313.723 531.784L307.821 514.088C306.862 511.242 305.775 508.454 304.989 505.552L309.892 505.36Z" fill="#F48D1C"/>
<path d="M434.797 522.325C436.709 521.509 440.233 521.663 442.385 521.374L455.585 519.402L456.528 523.65L457.01 526.975L457.696 530.461C459.866 530.315 463.004 533.213 464.704 534.471L468.533 536.354L474.488 527.281C474.957 526.351 475.158 525.784 475.153 524.737L484.032 527.869C486.415 528.745 489.078 529.484 491.356 530.583C492.626 531.175 492.477 531.01 493.502 532.001L492.502 533.501C490.627 537.305 492.025 541.672 490.652 545.7C492.993 546.903 496.748 548.398 498.383 550.484C499.098 551.397 499.465 552.725 499.854 553.802C500.174 554.925 499.906 555.998 499.491 557.058C498.154 557.327 496.525 557.134 495.148 557.124L487.496 557.193L431.276 556.865C431.899 553.684 434.508 538.929 436.011 537.28C436.388 536.408 436.153 535.431 436.079 534.496C435.873 531.884 435.691 529.216 435.217 526.638L435.321 526.046L434.797 522.325Z" fill="#2C3F4E"/>
<path d="M434.797 522.325C436.709 521.509 440.233 521.663 442.385 521.374L455.586 519.402L456.528 523.65L457.01 526.975L457.696 530.461L457.305 530.684C455.449 531.754 453.945 533.152 452.191 534.345C447.781 537.342 442.939 539.297 437.58 537.815L436.011 537.28C436.388 536.408 436.153 535.431 436.079 534.496C435.873 531.884 435.691 529.216 435.217 526.638L435.321 526.046L434.797 522.325Z" fill="#F6A071"/>
<path d="M434.797 522.325C436.709 521.509 440.233 521.663 442.385 521.374L455.586 519.402L456.528 523.65C455.473 524.538 452.584 524.466 451.144 524.626C445.879 525.209 440.625 525.961 435.321 526.046L434.797 522.325Z" fill="#F48D1C"/>
<path d="M475.153 524.737L484.032 527.869C486.415 528.745 489.078 529.484 491.356 530.583C492.626 531.175 493.731 531.682 494.755 532.672C493.478 536.001 491.875 541.473 490.502 545.501C492.843 546.704 496.748 548.398 498.383 550.484C499.098 551.397 499.465 552.725 499.854 553.802L460.462 551.104L460.36 550.837C460.234 550.113 460.523 548.853 460.607 548.103C461.152 543.196 462.306 538.803 464.704 534.471L468.502 536.001L473.002 538.001L481.002 541.501L490.502 545.501L493.253 537.001L494.755 532.672L493.204 531.511L491.356 530.583L487.744 529.146L484.032 527.869L474.488 527.281C474.957 526.351 475.158 525.784 475.153 524.737Z" fill="#E33115"/>
<path d="M475.153 524.737L485.002 528.001L490.002 530.001L492.502 531.001L494.002 532.001C491.002 539.501 491.686 540.682 491.502 546.001C487.504 543.979 472.338 538.864 468.502 536.501L474.488 527.281C474.957 526.351 475.158 525.784 475.153 524.737Z" fill="#F6A071"/>
<path d="M317.744 499.01L393.457 499.762L406.005 526.261C404.871 526.593 403.691 526.485 402.519 526.489L396.507 526.498L376.182 526.592L335.822 527.387L324.265 527.66C322.019 527.697 319.724 527.843 317.496 527.532L311.987 505.298C311.156 503.396 310.612 501.218 310.048 499.214L317.744 499.01Z" fill="#EAFCFC"/>
<path d="M394.697 354.802C395.737 354.986 396.698 354.422 397.687 354.071L402.885 352.324C409.628 349.99 417.33 347.224 424.48 346.774C439.478 345.831 447.974 357.987 455.679 368.975L478.189 407.737C479.259 410.517 480.803 413.121 482.132 415.784C483.996 419.518 485.689 423.543 488.008 427.016L515.487 487.293C515.687 488.161 516.033 488.763 515.618 489.572C514.132 490.078 512.2 490.584 511.071 491.689L506.277 494.297C507.002 496.001 508.016 497.476 509.241 498.86L509.3 499.225C507.591 500.054 506.02 501.077 504.272 501.84L495.095 505.496C493.917 505.966 492.23 506.36 491.277 507.193L491.191 507.519C489.532 506.35 488.049 503.887 486.875 502.217C486.048 502.423 485.264 502.583 484.413 502.648L484.186 502.663C481.344 507.559 479.23 513.128 476.813 518.261L474.964 522.202C474.832 522.485 474.414 523.154 474.385 523.447C474.356 523.727 474.43 524.009 474.452 524.29L475.154 524.737C475.158 525.784 474.957 526.351 474.488 527.281L468.533 536.354L464.704 534.471C463.004 533.213 459.866 530.315 457.696 530.461L457.01 526.975L456.528 523.65L455.586 519.402L442.385 521.374C440.233 521.663 436.709 521.509 434.797 522.325L435.321 526.046L435.217 526.638L415.316 526.508L406.909 499.834C408.473 499.635 410.183 499.781 411.762 499.788L420.551 499.829L414.754 473.35L407.015 437.115L307.021 437.016C305.53 437.175 304.092 437.32 302.59 437.266C298.636 429.65 297.072 420.819 292.731 413.352C290.249 409.082 285.259 404.884 280.466 403.652C279.954 403.52 279.462 403.402 278.973 403.201L278.592 403.039L322.388 377.252C322.798 377.501 323.156 377.687 323.649 377.696C325.157 377.724 327.304 376.999 328.771 376.633L342.844 372.798C346.156 371.95 349.656 371.496 352.881 370.4L383.228 358.842L390.974 355.835C391.842 355.494 393.237 354.727 394.119 354.621C394.32 354.596 394.505 354.741 394.697 354.802Z" fill="#2C3F4E"/>
<path d="M491.277 507.193C490.197 505.38 489.26 503.77 488.622 501.748C494.738 499.654 500.614 497.47 506.277 494.297C507.002 496.001 508.016 497.476 509.241 498.86L509.3 499.225C507.591 500.054 506.02 501.077 504.272 501.84L495.095 505.496C493.917 505.966 492.23 506.36 491.277 507.193Z" fill="#E33115"/>
<path d="M406.909 499.834C408.473 499.635 410.183 499.781 411.762 499.788L420.551 499.829L425.385 522.52C428.162 522.824 431.27 522.793 434.004 522.162L434.797 522.325L435.321 526.046L435.217 526.638L415.316 526.508L406.909 499.834Z" fill="#EAFCFC"/>
<path d="M455.585 519.402L460.199 518.669C459.794 510.85 458.646 502.912 457.788 495.123L455.299 470.525L454.004 458.978C453.711 456.551 453.189 453.978 453.307 451.536L484.185 502.663C481.344 507.559 479.23 513.128 476.813 518.261L474.964 522.202C474.832 522.485 474.414 523.154 474.384 523.447C474.356 523.727 474.43 524.009 474.452 524.289L475.153 524.737C475.158 525.784 474.957 526.351 474.488 527.281L468.533 536.354L464.704 534.471C463.004 533.213 459.866 530.315 457.696 530.461L457.01 526.975L456.527 523.65L455.585 519.402Z" fill="#EAFCFC"/>
<path d="M457.01 526.975L474.488 527.281L468.533 536.354L464.704 534.471C463.004 533.213 459.866 530.315 457.696 530.461L457.01 526.975Z" fill="#B1D5DD"/>
<path d="M159.707 273.983L226.976 274.641L225.244 277.259C222.243 279.697 218.761 280.954 215.492 282.957C207.086 288.106 202.149 297.083 201.117 306.712C200.398 313.412 202.732 320.167 205.279 326.259C208.247 333.359 211.934 340.185 215.97 346.73C218.443 352.223 222.473 357.505 225.891 362.445L237.52 379.241L249.248 395.641C250.864 398.012 252.617 400.394 254.052 402.877L278.592 403.039L278.973 403.201C279.462 403.402 279.954 403.52 280.466 403.652C285.259 404.884 290.249 409.082 292.731 413.352C297.072 420.819 298.636 429.65 302.59 437.266C304.092 437.32 305.53 437.175 307.021 437.016L407.015 437.115L414.754 473.35L420.551 499.829L411.762 499.788C410.184 499.781 408.473 499.635 406.909 499.834C405.082 500.142 402.878 499.914 401.008 499.91C398.881 499.373 395.706 499.776 393.457 499.762L317.744 499.01L310.048 499.214L301.057 499.416C299.895 499.397 298.571 499.472 297.444 499.238L297.038 498.966L183.093 499.072L162.194 417.605L161.779 415.603L161.478 414.015C161.26 411.255 162.441 409.131 164.231 407.15C167.347 403.698 169.904 402.883 174.435 402.664L145.025 293.921C144.136 289.687 144.641 285.34 147.095 281.683C150.205 277.049 154.375 275.011 159.707 273.983Z" fill="#008175"/>
</svg>
