<svg width="755" height="573" viewBox="0 0 755 573" fill="none" xmlns="http://www.w3.org/2000/svg">
<path d="M597.728 483.753H553.986V569.249H597.728V483.753Z" fill="#DCEAF9"/>
<path d="M182.178 113.148H226.8V97.6504H182.178V113.148Z" fill="#EBF2F9"/>
<path d="M182.178 142.27H226.8V126.767H182.178V142.27Z" fill="#EBF2F9"/>
<path d="M182.178 168.469H226.8V152.971H182.178V168.469Z" fill="#EBF2F9"/>
<path d="M515.56 278.694H463.692V302.619H515.56V278.694Z" fill="#EBF2F9"/>
<path d="M515.56 352.137H464.186V376.062H515.56V352.137Z" fill="#EBF2F9"/>
<path d="M515.56 388.28H464.186V412.206H515.56V388.28Z" fill="#EBF2F9"/>
<path d="M146.732 152.971H99.7974V168.469H146.732V152.971Z" fill="#EBF2F9"/>
<path d="M146.732 127.006H99.7974V142.509H146.732V127.006Z" fill="#EBF2F9"/>
<path d="M227.934 178.371H99.7974V193.874H227.934V178.371Z" fill="#EBF2F9"/>
<path d="M227.934 201.679H99.7974V217.182H227.934V201.679Z" fill="#EBF2F9"/>
<path d="M227.934 224.827H99.7974V239.734H227.934V224.827Z" fill="#EBF2F9"/>
<path d="M515.56 315.993H464.186V339.918H515.56V315.993Z" fill="#EBF2F9"/>
<path d="M307.535 254.774H296.321V269.766H307.535V254.774Z" fill="#EBF2F9"/>
<path d="M286.566 254.774H275.351V269.766H286.566V254.774Z" fill="#EBF2F9"/>
<path d="M266.062 254.774H254.848V269.766H266.062V254.774Z" fill="#EBF2F9"/>
<path d="M246.626 254.774H235.411V269.766H246.626V254.774Z" fill="#EBF2F9"/>
<path d="M226.817 254.774H215.603V269.766H226.817V254.774Z" fill="#EBF2F9"/>
<path d="M206.774 254.774H195.559V269.766H206.774V254.774Z" fill="#EBF2F9"/>
<path d="M185.804 254.774H174.59V269.766H185.804V254.774Z" fill="#EBF2F9"/>
<path d="M165.306 254.774H154.091V269.766H165.306V254.774Z" fill="#EBF2F9"/>
<path d="M145.863 254.774H134.648V269.766H145.863V254.774Z" fill="#EBF2F9"/>
<path d="M126.055 254.774H114.84V269.766H126.055V254.774Z" fill="#EBF2F9"/>
<path d="M105.405 254.774H94.19V269.766H105.405V254.774Z" fill="#EBF2F9"/>
<path d="M84.4348 254.774H73.2202V269.766H84.4348V254.774Z" fill="#EBF2F9"/>
<path d="M63.9367 254.774H52.7222V269.766H63.9367V254.774Z" fill="#EBF2F9"/>
<path d="M44.4936 254.774H33.2791V269.766H44.4936V254.774Z" fill="#EBF2F9"/>
<path d="M24.6857 254.774H13.4712V269.766H24.6857V254.774Z" fill="#EBF2F9"/>
<path d="M307.535 281.233H296.321V296.225H307.535V281.233Z" fill="#EBF2F9"/>
<path d="M286.566 281.233H275.351V296.225H286.566V281.233Z" fill="#EBF2F9"/>
<path d="M266.062 281.233H254.848V296.225H266.062V281.233Z" fill="#EBF2F9"/>
<path d="M246.626 281.233H235.411V296.225H246.626V281.233Z" fill="#EBF2F9"/>
<path d="M226.817 281.233H215.603V296.225H226.817V281.233Z" fill="#EBF2F9"/>
<path d="M206.774 281.233H195.559V296.225H206.774V281.233Z" fill="#EBF2F9"/>
<path d="M185.804 281.233H174.59V296.225H185.804V281.233Z" fill="#EBF2F9"/>
<path d="M165.306 281.233H154.091V296.225H165.306V281.233Z" fill="#EBF2F9"/>
<path d="M145.863 281.233H134.648V296.225H145.863V281.233Z" fill="#EBF2F9"/>
<path d="M126.055 281.233H114.84V296.225H126.055V281.233Z" fill="#EBF2F9"/>
<path d="M105.405 281.233H94.19V296.225H105.405V281.233Z" fill="#EBF2F9"/>
<path d="M84.4348 281.233H73.2202V296.225H84.4348V281.233Z" fill="#EBF2F9"/>
<path d="M63.9367 281.233H52.7222V296.225H63.9367V281.233Z" fill="#EBF2F9"/>
<path d="M44.4936 281.233H33.2791V296.225H44.4936V281.233Z" fill="#EBF2F9"/>
<path d="M24.6857 281.233H13.4712V296.225H24.6857V281.233Z" fill="#EBF2F9"/>
<path d="M307.535 307.283H296.321V322.275H307.535V307.283Z" fill="#EBF2F9"/>
<path d="M286.566 307.283H275.351V322.275H286.566V307.283Z" fill="#EBF2F9"/>
<path d="M266.062 307.283H254.848V322.275H266.062V307.283Z" fill="#EBF2F9"/>
<path d="M246.626 307.283H235.411V322.275H246.626V307.283Z" fill="#EBF2F9"/>
<path d="M226.817 307.283H215.603V322.275H226.817V307.283Z" fill="#EBF2F9"/>
<path d="M206.774 307.283H195.559V322.275H206.774V307.283Z" fill="#EBF2F9"/>
<path d="M185.804 307.283H174.59V322.275H185.804V307.283Z" fill="#EBF2F9"/>
<path d="M165.306 307.283H154.091V322.275H165.306V307.283Z" fill="#EBF2F9"/>
<path d="M145.863 307.283H134.648V322.275H145.863V307.283Z" fill="#EBF2F9"/>
<path d="M126.055 307.283H114.84V322.275H126.055V307.283Z" fill="#EBF2F9"/>
<path d="M105.405 307.283H94.19V322.275H105.405V307.283Z" fill="#EBF2F9"/>
<path d="M84.4348 307.283H73.2202V322.275H84.4348V307.283Z" fill="#EBF2F9"/>
<path d="M63.9367 307.283H52.7222V322.275H63.9367V307.283Z" fill="#EBF2F9"/>
<path d="M44.4936 307.283H33.2791V322.275H44.4936V307.283Z" fill="#EBF2F9"/>
<path d="M24.6857 307.283H13.4712V322.275H24.6857V307.283Z" fill="#EBF2F9"/>
<path d="M307.535 334.962H296.321V349.954H307.535V334.962Z" fill="#EBF2F9"/>
<path d="M286.566 334.962H275.351V349.954H286.566V334.962Z" fill="#EBF2F9"/>
<path d="M266.062 334.962H254.848V349.954H266.062V334.962Z" fill="#EBF2F9"/>
<path d="M246.626 334.962H235.411V349.954H246.626V334.962Z" fill="#EBF2F9"/>
<path d="M226.817 334.962H215.603V349.954H226.817V334.962Z" fill="#EBF2F9"/>
<path d="M206.774 334.962H195.559V349.954H206.774V334.962Z" fill="#EBF2F9"/>
<path d="M185.804 334.962H174.59V349.954H185.804V334.962Z" fill="#EBF2F9"/>
<path d="M165.306 334.962H154.091V349.954H165.306V334.962Z" fill="#EBF2F9"/>
<path d="M145.863 334.962H134.648V349.954H145.863V334.962Z" fill="#EBF2F9"/>
<path d="M126.055 334.962H114.84V349.954H126.055V334.962Z" fill="#EBF2F9"/>
<path d="M105.405 334.962H94.19V349.954H105.405V334.962Z" fill="#EBF2F9"/>
<path d="M84.4348 334.962H73.2202V349.954H84.4348V334.962Z" fill="#EBF2F9"/>
<path d="M63.9367 334.962H52.7222V349.954H63.9367V334.962Z" fill="#EBF2F9"/>
<path d="M44.4936 334.962H33.2791V349.954H44.4936V334.962Z" fill="#EBF2F9"/>
<path d="M24.6857 334.962H13.4712V349.954H24.6857V334.962Z" fill="#EBF2F9"/>
<path d="M307.535 361.422H296.321V376.414H307.535V361.422Z" fill="#EBF2F9"/>
<path d="M286.566 361.422H275.351V376.414H286.566V361.422Z" fill="#EBF2F9"/>
<path d="M266.062 361.422H254.848V376.414H266.062V361.422Z" fill="#EBF2F9"/>
<path d="M246.626 361.422H235.411V376.414H246.626V361.422Z" fill="#EBF2F9"/>
<path d="M226.817 361.422H215.603V376.414H226.817V361.422Z" fill="#EBF2F9"/>
<path d="M206.774 361.422H195.559V376.414H206.774V361.422Z" fill="#EBF2F9"/>
<path d="M185.804 361.422H174.59V376.414H185.804V361.422Z" fill="#EBF2F9"/>
<path d="M165.306 361.422H154.091V376.414H165.306V361.422Z" fill="#EBF2F9"/>
<path d="M145.863 361.422H134.648V376.414H145.863V361.422Z" fill="#EBF2F9"/>
<path d="M126.055 361.422H114.84V376.414H126.055V361.422Z" fill="#EBF2F9"/>
<path d="M105.405 361.422H94.19V376.414H105.405V361.422Z" fill="#EBF2F9"/>
<path d="M84.4348 361.422H73.2202V376.414H84.4348V361.422Z" fill="#EBF2F9"/>
<path d="M63.9367 361.422H52.7222V376.414H63.9367V361.422Z" fill="#EBF2F9"/>
<path d="M44.4936 361.422H33.2791V376.414H44.4936V361.422Z" fill="#EBF2F9"/>
<path d="M24.6857 361.422H13.4712V376.414H24.6857V361.422Z" fill="#EBF2F9"/>
<path d="M307.535 387.471H296.321V402.463H307.535V387.471Z" fill="#EBF2F9"/>
<path d="M286.566 387.471H275.351V402.463H286.566V387.471Z" fill="#EBF2F9"/>
<path d="M266.062 387.471H254.848V402.463H266.062V387.471Z" fill="#EBF2F9"/>
<path d="M246.626 387.471H235.411V402.463H246.626V387.471Z" fill="#EBF2F9"/>
<path d="M226.817 387.471H215.603V402.463H226.817V387.471Z" fill="#EBF2F9"/>
<path d="M206.774 387.471H195.559V402.463H206.774V387.471Z" fill="#EBF2F9"/>
<path d="M185.804 387.471H174.59V402.463H185.804V387.471Z" fill="#EBF2F9"/>
<path d="M165.306 387.471H154.091V402.463H165.306V387.471Z" fill="#EBF2F9"/>
<path d="M145.863 387.471H134.648V402.463H145.863V387.471Z" fill="#EBF2F9"/>
<path d="M126.055 387.471H114.84V402.463H126.055V387.471Z" fill="#EBF2F9"/>
<path d="M105.405 387.471H94.19V402.463H105.405V387.471Z" fill="#EBF2F9"/>
<path d="M84.4348 387.471H73.2202V402.463H84.4348V387.471Z" fill="#EBF2F9"/>
<path d="M63.9367 387.471H52.7222V402.463H63.9367V387.471Z" fill="#EBF2F9"/>
<path d="M44.4936 387.471H33.2791V402.463H44.4936V387.471Z" fill="#EBF2F9"/>
<path d="M24.6857 387.471H13.4712V402.463H24.6857V387.471Z" fill="#EBF2F9"/>
<path d="M405.166 312.745V281.558H403.819V312.745H385.313V351.232H423.419V312.745H405.166Z" fill="#EBF2F9"/>
<path d="M515.561 232.211V208.286H504.84V197.872H503.487V208.286H464.405H463.692H456.3V197.872H454.947V208.286H445.467V312.846H464.405V267.796H515.561V243.87H464.405V232.211H515.561Z" fill="#EBF2F9"/>
<path d="M437.031 426.09H180.197V568.589H437.031V426.09Z" fill="#EBF2F9"/>
<path d="M203.967 440.699H190.272V460.531H203.967V440.699Z" fill="#D5E7F7"/>
<path d="M228.114 440.699H214.418V460.531H228.114V440.699Z" fill="#D5E7F7"/>
<path d="M252.423 440.699H238.728V460.531H252.423V440.699Z" fill="#D5E7F7"/>
<path d="M276.57 440.699H262.875V460.531H276.57V440.699Z" fill="#D5E7F7"/>
<path d="M301.44 440.699H287.744V460.531H301.44V440.699Z" fill="#D5E7F7"/>
<path d="M325.587 440.699H311.892V460.531H325.587V440.699Z" fill="#D5E7F7"/>
<path d="M349.896 440.699H336.201V460.531H349.896V440.699Z" fill="#D5E7F7"/>
<path d="M374.043 440.699H360.347V460.531H374.043V440.699Z" fill="#D5E7F7"/>
<path d="M399.368 440.699H385.673V460.531H399.368V440.699Z" fill="#D5E7F7"/>
<path d="M423.515 440.699H409.82V460.531H423.515V440.699Z" fill="#D5E7F7"/>
<path d="M203.967 470.028H190.272V489.86H203.967V470.028Z" fill="#D5E7F7"/>
<path d="M228.114 470.028H214.418V489.86H228.114V470.028Z" fill="#D5E7F7"/>
<path d="M252.423 470.028H238.728V489.86H252.423V470.028Z" fill="#D5E7F7"/>
<path d="M276.57 470.028H262.875V489.86H276.57V470.028Z" fill="#D5E7F7"/>
<path d="M301.44 470.028H287.744V489.86H301.44V470.028Z" fill="#D5E7F7"/>
<path d="M325.587 470.028H311.892V489.86H325.587V470.028Z" fill="#D5E7F7"/>
<path d="M349.896 470.028H336.201V489.86H349.896V470.028Z" fill="#D5E7F7"/>
<path d="M374.043 470.028H360.347V489.86H374.043V470.028Z" fill="#D5E7F7"/>
<path d="M399.368 470.028H385.673V489.86H399.368V470.028Z" fill="#D5E7F7"/>
<path d="M423.515 470.028H409.82V489.86H423.515V470.028Z" fill="#D5E7F7"/>
<path d="M203.967 501.53H190.272V521.361H203.967V501.53Z" fill="#D5E7F7"/>
<path d="M228.114 501.53H214.418V521.361H228.114V501.53Z" fill="#D5E7F7"/>
<path d="M252.423 501.53H238.728V521.361H252.423V501.53Z" fill="#D5E7F7"/>
<path d="M276.57 501.53H262.875V521.361H276.57V501.53Z" fill="#D5E7F7"/>
<path d="M301.44 501.53H287.744V521.361H301.44V501.53Z" fill="#D5E7F7"/>
<path d="M325.587 501.53H311.892V521.361H325.587V501.53Z" fill="#D5E7F7"/>
<path d="M349.896 501.53H336.201V521.361H349.896V501.53Z" fill="#D5E7F7"/>
<path d="M374.043 501.53H360.347V521.361H374.043V501.53Z" fill="#D5E7F7"/>
<path d="M399.368 501.53H385.673V521.361H399.368V501.53Z" fill="#D5E7F7"/>
<path d="M423.515 501.53H409.82V521.361H423.515V501.53Z" fill="#D5E7F7"/>
<path d="M203.967 530.859H190.272V550.69H203.967V530.859Z" fill="#D5E7F7"/>
<path d="M228.114 530.859H214.418V550.69H228.114V530.859Z" fill="#D5E7F7"/>
<path d="M252.423 530.859H238.728V550.69H252.423V530.859Z" fill="#D5E7F7"/>
<path d="M276.57 530.859H262.875V550.69H276.57V530.859Z" fill="#D5E7F7"/>
<path d="M301.44 530.859H287.744V550.69H301.44V530.859Z" fill="#D5E7F7"/>
<path d="M325.587 530.859H311.892V550.69H325.587V530.859Z" fill="#D5E7F7"/>
<path d="M349.896 530.859H336.201V550.69H349.896V530.859Z" fill="#D5E7F7"/>
<path d="M374.043 530.859H360.347V550.69H374.043V530.859Z" fill="#D5E7F7"/>
<path d="M399.368 530.859H385.673V550.69H399.368V530.859Z" fill="#D5E7F7"/>
<path d="M423.515 530.859H409.82V550.69H423.515V530.859Z" fill="#D5E7F7"/>
<path d="M348.555 432.602H402.147V388.28L348.555 407.739V432.602Z" fill="#EBF2F9"/>
<path d="M412.451 388.28H402.146V426.096H412.451V388.28Z" fill="#EBF2F9"/>
<path d="M390.825 420.24V407.249H369.917V420.24H390.825Z" fill="#D5E7F7"/>
<path d="M7.90899 147.003H0.803101V204.192H7.90899V147.003Z" fill="#EBF2F9"/>
<path d="M22.3452 147.003H15.2393V204.192H22.3452V147.003Z" fill="#EBF2F9"/>
<path d="M395.013 78.9211C390.999 34.2006 368.767 0 341.932 0C313.755 0 290.652 37.7143 288.385 85.7143C286.472 85.1179 284.471 84.8124 282.457 84.8092C268.532 84.8092 257.244 99.1837 257.244 116.912C257.235 120.724 257.775 124.52 258.85 128.193C236.892 136.978 221.21 160.206 221.21 187.475C221.21 222.293 246.776 250.515 278.315 250.515C303.612 250.515 325.065 232.355 332.569 207.205C342.448 215.5 354.42 220.36 367.324 220.36C401.198 220.36 428.662 186.905 428.662 145.634C428.662 116.486 414.978 91.2458 395.013 78.9211Z" fill="#A0E7B1"/>
<path d="M382.558 112.951C325.307 105.631 316.775 164.758 316.775 164.758C248.927 135.477 221.306 190.642 221.306 190.642C222.816 223.97 247.776 250.477 278.338 250.477C303.636 250.477 325.088 232.318 332.592 207.168C342.471 215.462 357.07 249.684 369.98 249.684C390.332 249.684 405.74 208.243 416.892 189.647C417.257 188.513 439.344 120.208 382.558 112.951Z" fill="#50CC96"/>
<path d="M334.685 305.824C322.472 305.824 311.987 298.999 303.534 285.54C297.157 275.425 291.881 261.365 287.851 243.828C281.06 214.302 280.066 184.392 280.061 184.089C280.03 183.094 280.417 182.129 281.137 181.405C281.857 180.681 282.851 180.258 283.9 180.229C284.949 180.2 285.966 180.568 286.73 181.25C287.493 181.933 287.939 182.876 287.969 183.871C287.969 184.163 288.957 213.466 295.603 242.311C301.491 267.865 313.048 298.318 334.685 298.318C335.735 298.318 336.741 298.713 337.483 299.417C338.225 300.121 338.642 301.076 338.642 302.071C338.642 303.067 338.225 304.021 337.483 304.725C336.741 305.429 335.735 305.824 334.685 305.824V305.824Z" fill="#7A3909"/>
<path d="M335.05 390.964C334.837 390.964 334.635 390.964 334.438 390.964C333.391 390.902 332.412 390.449 331.718 389.703C331.023 388.957 330.669 387.98 330.734 386.987C330.798 385.993 331.277 385.065 332.063 384.406C332.849 383.747 333.879 383.411 334.927 383.473C335.426 383.473 336.234 383.414 337.441 382.318C342.381 377.83 351.198 359.249 354.751 285.205C356.8 242.518 356.037 201.86 356.031 201.455C356.022 200.962 356.114 200.472 356.304 200.014C356.494 199.555 356.778 199.136 357.139 198.781C357.499 198.426 357.93 198.142 358.406 197.945C358.883 197.748 359.396 197.642 359.915 197.633C360.435 197.624 360.951 197.712 361.435 197.892C361.919 198.072 362.36 198.341 362.735 198.683C363.109 199.025 363.408 199.434 363.616 199.886C363.824 200.338 363.936 200.824 363.945 201.317C363.945 201.721 364.72 242.619 362.66 285.546C361.448 310.818 359.506 331.863 356.884 348.09C353.455 369.349 348.886 382.318 342.919 387.743C340.034 390.341 337.144 390.964 335.05 390.964Z" fill="#7A3909"/>
<path d="M707.567 184.414C708.643 180.573 709.182 176.616 709.172 172.642C709.172 154.153 697.885 139.161 683.959 139.161C681.943 139.165 679.94 139.481 678.032 140.098C675.787 90.0533 652.656 50.7045 624.485 50.7045C597.65 50.7045 575.411 86.3745 571.404 133.033C551.439 145.89 537.726 172.216 537.726 202.605C537.726 217.091 540.841 230.657 546.258 242.279C527.735 253.107 515.948 269.43 515.948 287.697C515.948 320.295 553.515 346.722 599.861 346.722C634.549 346.722 664.325 331.911 677.106 310.792C680.703 311.601 684.387 312.011 688.084 312.011C719.623 312.011 745.19 282.57 745.19 246.25C745.207 217.794 729.524 193.581 707.567 184.414Z" fill="#A0E7B1"/>
<path d="M707.567 184.414C707.567 184.414 651.999 163.895 609.656 200.05C567.312 236.204 537.844 179.18 551.978 152.667C543.098 166.19 537.754 183.594 537.754 202.584C537.754 217.07 540.87 230.635 546.286 242.257C527.764 253.086 515.976 269.409 515.976 287.675C515.976 320.273 553.544 346.701 599.889 346.701C634.577 346.701 664.353 331.89 677.134 310.77C680.731 311.58 684.415 311.989 688.113 311.989C719.651 311.989 745.218 282.548 745.218 246.229C745.207 217.794 729.524 193.581 707.567 184.414Z" fill="#50CC96"/>
<path d="M642.272 572.076C641.23 572.076 640.231 571.684 639.494 570.985C638.757 570.286 638.343 569.338 638.343 568.35V161.649C638.382 160.677 638.816 159.757 639.554 159.083C640.293 158.408 641.278 158.031 642.303 158.031C643.328 158.031 644.314 158.408 645.052 159.083C645.79 159.757 646.224 160.677 646.263 161.649V568.323C646.263 568.819 646.16 569.309 645.959 569.767C645.758 570.224 645.463 570.639 645.092 570.988C644.721 571.337 644.281 571.613 643.797 571.8C643.313 571.987 642.795 572.081 642.272 572.076V572.076Z" fill="#7A3909"/>
<path d="M642.273 306.096C631.048 306.096 621.545 302.3 614.041 294.815C593.054 273.881 595.069 231.12 595.164 229.331C595.217 228.336 595.683 227.402 596.462 226.733C597.24 226.065 598.266 225.717 599.315 225.767C600.364 225.816 601.349 226.259 602.054 226.997C602.758 227.735 603.125 228.709 603.073 229.704V229.704C603.073 230.119 601.137 271.086 619.788 289.672C625.822 295.682 633.175 298.605 642.273 298.605C642.806 298.586 643.337 298.669 643.835 298.849C644.333 299.03 644.788 299.303 645.171 299.654C645.555 300.005 645.861 300.425 646.069 300.89C646.278 301.355 646.385 301.856 646.385 302.361C646.385 302.867 646.278 303.367 646.069 303.832C645.861 304.297 645.555 304.718 645.171 305.069C644.788 305.419 644.333 305.693 643.835 305.873C643.337 306.053 642.806 306.136 642.273 306.117V306.096Z" fill="#7A3909"/>
<path d="M642.834 391.235C642.57 391.235 642.307 391.235 642.037 391.235C640.989 391.174 640.01 390.72 639.315 389.974C638.619 389.227 638.265 388.25 638.33 387.256C638.395 386.262 638.873 385.333 639.66 384.673C640.447 384.014 641.477 383.678 642.525 383.739C644.035 383.83 645.545 383.207 647.128 381.865C652.017 377.713 661.301 363.088 668.513 311.824C672.689 282.176 674.126 254.534 674.126 254.257C674.177 253.263 674.642 252.328 675.419 251.658C676.196 250.989 677.222 250.64 678.271 250.688C679.32 250.736 680.305 251.177 681.011 251.914C681.717 252.652 682.085 253.625 682.034 254.619C682.034 254.896 680.569 282.836 676.354 312.815C673.868 330.479 670.915 345.397 667.581 357.157C663.209 372.596 658.247 382.499 652.427 387.461C649.424 389.963 646.202 391.235 642.834 391.235Z" fill="#7A3909"/>
<path d="M395.175 219.28C394.094 214.631 393.554 209.884 393.564 205.123C393.564 182.88 404.857 164.854 418.783 164.854C420.817 164.862 422.83 165.246 424.71 165.982C426.955 105.785 450.08 58.472 478.257 58.472C505.087 58.472 527.325 101.393 531.338 157.496C551.303 172.935 565.015 204.618 565.015 241.171C565.015 258.596 561.9 274.909 556.478 288.884C575.001 301.906 586.788 321.54 586.788 343.512C586.788 382.717 549.221 414.495 502.875 414.495C468.182 414.495 438.411 396.687 425.63 371.287C422.06 372.255 418.365 372.748 414.652 372.751C383.113 372.751 357.54 337.342 357.54 293.665C357.529 259.437 373.217 230.305 395.175 219.28Z" fill="#50CC96"/>
<path d="M556.451 288.873C561.873 274.898 564.988 258.586 564.988 241.161C564.988 236.774 564.801 232.467 564.427 228.24C486.907 233.292 489.994 307.033 489.994 307.033C489.994 307.033 437.34 269.766 415.966 305.84C394.592 341.915 425.614 371.276 425.614 371.276C438.395 396.676 468.166 414.484 502.859 414.484C549.204 414.484 586.771 382.706 586.771 343.501C586.777 321.53 574.979 301.911 556.451 288.873Z" fill="#00AF8D"/>
<path d="M477.421 569.063C476.376 569.063 475.373 568.671 474.63 567.973C473.888 567.275 473.467 566.328 473.458 565.336V260.438C473.497 259.467 473.931 258.547 474.669 257.872C475.407 257.198 476.393 256.821 477.418 256.821C478.443 256.821 479.428 257.198 480.167 257.872C480.905 258.547 481.339 259.467 481.378 260.438V565.31C481.378 566.305 480.961 567.26 480.219 567.964C479.477 568.668 478.47 569.063 477.421 569.063Z" fill="#7A3909"/>
<path d="M477.421 354.66C466.196 354.66 456.687 350.864 449.188 343.384C428.196 322.446 430.211 279.684 430.312 277.874C430.338 277.382 430.466 276.899 430.689 276.454C430.912 276.009 431.225 275.61 431.61 275.279C431.996 274.949 432.446 274.693 432.936 274.528C433.425 274.363 433.944 274.29 434.463 274.315C434.982 274.34 435.491 274.461 435.96 274.673C436.429 274.884 436.85 275.181 437.199 275.546C437.547 275.912 437.816 276.339 437.991 276.803C438.165 277.268 438.241 277.76 438.215 278.252C438.215 278.699 436.29 319.64 454.93 338.22C460.964 344.231 468.317 347.154 477.421 347.154C478.471 347.154 479.477 347.549 480.219 348.253C480.962 348.957 481.378 349.911 481.378 350.907C481.378 351.902 480.962 352.857 480.219 353.561C479.477 354.265 478.471 354.66 477.421 354.66V354.66Z" fill="#7A3909"/>
<path d="M722.369 483.753C719.641 483.753 717.435 472.765 717.435 470.183V376.062C717.413 375.434 717.524 374.808 717.762 374.221C718 373.635 718.36 373.1 718.821 372.648C719.281 372.196 719.833 371.837 720.443 371.591C721.053 371.346 721.709 371.219 722.371 371.219C723.034 371.219 723.69 371.346 724.3 371.591C724.91 371.837 725.462 372.196 725.922 372.648C726.383 373.1 726.743 373.635 726.981 374.221C727.219 374.808 727.33 375.434 727.308 376.062V492.916C727.308 495.503 725.096 483.753 722.369 483.753Z" fill="#284663"/>
<path d="M524.822 497.595C523.513 497.595 522.259 497.102 521.333 496.225C520.408 495.347 519.888 494.157 519.888 492.916V376.062C519.866 375.434 519.977 374.808 520.215 374.221C520.453 373.635 520.813 373.1 521.274 372.648C521.734 372.196 522.286 371.837 522.896 371.591C523.506 371.346 524.162 371.219 524.825 371.219C525.487 371.219 526.143 371.346 526.753 371.591C527.363 371.837 527.915 372.196 528.376 372.648C528.836 373.1 529.196 373.635 529.434 374.221C529.672 374.808 529.784 375.434 529.761 376.062V492.916C529.761 493.531 529.634 494.14 529.385 494.708C529.137 495.276 528.773 495.792 528.314 496.227C527.855 496.661 527.311 497.006 526.712 497.241C526.112 497.476 525.47 497.596 524.822 497.595Z" fill="#284663"/>
<path d="M491.902 450.016H744.376C745.567 450.016 746.709 450.465 747.551 451.263C748.393 452.062 748.866 453.145 748.866 454.275V474.602C748.866 475.731 748.393 476.814 747.551 477.613C746.709 478.412 745.567 478.861 744.376 478.861H496.409C495.218 478.861 494.076 478.412 493.234 477.613C492.392 476.814 491.919 475.731 491.919 474.602V450.016H491.902Z" fill="#008175"/>
<path d="M731.466 498.777H448.441C446.804 498.777 445.233 498.16 444.075 497.062C442.918 495.964 442.267 494.474 442.267 492.921C442.267 491.368 442.918 489.878 444.075 488.78C445.233 487.682 446.804 487.065 448.441 487.065H731.466V498.777Z" fill="#008175"/>
<path d="M746.886 444.841H493.211L494.412 420.266C494.412 419.137 494.885 418.053 495.727 417.255C496.569 416.456 497.711 416.007 498.902 416.007H746.869C748.06 416.007 749.202 416.456 750.044 417.255C750.886 418.053 751.359 419.137 751.359 420.266V440.566C751.361 441.125 751.247 441.68 751.024 442.197C750.8 442.715 750.471 443.186 750.056 443.583C749.64 443.979 749.147 444.295 748.603 444.511C748.059 444.727 747.475 444.839 746.886 444.841V444.841Z" fill="#008175"/>
<path d="M502.298 380.742H750.27C751.461 380.742 752.603 381.191 753.445 381.989C754.287 382.788 754.76 383.871 754.76 385.001V405.301C754.76 406.43 754.287 407.514 753.445 408.312C752.603 409.111 751.461 409.56 750.27 409.56H497.791V385.012C497.789 384.45 497.905 383.894 498.131 383.375C498.357 382.856 498.689 382.384 499.108 381.987C499.527 381.591 500.024 381.276 500.572 381.062C501.119 380.849 501.706 380.74 502.298 380.742V380.742Z" fill="#008175"/>
<path d="M736.665 570.479H726.792V508.11C726.792 496.732 722.027 485.821 713.545 477.775C705.063 469.73 693.559 465.21 681.563 465.21C669.568 465.21 658.064 469.73 649.582 477.775C641.1 485.821 636.335 496.732 636.335 508.11V570.479H626.462V508.11C626.462 494.249 632.267 480.955 642.601 471.154C652.934 461.352 666.95 455.846 681.563 455.846C696.177 455.846 710.193 461.352 720.526 471.154C730.86 480.955 736.665 494.249 736.665 508.11V570.479Z" fill="#284663"/>
<path d="M491.902 455C477.744 455.628 464.384 461.4 454.592 471.12C444.8 480.84 439.327 493.762 439.31 507.206V569.575H449.188V507.206C449.203 496.244 453.635 485.703 461.577 477.74C469.519 469.778 480.37 464.996 491.908 464.375L491.902 455Z" fill="#284663"/>
<path d="M201.486 569.771L203.962 318.298C203.962 318.298 206.1 300.197 222.759 300.197C240.53 300.197 241.551 318.298 241.551 318.298C241.463 318.753 241.205 319.163 240.823 319.451C240.441 319.738 239.962 319.885 239.474 319.863C238.965 319.897 238.461 319.758 238.049 319.471C237.638 319.185 237.348 318.769 237.229 318.298C237.229 318.298 236.444 304.334 222.742 304.334C209.9 304.334 208.25 318.298 208.25 318.298V569.771H201.486Z" fill="#2C3F4E"/>
<path d="M210.551 569.771H199.494L200.482 558.809C200.482 558.809 200.386 557.281 202.62 557.212C204.697 557.132 208.794 556.85 209.182 558.043C209.518 559.054 210.551 569.771 210.551 569.771Z" fill="#2C3F4E"/>
<path d="M221.609 286.861L220.856 290.454C220.856 290.454 202.109 290.39 197.731 309.439C197.731 309.439 196.541 317.372 202.564 315.679C208.587 313.986 207.655 309.94 216.187 307.72C224.718 305.5 230.28 303.807 231.577 297.918L232.969 291.359L221.609 286.861Z" fill="#FFB48D"/>
<path d="M287.891 130.935C287.891 130.935 282.935 149.441 278.658 166.36C276.935 173.175 275.33 179.728 274.168 184.712C273.012 189.833 272.355 193.304 272.607 193.688C276.323 199.411 269.532 234.319 264.16 246.996C263.683 248.124 263.037 249.439 262.246 250.903C254.73 264.873 234.743 292.296 234.743 292.296C234.743 292.296 229.102 292.829 225.409 291.535C222.333 290.428 220.228 286.855 220.228 286.855C222.013 284.124 229.253 251.862 238.565 233.776C242.55 226.035 248.421 154.238 256.139 144.57C262.583 136.509 287.891 130.935 287.891 130.935Z" fill="#FBAE25"/>
<path d="M272.63 193.688C276.345 199.411 269.554 234.319 264.182 246.996C263.705 248.124 263.06 249.439 262.268 250.903C255.089 220.77 266.989 178.089 266.989 178.089C269.958 179.207 272.383 193.304 272.63 193.688Z" fill="#F48D1C"/>
<path d="M324.656 542.071C324.656 542.071 326.564 569.34 321.136 569.723C320.412 569.771 293.6 569.771 293.6 569.771H259.013C259.013 569.771 259.574 561.759 269.604 560.108C279.635 558.458 296.356 551.782 302.412 539.244C308.794 526.046 324.656 542.071 324.656 542.071Z" fill="#0F2949"/>
<path d="M376.675 542.071C376.675 542.071 378.584 569.34 373.156 569.723C372.432 569.771 345.619 569.771 345.619 569.771H311.033C311.033 569.771 311.594 561.759 321.624 560.108C331.654 558.458 348.37 551.782 354.432 539.244C360.808 526.046 376.675 542.071 376.675 542.071Z" fill="#163560"/>
<path d="M326.294 476.348C327.148 487.879 328.882 502.706 328.259 516.069C327.395 534.756 326.771 550.515 326.771 550.515C313.783 554.71 289.945 549.626 289.945 549.626C289.945 549.626 281.492 502.398 274.527 464.699C271.406 447.807 268.813 433.193 267.847 426.293C264.71 403.986 271.182 285.397 271.182 285.397C271.182 285.397 306.329 264.027 320.85 275.047C335.37 286.068 344.312 296.822 320.912 417.498C319.132 426.65 324.386 450.522 326.294 476.348Z" fill="#284663"/>
<path d="M326.294 476.348C327.148 487.879 328.714 506.332 328.096 519.695C315.877 507.45 291.792 481.549 274.527 464.699C271.406 447.807 268.813 433.193 267.847 426.293C264.71 403.986 271.182 285.397 271.182 285.397C271.182 285.397 306.329 264.027 320.85 275.047C335.37 286.068 344.312 296.822 320.912 417.498C319.132 426.65 324.386 450.522 326.294 476.348Z" fill="#2C3F4E"/>
<path d="M302.945 287.808C302.945 287.808 306.099 406.531 311.033 428.529C315.967 450.527 341.707 551.297 341.707 551.297C341.707 551.297 365.843 553.384 378.449 548.257C378.449 548.257 377.647 501.599 373.398 474.181C369.401 448.568 362.228 425.148 363.261 415.895C376.81 293.872 367.027 283.794 351.659 273.865C336.291 263.936 302.945 287.808 302.945 287.808Z" fill="#284663"/>
<path d="M280.168 104.039C280.168 104.039 289.822 117.95 287.897 130.935L302.176 163.571L327.95 126.224C327.95 126.224 314.339 112.169 309.259 93.0133L280.168 104.039Z" fill="#FFB48D"/>
<path d="M275.936 115.911C275.936 115.911 311.078 117.354 311.718 97.3417C312.358 77.3292 321.855 64.0196 295.57 62.2627C273.954 60.8146 266.77 69.3647 264.845 75.993C262.919 82.6212 262.914 114.836 275.936 115.911Z" fill="#FFB48D"/>
<path d="M361.97 293.526C354.421 294.192 344.009 295.017 331.414 295.773C328.891 295.922 326.287 296.067 323.6 296.209C285.517 298.233 270.384 292.387 270.384 292.387C270.384 292.387 269.374 291.61 269.694 287.372C271.344 265.544 276.239 259.075 275.649 254.896C274.325 245.569 250.459 169.438 250.459 169.438C250.459 169.438 249.998 145.39 278.198 134.103C281.329 132.855 284.556 131.837 287.852 131.058C289.087 134.167 292.471 139.368 301.132 138.41C313.935 136.994 323.022 129.839 326.951 126.165C327.658 126.165 327.939 126.165 327.939 126.165C328.881 128.767 329.669 131.417 330.297 134.103C332.609 143.553 333.962 153.498 340.08 160.935C345.772 167.826 350.986 175.061 355.689 182.593C359.185 188.195 362.359 193.973 365.198 199.901C390.164 252.282 370.855 292.738 361.97 293.526Z" fill="#FBAE25"/>
<path d="M361.97 293.526C354.42 294.192 344.009 295.017 331.413 295.773C327.737 236.96 352.989 180.527 352.989 180.527C353.949 181.168 354.854 181.88 355.695 182.657C360.095 186.708 363.16 192.724 365.203 199.965C372.724 226.611 366.426 269.92 361.97 293.526Z" fill="#F48D1C"/>
<path d="M264.609 96.8252C264.609 96.8252 257.767 122.566 269.38 126.192C280.993 129.817 311.807 126.916 311.796 95.3505C311.796 95.3505 295.62 104.502 287.897 104.268C280.173 104.034 275.183 99.8119 268.044 103.113C268.044 103.113 265.428 102.948 264.609 96.8252Z" fill="white"/>
<path d="M310.067 68.4863C309.472 66.4419 306.823 65.3718 306.823 65.3718C287.026 57.1944 272.584 66.1385 272.584 66.1385C284.719 50.6992 313.996 53.9362 320.159 67.8687C330.195 90.6123 311.796 95.3452 311.796 95.3452C311.796 95.3452 293.402 88.0142 304.056 78.8412C307.58 75.7959 309.287 73.0914 309.854 70.733C310.036 69.9974 310.108 69.241 310.067 68.4863Z" fill="white"/>
<path d="M278.708 109.065C278.708 109.065 278.063 111.253 272.282 110.662C272.282 110.662 267.432 110.183 267.69 107.76C267.69 107.782 272.484 106.243 278.708 109.065Z" fill="#EDDFD9"/>
<path d="M423.706 173.734C423.706 173.734 430.099 188.997 429.544 209.122C429.117 224.561 414.288 272.108 409.747 279.003C405.408 285.594 373.993 309.567 366.241 311.851C365.954 311.916 365.651 311.882 365.386 311.757C365.121 311.631 364.912 311.421 364.793 311.164L357.839 300.027C357.524 299.478 357.38 298.856 357.421 298.232C357.463 297.609 357.69 297.009 358.075 296.502L387.307 262.781L396.568 208.653C399.649 190.658 409.96 176.79 422.853 173.909C423.134 173.846 423.42 173.787 423.706 173.734Z" fill="#E33115"/>
<path d="M416.432 474.841L422.045 497.015L425.514 510.74L437.065 556.424C437.065 556.424 446.949 559.315 457.226 556.424C459.761 545.258 461.077 533.874 461.155 522.453C461.217 512.593 460.263 501.689 457.226 491.425C456.013 487.25 454.401 483.189 452.411 479.292C436.088 447.721 416.432 474.841 416.432 474.841Z" fill="#FFB48D"/>
<path d="M406.856 569.771H461.133C461.133 569.771 461.992 561.982 459.601 554.529C459.25 553.412 458.818 552.32 458.31 551.26C458.31 551.26 446.197 553.863 435.746 551.26C435.746 551.26 425.923 559.192 419.985 561.625C414.046 564.058 407.485 562.738 406.856 569.771Z" fill="#FA412B"/>
<path d="M422.033 497.015L425.502 510.74C436.282 517.165 448.467 521.171 461.127 522.452C461.189 512.593 460.235 501.689 457.198 491.425C452.203 489.024 447.095 487.762 442.795 488.481C432.024 490.264 425.614 493.996 422.033 497.015Z" fill="#F6A071"/>
<path d="M435.049 569.771H461.132C461.132 569.771 461.991 561.982 459.6 554.529C453.05 556.461 439.725 561.317 435.049 569.771Z" fill="#E33115"/>
<path d="M462.659 474.841L468.272 497.015L471.74 510.74L483.292 556.424C483.292 556.424 493.176 559.315 503.453 556.424C505.987 545.258 507.304 533.874 507.382 522.453C507.444 512.593 506.49 501.689 503.453 491.425C502.24 487.25 500.628 483.189 498.637 479.292C482.304 447.721 462.659 474.841 462.659 474.841Z" fill="#FFB48D"/>
<path d="M504.543 551.255C504.543 551.255 492.425 553.863 481.973 551.255C481.973 551.255 472.151 559.192 466.212 561.625C460.274 564.058 453.713 562.738 453.09 569.771H507.36C507.36 569.771 508.494 559.496 504.543 551.255Z" fill="#FA412B"/>
<path d="M468.272 497.015L471.74 510.74C482.521 517.165 494.705 521.171 507.365 522.452C507.427 512.593 506.473 501.689 503.436 491.425C498.441 489.024 493.333 487.762 489.034 488.481C478.251 490.264 471.847 493.996 468.272 497.015Z" fill="#F6A071"/>
<path d="M405.105 495.551C405.738 497.774 407.126 499.737 409.054 501.137C410.981 502.537 413.341 503.296 415.769 503.297H502.769C504.32 503.302 505.855 503.001 507.277 502.415C508.7 501.829 509.978 500.969 511.033 499.891C512.088 498.813 512.896 497.538 513.405 496.149C513.915 494.76 514.116 493.286 513.995 491.819C513.08 480.575 513.024 464.39 511.598 451.991C511.037 446.838 512.204 437.031 512.547 434.875C521.331 379.746 524.031 318.314 523.133 305.904C523.009 304.153 522.919 303.242 522.919 303.242C522.919 303.242 516.582 302.71 506.939 302.38C478.914 301.315 422.97 301.512 413.676 318.884C404.207 336.596 398.487 454.174 398.487 454.174C397.134 465.184 402.04 484.722 405.105 495.551Z" fill="#284663"/>
<path d="M511.694 452.577C511.132 447.423 512.328 436.642 512.67 434.476C521.454 379.347 524.059 318.303 523.161 305.893C523.037 304.142 522.947 303.231 522.947 303.231C522.947 303.231 516.61 302.699 506.968 302.369C492.469 310.467 483.034 324.271 483.034 324.271C483.034 324.271 489.225 430.216 511.694 452.577Z" fill="#2C3F4E"/>
<path d="M454.381 76.1792C461.335 74.5288 465.371 79.7249 465.371 85.8421C465.371 88.7795 464.141 91.5966 461.952 93.6742C459.762 95.7517 456.793 96.9196 453.696 96.921C447.241 96.921 442.016 89.835 442.016 83.7125C442.016 77.5901 448.122 77.6433 454.381 76.1792Z" fill="white"/>
<path d="M457.973 139.603C457.973 139.603 494.187 108.666 461.402 86.7632C461.402 86.7632 451.619 84.2876 446.646 85.166C446.646 85.166 428.825 80.2201 418.396 91.6984C407.968 103.177 403.433 111.482 412.374 121.73C421.315 131.979 457.973 139.603 457.973 139.603Z" fill="white"/>
<path d="M499.53 326.449C499.53 326.449 490.589 343.485 507.776 356.47C507.776 356.47 515.224 361.304 516.369 355.022C517.514 348.74 516.189 350.928 517.991 342.117C519.793 333.306 517.486 324.197 512.142 320.231L499.53 326.449Z" fill="#FFB48D"/>
<path d="M357.698 298.131C357.698 298.131 347.034 301.065 347.466 321.908C347.466 321.908 348.089 330.426 351.956 327.189C355.824 323.952 352.619 319.901 358.479 318.767C364.748 317.553 364.653 313.933 366.213 311.846L357.698 298.131Z" fill="#F6A071"/>
<path d="M428.303 139.315C428.303 139.315 428.747 143.947 429.577 150.208C429.981 153.264 430.475 156.713 431.053 160.201C431.469 162.703 431.929 165.232 432.429 167.654L443.654 203.574L469.979 163.161C469.979 163.161 463.805 158.305 455.385 131.989C455.307 131.707 455.251 131.558 455.251 131.558L428.303 139.315Z" fill="#FFB48D"/>
<path d="M412.963 316.52C412.62 320.555 413.698 321.311 413.698 321.311C413.698 321.311 429.886 326.875 470.602 324.953C475.006 324.744 479.15 324.531 483.034 324.314C509.274 322.845 523.307 321.311 523.307 321.311C523.307 321.311 544.798 274.259 504.425 216.288C499.512 209.271 494.102 202.579 488.232 196.259C481.693 189.184 480.25 179.718 477.775 170.705C477.068 168.123 479.116 167.553 478.095 165.12C478.095 165.12 470.731 163.15 469.967 163.15C465.786 166.642 460.274 173.436 446.578 174.777C437.323 175.693 433.697 170.747 432.383 167.782C428.853 168.99 425.193 171.083 422.202 172.445C421.814 172.621 421.433 172.802 421.079 172.978C402.775 181.794 393.997 201.982 399.902 220.626C406.637 242.002 418.351 279.359 419.35 285.636C419.962 289.592 414.731 295.73 412.963 316.52Z" fill="#FA412B"/>
<path d="M429.577 150.208C429.981 153.264 431.345 161.638 431.929 165.114C459.808 154.807 456.154 134.715 455.396 131.973C455.318 131.691 455.262 131.542 455.262 131.542C455.262 131.542 440.511 141.476 429.577 150.208Z" fill="#F6A071"/>
<path d="M423.605 153.759C423.605 153.759 455.806 154.738 456.16 135.711C456.514 116.683 460.88 103.991 440.332 102.559C419.783 101.127 415.635 108.325 413.951 114.655C412.267 120.985 415.236 153.013 423.605 153.759Z" fill="#FFB48D"/>
<path d="M420.788 99.7055C420.788 99.7055 422.808 131.478 462.07 128.071C462.098 128.071 461.234 84.0693 420.788 99.7055Z" fill="white"/>
<path d="M428.302 102.868C428.302 102.868 418.418 118.696 413.428 122.816C413.428 122.816 400.075 103.246 428.302 102.868V102.868Z" fill="white"/>
<path d="M483.034 324.272C509.274 322.802 523.306 321.269 523.306 321.269C523.306 321.269 544.798 274.216 504.425 216.245C496.247 234.341 476.966 282.639 483.034 324.272Z" fill="#E33115"/>
<path d="M469.956 163.15C469.956 163.15 501.113 169.214 514.988 184.446C525.652 196.126 537.26 253.235 537.26 262.669C537.26 271.688 526.331 319.635 519.506 328.818C519.277 329.133 518.963 329.384 518.597 329.545C518.23 329.705 517.825 329.768 517.424 329.729L499.878 327.966C499.534 327.927 499.202 327.823 498.901 327.66C498.6 327.496 498.337 327.277 498.128 327.015C497.918 326.754 497.766 326.454 497.681 326.136C497.596 325.817 497.58 325.486 497.633 325.161L507.489 264.554L472.891 206.348C472.891 206.348 452.472 183.423 469.956 163.15Z" fill="#FA412B"/>
<path d="M350.648 298.185C350.648 298.185 342.285 314.098 358.355 326.257C358.355 326.257 365.326 330.777 366.392 324.905C367.459 319.033 366.23 321.077 367.913 312.836C369.597 304.595 367.442 296.076 362.446 292.371L350.648 298.185Z" fill="#FFB48D"/>
<path d="M327.95 126.224C327.95 126.224 352.517 126.756 365.494 142.765C375.44 155.01 385.953 220.893 385.953 230.811C385.953 240.729 374.727 295.448 368.486 301.395C365.362 302.004 362.141 302.004 359.017 301.395C355.629 300.799 352.473 299.346 349.885 297.189C349.885 297.189 353.006 236.263 353.006 230.55C353.006 222.277 325.733 171.626 325.733 171.626C325.733 171.626 311.577 147.519 327.95 126.224Z" fill="#FBAE25"/>
<path d="M544.837 487.049C543.506 484.188 541.905 481.448 540.055 478.861H527.465C529.907 481.345 532.032 484.093 533.796 487.049H544.837Z" fill="#284663"/>
<path d="M538.553 498.777C539.275 501.841 539.641 504.971 539.642 508.11V570.479H549.52V508.11C549.517 504.98 549.219 501.857 548.628 498.777H538.553Z" fill="#284663"/>
</svg>
