<svg width="124" height="41" viewBox="0 0 124 41" fill="none" xmlns="http://www.w3.org/2000/svg">
<circle cx="20.5" cy="20.5" r="20" fill="#00AF8D"/>
<path d="M15.732 31.584C15.508 31.584 15.34 31.556 15.228 31.5C15.116 31.4253 15.06 31.3227 15.06 31.192C15.06 31.024 15.1347 30.9213 15.284 30.884C15.452 30.828 15.6387 30.7627 15.844 30.688C16.2733 30.5387 16.6467 30.2773 16.964 29.904C17.3 29.5307 17.5053 29.0547 17.58 28.476C17.692 27.6173 17.804 26.5627 17.916 25.312C18.0467 24.0427 18.1773 22.6893 18.308 21.252C18.4387 19.8147 18.5507 18.396 18.644 16.996C18.6627 16.884 18.672 16.744 18.672 16.576C18.672 16.408 18.672 16.2307 18.672 16.044C18.672 15.708 18.616 15.4467 18.504 15.26C18.4107 15.0547 18.2427 14.8867 18 14.756C17.776 14.6067 17.5333 14.4853 17.272 14.392C17.0107 14.28 16.7307 14.1867 16.432 14.112C16.208 14.056 16.0307 13.9813 15.9 13.888C15.7693 13.7947 15.704 13.6733 15.704 13.524C15.704 13.356 15.7787 13.244 15.928 13.188C16.0773 13.132 16.2547 13.104 16.46 13.104C16.74 13.104 17.0853 13.1133 17.496 13.132C17.9067 13.1507 18.3547 13.1693 18.84 13.188C19.344 13.188 19.848 13.1973 20.352 13.216C20.8747 13.2347 21.3507 13.244 21.78 13.244C21.9293 13.244 22.0693 13.3 22.2 13.412C22.3307 13.5053 22.4147 13.6173 22.452 13.748C22.5827 14.1027 22.704 14.448 22.816 14.784C22.928 15.1013 23.0493 15.4373 23.18 15.792L27.296 25.62C27.3333 25.6947 27.38 25.7413 27.436 25.76C27.5107 25.76 27.5667 25.7133 27.604 25.62L31.608 16.324C31.7387 15.6707 31.8413 15.1387 31.916 14.728C32.0093 14.3173 32.0933 13.9907 32.168 13.748C32.2427 13.5053 32.392 13.384 32.616 13.384H33.82C34.604 13.3467 35.416 13.2907 36.256 13.216C37.1147 13.1227 37.7867 13.076 38.272 13.076C38.4587 13.076 38.6173 13.1133 38.748 13.188C38.8973 13.244 38.972 13.3467 38.972 13.496C38.972 13.664 38.9067 13.7853 38.776 13.86C38.664 13.9347 38.5147 14 38.328 14.056C38.216 14.0933 38.0853 14.1493 37.936 14.224C37.7867 14.28 37.656 14.336 37.544 14.392C37.0587 14.616 36.6947 14.8773 36.452 15.176C36.228 15.456 36.1347 15.9133 36.172 16.548C36.2093 17.892 36.256 19.068 36.312 20.076C36.368 21.084 36.4147 22.0173 36.452 22.876C36.508 23.7347 36.564 24.6307 36.62 25.564C36.6947 26.4787 36.7693 27.552 36.844 28.784C36.8813 29.2693 37.0773 29.6613 37.432 29.96C37.8053 30.24 38.2907 30.4547 38.888 30.604C39.0747 30.66 39.2333 30.7253 39.364 30.8C39.4947 30.8747 39.56 30.996 39.56 31.164C39.56 31.2947 39.504 31.3973 39.392 31.472C39.28 31.5467 39.14 31.584 38.972 31.584C38.5613 31.584 38.0853 31.5653 37.544 31.528C37.0213 31.5093 36.4987 31.4907 35.976 31.472C35.472 31.4533 35.0333 31.444 34.66 31.444C34.2867 31.444 33.8667 31.4533 33.4 31.472C32.952 31.4907 32.4947 31.5093 32.028 31.528C31.5613 31.5653 31.1133 31.584 30.684 31.584C30.516 31.584 30.3667 31.556 30.236 31.5C30.1053 31.4253 30.04 31.3227 30.04 31.192C30.04 31.024 30.1053 30.8933 30.236 30.8C30.3667 30.7067 30.5253 30.6413 30.712 30.604C31.4027 30.4733 31.8787 30.2867 32.14 30.044C32.4013 29.7827 32.5227 29.3627 32.504 28.784C32.448 27.6267 32.4013 26.4787 32.364 25.34C32.3267 24.1827 32.2893 23.0533 32.252 21.952C32.2333 20.832 32.196 19.7493 32.14 18.704C32.14 18.5733 32.1027 18.5173 32.028 18.536C31.972 18.536 31.916 18.6013 31.86 18.732L26.512 31.444C26.4187 31.7053 26.2787 31.8173 26.092 31.78C25.9053 31.7427 25.7747 31.6493 25.7 31.5C24.7853 29.3347 23.824 27.1973 22.816 25.088C21.8267 22.9787 20.912 20.888 20.072 18.816C20.016 18.648 19.9227 18.592 19.792 18.648C19.68 18.6853 19.6147 18.8067 19.596 19.012C19.54 19.9453 19.4933 20.972 19.456 22.092C19.4187 23.1933 19.4 24.3133 19.4 25.452C19.4 26.572 19.4 27.6173 19.4 28.588C19.4 29.1107 19.568 29.54 19.904 29.876C20.24 30.1933 20.772 30.436 21.5 30.604C21.6867 30.6413 21.864 30.7067 22.032 30.8C22.2 30.8747 22.284 30.996 22.284 31.164C22.284 31.2947 22.2093 31.3973 22.06 31.472C21.9107 31.5467 21.752 31.584 21.584 31.584C21.08 31.584 20.688 31.5653 20.408 31.528C20.128 31.5093 19.876 31.5 19.652 31.5C19.428 31.4813 19.12 31.472 18.728 31.472C18.3173 31.472 17.8973 31.4813 17.468 31.5C17.0387 31.5187 16.6653 31.5373 16.348 31.556C16.0307 31.5747 15.8253 31.584 15.732 31.584Z" fill="white"/>
<path d="M41.2118 31.584C41.0998 31.584 40.9971 31.556 40.9038 31.5C40.8104 31.4253 40.7638 31.332 40.7638 31.22C40.7638 31.0707 40.8104 30.9493 40.9038 30.856C40.9971 30.7627 41.1184 30.6973 41.2678 30.66C41.7531 30.548 42.0891 30.4267 42.2758 30.296C42.4811 30.1467 42.5838 29.9227 42.5838 29.624V23.576C42.5838 22.9413 42.4811 22.4933 42.2758 22.232C42.0891 21.952 41.7904 21.784 41.3798 21.728C41.2678 21.7093 41.1838 21.6533 41.1278 21.56C41.0718 21.4667 41.0438 21.3547 41.0438 21.224C41.0438 20.944 41.1464 20.7853 41.3518 20.748C42.3224 20.5613 43.1811 20.3 43.9278 19.964C44.6931 19.628 45.2811 19.3667 45.6918 19.18C45.9904 19.0307 46.1771 18.956 46.2518 18.956C46.4944 18.956 46.6158 19.068 46.6158 19.292C46.5971 19.6093 46.5504 20.0107 46.4758 20.496C46.4198 20.9627 46.3638 21.448 46.3078 21.952C46.2704 22.456 46.2518 22.9413 46.2518 23.408V29.596C46.2518 29.8573 46.3451 30.0627 46.5318 30.212C46.7371 30.3613 47.0918 30.5107 47.5958 30.66C47.7451 30.716 47.8664 30.7813 47.9598 30.856C48.0531 30.9307 48.0998 31.0427 48.0998 31.192C48.0998 31.4347 47.9598 31.556 47.6798 31.556C47.3251 31.556 46.9518 31.5467 46.5598 31.528C46.1678 31.5093 45.7851 31.4907 45.4118 31.472C45.0571 31.4533 44.7118 31.444 44.3758 31.444C44.0584 31.444 43.7224 31.4533 43.3678 31.472C43.0318 31.4907 42.6771 31.5093 42.3038 31.528C41.9491 31.5653 41.5851 31.584 41.2118 31.584ZM44.2918 17.696C43.7131 17.696 43.1998 17.4813 42.7518 17.052C42.3224 16.6227 42.1078 16.1093 42.1078 15.512C42.1078 14.8773 42.3224 14.3453 42.7518 13.916C43.1998 13.4867 43.7131 13.272 44.2918 13.272C44.9451 13.272 45.4864 13.4867 45.9158 13.916C46.3451 14.3453 46.5598 14.8773 46.5598 15.512C46.5598 16.1093 46.3451 16.6227 45.9158 17.052C45.4864 17.4813 44.9451 17.696 44.2918 17.696ZM49.6656 31.584C49.4416 31.584 49.2736 31.556 49.1616 31.5C49.0496 31.4253 48.9936 31.3227 48.9936 31.192C48.9936 31.024 49.0683 30.9213 49.2176 30.884C49.3856 30.828 49.5723 30.7627 49.7776 30.688C50.2069 30.5387 50.5803 30.2773 50.8976 29.904C51.2336 29.5307 51.4389 29.0547 51.5136 28.476C51.6256 27.6173 51.7376 26.5627 51.8496 25.312C51.9803 24.0427 52.1109 22.6893 52.2416 21.252C52.3723 19.8147 52.4843 18.396 52.5776 16.996C52.5963 16.884 52.6056 16.744 52.6056 16.576C52.6056 16.408 52.6056 16.2307 52.6056 16.044C52.6056 15.708 52.5496 15.4467 52.4376 15.26C52.3443 15.0547 52.1763 14.8867 51.9336 14.756C51.7096 14.6067 51.4669 14.4853 51.2056 14.392C50.9443 14.28 50.6643 14.1867 50.3656 14.112C50.1416 14.056 49.9643 13.9813 49.8336 13.888C49.7029 13.7947 49.6376 13.6733 49.6376 13.524C49.6376 13.356 49.7123 13.244 49.8616 13.188C50.0109 13.132 50.1883 13.104 50.3936 13.104C50.6736 13.104 51.0189 13.1133 51.4296 13.132C51.8403 13.1507 52.2883 13.1693 52.7736 13.188C53.2776 13.188 53.7816 13.1973 54.2856 13.216C54.8083 13.2347 55.2843 13.244 55.7136 13.244C55.8629 13.244 56.0029 13.3 56.1336 13.412C56.2643 13.5053 56.3483 13.6173 56.3856 13.748C56.5163 14.1027 56.6376 14.448 56.7496 14.784C56.8616 15.1013 56.9829 15.4373 57.1136 15.792L61.2296 25.62C61.2669 25.6947 61.3136 25.7413 61.3696 25.76C61.4443 25.76 61.5003 25.7133 61.5376 25.62L65.5416 16.324C65.6723 15.6707 65.7749 15.1387 65.8496 14.728C65.9429 14.3173 66.0269 13.9907 66.1016 13.748C66.1763 13.5053 66.3256 13.384 66.5496 13.384H67.7536C68.5376 13.3467 69.3496 13.2907 70.1896 13.216C71.0483 13.1227 71.7203 13.076 72.2056 13.076C72.3923 13.076 72.5509 13.1133 72.6816 13.188C72.8309 13.244 72.9056 13.3467 72.9056 13.496C72.9056 13.664 72.8403 13.7853 72.7096 13.86C72.5976 13.9347 72.4483 14 72.2616 14.056C72.1496 14.0933 72.0189 14.1493 71.8696 14.224C71.7203 14.28 71.5896 14.336 71.4776 14.392C70.9923 14.616 70.6283 14.8773 70.3856 15.176C70.1616 15.456 70.0683 15.9133 70.1056 16.548C70.1429 17.892 70.1896 19.068 70.2456 20.076C70.3016 21.084 70.3483 22.0173 70.3856 22.876C70.4416 23.7347 70.4976 24.6307 70.5536 25.564C70.6283 26.4787 70.7029 27.552 70.7776 28.784C70.8149 29.2693 71.0109 29.6613 71.3656 29.96C71.7389 30.24 72.2243 30.4547 72.8216 30.604C73.0083 30.66 73.1669 30.7253 73.2976 30.8C73.4283 30.8747 73.4936 30.996 73.4936 31.164C73.4936 31.2947 73.4376 31.3973 73.3256 31.472C73.2136 31.5467 73.0736 31.584 72.9056 31.584C72.4949 31.584 72.0189 31.5653 71.4776 31.528C70.9549 31.5093 70.4323 31.4907 69.9096 31.472C69.4056 31.4533 68.9669 31.444 68.5936 31.444C68.2203 31.444 67.8003 31.4533 67.3336 31.472C66.8856 31.4907 66.4283 31.5093 65.9616 31.528C65.4949 31.5653 65.0469 31.584 64.6176 31.584C64.4496 31.584 64.3003 31.556 64.1696 31.5C64.0389 31.4253 63.9736 31.3227 63.9736 31.192C63.9736 31.024 64.0389 30.8933 64.1696 30.8C64.3003 30.7067 64.4589 30.6413 64.6456 30.604C65.3363 30.4733 65.8123 30.2867 66.0736 30.044C66.3349 29.7827 66.4563 29.3627 66.4376 28.784C66.3816 27.6267 66.3349 26.4787 66.2976 25.34C66.2603 24.1827 66.2229 23.0533 66.1856 21.952C66.1669 20.832 66.1296 19.7493 66.0736 18.704C66.0736 18.5733 66.0363 18.5173 65.9616 18.536C65.9056 18.536 65.8496 18.6013 65.7936 18.732L60.4456 31.444C60.3523 31.7053 60.2123 31.8173 60.0256 31.78C59.8389 31.7427 59.7083 31.6493 59.6336 31.5C58.7189 29.3347 57.7576 27.1973 56.7496 25.088C55.7603 22.9787 54.8456 20.888 54.0056 18.816C53.9496 18.648 53.8563 18.592 53.7256 18.648C53.6136 18.6853 53.5483 18.8067 53.5296 19.012C53.4736 19.9453 53.4269 20.972 53.3896 22.092C53.3523 23.1933 53.3336 24.3133 53.3336 25.452C53.3336 26.572 53.3336 27.6173 53.3336 28.588C53.3336 29.1107 53.5016 29.54 53.8376 29.876C54.1736 30.1933 54.7056 30.436 55.4336 30.604C55.6203 30.6413 55.7976 30.7067 55.9656 30.8C56.1336 30.8747 56.2176 30.996 56.2176 31.164C56.2176 31.2947 56.1429 31.3973 55.9936 31.472C55.8443 31.5467 55.6856 31.584 55.5176 31.584C55.0136 31.584 54.6216 31.5653 54.3416 31.528C54.0616 31.5093 53.8096 31.5 53.5856 31.5C53.3616 31.4813 53.0536 31.472 52.6616 31.472C52.2509 31.472 51.8309 31.4813 51.4016 31.5C50.9723 31.5187 50.5989 31.5373 50.2816 31.556C49.9643 31.5747 49.7589 31.584 49.6656 31.584ZM79.4705 31.892C78.4625 31.892 77.5572 31.6307 76.7545 31.108C75.9705 30.5667 75.3452 29.8387 74.8785 28.924C74.4305 27.9907 74.2065 26.936 74.2065 25.76C74.2065 24.584 74.4772 23.52 75.0185 22.568C75.5598 21.5973 76.2972 20.832 77.2305 20.272C78.1638 19.6933 79.1905 19.404 80.3105 19.404C81.1132 19.404 81.8318 19.5813 82.4665 19.936C83.1012 20.272 83.6052 20.7293 83.9785 21.308C84.3705 21.8867 84.5665 22.54 84.5665 23.268C84.5665 23.9773 84.2772 24.332 83.6985 24.332H78.0985C77.8372 24.332 77.6412 24.4067 77.5105 24.556C77.3985 24.7053 77.3425 24.9573 77.3425 25.312C77.3425 26.0213 77.5012 26.6747 77.8185 27.272C78.1358 27.8507 78.5652 28.308 79.1065 28.644C79.6478 28.98 80.2732 29.148 80.9825 29.148C81.5238 29.148 82.0185 29.0453 82.4665 28.84C82.9332 28.6347 83.3905 28.3547 83.8385 28C83.9132 27.944 83.9785 27.8973 84.0345 27.86C84.1092 27.804 84.1745 27.776 84.2305 27.776C84.4172 27.776 84.5105 27.8973 84.5105 28.14C84.5105 28.3453 84.4358 28.6253 84.2865 28.98C84.0998 29.4467 83.7825 29.9133 83.3345 30.38C82.9052 30.828 82.3638 31.192 81.7105 31.472C81.0572 31.752 80.3105 31.892 79.4705 31.892ZM78.0985 23.156H79.7785C80.3012 23.156 80.6652 23.1467 80.8705 23.128C81.0758 23.1093 81.2625 23.072 81.4305 23.016C81.5238 22.9787 81.5985 22.8853 81.6545 22.736C81.7105 22.5867 81.7385 22.4187 81.7385 22.232C81.7385 21.728 81.5612 21.3173 81.2065 21C80.8705 20.6827 80.4505 20.524 79.9465 20.524C79.5545 20.524 79.1812 20.636 78.8265 20.86C78.4905 21.0653 78.2105 21.3453 77.9865 21.7C77.7812 22.036 77.6878 22.3907 77.7065 22.764C77.7065 23.0253 77.8372 23.156 78.0985 23.156ZM86.3863 31.584C86.2556 31.584 86.1249 31.556 85.9943 31.5C85.8823 31.4253 85.8263 31.3227 85.8263 31.192C85.8263 31.0427 85.8916 30.9307 86.0223 30.856C86.1529 30.7627 86.3023 30.688 86.4703 30.632C86.7503 30.5387 86.9929 30.436 87.1983 30.324C87.4223 30.1933 87.5343 29.9413 87.5343 29.568V23.156C87.5343 22.7453 87.4689 22.4 87.3383 22.12C87.2263 21.84 87.0023 21.6627 86.6663 21.588C86.5916 21.5693 86.5169 21.5227 86.4423 21.448C86.3863 21.3733 86.3583 21.252 86.3583 21.084C86.3583 20.8227 86.4516 20.664 86.6383 20.608C87.2729 20.4587 87.9636 20.2627 88.7103 20.02C89.4756 19.7587 90.1289 19.488 90.6703 19.208C90.7449 19.1707 90.8289 19.124 90.9223 19.068C91.0156 19.012 91.0996 18.984 91.1743 18.984C91.2863 18.984 91.3516 19.0213 91.3703 19.096C91.4076 19.152 91.4263 19.2267 91.4263 19.32C91.4263 19.4693 91.3983 19.712 91.3423 20.048C91.3049 20.3653 91.2863 20.6547 91.2863 20.916C91.2863 20.9907 91.2863 21.0747 91.2863 21.168C91.3049 21.2613 91.3236 21.3173 91.3423 21.336C91.9769 20.72 92.6209 20.244 93.2743 19.908C93.9276 19.572 94.6836 19.404 95.5423 19.404C96.5129 19.404 97.3249 19.768 97.9783 20.496C98.6503 21.2053 98.9863 22.176 98.9863 23.408V29.568C98.9863 29.9413 99.0889 30.1933 99.2943 30.324C99.5183 30.436 99.7703 30.5387 100.05 30.632C100.2 30.688 100.33 30.7627 100.442 30.856C100.554 30.9307 100.61 31.0427 100.61 31.192C100.61 31.3227 100.554 31.4253 100.442 31.5C100.349 31.556 100.246 31.584 100.134 31.584C99.7609 31.584 99.4063 31.5653 99.0703 31.528C98.7529 31.5093 98.4356 31.4907 98.1183 31.472C97.8196 31.4533 97.5023 31.444 97.1663 31.444C96.8489 31.444 96.5316 31.4533 96.2143 31.472C95.8969 31.4907 95.5796 31.5093 95.2623 31.528C94.9449 31.5653 94.5996 31.584 94.2263 31.584C94.1143 31.584 94.0023 31.556 93.8903 31.5C93.7969 31.4253 93.7503 31.3227 93.7503 31.192C93.7503 31.0427 93.8063 30.9307 93.9183 30.856C94.0303 30.7627 94.1609 30.688 94.3103 30.632C94.5903 30.5387 94.8236 30.436 95.0103 30.324C95.1969 30.1933 95.2903 29.9413 95.2903 29.568V23.996C95.2903 23.2867 95.1223 22.736 94.7863 22.344C94.4689 21.9333 94.0396 21.7187 93.4983 21.7C93.0876 21.7 92.7236 21.7653 92.4063 21.896C92.0889 22.0267 91.7623 22.204 91.4263 22.428C91.3516 22.5027 91.2956 22.5867 91.2583 22.68C91.2209 22.7733 91.2023 22.8667 91.2023 22.96V29.568C91.2023 29.9413 91.3049 30.1933 91.5103 30.324C91.7156 30.436 91.9489 30.5387 92.2103 30.632C92.5836 30.744 92.7703 30.9307 92.7703 31.192C92.7703 31.304 92.7236 31.3973 92.6303 31.472C92.5369 31.5467 92.4249 31.584 92.2943 31.584C91.9209 31.584 91.5756 31.5653 91.2583 31.528C90.9409 31.5093 90.6423 31.4907 90.3623 31.472C90.0823 31.4533 89.7743 31.444 89.4383 31.444C89.1209 31.444 88.7943 31.4533 88.4583 31.472C88.1409 31.4907 87.8049 31.5093 87.4503 31.528C87.1143 31.5653 86.7596 31.584 86.3863 31.584ZM106.765 31.892C105.533 31.892 104.609 31.584 103.993 30.968C103.377 30.3333 103.069 29.4467 103.069 28.308V21.868C103.069 21.7 103.003 21.5787 102.873 21.504C102.761 21.4293 102.537 21.3827 102.201 21.364H101.837C101.706 21.364 101.594 21.2613 101.501 21.056C101.426 20.832 101.389 20.636 101.389 20.468C101.389 20.4307 101.398 20.384 101.417 20.328C101.454 20.2533 101.501 20.2067 101.557 20.188C102.005 20.02 102.481 19.768 102.985 19.432C103.507 19.0773 104.002 18.704 104.469 18.312C104.954 17.92 105.346 17.5933 105.645 17.332C105.775 17.2387 105.887 17.1547 105.981 17.08C106.074 17.0053 106.195 16.968 106.345 16.968C106.513 16.968 106.634 17.0053 106.709 17.08C106.783 17.136 106.802 17.2853 106.765 17.528L106.597 19.18C106.578 19.404 106.625 19.5627 106.737 19.656C106.867 19.7307 107.045 19.768 107.269 19.768H110.601C110.657 19.768 110.713 19.8333 110.769 19.964C110.825 20.0947 110.853 20.216 110.853 20.328C110.853 20.5893 110.815 20.8413 110.741 21.084C110.666 21.3267 110.582 21.448 110.489 21.448H107.885C107.455 21.448 107.157 21.504 106.989 21.616C106.839 21.7093 106.765 21.8867 106.765 22.148V27.44C106.765 28.2987 106.923 28.9427 107.241 29.372C107.577 29.7827 108.015 29.988 108.557 29.988C109.098 29.988 109.49 29.932 109.733 29.82C109.994 29.708 110.227 29.6147 110.433 29.54C110.507 29.5027 110.563 29.484 110.601 29.484C110.694 29.484 110.769 29.54 110.825 29.652C110.881 29.764 110.909 29.8947 110.909 30.044C110.909 30.156 110.713 30.3613 110.321 30.66C109.929 30.9587 109.415 31.2387 108.781 31.5C108.165 31.7613 107.493 31.892 106.765 31.892ZM117.041 31.892C116.033 31.892 115.127 31.6307 114.325 31.108C113.541 30.5667 112.915 29.8387 112.449 28.924C112.001 27.9907 111.777 26.936 111.777 25.76C111.777 24.584 112.047 23.52 112.589 22.568C113.13 21.5973 113.867 20.832 114.801 20.272C115.734 19.6933 116.761 19.404 117.881 19.404C118.683 19.404 119.402 19.5813 120.037 19.936C120.671 20.272 121.175 20.7293 121.549 21.308C121.941 21.8867 122.137 22.54 122.137 23.268C122.137 23.9773 121.847 24.332 121.269 24.332H115.669C115.407 24.332 115.211 24.4067 115.081 24.556C114.969 24.7053 114.913 24.9573 114.913 25.312C114.913 26.0213 115.071 26.6747 115.389 27.272C115.706 27.8507 116.135 28.308 116.677 28.644C117.218 28.98 117.843 29.148 118.553 29.148C119.094 29.148 119.589 29.0453 120.037 28.84C120.503 28.6347 120.961 28.3547 121.409 28C121.483 27.944 121.549 27.8973 121.605 27.86C121.679 27.804 121.745 27.776 121.801 27.776C121.987 27.776 122.081 27.8973 122.081 28.14C122.081 28.3453 122.006 28.6253 121.857 28.98C121.67 29.4467 121.353 29.9133 120.905 30.38C120.475 30.828 119.934 31.192 119.281 31.472C118.627 31.752 117.881 31.892 117.041 31.892ZM115.669 23.156H117.349C117.871 23.156 118.235 23.1467 118.441 23.128C118.646 23.1093 118.833 23.072 119.001 23.016C119.094 22.9787 119.169 22.8853 119.225 22.736C119.281 22.5867 119.309 22.4187 119.309 22.232C119.309 21.728 119.131 21.3173 118.777 21C118.441 20.6827 118.021 20.524 117.517 20.524C117.125 20.524 116.751 20.636 116.397 20.86C116.061 21.0653 115.781 21.3453 115.557 21.7C115.351 22.036 115.258 22.3907 115.277 22.764C115.277 23.0253 115.407 23.156 115.669 23.156Z" fill="#00AF8D"/>
</svg>
