<svg width="472" height="84" viewBox="0 0 472 84" fill="none" xmlns="http://www.w3.org/2000/svg">
<path d="M42.3326 0C19.1926 0 0.432617 18.76 0.432617 41.9C0.432617 65.04 19.1926 83.8 42.3326 83.8C65.4726 83.8 84.2326 65.04 84.2326 41.9C84.2326 18.76 65.4726 0 42.3326 0ZM42.3326 80.59C20.9826 80.58 3.68262 63.25 3.69262 41.9C3.70262 20.55 21.0326 3.24999 42.3826 3.25999C63.7326 3.26999 81.0326 20.6 81.0226 41.95C81.0226 47.41 79.8626 52.81 77.6126 57.79C71.3626 71.67 57.5526 80.59 42.3326 80.59Z" fill="url(#paint0_linear_53_3322)"/>
<path d="M55.2127 19.22H29.4527C24.1827 19.17 19.8627 23.39 19.7827 28.66V55.17C19.8427 60.45 24.1727 64.67 29.4427 64.61H55.1727C60.4527 64.67 64.7727 60.45 64.8427 55.17V28.66C64.7827 23.39 60.4727 19.17 55.2127 19.22ZM60.9927 55.17C60.9927 58.26 58.4927 60.76 55.4127 60.76C55.3427 60.76 55.2827 60.76 55.2127 60.76H29.4527C26.3727 60.87 23.7827 58.46 23.6727 55.37C23.6727 55.3 23.6727 55.24 23.6727 55.17V28.66C23.6727 25.57 26.1727 23.0701 29.2527 23.0701C29.3227 23.0701 29.3827 23.0701 29.4527 23.0701H55.1827C58.2627 22.9601 60.8527 25.37 60.9627 28.46C60.9627 28.53 60.9627 28.59 60.9627 28.66L60.9927 55.17Z" fill="url(#paint1_linear_53_3322)"/>
<path d="M42.3325 30.11C35.8225 30.11 30.5425 35.39 30.5425 41.9C30.5425 48.41 35.8225 53.69 42.3325 53.69C48.8425 53.69 54.1225 48.41 54.1225 41.9C54.1225 35.39 48.8425 30.11 42.3325 30.11ZM42.3325 49.67C37.9825 49.67 34.4525 46.14 34.4525 41.79C34.4525 37.44 37.9825 33.91 42.3325 33.91C46.6825 33.91 50.2125 37.44 50.2125 41.79C50.2125 41.83 50.2125 41.86 50.2125 41.9C50.1925 46.24 46.6825 49.76 42.3325 49.78V49.67Z" fill="url(#paint2_linear_53_3322)"/>
<path d="M54.9824 32.29C56.5122 32.29 57.7524 31.0498 57.7524 29.52C57.7524 27.9902 56.5122 26.75 54.9824 26.75C53.4526 26.75 52.2124 27.9902 52.2124 29.52C52.2124 31.0498 53.4526 32.29 54.9824 32.29Z" fill="url(#paint3_linear_53_3322)"/>
<path d="M178.999 28.95C186.159 50.96 174.119 74.6 152.109 81.76C130.099 88.92 106.459 76.88 99.2992 54.87C92.1392 32.86 104.179 9.22001 126.189 2.06001C130.379 0.700013 134.759 0 139.159 0C157.309 0.01 173.389 11.69 178.999 28.95ZM139.159 3.78C118.099 3.81 101.049 20.9 101.079 41.97C101.109 63.03 118.199 80.08 139.269 80.05C160.329 80.02 177.379 62.93 177.349 41.86C177.339 37.87 176.709 33.91 175.479 30.12C170.369 14.39 155.699 3.75 139.159 3.78Z" fill="#4D77AC"/>
<path fill-rule="evenodd" clip-rule="evenodd" d="M146.009 27.47C147.379 27.47 148.799 27.47 150.119 27.47H150.679V20.35C149.949 20.35 149.199 20.18 148.419 20.13C147.019 20.13 145.629 20.13 144.229 20.13C142.109 20.12 140.049 20.77 138.309 21.97C136.379 23.39 135.099 25.52 134.759 27.89C134.599 28.83 134.509 29.78 134.479 30.74C134.479 32.33 134.479 33.92 134.479 35.52V36.33H127.689V44.26H134.419V64.18H142.799V44.18H149.529L150.339 36.33H142.519C142.519 36.33 142.519 32.39 142.519 30.74C142.739 28.22 144.139 27.52 146.009 27.47Z" fill="#4D77AC"/>
<path d="M275.833 28.95C282.993 50.96 270.953 74.6 248.943 81.76C226.933 88.92 203.293 76.88 196.133 54.87C188.973 32.86 201.013 9.22001 223.023 2.06001C227.213 0.700013 231.593 0 235.993 0C254.143 0.01 270.223 11.69 275.833 28.95ZM236.003 3.78C214.943 3.81 197.893 20.9 197.923 41.97C197.953 63.04 215.043 80.08 236.113 80.05C257.173 80.02 274.223 62.93 274.193 41.86C274.183 37.87 273.553 33.91 272.323 30.12C267.203 14.39 252.533 3.75 236.003 3.78Z" fill="black"/>
<path d="M213.004 20.3014L230.834 44.1414L212.894 63.5314H216.934L232.644 46.5614L245.334 63.5314H259.074L240.234 38.3514L256.934 20.3114H252.894L238.444 35.9314L226.754 20.3014H213.004ZM218.944 23.2714H225.254L253.134 60.5514H246.824L218.944 23.2714Z" fill="black"/>
<path d="M372.667 28.95C379.827 50.96 367.787 74.6 345.777 81.76C323.767 88.92 300.127 76.88 292.967 54.87C285.807 32.86 297.847 9.22001 319.857 2.06001C324.047 0.700013 328.427 0 332.827 0C350.967 0.01 367.047 11.69 372.667 28.95ZM332.827 3.78C311.767 3.81 294.717 20.9 294.747 41.97C294.777 63.03 311.867 80.08 332.937 80.05C353.997 80.02 371.047 62.93 371.017 41.86C371.007 37.87 370.377 33.91 369.147 30.12C364.027 14.39 349.367 3.75 332.827 3.78Z" fill="#E73933"/>
<path fill-rule="evenodd" clip-rule="evenodd" d="M315.897 55.88C314.367 55.45 313.137 54.3 312.597 52.81C311.177 48.9 310.757 32.61 313.487 29.4C314.377 28.32 315.667 27.63 317.067 27.5C324.417 26.72 347.157 26.83 349.777 27.78C351.237 28.24 352.417 29.33 352.987 30.74C354.547 34.76 354.577 49.43 352.787 53.31C352.297 54.32 351.477 55.14 350.467 55.63C347.747 57.19 319.497 57.16 315.897 55.88ZM327.577 48.22L340.817 41.35L327.577 34.42V48.22Z" fill="#E73933"/>
<path d="M469.5 28.95C476.66 50.96 464.62 74.6 442.61 81.76C420.6 88.92 396.96 76.88 389.8 54.87C382.64 32.86 394.68 9.22001 416.69 2.06001C420.88 0.700013 425.26 0 429.66 0C447.81 0.01 463.89 11.69 469.5 28.95ZM429.66 3.78C408.6 3.81 391.55 20.9 391.58 41.97C391.61 63.04 408.7 80.08 429.77 80.05C450.83 80.02 467.88 62.93 467.85 41.86C467.84 37.87 467.21 33.91 465.98 30.12C460.87 14.39 446.2 3.75 429.66 3.78Z" fill="#1186C8"/>
<path d="M413.91 34.62H421.93V60.41H413.91V34.62ZM417.93 21.79C420.49 21.81 422.55 23.89 422.54 26.46C422.52 29.02 420.44 31.08 417.87 31.07C415.32 31.05 413.26 28.98 413.26 26.43C413.28 23.87 415.36 21.79 417.93 21.79Z" fill="#1186C8"/>
<path d="M426.87 34.62H434.55V38.14C436.11 35.45 439.04 33.85 442.15 33.98C450.25 33.98 451.76 39.32 451.76 46.27V60.41H443.94V47.87C443.94 44.88 443.94 41.03 439.78 41.03C435.62 41.03 434.97 44.3 434.97 47.51V60.28H426.87V34.62Z" fill="#1186C8"/>
<defs>
<linearGradient id="paint0_linear_53_3322" x1="10.2505" y1="78.2652" x2="74.8669" y2="5.01659" gradientUnits="userSpaceOnUse">
<stop stop-color="#ECAE53"/>
<stop offset="0.33" stop-color="#E0213F"/>
<stop offset="0.65" stop-color="#9B358B"/>
<stop offset="1" stop-color="#4A4A9A"/>
</linearGradient>
<linearGradient id="paint1_linear_53_3322" x1="4.94571" y1="84.2741" x2="82.4965" y2="-3.61307" gradientUnits="userSpaceOnUse">
<stop stop-color="#ECAE53"/>
<stop offset="0.33" stop-color="#E0213F"/>
<stop offset="0.65" stop-color="#9B358B"/>
<stop offset="1" stop-color="#4A4A9A"/>
</linearGradient>
<linearGradient id="paint2_linear_53_3322" x1="4.94209" y1="84.2711" x2="82.4929" y2="-3.616" gradientUnits="userSpaceOnUse">
<stop stop-color="#ECAE53"/>
<stop offset="0.33" stop-color="#E0213F"/>
<stop offset="0.65" stop-color="#9B358B"/>
<stop offset="1" stop-color="#4A4A9A"/>
</linearGradient>
<linearGradient id="paint3_linear_53_3322" x1="5.9396" y1="85.1268" x2="83.4626" y2="-2.76034" gradientUnits="userSpaceOnUse">
<stop stop-color="#ECAE53"/>
<stop offset="0.33" stop-color="#E0213F"/>
<stop offset="0.65" stop-color="#9B358B"/>
<stop offset="1" stop-color="#4A4A9A"/>
</linearGradient>
</defs>
</svg>
